<?xml version="1.0" encoding="utf-8" standalone="no"?>
<!DOCTYPE svg PUBLIC "-//W3C//DTD SVG 1.1//EN"
  "http://www.w3.org/Graphics/SVG/1.1/DTD/svg11.dtd">
<!-- Created with matplotlib (http://matplotlib.org/) -->
<svg height="432pt" version="1.1" viewBox="0 0 576 432" width="576pt" xmlns="http://www.w3.org/2000/svg" xmlns:xlink="http://www.w3.org/1999/xlink">
 <defs>
  <style type="text/css">
*{stroke-linecap:butt;stroke-linejoin:round;stroke-miterlimit:100000;}
  </style>
 </defs>
 <g id="figure_1">
  <g id="patch_1">
   <path d="M 0 432 
L 576 432 
L 576 0 
L 0 0 
z
" style="fill:#ffffff;"/>
  </g>
  <g id="axes_1">
   <g id="patch_2">
    <path d="M 72 388.8 
L 518.4 388.8 
L 518.4 43.2 
L 72 43.2 
z
" style="fill:#ffffff;"/>
   </g>
   <g id="line2d_1">
    <path clip-path="url(#p900ab27857)" d="M 72.000327 372.720879 
L 72.118727 371.216582 
L 72.465425 369.522987 
L 72.505654 369.343978 
L 72.662976 368.722252 
L 74.584202 361.029138 
L 74.745776 360.263329 
L 74.882819 359.576536 
L 75.031637 358.726672 
L 75.604342 355.836703 
L 75.744656 355.079995 
L 76.06486 353.38712 
L 76.348105 351.766427 
L 76.382121 351.572719 
L 76.610417 350.207524 
L 77.349602 345.935843 
L 77.409783 345.627086 
L 77.561218 344.686145 
L 77.935389 342.703915 
L 78.088786 341.814125 
L 78.107429 341.701081 
L 78.261481 340.90751 
L 78.28503 340.775411 
L 78.45936 339.881998 
L 78.487161 339.757915 
L 79.490947 334.885603 
L 79.512207 334.76594 
L 81.293445 327.366526 
L 81.32419 327.220964 
L 81.644067 325.96782 
L 81.755926 325.525655 
L 82.879421 321.393618 
L 82.918669 321.280256 
L 83.106736 320.609644 
L 83.144677 320.488754 
L 83.338304 319.812608 
L 83.497915 319.301856 
L 83.639538 318.845383 
L 83.889094 318.061793 
L 87.864663 306.573845 
L 87.940544 306.380099 
L 88.157393 305.861313 
L 88.474327 305.061927 
L 88.681691 304.571409 
L 88.966899 303.86177 
L 89.159544 303.417854 
L 89.340089 302.982468 
L 89.410409 302.829527 
L 89.58801 302.399243 
L 89.954658 301.509342 
L 90.122119 301.085828 
L 90.180665 300.958908 
L 90.645436 299.892366 
L 90.829578 299.477223 
L 91.031709 299.045058 
L 91.097777 298.899299 
L 91.254118 298.542499 
L 91.39476 298.277161 
L 91.560258 297.896962 
L 91.917095 297.179945 
L 92.166978 296.624099 
L 92.254961 296.44171 
L 94.46401 292.022032 
L 94.522229 291.907069 
L 95.604186 289.860995 
L 95.732071 289.630404 
L 95.959714 289.221034 
L 96.029053 289.075317 
L 96.174928 288.806635 
L 96.256369 288.665384 
L 96.409439 288.377639 
L 96.507561 288.204497 
L 97.418458 286.523406 
L 97.59475 286.200661 
L 97.810618 285.814025 
L 98.017655 285.486135 
L 98.306788 284.99763 
L 98.422572 284.80423 
L 98.567792 284.539013 
L 98.712358 284.292912 
L 99.000836 283.803326 
L 99.117601 283.621508 
L 99.29095 283.338239 
L 100.812165 280.864433 
L 100.919445 280.697447 
L 101.102606 280.422853 
L 106.237321 272.689317 
L 106.33119 272.555347 
L 106.461692 272.366221 
L 106.541498 272.250509 
L 106.881 271.789116 
L 107.164899 271.356365 
L 107.284935 271.188789 
L 108.48431 269.554927 
L 108.728307 269.225169 
L 108.880722 269.010201 
L 109.276481 268.478376 
L 109.382125 268.326756 
L 109.710179 267.882221 
L 109.857689 267.684912 
L 110.03856 267.433137 
L 110.222375 267.186595 
L 110.575613 266.71309 
L 110.739804 266.504246 
L 110.826805 266.393604 
L 111.331806 265.717434 
L 111.482259 265.509802 
L 111.645795 265.283925 
L 111.781858 265.107239 
L 112.936752 263.59915 
L 113.091784 263.414355 
L 113.179767 263.295394 
L 113.351807 263.068992 
L 114.217568 262.004431 
L 114.375545 261.804318 
L 114.493291 261.646873 
L 114.666966 261.439718 
L 114.834101 261.256702 
L 114.992404 261.07451 
L 115.100011 260.935994 
L 117.889287 257.601003 
L 118.008342 257.460005 
L 118.309903 257.104488 
L 118.921202 256.424059 
L 119.085719 256.242208 
L 119.1773 256.127137 
L 119.745425 255.459961 
L 120.015587 255.150184 
L 120.161134 254.989479 
L 120.317148 254.812266 
L 120.508813 254.592826 
L 120.65436 254.428376 
L 120.833923 254.217333 
L 120.950034 254.089689 
L 122.617124 252.213483 
L 122.728001 252.094461 
L 122.865045 251.950024 
L 122.976576 251.831589 
L 123.208471 251.583315 
L 123.380838 251.39632 
L 123.972513 250.743318 
L 124.675392 249.965654 
L 124.909249 249.724696 
L 125.511717 249.085516 
L 125.874768 248.726102 
L 126.056293 248.53081 
L 126.195299 248.384583 
L 126.342809 248.236628 
L 126.525643 248.034017 
L 126.946913 247.62257 
L 127.15166 247.414126 
L 127.327298 247.242767 
L 127.449623 247.110266 
L 128.953504 245.536877 
L 129.273054 245.219888 
L 131.1897 243.325098 
L 131.335248 243.198168 
L 131.619801 242.924597 
L 131.806559 242.752716 
L 132.458415 242.114255 
L 133.556726 241.100317 
L 133.734326 240.931222 
L 134.030981 240.663353 
L 135.726526 239.048134 
L 135.914593 238.875125 
L 136.122611 238.679583 
L 136.362356 238.466066 
L 136.859833 238.021794 
L 137.048554 237.856381 
L 137.182 237.726403 
L 138.023231 236.98627 
L 138.294701 236.746557 
L 138.688824 236.382903 
L 139.861053 235.33404 
L 139.984359 235.219985 
L 140.116497 235.100406 
L 140.400723 234.849627 
L 140.611358 234.664091 
L 140.775875 234.504761 
L 140.960344 234.337739 
L 141.341057 234.018882 
L 141.572951 233.821117 
L 141.879419 233.540349 
L 142.273868 233.187329 
L 142.42563 233.05058 
L 142.633321 232.87984 
L 142.821061 232.710678 
L 142.962684 232.591499 
L 143.393111 232.235357 
L 143.594261 232.055276 
L 143.789196 231.876916 
L 144.532306 231.254995 
L 144.689301 231.121129 
L 146.011983 229.978766 
L 146.185331 229.839445 
L 147.766401 228.520149 
L 149.096933 227.396726 
L 149.271917 227.257997 
L 150.26491 226.433197 
L 150.460499 226.270561 
L 151.024045 225.815662 
L 151.176788 225.689453 
L 151.69389 225.262896 
L 151.841073 225.137768 
L 152.009843 225.00628 
L 152.185154 224.867601 
L 152.389901 224.69731 
L 152.566193 224.55984 
L 152.796453 224.366646 
L 153.364905 223.889903 
L 153.534983 223.752403 
L 153.719125 223.591075 
L 154.644414 222.852856 
L 154.806315 222.72743 
L 154.994709 222.568723 
L 155.156937 222.443133 
L 155.626613 222.05962 
L 155.784916 221.931119 
L 155.930137 221.815813 
L 156.091056 221.683205 
L 156.265713 221.551186 
L 156.416167 221.434197 
L 156.678806 221.233041 
L 157.000973 220.97035 
L 157.145212 220.861432 
L 157.31529 220.728652 
L 157.504011 220.572149 
L 157.658716 220.456532 
L 157.941307 220.219026 
L 158.145727 220.05443 
L 158.326271 219.910741 
L 158.622272 219.678175 
L 158.768147 219.56437 
L 159.165213 219.249297 
L 159.698342 218.816687 
L 159.856972 218.697895 
L 160.022471 218.569303 
L 160.353141 218.307009 
L 160.652413 218.082221 
L 160.814314 217.949419 
L 161.266655 217.605669 
L 161.408605 217.495873 
L 163.273247 216.044642 
L 163.543409 215.83692 
L 164.786939 214.894995 
L 164.945897 214.77297 
L 165.107798 214.644298 
L 165.719097 214.181397 
L 165.891464 214.046652 
L 168.477301 212.046379 
L 168.639856 211.921357 
L 168.849837 211.753836 
L 169.082386 211.580441 
L 169.321803 211.396333 
L 169.854604 210.970732 
L 175.740606 206.579461 
L 175.910683 206.459607 
L 176.102348 206.318428 
L 176.412413 206.072282 
L 176.856578 205.753685 
L 177.361578 205.374487 
L 178.065112 204.843782 
L 178.406903 204.590097 
L 179.133004 204.061366 
L 179.293924 203.942981 
L 179.525491 203.77428 
L 179.703092 203.628419 
L 180.01839 203.396085 
L 180.185851 203.274033 
L 180.481198 203.064791 
L 180.757574 202.859555 
L 181.047361 202.651996 
L 181.804861 202.09898 
L 183.231553 201.053326 
L 183.402285 200.93873 
L 183.660345 200.744997 
L 183.799351 200.647206 
L 184.012602 200.492244 
L 184.329863 200.265542 
L 185.208053 199.624742 
L 185.435696 199.461155 
L 185.596943 199.341462 
L 186.081337 199.004601 
L 186.500972 198.705234 
L 192.426549 194.433148 
L 192.788618 194.18575 
L 193.283806 193.829009 
L 194.13256 193.241313 
L 194.316375 193.106528 
L 194.87894 192.717205 
L 195.027758 192.605055 
L 195.245916 192.446381 
L 195.548458 192.237256 
L 195.948468 191.952397 
L 196.272597 191.723674 
L 198.032902 190.491331 
L 198.348855 190.265721 
L 198.506504 190.147328 
L 198.695552 190.018437 
L 198.897356 189.882039 
L 199.104393 189.746343 
L 199.86222 189.196303 
L 200.065005 189.048364 
L 200.251764 188.917263 
L 200.399601 188.814699 
L 200.578183 188.689301 
L 201.845916 187.816765 
L 202.068326 187.665149 
L 202.257047 187.53035 
L 202.720509 187.199761 
L 202.893858 187.085116 
L 203.197381 186.873359 
L 203.353395 186.761902 
L 203.549965 186.629289 
L 204.016044 186.308293 
L 204.202149 186.187995 
L 204.428483 186.029335 
L 204.666592 185.873936 
L 212.858129 180.206037 
L 213.030496 180.091201 
L 239.150852 162.652536 
L 239.386672 162.492011 
L 239.708838 162.281589 
L 239.888728 162.160258 
L 240.324389 161.875706 
L 240.557265 161.726562 
L 241.031848 161.419491 
L 241.20258 161.306663 
L 241.360883 161.196775 
L 242.120673 160.68076 
L 242.499096 160.439327 
L 242.713002 160.301198 
L 242.95569 160.141258 
L 243.869531 159.563147 
L 244.052364 159.446961 
L 244.803651 158.977216 
L 245.00153 158.851719 
L 245.252394 158.693278 
L 245.433266 158.577013 
L 246.111614 158.154997 
L 246.26632 158.064135 
L 246.858976 157.679892 
L 247.067321 157.547443 
L 247.280572 157.411786 
L 247.434951 157.306744 
L 247.639044 157.171673 
L 248.463922 156.641965 
L 248.664744 156.516243 
L 250.214742 155.522202 
L 250.583026 155.289761 
L 251.223107 154.884502 
L 251.401362 154.767844 
L 252.108493 154.310945 
L 252.291981 154.189488 
L 252.471871 154.078655 
L 252.685122 153.936416 
L 253.077937 153.678105 
L 253.287263 153.54419 
L 253.666668 153.308177 
L 253.886134 153.171557 
L 254.053268 153.062624 
L 254.595881 152.717224 
L 255.14013 152.355855 
L 255.45412 152.155596 
L 255.634664 152.042449 
L 256.324134 151.615406 
L 256.497809 151.498949 
L 256.682278 151.380025 
L 256.968794 151.200614 
L 257.170271 151.063085 
L 257.350161 150.958319 
L 258.221156 150.410877 
L 258.380767 150.317159 
L 258.596308 150.177425 
L 259.014961 149.909961 
L 259.212513 149.779848 
L 259.740082 149.449191 
L 259.928475 149.323984 
L 260.157426 149.185996 
L 260.795872 148.784135 
L 261.067997 148.621077 
L 261.19948 148.54008 
L 261.384603 148.426395 
L 264.900308 146.24444 
L 265.086413 146.125249 
L 265.404 145.938755 
L 265.761164 145.706417 
L 266.223317 145.430226 
L 266.683182 145.15397 
L 266.979837 144.977471 
L 267.126038 144.896099 
L 267.383444 144.754998 
L 267.730142 144.541996 
L 267.909377 144.425843 
L 268.77056 143.889174 
L 269.251357 143.606621 
L 270.47003 142.838026 
L 270.686225 142.701915 
L 270.895224 142.575033 
L 272.092965 141.832941 
L 272.302618 141.711685 
L 272.552829 141.558721 
L 272.794863 141.415579 
L 272.998302 141.286739 
L 274.900884 140.140679 
L 275.092222 140.021325 
L 275.575962 139.711136 
L 275.82879 139.562933 
L 276.02536 139.443227 
L 276.266086 139.31206 
L 281.790018 136.021738 
L 281.961404 135.912805 
L 282.432388 135.63197 
L 282.684889 135.491257 
L 283.022101 135.288503 
L 283.256285 135.150141 
L 283.528082 134.991507 
L 283.734138 134.869306 
L 283.865948 134.790598 
L 284.182555 134.60423 
L 284.470052 134.437993 
L 284.71274 134.298404 
L 285.173912 134.022719 
L 285.431645 133.876529 
L 285.930431 133.587698 
L 286.108032 133.482651 
L 286.49823 133.243305 
L 286.91165 132.986318 
L 287.395063 132.703264 
L 287.579859 132.591363 
L 287.946508 132.371137 
L 288.175786 132.232681 
L 288.594439 131.984768 
L 288.796897 131.869823 
L 289.174012 131.646545 
L 289.326101 131.559756 
L 292.04244 129.980131 
L 292.253075 129.856891 
L 292.451935 129.744559 
L 292.71392 129.595017 
L 293.36087 129.218676 
L 293.553516 129.102177 
L 313.227268 117.965851 
L 313.436268 117.842995 
L 313.591627 117.761543 
L 313.909542 117.594913 
L 314.05836 117.518555 
L 314.501871 117.276063 
L 314.810628 117.110818 
L 315.009161 116.999713 
L 315.294041 116.847137 
L 315.479164 116.744889 
L 325.925213 111.189344 
L 326.164958 111.064371 
L 326.50217 110.898518 
L 328.744581 109.74927 
L 329.078195 109.586881 
L 330.329575 108.92891 
L 330.463021 108.856887 
L 330.783879 108.699545 
L 330.997458 108.582522 
L 331.245706 108.457512 
L 331.4933 108.33224 
L 331.698702 108.225685 
L 332.1167 108.028802 
L 332.456856 107.860196 
L 333.376585 107.399416 
L 334.106284 107.032841 
L 335.882943 106.143538 
L 336.153432 106.00101 
L 336.461862 105.842572 
L 341.813753 103.209636 
L 342.114333 103.063409 
L 343.194 102.543284 
L 343.373563 102.457647 
L 343.628353 102.331766 
L 343.957061 102.16258 
L 344.650782 101.838674 
L 344.959866 101.69166 
L 345.263389 101.557605 
L 345.617282 101.384149 
L 346.40193 101.021272 
L 348.576309 99.96665 
L 348.784 99.873373 
L 349.702094 99.426357 
L 349.939875 99.30851 
L 350.412169 99.095475 
L 352.162335 98.274721 
L 352.31148 98.210217 
L 352.599958 98.074215 
L 352.76513 97.999383 
L 353.429415 97.695008 
L 353.774149 97.533669 
L 354.014221 97.423069 
L 354.325267 97.284931 
L 355.641408 96.695387 
L 355.948529 96.55754 
L 356.916337 96.131339 
L 357.353633 95.943697 
L 357.703928 95.789211 
L 358.057494 95.626673 
L 358.247523 95.540015 
L 358.63445 95.372477 
L 359.90153 94.809721 
L 360.442181 94.572182 
L 360.670805 94.47499 
L 362.335932 93.741943 
L 362.611001 93.615154 
L 362.854997 93.504451 
L 363.268744 93.333205 
L 363.489518 93.237278 
L 363.747251 93.126182 
L 364.331403 92.878493 
L 364.799117 92.680299 
L 365.506249 92.383509 
L 365.869299 92.234763 
L 366.196045 92.105099 
L 366.40112 92.018685 
L 366.752723 91.866811 
L 366.979057 91.772204 
L 367.469012 91.560854 
L 367.752911 91.445404 
L 368.030596 91.32634 
L 368.386778 91.183184 
L 368.68376 91.06353 
L 369.023262 90.932892 
L 369.806274 90.6126 
L 372.926221 89.333089 
L 373.123446 89.259962 
L 373.819784 88.986589 
L 374.58775 88.674799 
L 374.903048 88.545782 
L 375.123495 88.458272 
L 375.741009 88.216604 
L 376.171764 88.042848 
L 376.539393 87.890506 
L 391.06175 82.6044 
L 391.680899 82.403791 
L 391.924568 82.321618 
L 392.447885 82.150184 
L 392.636278 82.085727 
L 393.697302 81.728768 
L 394.08979 81.593889 
L 395.061196 81.286397 
L 395.216882 81.239795 
L 395.845843 81.04059 
L 396.576197 80.802461 
L 396.935323 80.682002 
L 397.42495 80.528462 
L 398.410094 80.217842 
L 398.602412 80.157074 
L 399.919207 79.741547 
L 401.198716 79.348362 
L 401.552936 79.237266 
L 402.073962 79.081235 
L 402.226051 79.034502 
L 402.599895 78.923415 
L 403.217082 78.740943 
L 403.464349 78.669987 
L 403.913092 78.541054 
L 405.279602 78.150977 
L 405.83072 77.992146 
L 407.775822 77.441366 
L 408.615417 77.208949 
L 409.725829 76.905511 
L 409.88773 76.861719 
L 410.78162 76.621652 
L 411.0665 76.541736 
L 411.906096 76.309356 
L 412.627946 76.120263 
L 416.364098 75.16625 
L 435.025887 71.006246 
L 436.345626 70.743445 
L 436.563129 70.698847 
L 437.157093 70.587817 
L 437.574438 70.508266 
L 438.824183 70.266008 
L 439.4502 70.155146 
L 439.689617 70.110389 
L 440.853669 69.892672 
L 441.44796 69.781567 
L 443.151028 69.474777 
L 443.395679 69.431069 
L 444.633322 69.213296 
L 445.4268 69.079887 
L 446.182993 68.947087 
L 448.094733 68.623218 
L 449.10506 68.454153 
L 449.459934 68.396278 
L 455.936956 67.356937 
L 456.137779 67.327181 
L 480.974374 63.884334 
L 483.832336 63.527375 
L 488.891497 62.915424 
L 489.837392 62.804393 
L 490.301835 62.750095 
L 492.164514 62.532182 
L 494.223437 62.291263 
L 498.037432 61.852281 
L 498.313155 61.822309 
L 515.471718 59.74564 
L 515.80664 59.689929 
L 517.240854 59.413869 
L 517.602597 59.317164 
L 517.935557 59.206087 
L 518.399346 58.914971 
L 518.399346 58.914971 
" style="fill:none;stroke:#0000ff;stroke-linecap:square;"/>
   </g>
   <g id="line2d_2">
    <path clip-path="url(#p900ab27857)" d="M 72.000327 216 
L 518.399346 216 
L 518.399346 216 
" style="fill:none;stroke:#000000;stroke-linecap:square;"/>
   </g>
   <g id="patch_3">
    <path d="M 72 43.2 
L 518.4 43.2 
" style="fill:none;stroke:#000000;stroke-linecap:square;stroke-linejoin:miter;"/>
   </g>
   <g id="patch_4">
    <path d="M 518.4 388.8 
L 518.4 43.2 
" style="fill:none;stroke:#000000;stroke-linecap:square;stroke-linejoin:miter;"/>
   </g>
   <g id="patch_5">
    <path d="M 72 388.8 
L 518.4 388.8 
" style="fill:none;stroke:#000000;stroke-linecap:square;stroke-linejoin:miter;"/>
   </g>
   <g id="patch_6">
    <path d="M 72 388.8 
L 72 43.2 
" style="fill:none;stroke:#000000;stroke-linecap:square;stroke-linejoin:miter;"/>
   </g>
   <g id="matplotlib.axis_1">
    <g id="xtick_1">
     <g id="line2d_3">
      <defs>
       <path d="M 0 0 
L 0 -4 
" id="m9c70707f3e" style="stroke:#000000;stroke-width:0.5;"/>
      </defs>
      <g>
       <use style="stroke:#000000;stroke-width:0.5;" x="72.0003270727" xlink:href="#m9c70707f3e" y="388.8"/>
      </g>
     </g>
     <g id="line2d_4">
      <defs>
       <path d="M 0 0 
L 0 4 
" id="mb59c3de936" style="stroke:#000000;stroke-width:0.5;"/>
      </defs>
      <g>
       <use style="stroke:#000000;stroke-width:0.5;" x="72.0003270727" xlink:href="#mb59c3de936" y="43.2"/>
      </g>
     </g>
     <g id="text_1">
      <!-- 0 -->
      <defs>
       <path d="M 31.78125 66.40625 
Q 24.171875 66.40625 20.328125 58.90625 
Q 16.5 51.421875 16.5 36.375 
Q 16.5 21.390625 20.328125 13.890625 
Q 24.171875 6.390625 31.78125 6.390625 
Q 39.453125 6.390625 43.28125 13.890625 
Q 47.125 21.390625 47.125 36.375 
Q 47.125 51.421875 43.28125 58.90625 
Q 39.453125 66.40625 31.78125 66.40625 
M 31.78125 74.21875 
Q 44.046875 74.21875 50.515625 64.515625 
Q 56.984375 54.828125 56.984375 36.375 
Q 56.984375 17.96875 50.515625 8.265625 
Q 44.046875 -1.421875 31.78125 -1.421875 
Q 19.53125 -1.421875 13.0625 8.265625 
Q 6.59375 17.96875 6.59375 36.375 
Q 6.59375 54.828125 13.0625 64.515625 
Q 19.53125 74.21875 31.78125 74.21875 
" id="BitstreamVeraSans-Roman-30"/>
      </defs>
      <g transform="translate(68.1828270727 401.918125)scale(0.12 -0.12)">
       <use xlink:href="#BitstreamVeraSans-Roman-30"/>
      </g>
     </g>
    </g>
    <g id="xtick_2">
     <g id="line2d_5">
      <g>
       <use style="stroke:#000000;stroke-width:0.5;" x="137.414875655" xlink:href="#m9c70707f3e" y="388.8"/>
      </g>
     </g>
     <g id="line2d_6">
      <g>
       <use style="stroke:#000000;stroke-width:0.5;" x="137.414875655" xlink:href="#mb59c3de936" y="43.2"/>
      </g>
     </g>
     <g id="text_2">
      <!-- 200000 -->
      <defs>
       <path d="M 19.1875 8.296875 
L 53.609375 8.296875 
L 53.609375 0 
L 7.328125 0 
L 7.328125 8.296875 
Q 12.9375 14.109375 22.625 23.890625 
Q 32.328125 33.6875 34.8125 36.53125 
Q 39.546875 41.84375 41.421875 45.53125 
Q 43.3125 49.21875 43.3125 52.78125 
Q 43.3125 58.59375 39.234375 62.25 
Q 35.15625 65.921875 28.609375 65.921875 
Q 23.96875 65.921875 18.8125 64.3125 
Q 13.671875 62.703125 7.8125 59.421875 
L 7.8125 69.390625 
Q 13.765625 71.78125 18.9375 73 
Q 24.125 74.21875 28.421875 74.21875 
Q 39.75 74.21875 46.484375 68.546875 
Q 53.21875 62.890625 53.21875 53.421875 
Q 53.21875 48.921875 51.53125 44.890625 
Q 49.859375 40.875 45.40625 35.40625 
Q 44.1875 33.984375 37.640625 27.21875 
Q 31.109375 20.453125 19.1875 8.296875 
" id="BitstreamVeraSans-Roman-32"/>
      </defs>
      <g transform="translate(114.509875655 401.918125)scale(0.12 -0.12)">
       <use xlink:href="#BitstreamVeraSans-Roman-32"/>
       <use x="63.623046875" xlink:href="#BitstreamVeraSans-Roman-30"/>
       <use x="127.24609375" xlink:href="#BitstreamVeraSans-Roman-30"/>
       <use x="190.869140625" xlink:href="#BitstreamVeraSans-Roman-30"/>
       <use x="254.4921875" xlink:href="#BitstreamVeraSans-Roman-30"/>
       <use x="318.115234375" xlink:href="#BitstreamVeraSans-Roman-30"/>
      </g>
     </g>
    </g>
    <g id="xtick_3">
     <g id="line2d_7">
      <g>
       <use style="stroke:#000000;stroke-width:0.5;" x="202.829424238" xlink:href="#m9c70707f3e" y="388.8"/>
      </g>
     </g>
     <g id="line2d_8">
      <g>
       <use style="stroke:#000000;stroke-width:0.5;" x="202.829424238" xlink:href="#mb59c3de936" y="43.2"/>
      </g>
     </g>
     <g id="text_3">
      <!-- 400000 -->
      <defs>
       <path d="M 37.796875 64.3125 
L 12.890625 25.390625 
L 37.796875 25.390625 
z
M 35.203125 72.90625 
L 47.609375 72.90625 
L 47.609375 25.390625 
L 58.015625 25.390625 
L 58.015625 17.1875 
L 47.609375 17.1875 
L 47.609375 0 
L 37.796875 0 
L 37.796875 17.1875 
L 4.890625 17.1875 
L 4.890625 26.703125 
z
" id="BitstreamVeraSans-Roman-34"/>
      </defs>
      <g transform="translate(179.924424238 401.918125)scale(0.12 -0.12)">
       <use xlink:href="#BitstreamVeraSans-Roman-34"/>
       <use x="63.623046875" xlink:href="#BitstreamVeraSans-Roman-30"/>
       <use x="127.24609375" xlink:href="#BitstreamVeraSans-Roman-30"/>
       <use x="190.869140625" xlink:href="#BitstreamVeraSans-Roman-30"/>
       <use x="254.4921875" xlink:href="#BitstreamVeraSans-Roman-30"/>
       <use x="318.115234375" xlink:href="#BitstreamVeraSans-Roman-30"/>
      </g>
     </g>
    </g>
    <g id="xtick_4">
     <g id="line2d_9">
      <g>
       <use style="stroke:#000000;stroke-width:0.5;" x="268.24397282" xlink:href="#m9c70707f3e" y="388.8"/>
      </g>
     </g>
     <g id="line2d_10">
      <g>
       <use style="stroke:#000000;stroke-width:0.5;" x="268.24397282" xlink:href="#mb59c3de936" y="43.2"/>
      </g>
     </g>
     <g id="text_4">
      <!-- 600000 -->
      <defs>
       <path d="M 33.015625 40.375 
Q 26.375 40.375 22.484375 35.828125 
Q 18.609375 31.296875 18.609375 23.390625 
Q 18.609375 15.53125 22.484375 10.953125 
Q 26.375 6.390625 33.015625 6.390625 
Q 39.65625 6.390625 43.53125 10.953125 
Q 47.40625 15.53125 47.40625 23.390625 
Q 47.40625 31.296875 43.53125 35.828125 
Q 39.65625 40.375 33.015625 40.375 
M 52.59375 71.296875 
L 52.59375 62.3125 
Q 48.875 64.0625 45.09375 64.984375 
Q 41.3125 65.921875 37.59375 65.921875 
Q 27.828125 65.921875 22.671875 59.328125 
Q 17.53125 52.734375 16.796875 39.40625 
Q 19.671875 43.65625 24.015625 45.921875 
Q 28.375 48.1875 33.59375 48.1875 
Q 44.578125 48.1875 50.953125 41.515625 
Q 57.328125 34.859375 57.328125 23.390625 
Q 57.328125 12.15625 50.6875 5.359375 
Q 44.046875 -1.421875 33.015625 -1.421875 
Q 20.359375 -1.421875 13.671875 8.265625 
Q 6.984375 17.96875 6.984375 36.375 
Q 6.984375 53.65625 15.1875 63.9375 
Q 23.390625 74.21875 37.203125 74.21875 
Q 40.921875 74.21875 44.703125 73.484375 
Q 48.484375 72.75 52.59375 71.296875 
" id="BitstreamVeraSans-Roman-36"/>
      </defs>
      <g transform="translate(245.33897282 401.918125)scale(0.12 -0.12)">
       <use xlink:href="#BitstreamVeraSans-Roman-36"/>
       <use x="63.623046875" xlink:href="#BitstreamVeraSans-Roman-30"/>
       <use x="127.24609375" xlink:href="#BitstreamVeraSans-Roman-30"/>
       <use x="190.869140625" xlink:href="#BitstreamVeraSans-Roman-30"/>
       <use x="254.4921875" xlink:href="#BitstreamVeraSans-Roman-30"/>
       <use x="318.115234375" xlink:href="#BitstreamVeraSans-Roman-30"/>
      </g>
     </g>
    </g>
    <g id="xtick_5">
     <g id="line2d_11">
      <g>
       <use style="stroke:#000000;stroke-width:0.5;" x="333.658521403" xlink:href="#m9c70707f3e" y="388.8"/>
      </g>
     </g>
     <g id="line2d_12">
      <g>
       <use style="stroke:#000000;stroke-width:0.5;" x="333.658521403" xlink:href="#mb59c3de936" y="43.2"/>
      </g>
     </g>
     <g id="text_5">
      <!-- 800000 -->
      <defs>
       <path d="M 31.78125 34.625 
Q 24.75 34.625 20.71875 30.859375 
Q 16.703125 27.09375 16.703125 20.515625 
Q 16.703125 13.921875 20.71875 10.15625 
Q 24.75 6.390625 31.78125 6.390625 
Q 38.8125 6.390625 42.859375 10.171875 
Q 46.921875 13.96875 46.921875 20.515625 
Q 46.921875 27.09375 42.890625 30.859375 
Q 38.875 34.625 31.78125 34.625 
M 21.921875 38.8125 
Q 15.578125 40.375 12.03125 44.71875 
Q 8.5 49.078125 8.5 55.328125 
Q 8.5 64.0625 14.71875 69.140625 
Q 20.953125 74.21875 31.78125 74.21875 
Q 42.671875 74.21875 48.875 69.140625 
Q 55.078125 64.0625 55.078125 55.328125 
Q 55.078125 49.078125 51.53125 44.71875 
Q 48 40.375 41.703125 38.8125 
Q 48.828125 37.15625 52.796875 32.3125 
Q 56.78125 27.484375 56.78125 20.515625 
Q 56.78125 9.90625 50.3125 4.234375 
Q 43.84375 -1.421875 31.78125 -1.421875 
Q 19.734375 -1.421875 13.25 4.234375 
Q 6.78125 9.90625 6.78125 20.515625 
Q 6.78125 27.484375 10.78125 32.3125 
Q 14.796875 37.15625 21.921875 38.8125 
M 18.3125 54.390625 
Q 18.3125 48.734375 21.84375 45.5625 
Q 25.390625 42.390625 31.78125 42.390625 
Q 38.140625 42.390625 41.71875 45.5625 
Q 45.3125 48.734375 45.3125 54.390625 
Q 45.3125 60.0625 41.71875 63.234375 
Q 38.140625 66.40625 31.78125 66.40625 
Q 25.390625 66.40625 21.84375 63.234375 
Q 18.3125 60.0625 18.3125 54.390625 
" id="BitstreamVeraSans-Roman-38"/>
      </defs>
      <g transform="translate(310.753521403 401.918125)scale(0.12 -0.12)">
       <use xlink:href="#BitstreamVeraSans-Roman-38"/>
       <use x="63.623046875" xlink:href="#BitstreamVeraSans-Roman-30"/>
       <use x="127.24609375" xlink:href="#BitstreamVeraSans-Roman-30"/>
       <use x="190.869140625" xlink:href="#BitstreamVeraSans-Roman-30"/>
       <use x="254.4921875" xlink:href="#BitstreamVeraSans-Roman-30"/>
       <use x="318.115234375" xlink:href="#BitstreamVeraSans-Roman-30"/>
      </g>
     </g>
    </g>
    <g id="xtick_6">
     <g id="line2d_13">
      <g>
       <use style="stroke:#000000;stroke-width:0.5;" x="399.073069985" xlink:href="#m9c70707f3e" y="388.8"/>
      </g>
     </g>
     <g id="line2d_14">
      <g>
       <use style="stroke:#000000;stroke-width:0.5;" x="399.073069985" xlink:href="#mb59c3de936" y="43.2"/>
      </g>
     </g>
     <g id="text_6">
      <!-- 1000000 -->
      <defs>
       <path d="M 12.40625 8.296875 
L 28.515625 8.296875 
L 28.515625 63.921875 
L 10.984375 60.40625 
L 10.984375 69.390625 
L 28.421875 72.90625 
L 38.28125 72.90625 
L 38.28125 8.296875 
L 54.390625 8.296875 
L 54.390625 0 
L 12.40625 0 
z
" id="BitstreamVeraSans-Roman-31"/>
      </defs>
      <g transform="translate(372.350569985 401.918125)scale(0.12 -0.12)">
       <use xlink:href="#BitstreamVeraSans-Roman-31"/>
       <use x="63.623046875" xlink:href="#BitstreamVeraSans-Roman-30"/>
       <use x="127.24609375" xlink:href="#BitstreamVeraSans-Roman-30"/>
       <use x="190.869140625" xlink:href="#BitstreamVeraSans-Roman-30"/>
       <use x="254.4921875" xlink:href="#BitstreamVeraSans-Roman-30"/>
       <use x="318.115234375" xlink:href="#BitstreamVeraSans-Roman-30"/>
       <use x="381.73828125" xlink:href="#BitstreamVeraSans-Roman-30"/>
      </g>
     </g>
    </g>
    <g id="xtick_7">
     <g id="line2d_15">
      <g>
       <use style="stroke:#000000;stroke-width:0.5;" x="464.487618568" xlink:href="#m9c70707f3e" y="388.8"/>
      </g>
     </g>
     <g id="line2d_16">
      <g>
       <use style="stroke:#000000;stroke-width:0.5;" x="464.487618568" xlink:href="#mb59c3de936" y="43.2"/>
      </g>
     </g>
     <g id="text_7">
      <!-- 1200000 -->
      <g transform="translate(437.765118568 401.918125)scale(0.12 -0.12)">
       <use xlink:href="#BitstreamVeraSans-Roman-31"/>
       <use x="63.623046875" xlink:href="#BitstreamVeraSans-Roman-32"/>
       <use x="127.24609375" xlink:href="#BitstreamVeraSans-Roman-30"/>
       <use x="190.869140625" xlink:href="#BitstreamVeraSans-Roman-30"/>
       <use x="254.4921875" xlink:href="#BitstreamVeraSans-Roman-30"/>
       <use x="318.115234375" xlink:href="#BitstreamVeraSans-Roman-30"/>
       <use x="381.73828125" xlink:href="#BitstreamVeraSans-Roman-30"/>
      </g>
     </g>
    </g>
    <g id="text_8">
     <!-- Channel vs Channel -->
     <defs>
      <path id="BitstreamVeraSans-Roman-20"/>
      <path d="M 54.890625 33.015625 
L 54.890625 0 
L 45.90625 0 
L 45.90625 32.71875 
Q 45.90625 40.484375 42.875 44.328125 
Q 39.84375 48.1875 33.796875 48.1875 
Q 26.515625 48.1875 22.3125 43.546875 
Q 18.109375 38.921875 18.109375 30.90625 
L 18.109375 0 
L 9.078125 0 
L 9.078125 54.6875 
L 18.109375 54.6875 
L 18.109375 46.1875 
Q 21.34375 51.125 25.703125 53.5625 
Q 30.078125 56 35.796875 56 
Q 45.21875 56 50.046875 50.171875 
Q 54.890625 44.34375 54.890625 33.015625 
" id="BitstreamVeraSans-Roman-6e"/>
      <path d="M 9.421875 75.984375 
L 18.40625 75.984375 
L 18.40625 0 
L 9.421875 0 
z
" id="BitstreamVeraSans-Roman-6c"/>
      <path d="M 2.984375 54.6875 
L 12.5 54.6875 
L 29.59375 8.796875 
L 46.6875 54.6875 
L 56.203125 54.6875 
L 35.6875 0 
L 23.484375 0 
z
" id="BitstreamVeraSans-Roman-76"/>
      <path d="M 64.40625 67.28125 
L 64.40625 56.890625 
Q 59.421875 61.53125 53.78125 63.8125 
Q 48.140625 66.109375 41.796875 66.109375 
Q 29.296875 66.109375 22.65625 58.46875 
Q 16.015625 50.828125 16.015625 36.375 
Q 16.015625 21.96875 22.65625 14.328125 
Q 29.296875 6.6875 41.796875 6.6875 
Q 48.140625 6.6875 53.78125 8.984375 
Q 59.421875 11.28125 64.40625 15.921875 
L 64.40625 5.609375 
Q 59.234375 2.09375 53.4375 0.328125 
Q 47.65625 -1.421875 41.21875 -1.421875 
Q 24.65625 -1.421875 15.125 8.703125 
Q 5.609375 18.84375 5.609375 36.375 
Q 5.609375 53.953125 15.125 64.078125 
Q 24.65625 74.21875 41.21875 74.21875 
Q 47.75 74.21875 53.53125 72.484375 
Q 59.328125 70.75 64.40625 67.28125 
" id="BitstreamVeraSans-Roman-43"/>
      <path d="M 54.890625 33.015625 
L 54.890625 0 
L 45.90625 0 
L 45.90625 32.71875 
Q 45.90625 40.484375 42.875 44.328125 
Q 39.84375 48.1875 33.796875 48.1875 
Q 26.515625 48.1875 22.3125 43.546875 
Q 18.109375 38.921875 18.109375 30.90625 
L 18.109375 0 
L 9.078125 0 
L 9.078125 75.984375 
L 18.109375 75.984375 
L 18.109375 46.1875 
Q 21.34375 51.125 25.703125 53.5625 
Q 30.078125 56 35.796875 56 
Q 45.21875 56 50.046875 50.171875 
Q 54.890625 44.34375 54.890625 33.015625 
" id="BitstreamVeraSans-Roman-68"/>
      <path d="M 56.203125 29.59375 
L 56.203125 25.203125 
L 14.890625 25.203125 
Q 15.484375 15.921875 20.484375 11.0625 
Q 25.484375 6.203125 34.421875 6.203125 
Q 39.59375 6.203125 44.453125 7.46875 
Q 49.3125 8.734375 54.109375 11.28125 
L 54.109375 2.78125 
Q 49.265625 0.734375 44.1875 -0.34375 
Q 39.109375 -1.421875 33.890625 -1.421875 
Q 20.796875 -1.421875 13.15625 6.1875 
Q 5.515625 13.8125 5.515625 26.8125 
Q 5.515625 40.234375 12.765625 48.109375 
Q 20.015625 56 32.328125 56 
Q 43.359375 56 49.78125 48.890625 
Q 56.203125 41.796875 56.203125 29.59375 
M 47.21875 32.234375 
Q 47.125 39.59375 43.09375 43.984375 
Q 39.0625 48.390625 32.421875 48.390625 
Q 24.90625 48.390625 20.390625 44.140625 
Q 15.875 39.890625 15.1875 32.171875 
z
" id="BitstreamVeraSans-Roman-65"/>
      <path d="M 34.28125 27.484375 
Q 23.390625 27.484375 19.1875 25 
Q 14.984375 22.515625 14.984375 16.5 
Q 14.984375 11.71875 18.140625 8.90625 
Q 21.296875 6.109375 26.703125 6.109375 
Q 34.1875 6.109375 38.703125 11.40625 
Q 43.21875 16.703125 43.21875 25.484375 
L 43.21875 27.484375 
z
M 52.203125 31.203125 
L 52.203125 0 
L 43.21875 0 
L 43.21875 8.296875 
Q 40.140625 3.328125 35.546875 0.953125 
Q 30.953125 -1.421875 24.3125 -1.421875 
Q 15.921875 -1.421875 10.953125 3.296875 
Q 6 8.015625 6 15.921875 
Q 6 25.140625 12.171875 29.828125 
Q 18.359375 34.515625 30.609375 34.515625 
L 43.21875 34.515625 
L 43.21875 35.40625 
Q 43.21875 41.609375 39.140625 45 
Q 35.0625 48.390625 27.6875 48.390625 
Q 23 48.390625 18.546875 47.265625 
Q 14.109375 46.140625 10.015625 43.890625 
L 10.015625 52.203125 
Q 14.9375 54.109375 19.578125 55.046875 
Q 24.21875 56 28.609375 56 
Q 40.484375 56 46.34375 49.84375 
Q 52.203125 43.703125 52.203125 31.203125 
" id="BitstreamVeraSans-Roman-61"/>
      <path d="M 44.28125 53.078125 
L 44.28125 44.578125 
Q 40.484375 46.53125 36.375 47.5 
Q 32.28125 48.484375 27.875 48.484375 
Q 21.1875 48.484375 17.84375 46.4375 
Q 14.5 44.390625 14.5 40.28125 
Q 14.5 37.15625 16.890625 35.375 
Q 19.28125 33.59375 26.515625 31.984375 
L 29.59375 31.296875 
Q 39.15625 29.25 43.1875 25.515625 
Q 47.21875 21.78125 47.21875 15.09375 
Q 47.21875 7.46875 41.1875 3.015625 
Q 35.15625 -1.421875 24.609375 -1.421875 
Q 20.21875 -1.421875 15.453125 -0.5625 
Q 10.6875 0.296875 5.421875 2 
L 5.421875 11.28125 
Q 10.40625 8.6875 15.234375 7.390625 
Q 20.0625 6.109375 24.8125 6.109375 
Q 31.15625 6.109375 34.5625 8.28125 
Q 37.984375 10.453125 37.984375 14.40625 
Q 37.984375 18.0625 35.515625 20.015625 
Q 33.0625 21.96875 24.703125 23.78125 
L 21.578125 24.515625 
Q 13.234375 26.265625 9.515625 29.90625 
Q 5.8125 33.546875 5.8125 39.890625 
Q 5.8125 47.609375 11.28125 51.796875 
Q 16.75 56 26.8125 56 
Q 31.78125 56 36.171875 55.265625 
Q 40.578125 54.546875 44.28125 53.078125 
" id="BitstreamVeraSans-Roman-73"/>
     </defs>
     <g transform="translate(235.44375 418.531875)scale(0.12 -0.12)">
      <use xlink:href="#BitstreamVeraSans-Roman-43"/>
      <use x="69.82421875" xlink:href="#BitstreamVeraSans-Roman-68"/>
      <use x="133.203125" xlink:href="#BitstreamVeraSans-Roman-61"/>
      <use x="194.482421875" xlink:href="#BitstreamVeraSans-Roman-6e"/>
      <use x="257.861328125" xlink:href="#BitstreamVeraSans-Roman-6e"/>
      <use x="321.240234375" xlink:href="#BitstreamVeraSans-Roman-65"/>
      <use x="382.763671875" xlink:href="#BitstreamVeraSans-Roman-6c"/>
      <use x="410.546875" xlink:href="#BitstreamVeraSans-Roman-20"/>
      <use x="442.333984375" xlink:href="#BitstreamVeraSans-Roman-76"/>
      <use x="501.513671875" xlink:href="#BitstreamVeraSans-Roman-73"/>
      <use x="553.61328125" xlink:href="#BitstreamVeraSans-Roman-20"/>
      <use x="585.400390625" xlink:href="#BitstreamVeraSans-Roman-43"/>
      <use x="655.224609375" xlink:href="#BitstreamVeraSans-Roman-68"/>
      <use x="718.603515625" xlink:href="#BitstreamVeraSans-Roman-61"/>
      <use x="779.8828125" xlink:href="#BitstreamVeraSans-Roman-6e"/>
      <use x="843.26171875" xlink:href="#BitstreamVeraSans-Roman-6e"/>
      <use x="906.640625" xlink:href="#BitstreamVeraSans-Roman-65"/>
      <use x="968.1640625" xlink:href="#BitstreamVeraSans-Roman-6c"/>
     </g>
    </g>
   </g>
   <g id="matplotlib.axis_2">
    <g id="ytick_1">
     <g id="line2d_17">
      <defs>
       <path d="M 0 0 
L 4 0 
" id="m2ac2c56517" style="stroke:#000000;stroke-width:0.5;"/>
      </defs>
      <g>
       <use style="stroke:#000000;stroke-width:0.5;" x="72.0" xlink:href="#m2ac2c56517" y="373.090909091"/>
      </g>
     </g>
     <g id="line2d_18">
      <defs>
       <path d="M 0 0 
L -4 0 
" id="m3d4cabb08f" style="stroke:#000000;stroke-width:0.5;"/>
      </defs>
      <g>
       <use style="stroke:#000000;stroke-width:0.5;" x="518.4" xlink:href="#m3d4cabb08f" y="373.090909091"/>
      </g>
     </g>
     <g id="text_9">
      <!-- −1.0 -->
      <defs>
       <path d="M 10.59375 35.5 
L 73.1875 35.5 
L 73.1875 27.203125 
L 10.59375 27.203125 
z
" id="BitstreamVeraSans-Roman-2212"/>
       <path d="M 10.6875 12.40625 
L 21 12.40625 
L 21 0 
L 10.6875 0 
z
" id="BitstreamVeraSans-Roman-2e"/>
      </defs>
      <g transform="translate(38.860625 376.402159091)scale(0.12 -0.12)">
       <use xlink:href="#BitstreamVeraSans-Roman-2212"/>
       <use x="83.7890625" xlink:href="#BitstreamVeraSans-Roman-31"/>
       <use x="147.412109375" xlink:href="#BitstreamVeraSans-Roman-2e"/>
       <use x="179.19921875" xlink:href="#BitstreamVeraSans-Roman-30"/>
      </g>
     </g>
    </g>
    <g id="ytick_2">
     <g id="line2d_19">
      <g>
       <use style="stroke:#000000;stroke-width:0.5;" x="72.0" xlink:href="#m2ac2c56517" y="294.545454545"/>
      </g>
     </g>
     <g id="line2d_20">
      <g>
       <use style="stroke:#000000;stroke-width:0.5;" x="518.4" xlink:href="#m3d4cabb08f" y="294.545454545"/>
      </g>
     </g>
     <g id="text_10">
      <!-- −0.5 -->
      <defs>
       <path d="M 10.796875 72.90625 
L 49.515625 72.90625 
L 49.515625 64.59375 
L 19.828125 64.59375 
L 19.828125 46.734375 
Q 21.96875 47.46875 24.109375 47.828125 
Q 26.265625 48.1875 28.421875 48.1875 
Q 40.625 48.1875 47.75 41.5 
Q 54.890625 34.8125 54.890625 23.390625 
Q 54.890625 11.625 47.5625 5.09375 
Q 40.234375 -1.421875 26.90625 -1.421875 
Q 22.3125 -1.421875 17.546875 -0.640625 
Q 12.796875 0.140625 7.71875 1.703125 
L 7.71875 11.625 
Q 12.109375 9.234375 16.796875 8.0625 
Q 21.484375 6.890625 26.703125 6.890625 
Q 35.15625 6.890625 40.078125 11.328125 
Q 45.015625 15.765625 45.015625 23.390625 
Q 45.015625 31 40.078125 35.4375 
Q 35.15625 39.890625 26.703125 39.890625 
Q 22.75 39.890625 18.8125 39.015625 
Q 14.890625 38.140625 10.796875 36.28125 
z
" id="BitstreamVeraSans-Roman-35"/>
      </defs>
      <g transform="translate(38.860625 297.856704545)scale(0.12 -0.12)">
       <use xlink:href="#BitstreamVeraSans-Roman-2212"/>
       <use x="83.7890625" xlink:href="#BitstreamVeraSans-Roman-30"/>
       <use x="147.412109375" xlink:href="#BitstreamVeraSans-Roman-2e"/>
       <use x="179.19921875" xlink:href="#BitstreamVeraSans-Roman-35"/>
      </g>
     </g>
    </g>
    <g id="ytick_3">
     <g id="line2d_21">
      <g>
       <use style="stroke:#000000;stroke-width:0.5;" x="72.0" xlink:href="#m2ac2c56517" y="216.0"/>
      </g>
     </g>
     <g id="line2d_22">
      <g>
       <use style="stroke:#000000;stroke-width:0.5;" x="518.4" xlink:href="#m3d4cabb08f" y="216.0"/>
      </g>
     </g>
     <g id="text_11">
      <!-- 0.0 -->
      <g transform="translate(48.91625 219.31125)scale(0.12 -0.12)">
       <use xlink:href="#BitstreamVeraSans-Roman-30"/>
       <use x="63.623046875" xlink:href="#BitstreamVeraSans-Roman-2e"/>
       <use x="95.41015625" xlink:href="#BitstreamVeraSans-Roman-30"/>
      </g>
     </g>
    </g>
    <g id="ytick_4">
     <g id="line2d_23">
      <g>
       <use style="stroke:#000000;stroke-width:0.5;" x="72.0" xlink:href="#m2ac2c56517" y="137.454545455"/>
      </g>
     </g>
     <g id="line2d_24">
      <g>
       <use style="stroke:#000000;stroke-width:0.5;" x="518.4" xlink:href="#m3d4cabb08f" y="137.454545455"/>
      </g>
     </g>
     <g id="text_12">
      <!-- 0.5 -->
      <g transform="translate(48.91625 140.765795455)scale(0.12 -0.12)">
       <use xlink:href="#BitstreamVeraSans-Roman-30"/>
       <use x="63.623046875" xlink:href="#BitstreamVeraSans-Roman-2e"/>
       <use x="95.41015625" xlink:href="#BitstreamVeraSans-Roman-35"/>
      </g>
     </g>
    </g>
    <g id="ytick_5">
     <g id="line2d_25">
      <g>
       <use style="stroke:#000000;stroke-width:0.5;" x="72.0" xlink:href="#m2ac2c56517" y="58.9090909091"/>
      </g>
     </g>
     <g id="line2d_26">
      <g>
       <use style="stroke:#000000;stroke-width:0.5;" x="518.4" xlink:href="#m3d4cabb08f" y="58.9090909091"/>
      </g>
     </g>
     <g id="text_13">
      <!-- 1.0 -->
      <g transform="translate(48.91625 62.2203409091)scale(0.12 -0.12)">
       <use xlink:href="#BitstreamVeraSans-Roman-31"/>
       <use x="63.623046875" xlink:href="#BitstreamVeraSans-Roman-2e"/>
       <use x="95.41015625" xlink:href="#BitstreamVeraSans-Roman-30"/>
      </g>
     </g>
    </g>
    <g id="text_14">
     <!-- Correlation value -->
     <defs>
      <path d="M 8.5 21.578125 
L 8.5 54.6875 
L 17.484375 54.6875 
L 17.484375 21.921875 
Q 17.484375 14.15625 20.5 10.265625 
Q 23.53125 6.390625 29.59375 6.390625 
Q 36.859375 6.390625 41.078125 11.03125 
Q 45.3125 15.671875 45.3125 23.6875 
L 45.3125 54.6875 
L 54.296875 54.6875 
L 54.296875 0 
L 45.3125 0 
L 45.3125 8.40625 
Q 42.046875 3.421875 37.71875 1 
Q 33.40625 -1.421875 27.6875 -1.421875 
Q 18.265625 -1.421875 13.375 4.4375 
Q 8.5 10.296875 8.5 21.578125 
" id="BitstreamVeraSans-Roman-75"/>
      <path d="M 9.421875 54.6875 
L 18.40625 54.6875 
L 18.40625 0 
L 9.421875 0 
z
M 9.421875 75.984375 
L 18.40625 75.984375 
L 18.40625 64.59375 
L 9.421875 64.59375 
z
" id="BitstreamVeraSans-Roman-69"/>
      <path d="M 18.3125 70.21875 
L 18.3125 54.6875 
L 36.8125 54.6875 
L 36.8125 47.703125 
L 18.3125 47.703125 
L 18.3125 18.015625 
Q 18.3125 11.328125 20.140625 9.421875 
Q 21.96875 7.515625 27.59375 7.515625 
L 36.8125 7.515625 
L 36.8125 0 
L 27.59375 0 
Q 17.1875 0 13.234375 3.875 
Q 9.28125 7.765625 9.28125 18.015625 
L 9.28125 47.703125 
L 2.6875 47.703125 
L 2.6875 54.6875 
L 9.28125 54.6875 
L 9.28125 70.21875 
z
" id="BitstreamVeraSans-Roman-74"/>
      <path d="M 30.609375 48.390625 
Q 23.390625 48.390625 19.1875 42.75 
Q 14.984375 37.109375 14.984375 27.296875 
Q 14.984375 17.484375 19.15625 11.84375 
Q 23.34375 6.203125 30.609375 6.203125 
Q 37.796875 6.203125 41.984375 11.859375 
Q 46.1875 17.53125 46.1875 27.296875 
Q 46.1875 37.015625 41.984375 42.703125 
Q 37.796875 48.390625 30.609375 48.390625 
M 30.609375 56 
Q 42.328125 56 49.015625 48.375 
Q 55.71875 40.765625 55.71875 27.296875 
Q 55.71875 13.875 49.015625 6.21875 
Q 42.328125 -1.421875 30.609375 -1.421875 
Q 18.84375 -1.421875 12.171875 6.21875 
Q 5.515625 13.875 5.515625 27.296875 
Q 5.515625 40.765625 12.171875 48.375 
Q 18.84375 56 30.609375 56 
" id="BitstreamVeraSans-Roman-6f"/>
      <path d="M 41.109375 46.296875 
Q 39.59375 47.171875 37.8125 47.578125 
Q 36.03125 48 33.890625 48 
Q 26.265625 48 22.1875 43.046875 
Q 18.109375 38.09375 18.109375 28.8125 
L 18.109375 0 
L 9.078125 0 
L 9.078125 54.6875 
L 18.109375 54.6875 
L 18.109375 46.1875 
Q 20.953125 51.171875 25.484375 53.578125 
Q 30.03125 56 36.53125 56 
Q 37.453125 56 38.578125 55.875 
Q 39.703125 55.765625 41.0625 55.515625 
z
" id="BitstreamVeraSans-Roman-72"/>
     </defs>
     <g transform="translate(31.365 267.6159375)rotate(-90.0)scale(0.12 -0.12)">
      <use xlink:href="#BitstreamVeraSans-Roman-43"/>
      <use x="69.82421875" xlink:href="#BitstreamVeraSans-Roman-6f"/>
      <use x="131.005859375" xlink:href="#BitstreamVeraSans-Roman-72"/>
      <use x="172.103515625" xlink:href="#BitstreamVeraSans-Roman-72"/>
      <use x="213.185546875" xlink:href="#BitstreamVeraSans-Roman-65"/>
      <use x="274.708984375" xlink:href="#BitstreamVeraSans-Roman-6c"/>
      <use x="302.4921875" xlink:href="#BitstreamVeraSans-Roman-61"/>
      <use x="363.771484375" xlink:href="#BitstreamVeraSans-Roman-74"/>
      <use x="402.98046875" xlink:href="#BitstreamVeraSans-Roman-69"/>
      <use x="430.763671875" xlink:href="#BitstreamVeraSans-Roman-6f"/>
      <use x="491.9453125" xlink:href="#BitstreamVeraSans-Roman-6e"/>
      <use x="555.32421875" xlink:href="#BitstreamVeraSans-Roman-20"/>
      <use x="587.111328125" xlink:href="#BitstreamVeraSans-Roman-76"/>
      <use x="646.291015625" xlink:href="#BitstreamVeraSans-Roman-61"/>
      <use x="707.5703125" xlink:href="#BitstreamVeraSans-Roman-6c"/>
      <use x="735.353515625" xlink:href="#BitstreamVeraSans-Roman-75"/>
      <use x="798.732421875" xlink:href="#BitstreamVeraSans-Roman-65"/>
     </g>
    </g>
   </g>
   <g id="text_15">
    <!-- Sorted Correlations between 2 Channels (5 second intervals) -->
    <defs>
     <path d="M 8.015625 75.875 
L 15.828125 75.875 
Q 23.140625 64.359375 26.78125 53.3125 
Q 30.421875 42.28125 30.421875 31.390625 
Q 30.421875 20.453125 26.78125 9.375 
Q 23.140625 -1.703125 15.828125 -13.1875 
L 8.015625 -13.1875 
Q 14.5 -2 17.703125 9.0625 
Q 20.90625 20.125 20.90625 31.390625 
Q 20.90625 42.671875 17.703125 53.65625 
Q 14.5 64.65625 8.015625 75.875 
" id="BitstreamVeraSans-Roman-29"/>
     <path d="M 31 75.875 
Q 24.46875 64.65625 21.28125 53.65625 
Q 18.109375 42.671875 18.109375 31.390625 
Q 18.109375 20.125 21.3125 9.0625 
Q 24.515625 -2 31 -13.1875 
L 23.1875 -13.1875 
Q 15.875 -1.703125 12.234375 9.375 
Q 8.59375 20.453125 8.59375 31.390625 
Q 8.59375 42.28125 12.203125 53.3125 
Q 15.828125 64.359375 23.1875 75.875 
z
" id="BitstreamVeraSans-Roman-28"/>
     <path d="M 53.515625 70.515625 
L 53.515625 60.890625 
Q 47.90625 63.578125 42.921875 64.890625 
Q 37.9375 66.21875 33.296875 66.21875 
Q 25.25 66.21875 20.875 63.09375 
Q 16.5 59.96875 16.5 54.203125 
Q 16.5 49.359375 19.40625 46.890625 
Q 22.3125 44.4375 30.421875 42.921875 
L 36.375 41.703125 
Q 47.40625 39.59375 52.65625 34.296875 
Q 57.90625 29 57.90625 20.125 
Q 57.90625 9.515625 50.796875 4.046875 
Q 43.703125 -1.421875 29.984375 -1.421875 
Q 24.8125 -1.421875 18.96875 -0.25 
Q 13.140625 0.921875 6.890625 3.21875 
L 6.890625 13.375 
Q 12.890625 10.015625 18.65625 8.296875 
Q 24.421875 6.59375 29.984375 6.59375 
Q 38.421875 6.59375 43.015625 9.90625 
Q 47.609375 13.234375 47.609375 19.390625 
Q 47.609375 24.75 44.3125 27.78125 
Q 41.015625 30.8125 33.5 32.328125 
L 27.484375 33.5 
Q 16.453125 35.6875 11.515625 40.375 
Q 6.59375 45.0625 6.59375 53.421875 
Q 6.59375 63.09375 13.40625 68.65625 
Q 20.21875 74.21875 32.171875 74.21875 
Q 37.3125 74.21875 42.625 73.28125 
Q 47.953125 72.359375 53.515625 70.515625 
" id="BitstreamVeraSans-Roman-53"/>
     <path d="M 4.203125 54.6875 
L 13.1875 54.6875 
L 24.421875 12.015625 
L 35.59375 54.6875 
L 46.1875 54.6875 
L 57.421875 12.015625 
L 68.609375 54.6875 
L 77.59375 54.6875 
L 63.28125 0 
L 52.6875 0 
L 40.921875 44.828125 
L 29.109375 0 
L 18.5 0 
z
" id="BitstreamVeraSans-Roman-77"/>
     <path d="M 45.40625 46.390625 
L 45.40625 75.984375 
L 54.390625 75.984375 
L 54.390625 0 
L 45.40625 0 
L 45.40625 8.203125 
Q 42.578125 3.328125 38.25 0.953125 
Q 33.9375 -1.421875 27.875 -1.421875 
Q 17.96875 -1.421875 11.734375 6.484375 
Q 5.515625 14.40625 5.515625 27.296875 
Q 5.515625 40.1875 11.734375 48.09375 
Q 17.96875 56 27.875 56 
Q 33.9375 56 38.25 53.625 
Q 42.578125 51.265625 45.40625 46.390625 
M 14.796875 27.296875 
Q 14.796875 17.390625 18.875 11.75 
Q 22.953125 6.109375 30.078125 6.109375 
Q 37.203125 6.109375 41.296875 11.75 
Q 45.40625 17.390625 45.40625 27.296875 
Q 45.40625 37.203125 41.296875 42.84375 
Q 37.203125 48.484375 30.078125 48.484375 
Q 22.953125 48.484375 18.875 42.84375 
Q 14.796875 37.203125 14.796875 27.296875 
" id="BitstreamVeraSans-Roman-64"/>
     <path d="M 48.78125 52.59375 
L 48.78125 44.1875 
Q 44.96875 46.296875 41.140625 47.34375 
Q 37.3125 48.390625 33.40625 48.390625 
Q 24.65625 48.390625 19.8125 42.84375 
Q 14.984375 37.3125 14.984375 27.296875 
Q 14.984375 17.28125 19.8125 11.734375 
Q 24.65625 6.203125 33.40625 6.203125 
Q 37.3125 6.203125 41.140625 7.25 
Q 44.96875 8.296875 48.78125 10.40625 
L 48.78125 2.09375 
Q 45.015625 0.34375 40.984375 -0.53125 
Q 36.96875 -1.421875 32.421875 -1.421875 
Q 20.0625 -1.421875 12.78125 6.34375 
Q 5.515625 14.109375 5.515625 27.296875 
Q 5.515625 40.671875 12.859375 48.328125 
Q 20.21875 56 33.015625 56 
Q 37.15625 56 41.109375 55.140625 
Q 45.0625 54.296875 48.78125 52.59375 
" id="BitstreamVeraSans-Roman-63"/>
     <path d="M 48.6875 27.296875 
Q 48.6875 37.203125 44.609375 42.84375 
Q 40.53125 48.484375 33.40625 48.484375 
Q 26.265625 48.484375 22.1875 42.84375 
Q 18.109375 37.203125 18.109375 27.296875 
Q 18.109375 17.390625 22.1875 11.75 
Q 26.265625 6.109375 33.40625 6.109375 
Q 40.53125 6.109375 44.609375 11.75 
Q 48.6875 17.390625 48.6875 27.296875 
M 18.109375 46.390625 
Q 20.953125 51.265625 25.265625 53.625 
Q 29.59375 56 35.59375 56 
Q 45.5625 56 51.78125 48.09375 
Q 58.015625 40.1875 58.015625 27.296875 
Q 58.015625 14.40625 51.78125 6.484375 
Q 45.5625 -1.421875 35.59375 -1.421875 
Q 29.59375 -1.421875 25.265625 0.953125 
Q 20.953125 3.328125 18.109375 8.203125 
L 18.109375 0 
L 9.078125 0 
L 9.078125 75.984375 
L 18.109375 75.984375 
z
" id="BitstreamVeraSans-Roman-62"/>
    </defs>
    <g transform="translate(75.582 38.2)scale(0.144 -0.144)">
     <use xlink:href="#BitstreamVeraSans-Roman-53"/>
     <use x="63.4765625" xlink:href="#BitstreamVeraSans-Roman-6f"/>
     <use x="124.658203125" xlink:href="#BitstreamVeraSans-Roman-72"/>
     <use x="165.771484375" xlink:href="#BitstreamVeraSans-Roman-74"/>
     <use x="204.98046875" xlink:href="#BitstreamVeraSans-Roman-65"/>
     <use x="266.50390625" xlink:href="#BitstreamVeraSans-Roman-64"/>
     <use x="329.98046875" xlink:href="#BitstreamVeraSans-Roman-20"/>
     <use x="361.767578125" xlink:href="#BitstreamVeraSans-Roman-43"/>
     <use x="431.591796875" xlink:href="#BitstreamVeraSans-Roman-6f"/>
     <use x="492.7734375" xlink:href="#BitstreamVeraSans-Roman-72"/>
     <use x="533.87109375" xlink:href="#BitstreamVeraSans-Roman-72"/>
     <use x="574.953125" xlink:href="#BitstreamVeraSans-Roman-65"/>
     <use x="636.4765625" xlink:href="#BitstreamVeraSans-Roman-6c"/>
     <use x="664.259765625" xlink:href="#BitstreamVeraSans-Roman-61"/>
     <use x="725.5390625" xlink:href="#BitstreamVeraSans-Roman-74"/>
     <use x="764.748046875" xlink:href="#BitstreamVeraSans-Roman-69"/>
     <use x="792.53125" xlink:href="#BitstreamVeraSans-Roman-6f"/>
     <use x="853.712890625" xlink:href="#BitstreamVeraSans-Roman-6e"/>
     <use x="917.091796875" xlink:href="#BitstreamVeraSans-Roman-73"/>
     <use x="969.19140625" xlink:href="#BitstreamVeraSans-Roman-20"/>
     <use x="1000.97851562" xlink:href="#BitstreamVeraSans-Roman-62"/>
     <use x="1064.45507812" xlink:href="#BitstreamVeraSans-Roman-65"/>
     <use x="1125.97851562" xlink:href="#BitstreamVeraSans-Roman-74"/>
     <use x="1165.1875" xlink:href="#BitstreamVeraSans-Roman-77"/>
     <use x="1246.97460938" xlink:href="#BitstreamVeraSans-Roman-65"/>
     <use x="1308.49804688" xlink:href="#BitstreamVeraSans-Roman-65"/>
     <use x="1370.02148438" xlink:href="#BitstreamVeraSans-Roman-6e"/>
     <use x="1433.40039062" xlink:href="#BitstreamVeraSans-Roman-20"/>
     <use x="1465.1875" xlink:href="#BitstreamVeraSans-Roman-32"/>
     <use x="1528.81054688" xlink:href="#BitstreamVeraSans-Roman-20"/>
     <use x="1560.59765625" xlink:href="#BitstreamVeraSans-Roman-43"/>
     <use x="1630.421875" xlink:href="#BitstreamVeraSans-Roman-68"/>
     <use x="1693.80078125" xlink:href="#BitstreamVeraSans-Roman-61"/>
     <use x="1755.08007812" xlink:href="#BitstreamVeraSans-Roman-6e"/>
     <use x="1818.45898438" xlink:href="#BitstreamVeraSans-Roman-6e"/>
     <use x="1881.83789062" xlink:href="#BitstreamVeraSans-Roman-65"/>
     <use x="1943.36132812" xlink:href="#BitstreamVeraSans-Roman-6c"/>
     <use x="1971.14453125" xlink:href="#BitstreamVeraSans-Roman-73"/>
     <use x="2023.24414062" xlink:href="#BitstreamVeraSans-Roman-20"/>
     <use x="2055.03125" xlink:href="#BitstreamVeraSans-Roman-28"/>
     <use x="2094.04492188" xlink:href="#BitstreamVeraSans-Roman-35"/>
     <use x="2157.66796875" xlink:href="#BitstreamVeraSans-Roman-20"/>
     <use x="2189.45507812" xlink:href="#BitstreamVeraSans-Roman-73"/>
     <use x="2241.5546875" xlink:href="#BitstreamVeraSans-Roman-65"/>
     <use x="2303.078125" xlink:href="#BitstreamVeraSans-Roman-63"/>
     <use x="2358.05859375" xlink:href="#BitstreamVeraSans-Roman-6f"/>
     <use x="2419.24023438" xlink:href="#BitstreamVeraSans-Roman-6e"/>
     <use x="2482.61914062" xlink:href="#BitstreamVeraSans-Roman-64"/>
     <use x="2546.09570312" xlink:href="#BitstreamVeraSans-Roman-20"/>
     <use x="2577.8828125" xlink:href="#BitstreamVeraSans-Roman-69"/>
     <use x="2605.66601562" xlink:href="#BitstreamVeraSans-Roman-6e"/>
     <use x="2669.04492188" xlink:href="#BitstreamVeraSans-Roman-74"/>
     <use x="2708.25390625" xlink:href="#BitstreamVeraSans-Roman-65"/>
     <use x="2769.77734375" xlink:href="#BitstreamVeraSans-Roman-72"/>
     <use x="2810.890625" xlink:href="#BitstreamVeraSans-Roman-76"/>
     <use x="2870.0703125" xlink:href="#BitstreamVeraSans-Roman-61"/>
     <use x="2931.34960938" xlink:href="#BitstreamVeraSans-Roman-6c"/>
     <use x="2959.1328125" xlink:href="#BitstreamVeraSans-Roman-73"/>
     <use x="3011.23242188" xlink:href="#BitstreamVeraSans-Roman-29"/>
    </g>
   </g>
  </g>
 </g>
 <defs>
  <clipPath id="p900ab27857">
   <rect height="345.6" width="446.4" x="72.0" y="43.2"/>
  </clipPath>
 </defs>
</svg>
