<?xml version="1.0" encoding="utf-8" standalone="no"?>
<!DOCTYPE svg PUBLIC "-//W3C//DTD SVG 1.1//EN"
  "http://www.w3.org/Graphics/SVG/1.1/DTD/svg11.dtd">
<!-- Created with matplotlib (http://matplotlib.org/) -->
<svg height="432pt" version="1.1" viewBox="0 0 576 432" width="576pt" xmlns="http://www.w3.org/2000/svg" xmlns:xlink="http://www.w3.org/1999/xlink">
 <defs>
  <style type="text/css">
*{stroke-linecap:butt;stroke-linejoin:round;stroke-miterlimit:100000;}
  </style>
 </defs>
 <g id="figure_1">
  <g id="patch_1">
   <path d="M 0 432 
L 576 432 
L 576 0 
L 0 0 
z
" style="fill:#ffffff;"/>
  </g>
  <g id="axes_1">
   <g id="patch_2">
    <path d="M 72 388.8 
L 518.4 388.8 
L 518.4 43.2 
L 72 43.2 
z
" style="fill:#ffffff;"/>
   </g>
   <g id="line2d_1">
    <path clip-path="url(#pa96dec1d93)" d="M 72.000327 388.799849 
L 73.327915 387.776896 
L 73.511076 387.640955 
L 73.838149 387.395714 
L 73.9922 387.268066 
L 74.17438 387.1386 
L 76.098876 385.655222 
L 76.258487 385.525286 
L 76.60453 385.259731 
L 76.889738 385.043696 
L 77.028743 384.938029 
L 97.227121 369.186086 
L 97.378228 369.062302 
L 97.67194 368.832747 
L 98.272445 368.379819 
L 98.453643 368.239006 
L 98.70091 368.046828 
L 100.368327 366.717335 
L 100.540695 366.588079 
L 103.443465 364.322584 
L 103.644288 364.153054 
L 103.812403 364.013282 
L 104.995425 363.095899 
L 105.183819 362.95675 
L 105.449729 362.755118 
L 105.655458 362.587401 
L 105.938376 362.358365 
L 106.10224 362.221311 
L 106.241245 362.120269 
L 111.61963 357.91348 
L 111.866897 357.717316 
L 112.625705 357.138605 
L 113.971937 356.059821 
L 114.107345 355.962435 
L 114.270227 355.828801 
L 114.44423 355.693541 
L 114.681685 355.51078 
L 114.83868 355.388789 
L 115.135335 355.155078 
L 115.289713 355.041905 
L 115.444745 354.918988 
L 115.645568 354.768697 
L 116.30462 354.248774 
L 116.467829 354.119833 
L 116.723273 353.917803 
L 119.436995 351.740232 
L 119.584505 351.623099 
L 119.802663 351.44164 
L 120.041753 351.247647 
L 123.98625 348.117288 
L 124.176606 347.969099 
L 125.037462 347.274793 
L 125.18399 347.157311 
L 125.342621 347.027643 
L 125.526436 346.877544 
L 125.76062 346.698053 
L 125.99415 346.523258 
L 126.285571 346.294366 
L 126.535128 346.091303 
L 126.742492 345.925656 
L 126.951819 345.760843 
L 127.158856 345.600776 
L 127.633765 345.223611 
L 127.828046 345.063765 
L 128.004993 344.918441 
L 128.16624 344.792251 
L 128.374585 344.633926 
L 129.029058 344.110838 
L 129.507238 343.737657 
L 129.903977 343.433812 
L 131.002287 342.549008 
L 131.189373 342.39875 
L 131.397064 342.22645 
L 131.52495 342.109966 
L 160.719463 318.147974 
L 160.861739 318.037482 
L 161.016118 317.905585 
L 164.831748 314.721382 
L 164.978604 314.590492 
L 166.988139 312.872435 
L 167.183401 312.704269 
L 167.935669 312.078802 
L 168.081216 311.955978 
L 168.217278 311.850303 
L 168.408943 311.683065 
L 168.571171 311.535405 
L 168.754332 311.377272 
L 168.908056 311.238381 
L 169.060799 311.106886 
L 176.04511 305.155875 
L 176.211263 305.009432 
L 176.711357 304.581686 
L 176.839897 304.470684 
L 177.068194 304.274868 
L 180.142023 301.669657 
L 180.279721 301.558102 
L 192.341837 291.052735 
L 192.49229 290.923961 
L 193.288058 290.201915 
L 193.43982 290.068085 
L 193.757735 289.787409 
L 193.912767 289.652999 
L 194.085134 289.499833 
L 194.271893 289.3303 
L 194.866838 288.806421 
L 195.010423 288.685521 
L 195.646253 288.13417 
L 195.809135 287.991463 
L 195.959261 287.863148 
L 196.1035 287.733587 
L 196.24316 287.610122 
L 196.599016 287.309811 
L 196.778251 287.161037 
L 197.004913 286.96289 
L 197.189055 286.812955 
L 197.58514 286.45725 
L 197.795448 286.274806 
L 197.941976 286.14635 
L 198.681815 285.467947 
L 198.950342 285.240952 
L 199.196954 285.025033 
L 199.335633 284.906708 
L 199.491647 284.769544 
L 199.772275 284.537624 
L 199.952492 284.375535 
L 200.186676 284.170449 
L 200.359044 284.011872 
L 200.484313 283.897218 
L 200.754148 283.643031 
L 200.908853 283.503339 
L 201.474689 283.015696 
L 201.670606 282.844384 
L 201.813209 282.721219 
L 201.963336 282.591461 
L 202.771532 281.87642 
L 202.928854 281.734518 
L 203.913343 280.853324 
L 204.040248 280.742434 
L 204.869704 280.01272 
L 205.051884 279.847813 
L 205.19972 279.714751 
L 205.362276 279.580592 
L 205.532026 279.433438 
L 207.403864 277.735152 
L 207.596182 277.559308 
L 208.202575 277.007966 
L 208.522452 276.72435 
L 208.6523 276.609621 
L 209.663936 275.749204 
L 209.847097 275.579222 
L 210.031893 275.423041 
L 210.203933 275.276936 
L 210.842052 274.724807 
L 210.968957 274.616529 
L 211.142959 274.457324 
L 211.349996 274.263803 
L 211.553436 274.097491 
L 211.717626 273.946853 
L 211.916159 273.781131 
L 212.498676 273.268694 
L 214.341731 271.629565 
L 214.468635 271.503488 
L 214.795053 271.210031 
L 214.93962 271.086529 
L 215.241181 270.807089 
L 215.468169 270.604531 
L 215.697447 270.389858 
L 215.869487 270.236692 
L 216.200485 269.949762 
L 216.447098 269.731793 
L 216.625353 269.579179 
L 216.813419 269.422446 
L 217.074096 269.176733 
L 217.38318 268.902837 
L 217.553258 268.747199 
L 218.013776 268.340727 
L 218.443223 267.968309 
L 218.567183 267.854123 
L 218.721235 267.723766 
L 219.411031 267.11513 
L 220.104098 266.490127 
L 220.230021 266.375397 
L 220.376223 266.233711 
L 220.942386 265.712866 
L 221.937341 264.8342 
L 222.138491 264.64535 
L 223.19003 263.665289 
L 223.322494 263.546646 
L 225.045513 261.977293 
L 225.180594 261.85026 
L 225.36539 261.678892 
L 225.63915 261.431643 
L 225.821984 261.267457 
L 225.950851 261.152953 
L 226.375064 260.768194 
L 226.51407 260.648961 
L 227.041311 260.170054 
L 227.173776 260.055877 
L 227.328481 259.906485 
L 227.863245 259.421997 
L 228.034958 259.266631 
L 228.237743 259.086621 
L 228.379039 258.951246 
L 228.61126 258.749559 
L 228.763676 258.624961 
L 228.920998 258.48056 
L 229.12411 258.298564 
L 233.659301 254.16694 
L 233.887271 253.964046 
L 234.116549 253.760627 
L 234.267002 253.631684 
L 234.41255 253.500485 
L 234.551555 253.381309 
L 234.822372 253.126101 
L 235.00913 252.953731 
L 235.128839 252.842663 
L 235.276349 252.709395 
L 235.678975 252.335844 
L 235.85167 252.17677 
L 236.220281 251.843135 
L 236.711871 251.390726 
L 236.844008 251.264433 
L 237.044504 251.082906 
L 240.745986 247.738824 
L 240.873544 247.616614 
L 241.179685 247.347661 
L 241.407 247.144551 
L 242.036942 246.591795 
L 242.187723 246.462693 
L 242.495171 246.198029 
L 243.745243 245.016449 
L 243.901911 244.86849 
L 244.272157 244.524527 
L 244.416396 244.396362 
L 244.573064 244.255275 
L 244.716976 244.128167 
L 244.863832 244.001135 
L 245.036199 243.83045 
L 245.557226 243.340316 
L 245.812016 243.101682 
L 246.124697 242.822795 
L 246.377852 242.567372 
L 247.036903 241.95927 
L 247.25964 241.765111 
L 247.428082 241.612713 
L 247.589002 241.461711 
L 247.706748 241.347571 
L 247.874209 241.197851 
L 248.02728 241.053909 
L 248.205861 240.889966 
L 248.47635 240.635142 
L 248.714132 240.403418 
L 249.511536 239.696925 
L 249.668858 239.536578 
L 250.703716 238.565299 
L 250.830293 238.450664 
L 250.976494 238.327601 
L 251.127929 238.187048 
L 251.544293 237.807599 
L 251.745115 237.619264 
L 251.906035 237.468954 
L 252.073823 237.31636 
L 253.197973 236.273451 
L 253.361182 236.124172 
L 253.498879 236.001287 
L 253.684657 235.827166 
L 254.260632 235.315366 
L 254.461127 235.128033 
L 254.598171 235.005046 
L 254.909217 234.728733 
L 255.173819 234.476812 
L 255.443 234.220107 
L 255.616675 234.072494 
L 255.814882 233.884693 
L 255.968933 233.742052 
L 256.09551 233.626517 
L 256.529863 233.235944 
L 256.778111 233.012984 
L 257.00281 232.788142 
L 257.391045 232.443327 
L 257.786476 232.063269 
L 258.067104 231.796404 
L 258.183542 231.683473 
L 258.318296 231.564221 
L 258.57374 231.325025 
L 258.775217 231.152459 
L 260.066827 229.980729 
L 260.235597 229.828294 
L 260.988518 229.134994 
L 261.116731 229.016679 
L 261.316245 228.831378 
L 261.45198 228.704112 
L 272.830514 218.129821 
L 273.045728 217.940681 
L 273.188004 217.794182 
L 273.651794 217.367139 
L 273.783604 217.240321 
L 274.541104 216.541703 
L 274.893689 216.211908 
L 276.00868 215.16295 
L 276.203288 214.978736 
L 276.685393 214.504763 
L 276.802485 214.393751 
L 277.226044 214.000453 
L 277.355238 213.881764 
L 286.939778 204.951283 
L 287.112799 204.796788 
L 287.372822 204.570925 
L 287.519678 204.442385 
L 287.890905 204.077758 
L 288.073085 203.90609 
L 297.772754 194.869954 
L 298.003668 194.655608 
L 298.297052 194.399277 
L 298.501472 194.202909 
L 298.687904 194.034799 
L 298.843263 193.887233 
L 299.187998 193.561894 
L 299.386204 193.385301 
L 299.900362 192.897771 
L 300.061609 192.750186 
L 301.248556 191.656996 
L 301.38331 191.54192 
L 321.800172 172.988971 
L 321.955859 172.859757 
L 322.202799 172.647509 
L 322.487679 172.39511 
L 322.716303 172.185483 
L 323.434882 171.557652 
L 323.596128 171.41621 
L 323.795316 171.230684 
L 324.08085 170.98278 
L 324.212006 170.864409 
L 324.402363 170.695962 
L 324.667619 170.470193 
L 324.970815 170.181671 
L 325.098701 170.063206 
L 325.51997 169.694515 
L 325.6943 169.543596 
L 325.813355 169.433034 
L 326.069125 169.205411 
L 326.586227 168.748517 
L 326.794246 168.555782 
L 326.979369 168.387279 
L 327.182808 168.210574 
L 327.392135 168.021734 
L 327.52002 167.91061 
L 327.725095 167.736732 
L 328.02502 167.465794 
L 328.15585 167.347591 
L 328.328544 167.193602 
L 328.965355 166.633224 
L 329.10894 166.505096 
L 330.174543 165.573855 
L 330.353124 165.416364 
L 330.642911 165.161662 
L 330.803503 165.021399 
L 331.208092 164.654093 
L 331.928307 164.024764 
L 332.143848 163.841299 
L 332.30117 163.70156 
L 332.505263 163.528694 
L 332.648848 163.406821 
L 332.79832 163.278243 
L 333.036102 163.074347 
L 333.158427 162.963616 
L 333.551896 162.629176 
L 333.78379 162.432059 
L 334.092547 162.16878 
L 334.323133 161.96303 
L 334.707444 161.640444 
L 334.858878 161.501735 
L 335.078671 161.309056 
L 335.397894 161.020141 
L 335.713192 160.76263 
L 335.845003 160.652273 
L 335.989896 160.52143 
L 336.358507 160.207028 
L 336.537743 160.065098 
L 337.318792 159.394401 
L 337.465975 159.274344 
L 337.704411 159.075205 
L 337.987002 158.842919 
L 340.232356 156.901017 
L 340.399491 156.75536 
L 340.540786 156.636015 
L 340.822069 156.403785 
L 341.450375 155.853108 
L 341.843517 155.500204 
L 342.035508 155.348068 
L 342.346228 155.084022 
L 342.512053 154.953066 
L 346.200453 151.854678 
L 346.352215 151.727449 
L 346.654103 151.487017 
L 346.810771 151.360724 
L 346.955337 151.241547 
L 347.227134 151.005572 
L 347.44104 150.828886 
L 347.670972 150.639034 
L 347.805726 150.528266 
L 348.381047 150.066466 
L 348.580234 149.907176 
L 348.84778 149.688168 
L 351.000572 147.947671 
L 351.194527 147.791547 
L 351.6243 147.44559 
L 351.784893 147.312855 
L 351.922263 147.20203 
L 352.809285 146.493637 
L 353.549777 145.896087 
L 354.049872 145.49232 
L 354.207521 145.372189 
L 354.605568 145.049322 
L 354.92937 144.779002 
L 355.094869 144.648514 
L 362.116794 139.162229 
L 362.300609 139.029438 
L 362.594974 138.813744 
L 363.594508 138.053197 
L 363.831963 137.874151 
L 364.252252 137.559879 
L 364.430506 137.420141 
L 364.57867 137.309297 
L 365.67698 136.453806 
L 365.890559 136.304573 
L 366.590495 135.778334 
L 366.753704 135.647996 
L 367.16974 135.340316 
L 367.756836 134.913198 
L 367.952753 134.76919 
L 368.400188 134.425592 
L 369.616572 133.528453 
L 369.857297 133.360418 
L 370.012003 133.24038 
L 370.729927 132.696631 
L 370.944814 132.533672 
L 371.257169 132.318783 
L 374.323476 130.07804 
L 374.453323 129.979369 
L 374.742456 129.782233 
L 374.90959 129.66212 
L 375.072472 129.556239 
L 375.259231 129.423336 
L 375.447952 129.293935 
L 375.703395 129.11251 
L 375.869548 129.001517 
L 376.213302 128.76189 
L 376.758532 128.390053 
L 377.471878 127.887054 
L 377.636395 127.775949 
L 377.878756 127.606734 
L 378.049161 127.49355 
L 378.230032 127.361302 
L 378.415483 127.243361 
L 378.694149 127.048079 
L 378.900859 126.907423 
L 379.239052 126.673789 
L 379.377076 126.576747 
L 379.550098 126.455604 
L 380.776948 125.625918 
L 380.910066 125.539139 
L 381.172706 125.357096 
L 381.457586 125.16026 
L 381.640747 125.036982 
L 381.874604 124.884322 
L 382.138879 124.709939 
L 382.408714 124.53477 
L 382.584025 124.414507 
L 382.774708 124.280911 
L 383.711444 123.673454 
L 383.904417 123.551562 
L 395.508958 116.374106 
L 395.6931 116.263076 
L 395.916491 116.137307 
L 396.208894 115.974497 
L 396.448311 115.82547 
L 396.647826 115.703129 
L 396.848321 115.585301 
L 399.047558 114.327147 
L 399.33113 114.171042 
L 399.592789 114.029412 
L 400.020273 113.788343 
L 400.343421 113.62072 
L 400.500088 113.536132 
L 404.37034 111.448236 
L 404.862585 111.192093 
L 405.061445 111.089133 
L 406.087145 110.558344 
L 406.292874 110.457875 
L 406.537524 110.332593 
L 406.867541 110.163379 
L 407.152748 110.017105 
L 407.37712 109.893153 
L 407.553412 109.792796 
L 408.057104 109.531391 
L 408.479028 109.320884 
L 408.642891 109.230153 
L 410.235409 108.44631 
L 410.48104 108.335316 
L 411.346148 107.921719 
L 411.795873 107.704882 
L 412.096125 107.554881 
L 412.389183 107.409693 
L 412.54814 107.332745 
L 412.917732 107.156565 
L 414.1158 106.59864 
L 414.350965 106.487666 
L 414.878533 106.233395 
L 416.850782 105.323596 
L 417.014972 105.239307 
L 417.994882 104.806289 
L 420.757993 103.579185 
L 421.223417 103.371188 
L 421.768975 103.132385 
L 422.099645 102.980118 
L 422.395973 102.852028 
L 422.619364 102.757139 
L 423.518814 102.370115 
L 423.88121 102.216799 
L 425.531292 101.532863 
L 425.697772 101.463481 
L 426.019939 101.334173 
L 426.181186 101.270109 
L 426.54947 101.11625 
L 426.751928 101.033253 
L 427.151938 100.875631 
L 427.81982 100.608719 
L 430.229038 99.664014 
L 430.375894 99.605268 
L 430.714087 99.474612 
L 431.424162 99.195921 
L 431.718855 99.084834 
L 432.142087 98.924684 
L 432.6847 98.714065 
L 433.022894 98.583446 
L 433.397065 98.443445 
L 433.926923 98.239755 
L 434.296188 98.103293 
L 435.135456 97.79728 
L 435.454679 97.683778 
L 436.953327 97.139543 
L 437.118171 97.081115 
L 437.441973 96.963943 
L 437.817453 96.831189 
L 437.959075 96.777593 
L 438.738817 96.500738 
L 439.32395 96.287628 
L 439.723633 96.147758 
L 441.900956 95.408896 
L 442.595659 95.175899 
L 444.32849 94.601046 
L 444.839051 94.430745 
L 445.542911 94.197111 
L 445.965816 94.06196 
L 446.315457 93.950892 
L 447.57207 93.54913 
L 452.802945 91.936106 
L 454.063483 91.550523 
L 454.526291 91.412807 
L 456.996344 90.681735 
L 457.66946 90.493101 
L 457.866685 90.436079 
L 458.475367 90.254692 
L 458.650351 90.203006 
L 459.059519 90.09205 
L 459.599516 89.938754 
L 460.628487 89.645999 
L 461.127273 89.506148 
L 462.127135 89.221709 
L 462.768197 89.050228 
L 465.605553 88.286572 
L 465.8417 88.220842 
L 466.48865 88.046665 
L 467.649431 87.734584 
L 468.068738 87.622542 
L 469.497392 87.249207 
L 470.278769 87.047895 
L 470.491039 86.996209 
L 474.777654 85.900585 
L 474.995158 85.843843 
L 475.580945 85.699067 
L 476.375404 85.500358 
L 477.231354 85.290675 
L 477.515907 85.217323 
L 478.995584 84.850467 
L 479.747524 84.668799 
L 480.192998 84.557844 
L 480.645993 84.449285 
L 481.492785 84.240557 
L 482.067124 84.099564 
L 482.534838 83.988459 
L 483.458819 83.770836 
L 515.061241 76.419278 
L 515.430834 76.30012 
L 516.435928 75.956073 
L 516.683195 75.860567 
L 517.066851 75.704855 
L 518.336548 74.774381 
L 518.399346 74.629942 
L 518.399346 74.629942 
" style="fill:none;stroke:#0000ff;stroke-linecap:square;"/>
   </g>
   <g id="line2d_2">
    <path clip-path="url(#pa96dec1d93)" d="M 72.000327 388.8 
L 518.399346 388.8 
L 518.399346 388.8 
" style="fill:none;stroke:#000000;stroke-linecap:square;"/>
   </g>
   <g id="patch_3">
    <path d="M 72 43.2 
L 518.4 43.2 
" style="fill:none;stroke:#000000;stroke-linecap:square;stroke-linejoin:miter;"/>
   </g>
   <g id="patch_4">
    <path d="M 518.4 388.8 
L 518.4 43.2 
" style="fill:none;stroke:#000000;stroke-linecap:square;stroke-linejoin:miter;"/>
   </g>
   <g id="patch_5">
    <path d="M 72 388.8 
L 518.4 388.8 
" style="fill:none;stroke:#000000;stroke-linecap:square;stroke-linejoin:miter;"/>
   </g>
   <g id="patch_6">
    <path d="M 72 388.8 
L 72 43.2 
" style="fill:none;stroke:#000000;stroke-linecap:square;stroke-linejoin:miter;"/>
   </g>
   <g id="matplotlib.axis_1">
    <g id="xtick_1">
     <g id="line2d_3">
      <defs>
       <path d="M 0 0 
L 0 -4 
" id="m5c1f2bd923" style="stroke:#000000;stroke-width:0.5;"/>
      </defs>
      <g>
       <use style="stroke:#000000;stroke-width:0.5;" x="72.0003270727" xlink:href="#m5c1f2bd923" y="388.8"/>
      </g>
     </g>
     <g id="line2d_4">
      <defs>
       <path d="M 0 0 
L 0 4 
" id="m8cbd2d1318" style="stroke:#000000;stroke-width:0.5;"/>
      </defs>
      <g>
       <use style="stroke:#000000;stroke-width:0.5;" x="72.0003270727" xlink:href="#m8cbd2d1318" y="43.2"/>
      </g>
     </g>
     <g id="text_1">
      <!-- 0 -->
      <defs>
       <path d="M 31.78125 66.40625 
Q 24.171875 66.40625 20.328125 58.90625 
Q 16.5 51.421875 16.5 36.375 
Q 16.5 21.390625 20.328125 13.890625 
Q 24.171875 6.390625 31.78125 6.390625 
Q 39.453125 6.390625 43.28125 13.890625 
Q 47.125 21.390625 47.125 36.375 
Q 47.125 51.421875 43.28125 58.90625 
Q 39.453125 66.40625 31.78125 66.40625 
M 31.78125 74.21875 
Q 44.046875 74.21875 50.515625 64.515625 
Q 56.984375 54.828125 56.984375 36.375 
Q 56.984375 17.96875 50.515625 8.265625 
Q 44.046875 -1.421875 31.78125 -1.421875 
Q 19.53125 -1.421875 13.0625 8.265625 
Q 6.59375 17.96875 6.59375 36.375 
Q 6.59375 54.828125 13.0625 64.515625 
Q 19.53125 74.21875 31.78125 74.21875 
" id="BitstreamVeraSans-Roman-30"/>
      </defs>
      <g transform="translate(68.1828270727 401.918125)scale(0.12 -0.12)">
       <use xlink:href="#BitstreamVeraSans-Roman-30"/>
      </g>
     </g>
    </g>
    <g id="xtick_2">
     <g id="line2d_5">
      <g>
       <use style="stroke:#000000;stroke-width:0.5;" x="137.414875655" xlink:href="#m5c1f2bd923" y="388.8"/>
      </g>
     </g>
     <g id="line2d_6">
      <g>
       <use style="stroke:#000000;stroke-width:0.5;" x="137.414875655" xlink:href="#m8cbd2d1318" y="43.2"/>
      </g>
     </g>
     <g id="text_2">
      <!-- 200000 -->
      <defs>
       <path d="M 19.1875 8.296875 
L 53.609375 8.296875 
L 53.609375 0 
L 7.328125 0 
L 7.328125 8.296875 
Q 12.9375 14.109375 22.625 23.890625 
Q 32.328125 33.6875 34.8125 36.53125 
Q 39.546875 41.84375 41.421875 45.53125 
Q 43.3125 49.21875 43.3125 52.78125 
Q 43.3125 58.59375 39.234375 62.25 
Q 35.15625 65.921875 28.609375 65.921875 
Q 23.96875 65.921875 18.8125 64.3125 
Q 13.671875 62.703125 7.8125 59.421875 
L 7.8125 69.390625 
Q 13.765625 71.78125 18.9375 73 
Q 24.125 74.21875 28.421875 74.21875 
Q 39.75 74.21875 46.484375 68.546875 
Q 53.21875 62.890625 53.21875 53.421875 
Q 53.21875 48.921875 51.53125 44.890625 
Q 49.859375 40.875 45.40625 35.40625 
Q 44.1875 33.984375 37.640625 27.21875 
Q 31.109375 20.453125 19.1875 8.296875 
" id="BitstreamVeraSans-Roman-32"/>
      </defs>
      <g transform="translate(114.509875655 401.918125)scale(0.12 -0.12)">
       <use xlink:href="#BitstreamVeraSans-Roman-32"/>
       <use x="63.623046875" xlink:href="#BitstreamVeraSans-Roman-30"/>
       <use x="127.24609375" xlink:href="#BitstreamVeraSans-Roman-30"/>
       <use x="190.869140625" xlink:href="#BitstreamVeraSans-Roman-30"/>
       <use x="254.4921875" xlink:href="#BitstreamVeraSans-Roman-30"/>
       <use x="318.115234375" xlink:href="#BitstreamVeraSans-Roman-30"/>
      </g>
     </g>
    </g>
    <g id="xtick_3">
     <g id="line2d_7">
      <g>
       <use style="stroke:#000000;stroke-width:0.5;" x="202.829424238" xlink:href="#m5c1f2bd923" y="388.8"/>
      </g>
     </g>
     <g id="line2d_8">
      <g>
       <use style="stroke:#000000;stroke-width:0.5;" x="202.829424238" xlink:href="#m8cbd2d1318" y="43.2"/>
      </g>
     </g>
     <g id="text_3">
      <!-- 400000 -->
      <defs>
       <path d="M 37.796875 64.3125 
L 12.890625 25.390625 
L 37.796875 25.390625 
z
M 35.203125 72.90625 
L 47.609375 72.90625 
L 47.609375 25.390625 
L 58.015625 25.390625 
L 58.015625 17.1875 
L 47.609375 17.1875 
L 47.609375 0 
L 37.796875 0 
L 37.796875 17.1875 
L 4.890625 17.1875 
L 4.890625 26.703125 
z
" id="BitstreamVeraSans-Roman-34"/>
      </defs>
      <g transform="translate(179.924424238 401.918125)scale(0.12 -0.12)">
       <use xlink:href="#BitstreamVeraSans-Roman-34"/>
       <use x="63.623046875" xlink:href="#BitstreamVeraSans-Roman-30"/>
       <use x="127.24609375" xlink:href="#BitstreamVeraSans-Roman-30"/>
       <use x="190.869140625" xlink:href="#BitstreamVeraSans-Roman-30"/>
       <use x="254.4921875" xlink:href="#BitstreamVeraSans-Roman-30"/>
       <use x="318.115234375" xlink:href="#BitstreamVeraSans-Roman-30"/>
      </g>
     </g>
    </g>
    <g id="xtick_4">
     <g id="line2d_9">
      <g>
       <use style="stroke:#000000;stroke-width:0.5;" x="268.24397282" xlink:href="#m5c1f2bd923" y="388.8"/>
      </g>
     </g>
     <g id="line2d_10">
      <g>
       <use style="stroke:#000000;stroke-width:0.5;" x="268.24397282" xlink:href="#m8cbd2d1318" y="43.2"/>
      </g>
     </g>
     <g id="text_4">
      <!-- 600000 -->
      <defs>
       <path d="M 33.015625 40.375 
Q 26.375 40.375 22.484375 35.828125 
Q 18.609375 31.296875 18.609375 23.390625 
Q 18.609375 15.53125 22.484375 10.953125 
Q 26.375 6.390625 33.015625 6.390625 
Q 39.65625 6.390625 43.53125 10.953125 
Q 47.40625 15.53125 47.40625 23.390625 
Q 47.40625 31.296875 43.53125 35.828125 
Q 39.65625 40.375 33.015625 40.375 
M 52.59375 71.296875 
L 52.59375 62.3125 
Q 48.875 64.0625 45.09375 64.984375 
Q 41.3125 65.921875 37.59375 65.921875 
Q 27.828125 65.921875 22.671875 59.328125 
Q 17.53125 52.734375 16.796875 39.40625 
Q 19.671875 43.65625 24.015625 45.921875 
Q 28.375 48.1875 33.59375 48.1875 
Q 44.578125 48.1875 50.953125 41.515625 
Q 57.328125 34.859375 57.328125 23.390625 
Q 57.328125 12.15625 50.6875 5.359375 
Q 44.046875 -1.421875 33.015625 -1.421875 
Q 20.359375 -1.421875 13.671875 8.265625 
Q 6.984375 17.96875 6.984375 36.375 
Q 6.984375 53.65625 15.1875 63.9375 
Q 23.390625 74.21875 37.203125 74.21875 
Q 40.921875 74.21875 44.703125 73.484375 
Q 48.484375 72.75 52.59375 71.296875 
" id="BitstreamVeraSans-Roman-36"/>
      </defs>
      <g transform="translate(245.33897282 401.918125)scale(0.12 -0.12)">
       <use xlink:href="#BitstreamVeraSans-Roman-36"/>
       <use x="63.623046875" xlink:href="#BitstreamVeraSans-Roman-30"/>
       <use x="127.24609375" xlink:href="#BitstreamVeraSans-Roman-30"/>
       <use x="190.869140625" xlink:href="#BitstreamVeraSans-Roman-30"/>
       <use x="254.4921875" xlink:href="#BitstreamVeraSans-Roman-30"/>
       <use x="318.115234375" xlink:href="#BitstreamVeraSans-Roman-30"/>
      </g>
     </g>
    </g>
    <g id="xtick_5">
     <g id="line2d_11">
      <g>
       <use style="stroke:#000000;stroke-width:0.5;" x="333.658521403" xlink:href="#m5c1f2bd923" y="388.8"/>
      </g>
     </g>
     <g id="line2d_12">
      <g>
       <use style="stroke:#000000;stroke-width:0.5;" x="333.658521403" xlink:href="#m8cbd2d1318" y="43.2"/>
      </g>
     </g>
     <g id="text_5">
      <!-- 800000 -->
      <defs>
       <path d="M 31.78125 34.625 
Q 24.75 34.625 20.71875 30.859375 
Q 16.703125 27.09375 16.703125 20.515625 
Q 16.703125 13.921875 20.71875 10.15625 
Q 24.75 6.390625 31.78125 6.390625 
Q 38.8125 6.390625 42.859375 10.171875 
Q 46.921875 13.96875 46.921875 20.515625 
Q 46.921875 27.09375 42.890625 30.859375 
Q 38.875 34.625 31.78125 34.625 
M 21.921875 38.8125 
Q 15.578125 40.375 12.03125 44.71875 
Q 8.5 49.078125 8.5 55.328125 
Q 8.5 64.0625 14.71875 69.140625 
Q 20.953125 74.21875 31.78125 74.21875 
Q 42.671875 74.21875 48.875 69.140625 
Q 55.078125 64.0625 55.078125 55.328125 
Q 55.078125 49.078125 51.53125 44.71875 
Q 48 40.375 41.703125 38.8125 
Q 48.828125 37.15625 52.796875 32.3125 
Q 56.78125 27.484375 56.78125 20.515625 
Q 56.78125 9.90625 50.3125 4.234375 
Q 43.84375 -1.421875 31.78125 -1.421875 
Q 19.734375 -1.421875 13.25 4.234375 
Q 6.78125 9.90625 6.78125 20.515625 
Q 6.78125 27.484375 10.78125 32.3125 
Q 14.796875 37.15625 21.921875 38.8125 
M 18.3125 54.390625 
Q 18.3125 48.734375 21.84375 45.5625 
Q 25.390625 42.390625 31.78125 42.390625 
Q 38.140625 42.390625 41.71875 45.5625 
Q 45.3125 48.734375 45.3125 54.390625 
Q 45.3125 60.0625 41.71875 63.234375 
Q 38.140625 66.40625 31.78125 66.40625 
Q 25.390625 66.40625 21.84375 63.234375 
Q 18.3125 60.0625 18.3125 54.390625 
" id="BitstreamVeraSans-Roman-38"/>
      </defs>
      <g transform="translate(310.753521403 401.918125)scale(0.12 -0.12)">
       <use xlink:href="#BitstreamVeraSans-Roman-38"/>
       <use x="63.623046875" xlink:href="#BitstreamVeraSans-Roman-30"/>
       <use x="127.24609375" xlink:href="#BitstreamVeraSans-Roman-30"/>
       <use x="190.869140625" xlink:href="#BitstreamVeraSans-Roman-30"/>
       <use x="254.4921875" xlink:href="#BitstreamVeraSans-Roman-30"/>
       <use x="318.115234375" xlink:href="#BitstreamVeraSans-Roman-30"/>
      </g>
     </g>
    </g>
    <g id="xtick_6">
     <g id="line2d_13">
      <g>
       <use style="stroke:#000000;stroke-width:0.5;" x="399.073069985" xlink:href="#m5c1f2bd923" y="388.8"/>
      </g>
     </g>
     <g id="line2d_14">
      <g>
       <use style="stroke:#000000;stroke-width:0.5;" x="399.073069985" xlink:href="#m8cbd2d1318" y="43.2"/>
      </g>
     </g>
     <g id="text_6">
      <!-- 1000000 -->
      <defs>
       <path d="M 12.40625 8.296875 
L 28.515625 8.296875 
L 28.515625 63.921875 
L 10.984375 60.40625 
L 10.984375 69.390625 
L 28.421875 72.90625 
L 38.28125 72.90625 
L 38.28125 8.296875 
L 54.390625 8.296875 
L 54.390625 0 
L 12.40625 0 
z
" id="BitstreamVeraSans-Roman-31"/>
      </defs>
      <g transform="translate(372.350569985 401.918125)scale(0.12 -0.12)">
       <use xlink:href="#BitstreamVeraSans-Roman-31"/>
       <use x="63.623046875" xlink:href="#BitstreamVeraSans-Roman-30"/>
       <use x="127.24609375" xlink:href="#BitstreamVeraSans-Roman-30"/>
       <use x="190.869140625" xlink:href="#BitstreamVeraSans-Roman-30"/>
       <use x="254.4921875" xlink:href="#BitstreamVeraSans-Roman-30"/>
       <use x="318.115234375" xlink:href="#BitstreamVeraSans-Roman-30"/>
       <use x="381.73828125" xlink:href="#BitstreamVeraSans-Roman-30"/>
      </g>
     </g>
    </g>
    <g id="xtick_7">
     <g id="line2d_15">
      <g>
       <use style="stroke:#000000;stroke-width:0.5;" x="464.487618568" xlink:href="#m5c1f2bd923" y="388.8"/>
      </g>
     </g>
     <g id="line2d_16">
      <g>
       <use style="stroke:#000000;stroke-width:0.5;" x="464.487618568" xlink:href="#m8cbd2d1318" y="43.2"/>
      </g>
     </g>
     <g id="text_7">
      <!-- 1200000 -->
      <g transform="translate(437.765118568 401.918125)scale(0.12 -0.12)">
       <use xlink:href="#BitstreamVeraSans-Roman-31"/>
       <use x="63.623046875" xlink:href="#BitstreamVeraSans-Roman-32"/>
       <use x="127.24609375" xlink:href="#BitstreamVeraSans-Roman-30"/>
       <use x="190.869140625" xlink:href="#BitstreamVeraSans-Roman-30"/>
       <use x="254.4921875" xlink:href="#BitstreamVeraSans-Roman-30"/>
       <use x="318.115234375" xlink:href="#BitstreamVeraSans-Roman-30"/>
       <use x="381.73828125" xlink:href="#BitstreamVeraSans-Roman-30"/>
      </g>
     </g>
    </g>
    <g id="text_8">
     <!-- Channel vs Channel -->
     <defs>
      <path id="BitstreamVeraSans-Roman-20"/>
      <path d="M 54.890625 33.015625 
L 54.890625 0 
L 45.90625 0 
L 45.90625 32.71875 
Q 45.90625 40.484375 42.875 44.328125 
Q 39.84375 48.1875 33.796875 48.1875 
Q 26.515625 48.1875 22.3125 43.546875 
Q 18.109375 38.921875 18.109375 30.90625 
L 18.109375 0 
L 9.078125 0 
L 9.078125 54.6875 
L 18.109375 54.6875 
L 18.109375 46.1875 
Q 21.34375 51.125 25.703125 53.5625 
Q 30.078125 56 35.796875 56 
Q 45.21875 56 50.046875 50.171875 
Q 54.890625 44.34375 54.890625 33.015625 
" id="BitstreamVeraSans-Roman-6e"/>
      <path d="M 9.421875 75.984375 
L 18.40625 75.984375 
L 18.40625 0 
L 9.421875 0 
z
" id="BitstreamVeraSans-Roman-6c"/>
      <path d="M 2.984375 54.6875 
L 12.5 54.6875 
L 29.59375 8.796875 
L 46.6875 54.6875 
L 56.203125 54.6875 
L 35.6875 0 
L 23.484375 0 
z
" id="BitstreamVeraSans-Roman-76"/>
      <path d="M 64.40625 67.28125 
L 64.40625 56.890625 
Q 59.421875 61.53125 53.78125 63.8125 
Q 48.140625 66.109375 41.796875 66.109375 
Q 29.296875 66.109375 22.65625 58.46875 
Q 16.015625 50.828125 16.015625 36.375 
Q 16.015625 21.96875 22.65625 14.328125 
Q 29.296875 6.6875 41.796875 6.6875 
Q 48.140625 6.6875 53.78125 8.984375 
Q 59.421875 11.28125 64.40625 15.921875 
L 64.40625 5.609375 
Q 59.234375 2.09375 53.4375 0.328125 
Q 47.65625 -1.421875 41.21875 -1.421875 
Q 24.65625 -1.421875 15.125 8.703125 
Q 5.609375 18.84375 5.609375 36.375 
Q 5.609375 53.953125 15.125 64.078125 
Q 24.65625 74.21875 41.21875 74.21875 
Q 47.75 74.21875 53.53125 72.484375 
Q 59.328125 70.75 64.40625 67.28125 
" id="BitstreamVeraSans-Roman-43"/>
      <path d="M 54.890625 33.015625 
L 54.890625 0 
L 45.90625 0 
L 45.90625 32.71875 
Q 45.90625 40.484375 42.875 44.328125 
Q 39.84375 48.1875 33.796875 48.1875 
Q 26.515625 48.1875 22.3125 43.546875 
Q 18.109375 38.921875 18.109375 30.90625 
L 18.109375 0 
L 9.078125 0 
L 9.078125 75.984375 
L 18.109375 75.984375 
L 18.109375 46.1875 
Q 21.34375 51.125 25.703125 53.5625 
Q 30.078125 56 35.796875 56 
Q 45.21875 56 50.046875 50.171875 
Q 54.890625 44.34375 54.890625 33.015625 
" id="BitstreamVeraSans-Roman-68"/>
      <path d="M 56.203125 29.59375 
L 56.203125 25.203125 
L 14.890625 25.203125 
Q 15.484375 15.921875 20.484375 11.0625 
Q 25.484375 6.203125 34.421875 6.203125 
Q 39.59375 6.203125 44.453125 7.46875 
Q 49.3125 8.734375 54.109375 11.28125 
L 54.109375 2.78125 
Q 49.265625 0.734375 44.1875 -0.34375 
Q 39.109375 -1.421875 33.890625 -1.421875 
Q 20.796875 -1.421875 13.15625 6.1875 
Q 5.515625 13.8125 5.515625 26.8125 
Q 5.515625 40.234375 12.765625 48.109375 
Q 20.015625 56 32.328125 56 
Q 43.359375 56 49.78125 48.890625 
Q 56.203125 41.796875 56.203125 29.59375 
M 47.21875 32.234375 
Q 47.125 39.59375 43.09375 43.984375 
Q 39.0625 48.390625 32.421875 48.390625 
Q 24.90625 48.390625 20.390625 44.140625 
Q 15.875 39.890625 15.1875 32.171875 
z
" id="BitstreamVeraSans-Roman-65"/>
      <path d="M 34.28125 27.484375 
Q 23.390625 27.484375 19.1875 25 
Q 14.984375 22.515625 14.984375 16.5 
Q 14.984375 11.71875 18.140625 8.90625 
Q 21.296875 6.109375 26.703125 6.109375 
Q 34.1875 6.109375 38.703125 11.40625 
Q 43.21875 16.703125 43.21875 25.484375 
L 43.21875 27.484375 
z
M 52.203125 31.203125 
L 52.203125 0 
L 43.21875 0 
L 43.21875 8.296875 
Q 40.140625 3.328125 35.546875 0.953125 
Q 30.953125 -1.421875 24.3125 -1.421875 
Q 15.921875 -1.421875 10.953125 3.296875 
Q 6 8.015625 6 15.921875 
Q 6 25.140625 12.171875 29.828125 
Q 18.359375 34.515625 30.609375 34.515625 
L 43.21875 34.515625 
L 43.21875 35.40625 
Q 43.21875 41.609375 39.140625 45 
Q 35.0625 48.390625 27.6875 48.390625 
Q 23 48.390625 18.546875 47.265625 
Q 14.109375 46.140625 10.015625 43.890625 
L 10.015625 52.203125 
Q 14.9375 54.109375 19.578125 55.046875 
Q 24.21875 56 28.609375 56 
Q 40.484375 56 46.34375 49.84375 
Q 52.203125 43.703125 52.203125 31.203125 
" id="BitstreamVeraSans-Roman-61"/>
      <path d="M 44.28125 53.078125 
L 44.28125 44.578125 
Q 40.484375 46.53125 36.375 47.5 
Q 32.28125 48.484375 27.875 48.484375 
Q 21.1875 48.484375 17.84375 46.4375 
Q 14.5 44.390625 14.5 40.28125 
Q 14.5 37.15625 16.890625 35.375 
Q 19.28125 33.59375 26.515625 31.984375 
L 29.59375 31.296875 
Q 39.15625 29.25 43.1875 25.515625 
Q 47.21875 21.78125 47.21875 15.09375 
Q 47.21875 7.46875 41.1875 3.015625 
Q 35.15625 -1.421875 24.609375 -1.421875 
Q 20.21875 -1.421875 15.453125 -0.5625 
Q 10.6875 0.296875 5.421875 2 
L 5.421875 11.28125 
Q 10.40625 8.6875 15.234375 7.390625 
Q 20.0625 6.109375 24.8125 6.109375 
Q 31.15625 6.109375 34.5625 8.28125 
Q 37.984375 10.453125 37.984375 14.40625 
Q 37.984375 18.0625 35.515625 20.015625 
Q 33.0625 21.96875 24.703125 23.78125 
L 21.578125 24.515625 
Q 13.234375 26.265625 9.515625 29.90625 
Q 5.8125 33.546875 5.8125 39.890625 
Q 5.8125 47.609375 11.28125 51.796875 
Q 16.75 56 26.8125 56 
Q 31.78125 56 36.171875 55.265625 
Q 40.578125 54.546875 44.28125 53.078125 
" id="BitstreamVeraSans-Roman-73"/>
     </defs>
     <g transform="translate(235.44375 418.531875)scale(0.12 -0.12)">
      <use xlink:href="#BitstreamVeraSans-Roman-43"/>
      <use x="69.82421875" xlink:href="#BitstreamVeraSans-Roman-68"/>
      <use x="133.203125" xlink:href="#BitstreamVeraSans-Roman-61"/>
      <use x="194.482421875" xlink:href="#BitstreamVeraSans-Roman-6e"/>
      <use x="257.861328125" xlink:href="#BitstreamVeraSans-Roman-6e"/>
      <use x="321.240234375" xlink:href="#BitstreamVeraSans-Roman-65"/>
      <use x="382.763671875" xlink:href="#BitstreamVeraSans-Roman-6c"/>
      <use x="410.546875" xlink:href="#BitstreamVeraSans-Roman-20"/>
      <use x="442.333984375" xlink:href="#BitstreamVeraSans-Roman-76"/>
      <use x="501.513671875" xlink:href="#BitstreamVeraSans-Roman-73"/>
      <use x="553.61328125" xlink:href="#BitstreamVeraSans-Roman-20"/>
      <use x="585.400390625" xlink:href="#BitstreamVeraSans-Roman-43"/>
      <use x="655.224609375" xlink:href="#BitstreamVeraSans-Roman-68"/>
      <use x="718.603515625" xlink:href="#BitstreamVeraSans-Roman-61"/>
      <use x="779.8828125" xlink:href="#BitstreamVeraSans-Roman-6e"/>
      <use x="843.26171875" xlink:href="#BitstreamVeraSans-Roman-6e"/>
      <use x="906.640625" xlink:href="#BitstreamVeraSans-Roman-65"/>
      <use x="968.1640625" xlink:href="#BitstreamVeraSans-Roman-6c"/>
     </g>
    </g>
   </g>
   <g id="matplotlib.axis_2">
    <g id="ytick_1">
     <g id="line2d_17">
      <defs>
       <path d="M 0 0 
L 4 0 
" id="m78800f4bfa" style="stroke:#000000;stroke-width:0.5;"/>
      </defs>
      <g>
       <use style="stroke:#000000;stroke-width:0.5;" x="72.0" xlink:href="#m78800f4bfa" y="388.8"/>
      </g>
     </g>
     <g id="line2d_18">
      <defs>
       <path d="M 0 0 
L -4 0 
" id="mce4d6e3022" style="stroke:#000000;stroke-width:0.5;"/>
      </defs>
      <g>
       <use style="stroke:#000000;stroke-width:0.5;" x="518.4" xlink:href="#mce4d6e3022" y="388.8"/>
      </g>
     </g>
     <g id="text_9">
      <!-- 0.0 -->
      <defs>
       <path d="M 10.6875 12.40625 
L 21 12.40625 
L 21 0 
L 10.6875 0 
z
" id="BitstreamVeraSans-Roman-2e"/>
      </defs>
      <g transform="translate(48.91625 392.11125)scale(0.12 -0.12)">
       <use xlink:href="#BitstreamVeraSans-Roman-30"/>
       <use x="63.623046875" xlink:href="#BitstreamVeraSans-Roman-2e"/>
       <use x="95.41015625" xlink:href="#BitstreamVeraSans-Roman-30"/>
      </g>
     </g>
    </g>
    <g id="ytick_2">
     <g id="line2d_19">
      <g>
       <use style="stroke:#000000;stroke-width:0.5;" x="72.0" xlink:href="#m78800f4bfa" y="325.963636364"/>
      </g>
     </g>
     <g id="line2d_20">
      <g>
       <use style="stroke:#000000;stroke-width:0.5;" x="518.4" xlink:href="#mce4d6e3022" y="325.963636364"/>
      </g>
     </g>
     <g id="text_10">
      <!-- 0.2 -->
      <g transform="translate(48.91625 329.274886364)scale(0.12 -0.12)">
       <use xlink:href="#BitstreamVeraSans-Roman-30"/>
       <use x="63.623046875" xlink:href="#BitstreamVeraSans-Roman-2e"/>
       <use x="95.41015625" xlink:href="#BitstreamVeraSans-Roman-32"/>
      </g>
     </g>
    </g>
    <g id="ytick_3">
     <g id="line2d_21">
      <g>
       <use style="stroke:#000000;stroke-width:0.5;" x="72.0" xlink:href="#m78800f4bfa" y="263.127272727"/>
      </g>
     </g>
     <g id="line2d_22">
      <g>
       <use style="stroke:#000000;stroke-width:0.5;" x="518.4" xlink:href="#mce4d6e3022" y="263.127272727"/>
      </g>
     </g>
     <g id="text_11">
      <!-- 0.4 -->
      <g transform="translate(48.91625 266.438522727)scale(0.12 -0.12)">
       <use xlink:href="#BitstreamVeraSans-Roman-30"/>
       <use x="63.623046875" xlink:href="#BitstreamVeraSans-Roman-2e"/>
       <use x="95.41015625" xlink:href="#BitstreamVeraSans-Roman-34"/>
      </g>
     </g>
    </g>
    <g id="ytick_4">
     <g id="line2d_23">
      <g>
       <use style="stroke:#000000;stroke-width:0.5;" x="72.0" xlink:href="#m78800f4bfa" y="200.290909091"/>
      </g>
     </g>
     <g id="line2d_24">
      <g>
       <use style="stroke:#000000;stroke-width:0.5;" x="518.4" xlink:href="#mce4d6e3022" y="200.290909091"/>
      </g>
     </g>
     <g id="text_12">
      <!-- 0.6 -->
      <g transform="translate(48.91625 203.602159091)scale(0.12 -0.12)">
       <use xlink:href="#BitstreamVeraSans-Roman-30"/>
       <use x="63.623046875" xlink:href="#BitstreamVeraSans-Roman-2e"/>
       <use x="95.41015625" xlink:href="#BitstreamVeraSans-Roman-36"/>
      </g>
     </g>
    </g>
    <g id="ytick_5">
     <g id="line2d_25">
      <g>
       <use style="stroke:#000000;stroke-width:0.5;" x="72.0" xlink:href="#m78800f4bfa" y="137.454545455"/>
      </g>
     </g>
     <g id="line2d_26">
      <g>
       <use style="stroke:#000000;stroke-width:0.5;" x="518.4" xlink:href="#mce4d6e3022" y="137.454545455"/>
      </g>
     </g>
     <g id="text_13">
      <!-- 0.8 -->
      <g transform="translate(48.91625 140.765795455)scale(0.12 -0.12)">
       <use xlink:href="#BitstreamVeraSans-Roman-30"/>
       <use x="63.623046875" xlink:href="#BitstreamVeraSans-Roman-2e"/>
       <use x="95.41015625" xlink:href="#BitstreamVeraSans-Roman-38"/>
      </g>
     </g>
    </g>
    <g id="ytick_6">
     <g id="line2d_27">
      <g>
       <use style="stroke:#000000;stroke-width:0.5;" x="72.0" xlink:href="#m78800f4bfa" y="74.6181818182"/>
      </g>
     </g>
     <g id="line2d_28">
      <g>
       <use style="stroke:#000000;stroke-width:0.5;" x="518.4" xlink:href="#mce4d6e3022" y="74.6181818182"/>
      </g>
     </g>
     <g id="text_14">
      <!-- 1.0 -->
      <g transform="translate(48.91625 77.9294318182)scale(0.12 -0.12)">
       <use xlink:href="#BitstreamVeraSans-Roman-31"/>
       <use x="63.623046875" xlink:href="#BitstreamVeraSans-Roman-2e"/>
       <use x="95.41015625" xlink:href="#BitstreamVeraSans-Roman-30"/>
      </g>
     </g>
    </g>
    <g id="text_15">
     <!-- Correlation value -->
     <defs>
      <path d="M 8.5 21.578125 
L 8.5 54.6875 
L 17.484375 54.6875 
L 17.484375 21.921875 
Q 17.484375 14.15625 20.5 10.265625 
Q 23.53125 6.390625 29.59375 6.390625 
Q 36.859375 6.390625 41.078125 11.03125 
Q 45.3125 15.671875 45.3125 23.6875 
L 45.3125 54.6875 
L 54.296875 54.6875 
L 54.296875 0 
L 45.3125 0 
L 45.3125 8.40625 
Q 42.046875 3.421875 37.71875 1 
Q 33.40625 -1.421875 27.6875 -1.421875 
Q 18.265625 -1.421875 13.375 4.4375 
Q 8.5 10.296875 8.5 21.578125 
" id="BitstreamVeraSans-Roman-75"/>
      <path d="M 9.421875 54.6875 
L 18.40625 54.6875 
L 18.40625 0 
L 9.421875 0 
z
M 9.421875 75.984375 
L 18.40625 75.984375 
L 18.40625 64.59375 
L 9.421875 64.59375 
z
" id="BitstreamVeraSans-Roman-69"/>
      <path d="M 18.3125 70.21875 
L 18.3125 54.6875 
L 36.8125 54.6875 
L 36.8125 47.703125 
L 18.3125 47.703125 
L 18.3125 18.015625 
Q 18.3125 11.328125 20.140625 9.421875 
Q 21.96875 7.515625 27.59375 7.515625 
L 36.8125 7.515625 
L 36.8125 0 
L 27.59375 0 
Q 17.1875 0 13.234375 3.875 
Q 9.28125 7.765625 9.28125 18.015625 
L 9.28125 47.703125 
L 2.6875 47.703125 
L 2.6875 54.6875 
L 9.28125 54.6875 
L 9.28125 70.21875 
z
" id="BitstreamVeraSans-Roman-74"/>
      <path d="M 30.609375 48.390625 
Q 23.390625 48.390625 19.1875 42.75 
Q 14.984375 37.109375 14.984375 27.296875 
Q 14.984375 17.484375 19.15625 11.84375 
Q 23.34375 6.203125 30.609375 6.203125 
Q 37.796875 6.203125 41.984375 11.859375 
Q 46.1875 17.53125 46.1875 27.296875 
Q 46.1875 37.015625 41.984375 42.703125 
Q 37.796875 48.390625 30.609375 48.390625 
M 30.609375 56 
Q 42.328125 56 49.015625 48.375 
Q 55.71875 40.765625 55.71875 27.296875 
Q 55.71875 13.875 49.015625 6.21875 
Q 42.328125 -1.421875 30.609375 -1.421875 
Q 18.84375 -1.421875 12.171875 6.21875 
Q 5.515625 13.875 5.515625 27.296875 
Q 5.515625 40.765625 12.171875 48.375 
Q 18.84375 56 30.609375 56 
" id="BitstreamVeraSans-Roman-6f"/>
      <path d="M 41.109375 46.296875 
Q 39.59375 47.171875 37.8125 47.578125 
Q 36.03125 48 33.890625 48 
Q 26.265625 48 22.1875 43.046875 
Q 18.109375 38.09375 18.109375 28.8125 
L 18.109375 0 
L 9.078125 0 
L 9.078125 54.6875 
L 18.109375 54.6875 
L 18.109375 46.1875 
Q 20.953125 51.171875 25.484375 53.578125 
Q 30.03125 56 36.53125 56 
Q 37.453125 56 38.578125 55.875 
Q 39.703125 55.765625 41.0625 55.515625 
z
" id="BitstreamVeraSans-Roman-72"/>
     </defs>
     <g transform="translate(41.420625 267.6159375)rotate(-90.0)scale(0.12 -0.12)">
      <use xlink:href="#BitstreamVeraSans-Roman-43"/>
      <use x="69.82421875" xlink:href="#BitstreamVeraSans-Roman-6f"/>
      <use x="131.005859375" xlink:href="#BitstreamVeraSans-Roman-72"/>
      <use x="172.103515625" xlink:href="#BitstreamVeraSans-Roman-72"/>
      <use x="213.185546875" xlink:href="#BitstreamVeraSans-Roman-65"/>
      <use x="274.708984375" xlink:href="#BitstreamVeraSans-Roman-6c"/>
      <use x="302.4921875" xlink:href="#BitstreamVeraSans-Roman-61"/>
      <use x="363.771484375" xlink:href="#BitstreamVeraSans-Roman-74"/>
      <use x="402.98046875" xlink:href="#BitstreamVeraSans-Roman-69"/>
      <use x="430.763671875" xlink:href="#BitstreamVeraSans-Roman-6f"/>
      <use x="491.9453125" xlink:href="#BitstreamVeraSans-Roman-6e"/>
      <use x="555.32421875" xlink:href="#BitstreamVeraSans-Roman-20"/>
      <use x="587.111328125" xlink:href="#BitstreamVeraSans-Roman-76"/>
      <use x="646.291015625" xlink:href="#BitstreamVeraSans-Roman-61"/>
      <use x="707.5703125" xlink:href="#BitstreamVeraSans-Roman-6c"/>
      <use x="735.353515625" xlink:href="#BitstreamVeraSans-Roman-75"/>
      <use x="798.732421875" xlink:href="#BitstreamVeraSans-Roman-65"/>
     </g>
    </g>
   </g>
   <g id="text_16">
    <!-- Sorted Absolute Value Correlations between 2 Channels (5 second intervals) -->
    <defs>
     <path d="M 34.1875 63.1875 
L 20.796875 26.90625 
L 47.609375 26.90625 
z
M 28.609375 72.90625 
L 39.796875 72.90625 
L 67.578125 0 
L 57.328125 0 
L 50.6875 18.703125 
L 17.828125 18.703125 
L 11.1875 0 
L 0.78125 0 
z
" id="BitstreamVeraSans-Roman-41"/>
     <path d="M 10.796875 72.90625 
L 49.515625 72.90625 
L 49.515625 64.59375 
L 19.828125 64.59375 
L 19.828125 46.734375 
Q 21.96875 47.46875 24.109375 47.828125 
Q 26.265625 48.1875 28.421875 48.1875 
Q 40.625 48.1875 47.75 41.5 
Q 54.890625 34.8125 54.890625 23.390625 
Q 54.890625 11.625 47.5625 5.09375 
Q 40.234375 -1.421875 26.90625 -1.421875 
Q 22.3125 -1.421875 17.546875 -0.640625 
Q 12.796875 0.140625 7.71875 1.703125 
L 7.71875 11.625 
Q 12.109375 9.234375 16.796875 8.0625 
Q 21.484375 6.890625 26.703125 6.890625 
Q 35.15625 6.890625 40.078125 11.328125 
Q 45.015625 15.765625 45.015625 23.390625 
Q 45.015625 31 40.078125 35.4375 
Q 35.15625 39.890625 26.703125 39.890625 
Q 22.75 39.890625 18.8125 39.015625 
Q 14.890625 38.140625 10.796875 36.28125 
z
" id="BitstreamVeraSans-Roman-35"/>
     <path d="M 8.015625 75.875 
L 15.828125 75.875 
Q 23.140625 64.359375 26.78125 53.3125 
Q 30.421875 42.28125 30.421875 31.390625 
Q 30.421875 20.453125 26.78125 9.375 
Q 23.140625 -1.703125 15.828125 -13.1875 
L 8.015625 -13.1875 
Q 14.5 -2 17.703125 9.0625 
Q 20.90625 20.125 20.90625 31.390625 
Q 20.90625 42.671875 17.703125 53.65625 
Q 14.5 64.65625 8.015625 75.875 
" id="BitstreamVeraSans-Roman-29"/>
     <path d="M 31 75.875 
Q 24.46875 64.65625 21.28125 53.65625 
Q 18.109375 42.671875 18.109375 31.390625 
Q 18.109375 20.125 21.3125 9.0625 
Q 24.515625 -2 31 -13.1875 
L 23.1875 -13.1875 
Q 15.875 -1.703125 12.234375 9.375 
Q 8.59375 20.453125 8.59375 31.390625 
Q 8.59375 42.28125 12.203125 53.3125 
Q 15.828125 64.359375 23.1875 75.875 
z
" id="BitstreamVeraSans-Roman-28"/>
     <path d="M 53.515625 70.515625 
L 53.515625 60.890625 
Q 47.90625 63.578125 42.921875 64.890625 
Q 37.9375 66.21875 33.296875 66.21875 
Q 25.25 66.21875 20.875 63.09375 
Q 16.5 59.96875 16.5 54.203125 
Q 16.5 49.359375 19.40625 46.890625 
Q 22.3125 44.4375 30.421875 42.921875 
L 36.375 41.703125 
Q 47.40625 39.59375 52.65625 34.296875 
Q 57.90625 29 57.90625 20.125 
Q 57.90625 9.515625 50.796875 4.046875 
Q 43.703125 -1.421875 29.984375 -1.421875 
Q 24.8125 -1.421875 18.96875 -0.25 
Q 13.140625 0.921875 6.890625 3.21875 
L 6.890625 13.375 
Q 12.890625 10.015625 18.65625 8.296875 
Q 24.421875 6.59375 29.984375 6.59375 
Q 38.421875 6.59375 43.015625 9.90625 
Q 47.609375 13.234375 47.609375 19.390625 
Q 47.609375 24.75 44.3125 27.78125 
Q 41.015625 30.8125 33.5 32.328125 
L 27.484375 33.5 
Q 16.453125 35.6875 11.515625 40.375 
Q 6.59375 45.0625 6.59375 53.421875 
Q 6.59375 63.09375 13.40625 68.65625 
Q 20.21875 74.21875 32.171875 74.21875 
Q 37.3125 74.21875 42.625 73.28125 
Q 47.953125 72.359375 53.515625 70.515625 
" id="BitstreamVeraSans-Roman-53"/>
     <path d="M 28.609375 0 
L 0.78125 72.90625 
L 11.078125 72.90625 
L 34.1875 11.53125 
L 57.328125 72.90625 
L 67.578125 72.90625 
L 39.796875 0 
z
" id="BitstreamVeraSans-Roman-56"/>
     <path d="M 4.203125 54.6875 
L 13.1875 54.6875 
L 24.421875 12.015625 
L 35.59375 54.6875 
L 46.1875 54.6875 
L 57.421875 12.015625 
L 68.609375 54.6875 
L 77.59375 54.6875 
L 63.28125 0 
L 52.6875 0 
L 40.921875 44.828125 
L 29.109375 0 
L 18.5 0 
z
" id="BitstreamVeraSans-Roman-77"/>
     <path d="M 45.40625 46.390625 
L 45.40625 75.984375 
L 54.390625 75.984375 
L 54.390625 0 
L 45.40625 0 
L 45.40625 8.203125 
Q 42.578125 3.328125 38.25 0.953125 
Q 33.9375 -1.421875 27.875 -1.421875 
Q 17.96875 -1.421875 11.734375 6.484375 
Q 5.515625 14.40625 5.515625 27.296875 
Q 5.515625 40.1875 11.734375 48.09375 
Q 17.96875 56 27.875 56 
Q 33.9375 56 38.25 53.625 
Q 42.578125 51.265625 45.40625 46.390625 
M 14.796875 27.296875 
Q 14.796875 17.390625 18.875 11.75 
Q 22.953125 6.109375 30.078125 6.109375 
Q 37.203125 6.109375 41.296875 11.75 
Q 45.40625 17.390625 45.40625 27.296875 
Q 45.40625 37.203125 41.296875 42.84375 
Q 37.203125 48.484375 30.078125 48.484375 
Q 22.953125 48.484375 18.875 42.84375 
Q 14.796875 37.203125 14.796875 27.296875 
" id="BitstreamVeraSans-Roman-64"/>
     <path d="M 48.78125 52.59375 
L 48.78125 44.1875 
Q 44.96875 46.296875 41.140625 47.34375 
Q 37.3125 48.390625 33.40625 48.390625 
Q 24.65625 48.390625 19.8125 42.84375 
Q 14.984375 37.3125 14.984375 27.296875 
Q 14.984375 17.28125 19.8125 11.734375 
Q 24.65625 6.203125 33.40625 6.203125 
Q 37.3125 6.203125 41.140625 7.25 
Q 44.96875 8.296875 48.78125 10.40625 
L 48.78125 2.09375 
Q 45.015625 0.34375 40.984375 -0.53125 
Q 36.96875 -1.421875 32.421875 -1.421875 
Q 20.0625 -1.421875 12.78125 6.34375 
Q 5.515625 14.109375 5.515625 27.296875 
Q 5.515625 40.671875 12.859375 48.328125 
Q 20.21875 56 33.015625 56 
Q 37.15625 56 41.109375 55.140625 
Q 45.0625 54.296875 48.78125 52.59375 
" id="BitstreamVeraSans-Roman-63"/>
     <path d="M 48.6875 27.296875 
Q 48.6875 37.203125 44.609375 42.84375 
Q 40.53125 48.484375 33.40625 48.484375 
Q 26.265625 48.484375 22.1875 42.84375 
Q 18.109375 37.203125 18.109375 27.296875 
Q 18.109375 17.390625 22.1875 11.75 
Q 26.265625 6.109375 33.40625 6.109375 
Q 40.53125 6.109375 44.609375 11.75 
Q 48.6875 17.390625 48.6875 27.296875 
M 18.109375 46.390625 
Q 20.953125 51.265625 25.265625 53.625 
Q 29.59375 56 35.59375 56 
Q 45.5625 56 51.78125 48.09375 
Q 58.015625 40.1875 58.015625 27.296875 
Q 58.015625 14.40625 51.78125 6.484375 
Q 45.5625 -1.421875 35.59375 -1.421875 
Q 29.59375 -1.421875 25.265625 0.953125 
Q 20.953125 3.328125 18.109375 8.203125 
L 18.109375 0 
L 9.078125 0 
L 9.078125 75.984375 
L 18.109375 75.984375 
z
" id="BitstreamVeraSans-Roman-62"/>
    </defs>
    <g transform="translate(19.213875 38.2)scale(0.144 -0.144)">
     <use xlink:href="#BitstreamVeraSans-Roman-53"/>
     <use x="63.4765625" xlink:href="#BitstreamVeraSans-Roman-6f"/>
     <use x="124.658203125" xlink:href="#BitstreamVeraSans-Roman-72"/>
     <use x="165.771484375" xlink:href="#BitstreamVeraSans-Roman-74"/>
     <use x="204.98046875" xlink:href="#BitstreamVeraSans-Roman-65"/>
     <use x="266.50390625" xlink:href="#BitstreamVeraSans-Roman-64"/>
     <use x="329.98046875" xlink:href="#BitstreamVeraSans-Roman-20"/>
     <use x="361.767578125" xlink:href="#BitstreamVeraSans-Roman-41"/>
     <use x="430.17578125" xlink:href="#BitstreamVeraSans-Roman-62"/>
     <use x="493.65234375" xlink:href="#BitstreamVeraSans-Roman-73"/>
     <use x="545.751953125" xlink:href="#BitstreamVeraSans-Roman-6f"/>
     <use x="606.93359375" xlink:href="#BitstreamVeraSans-Roman-6c"/>
     <use x="634.716796875" xlink:href="#BitstreamVeraSans-Roman-75"/>
     <use x="698.095703125" xlink:href="#BitstreamVeraSans-Roman-74"/>
     <use x="737.3046875" xlink:href="#BitstreamVeraSans-Roman-65"/>
     <use x="798.828125" xlink:href="#BitstreamVeraSans-Roman-20"/>
     <use x="830.615234375" xlink:href="#BitstreamVeraSans-Roman-56"/>
     <use x="898.9140625" xlink:href="#BitstreamVeraSans-Roman-61"/>
     <use x="960.193359375" xlink:href="#BitstreamVeraSans-Roman-6c"/>
     <use x="987.9765625" xlink:href="#BitstreamVeraSans-Roman-75"/>
     <use x="1051.35546875" xlink:href="#BitstreamVeraSans-Roman-65"/>
     <use x="1112.87890625" xlink:href="#BitstreamVeraSans-Roman-20"/>
     <use x="1144.66601562" xlink:href="#BitstreamVeraSans-Roman-43"/>
     <use x="1214.49023438" xlink:href="#BitstreamVeraSans-Roman-6f"/>
     <use x="1275.671875" xlink:href="#BitstreamVeraSans-Roman-72"/>
     <use x="1316.76953125" xlink:href="#BitstreamVeraSans-Roman-72"/>
     <use x="1357.8515625" xlink:href="#BitstreamVeraSans-Roman-65"/>
     <use x="1419.375" xlink:href="#BitstreamVeraSans-Roman-6c"/>
     <use x="1447.15820312" xlink:href="#BitstreamVeraSans-Roman-61"/>
     <use x="1508.4375" xlink:href="#BitstreamVeraSans-Roman-74"/>
     <use x="1547.64648438" xlink:href="#BitstreamVeraSans-Roman-69"/>
     <use x="1575.4296875" xlink:href="#BitstreamVeraSans-Roman-6f"/>
     <use x="1636.61132812" xlink:href="#BitstreamVeraSans-Roman-6e"/>
     <use x="1699.99023438" xlink:href="#BitstreamVeraSans-Roman-73"/>
     <use x="1752.08984375" xlink:href="#BitstreamVeraSans-Roman-20"/>
     <use x="1783.87695312" xlink:href="#BitstreamVeraSans-Roman-62"/>
     <use x="1847.35351562" xlink:href="#BitstreamVeraSans-Roman-65"/>
     <use x="1908.87695312" xlink:href="#BitstreamVeraSans-Roman-74"/>
     <use x="1948.0859375" xlink:href="#BitstreamVeraSans-Roman-77"/>
     <use x="2029.87304688" xlink:href="#BitstreamVeraSans-Roman-65"/>
     <use x="2091.39648438" xlink:href="#BitstreamVeraSans-Roman-65"/>
     <use x="2152.91992188" xlink:href="#BitstreamVeraSans-Roman-6e"/>
     <use x="2216.29882812" xlink:href="#BitstreamVeraSans-Roman-20"/>
     <use x="2248.0859375" xlink:href="#BitstreamVeraSans-Roman-32"/>
     <use x="2311.70898438" xlink:href="#BitstreamVeraSans-Roman-20"/>
     <use x="2343.49609375" xlink:href="#BitstreamVeraSans-Roman-43"/>
     <use x="2413.3203125" xlink:href="#BitstreamVeraSans-Roman-68"/>
     <use x="2476.69921875" xlink:href="#BitstreamVeraSans-Roman-61"/>
     <use x="2537.97851562" xlink:href="#BitstreamVeraSans-Roman-6e"/>
     <use x="2601.35742188" xlink:href="#BitstreamVeraSans-Roman-6e"/>
     <use x="2664.73632812" xlink:href="#BitstreamVeraSans-Roman-65"/>
     <use x="2726.25976562" xlink:href="#BitstreamVeraSans-Roman-6c"/>
     <use x="2754.04296875" xlink:href="#BitstreamVeraSans-Roman-73"/>
     <use x="2806.14257812" xlink:href="#BitstreamVeraSans-Roman-20"/>
     <use x="2837.9296875" xlink:href="#BitstreamVeraSans-Roman-28"/>
     <use x="2876.94335938" xlink:href="#BitstreamVeraSans-Roman-35"/>
     <use x="2940.56640625" xlink:href="#BitstreamVeraSans-Roman-20"/>
     <use x="2972.35351562" xlink:href="#BitstreamVeraSans-Roman-73"/>
     <use x="3024.453125" xlink:href="#BitstreamVeraSans-Roman-65"/>
     <use x="3085.9765625" xlink:href="#BitstreamVeraSans-Roman-63"/>
     <use x="3140.95703125" xlink:href="#BitstreamVeraSans-Roman-6f"/>
     <use x="3202.13867188" xlink:href="#BitstreamVeraSans-Roman-6e"/>
     <use x="3265.51757812" xlink:href="#BitstreamVeraSans-Roman-64"/>
     <use x="3328.99414062" xlink:href="#BitstreamVeraSans-Roman-20"/>
     <use x="3360.78125" xlink:href="#BitstreamVeraSans-Roman-69"/>
     <use x="3388.56445312" xlink:href="#BitstreamVeraSans-Roman-6e"/>
     <use x="3451.94335938" xlink:href="#BitstreamVeraSans-Roman-74"/>
     <use x="3491.15234375" xlink:href="#BitstreamVeraSans-Roman-65"/>
     <use x="3552.67578125" xlink:href="#BitstreamVeraSans-Roman-72"/>
     <use x="3593.7890625" xlink:href="#BitstreamVeraSans-Roman-76"/>
     <use x="3652.96875" xlink:href="#BitstreamVeraSans-Roman-61"/>
     <use x="3714.24804688" xlink:href="#BitstreamVeraSans-Roman-6c"/>
     <use x="3742.03125" xlink:href="#BitstreamVeraSans-Roman-73"/>
     <use x="3794.13085938" xlink:href="#BitstreamVeraSans-Roman-29"/>
    </g>
   </g>
  </g>
 </g>
 <defs>
  <clipPath id="pa96dec1d93">
   <rect height="345.6" width="446.4" x="72.0" y="43.2"/>
  </clipPath>
 </defs>
</svg>
