<?xml version="1.0" encoding="utf-8" standalone="no"?>
<!DOCTYPE svg PUBLIC "-//W3C//DTD SVG 1.1//EN"
  "http://www.w3.org/Graphics/SVG/1.1/DTD/svg11.dtd">
<!-- Created with matplotlib (http://matplotlib.org/) -->
<svg height="432pt" version="1.1" viewBox="0 0 576 432" width="576pt" xmlns="http://www.w3.org/2000/svg" xmlns:xlink="http://www.w3.org/1999/xlink">
 <defs>
  <style type="text/css">
*{stroke-linecap:butt;stroke-linejoin:round;stroke-miterlimit:100000;}
  </style>
 </defs>
 <g id="figure_1">
  <g id="patch_1">
   <path d="M 0 432 
L 576 432 
L 576 0 
L 0 0 
z
" style="fill:#ffffff;"/>
  </g>
  <g id="axes_1">
   <g id="patch_2">
    <path d="M 72 388.8 
L 518.4 388.8 
L 518.4 43.2 
L 72 43.2 
z
" style="fill:#ffffff;"/>
   </g>
   <g id="line2d_1">
    <path clip-path="url(#pdd8c5587aa)" d="M 72.000674 388.799976 
L 72.916306 388.18942 
L 73.115884 388.03796 
L 73.361311 387.88522 
L 73.602692 387.726519 
L 73.793505 387.603267 
L 74.283685 387.258671 
L 74.620135 387.03634 
L 74.798812 386.919729 
L 75.249885 386.619156 
L 75.507448 386.435387 
L 76.367117 385.862186 
L 76.539051 385.743096 
L 78.665635 384.323693 
L 78.838243 384.203037 
L 79.080973 384.024022 
L 79.420795 383.789839 
L 79.612282 383.67109 
L 79.801072 383.540483 
L 80.101788 383.334998 
L 80.309457 383.19804 
L 80.737605 382.902842 
L 80.972244 382.737441 
L 81.354544 382.475198 
L 81.655259 382.27232 
L 81.779996 382.198395 
L 81.985642 382.053304 
L 82.281638 381.844047 
L 82.45492 381.723943 
L 82.870258 381.437908 
L 83.092086 381.282612 
L 104.183299 366.874227 
L 104.345119 366.780747 
L 104.51975 366.666986 
L 105.784643 365.818339 
L 105.984895 365.686252 
L 106.899178 365.039843 
L 107.088642 364.908266 
L 107.300357 364.776534 
L 107.441275 364.679302 
L 108.433771 363.996555 
L 108.659645 363.847632 
L 108.830904 363.722835 
L 109.085771 363.546201 
L 109.240174 363.441797 
L 110.184124 362.7835 
L 110.360778 362.663501 
L 110.559681 362.516835 
L 110.724198 362.406867 
L 110.871185 362.294833 
L 111.034353 362.182701 
L 113.45963 360.549256 
L 113.645049 360.432735 
L 114.392792 359.942321 
L 114.535059 359.854623 
L 114.889715 359.618748 
L 115.043444 359.507964 
L 116.092576 358.780041 
L 116.364299 358.584222 
L 116.855827 358.254058 
L 116.998094 358.147258 
L 117.282628 357.958877 
L 117.443773 357.852206 
L 119.127376 356.701478 
L 119.28987 356.585825 
L 119.848149 356.191599 
L 120.04031 356.067255 
L 120.93504 355.412593 
L 121.086072 355.312034 
L 121.277559 355.186248 
L 121.696942 354.904986 
L 121.856065 354.792442 
L 123.55113 353.614907 
L 123.726435 353.505938 
L 124.356858 353.047939 
L 124.587452 352.878454 
L 124.772871 352.741496 
L 124.907046 352.659775 
L 125.40262 352.319396 
L 127.832617 350.606986 
L 128.010619 350.497965 
L 128.441465 350.197286 
L 128.88647 349.869911 
L 129.261353 349.59368 
L 129.629493 349.337083 
L 130.261265 348.923858 
L 130.491859 348.76511 
L 130.684694 348.6361 
L 131.004289 348.416115 
L 131.247693 348.242727 
L 131.451991 348.107169 
L 131.641455 347.987612 
L 132.607655 347.320152 
L 132.931969 347.117539 
L 133.16526 346.951842 
L 133.367535 346.809744 
L 134.084937 346.341773 
L 134.690413 345.895907 
L 134.995848 345.680951 
L 135.14688 345.57259 
L 135.401073 345.387607 
L 137.191206 344.103316 
L 137.525634 343.86989 
L 139.153274 342.739316 
L 139.327904 342.610121 
L 140.005526 342.137365 
L 140.160603 342.018229 
L 140.32984 341.895397 
L 140.543577 341.734471 
L 140.889467 341.478187 
L 141.231986 341.252518 
L 141.398526 341.13595 
L 141.695196 340.933331 
L 141.846902 340.819944 
L 142.014791 340.702358 
L 143.024817 339.969803 
L 143.164387 339.853799 
L 143.392958 339.695729 
L 143.612763 339.538735 
L 143.847402 339.385 
L 144.103617 339.196869 
L 144.303195 339.055912 
L 144.455575 338.934244 
L 144.709768 338.767377 
L 144.922156 338.624799 
L 145.118363 338.487273 
L 145.272092 338.379315 
L 145.425821 338.266605 
L 145.615285 338.130642 
L 146.066359 337.79773 
L 146.830958 337.263847 
L 147.221349 336.995792 
L 147.477564 336.809366 
L 147.702089 336.644476 
L 148.269808 336.239962 
L 148.59547 336.014486 
L 148.787632 335.86947 
L 149.200947 335.58158 
L 149.341865 335.469909 
L 149.486829 335.352866 
L 149.659437 335.227057 
L 149.8044 335.132331 
L 149.991842 334.999789 
L 150.495507 334.65251 
L 155.571935 330.9963 
L 155.739149 330.866732 
L 156.428232 330.383704 
L 156.607583 330.259987 
L 157.200923 329.852844 
L 157.362068 329.732304 
L 166.736166 323.132713 
L 166.906077 322.999438 
L 167.154201 322.829354 
L 167.972066 322.231872 
L 168.118378 322.120526 
L 169.331354 321.258462 
L 169.631395 321.051101 
L 170.099999 320.719059 
L 170.306993 320.577106 
L 170.556466 320.405341 
L 171.105305 320.004949 
L 171.374331 319.818623 
L 171.548962 319.69074 
L 171.763373 319.540542 
L 173.304709 318.433487 
L 173.500915 318.310433 
L 173.676895 318.192919 
L 177.125009 315.733901 
L 179.638613 313.950764 
L 179.859767 313.773571 
L 180.146997 313.566619 
L 180.356015 313.421782 
L 180.904854 313.045817 
L 183.055712 311.504054 
L 183.278214 311.354645 
L 183.421829 311.255353 
L 183.742098 311.042843 
L 183.883016 310.941066 
L 184.393424 310.591463 
L 184.554569 310.464386 
L 184.716389 310.349849 
L 185.014408 310.129879 
L 185.836319 309.553692 
L 186.014321 309.431214 
L 186.290089 309.229117 
L 186.43775 309.130382 
L 187.828053 308.138558 
L 188.041116 307.989264 
L 188.217769 307.860051 
L 188.572425 307.609145 
L 188.748404 307.482277 
L 188.964164 307.332618 
L 189.130704 307.210285 
L 189.306009 307.090635 
L 189.578406 306.90421 
L 189.760453 306.790191 
L 189.995767 306.628105 
L 190.278952 306.427635 
L 190.471787 306.299909 
L 190.991634 305.922708 
L 191.311903 305.693197 
L 191.522269 305.555561 
L 191.851303 305.301869 
L 192.154041 305.096793 
L 192.369801 304.921596 
L 192.526901 304.808977 
L 192.678607 304.701181 
L 192.857283 304.583011 
L 193.208568 304.323416 
L 193.439835 304.157336 
L 193.61986 304.036286 
L 193.792468 303.907531 
L 193.986652 303.773981 
L 207.437939 294.335972 
L 207.707639 294.155409 
L 208.118257 293.857667 
L 208.307721 293.722962 
L 208.625967 293.500562 
L 208.859258 293.331915 
L 209.160648 293.128537 
L 209.427651 292.946687 
L 209.606327 292.819631 
L 209.770844 292.706902 
L 210.031779 292.513447 
L 210.176742 292.414706 
L 210.339237 292.290326 
L 210.629164 292.094461 
L 210.786264 291.979406 
L 210.954827 291.856375 
L 211.50434 291.4491 
L 211.70729 291.293901 
L 212.472563 290.773459 
L 212.678884 290.644679 
L 213.207496 290.281927 
L 213.382127 290.156931 
L 213.674077 289.963079 
L 213.83792 289.851515 
L 214.170325 289.60089 
L 214.503404 289.365379 
L 214.661853 289.253509 
L 214.903909 289.066297 
L 215.088653 288.952319 
L 215.407574 288.721297 
L 215.604455 288.574979 
L 215.866064 288.416282 
L 216.35894 288.076544 
L 216.659656 287.86664 
L 216.830915 287.740707 
L 217.112077 287.549757 
L 217.395262 287.356211 
L 217.585401 287.216905 
L 217.813972 287.051103 
L 218.289992 286.701972 
L 218.464623 286.577176 
L 218.677012 286.428906 
L 219.088304 286.139976 
L 219.271026 286.006044 
L 219.474649 285.86166 
L 219.784804 285.622275 
L 219.952693 285.507684 
L 220.960696 284.844134 
L 221.284336 284.615456 
L 221.453573 284.498353 
L 221.977465 284.131433 
L 222.120406 284.019806 
L 222.28762 283.904098 
L 222.516191 283.751059 
L 223.531611 283.064627 
L 223.810751 282.885556 
L 224.122254 282.662842 
L 224.375098 282.507719 
L 224.597601 282.356544 
L 224.768186 282.234653 
L 225.539528 281.724711 
L 225.673703 281.639451 
L 225.853054 281.526038 
L 226.0587 281.386829 
L 226.428863 281.130595 
L 226.696541 280.94303 
L 226.995233 280.730937 
L 227.20088 280.587495 
L 227.38023 280.447915 
L 227.540027 280.336181 
L 227.716007 280.202022 
L 228.287771 279.8043 
L 228.475886 279.66852 
L 228.68423 279.523604 
L 229.27757 279.096954 
L 229.472428 278.956639 
L 229.754264 278.746324 
L 230.316589 278.367111 
L 230.497962 278.245977 
L 231.654975 277.438504 
L 233.609626 276.04853 
L 233.781559 275.90343 
L 234.094411 275.673674 
L 234.341861 275.511562 
L 235.369418 274.825763 
L 235.610799 274.6624 
L 236.624871 273.964063 
L 236.885806 273.785595 
L 237.168317 273.589415 
L 237.369918 273.453688 
L 237.526344 273.349478 
L 237.685467 273.232912 
L 237.833127 273.1381 
L 238.038774 272.994335 
L 238.402869 272.735001 
L 238.561992 272.629829 
L 238.738645 272.501275 
L 257.707319 259.437715 
L 257.969603 259.247351 
L 258.243348 259.074174 
L 258.636436 258.81272 
L 258.850847 258.665795 
L 259.281693 258.391132 
L 259.913465 257.952664 
L 260.106301 257.818324 
L 261.330739 256.968876 
L 262.30031 256.288065 
L 264.56579 254.726156 
L 264.696594 254.636261 
L 266.589214 253.377447 
L 266.811717 253.217843 
L 266.989719 253.092811 
L 267.200759 252.957155 
L 268.044246 252.39525 
L 268.274839 252.25688 
L 268.573532 252.060596 
L 269.21744 251.634841 
L 269.357684 251.561591 
L 269.575467 251.410911 
L 278.186988 245.637304 
L 278.398028 245.499314 
L 278.562545 245.387935 
L 278.78235 245.228738 
L 279.130938 245.003193 
L 279.32175 244.868607 
L 279.530094 244.715295 
L 280.304133 244.199447 
L 280.491574 244.074838 
L 280.637886 243.984692 
L 281.323599 243.538059 
L 281.51104 243.416448 
L 281.705898 243.28686 
L 282.120562 242.986165 
L 282.379474 242.819444 
L 282.662659 242.628807 
L 284.895101 241.100669 
L 285.060292 240.982172 
L 285.25515 240.854204 
L 285.549797 240.640493 
L 287.519956 239.301485 
L 287.688518 239.183351 
L 287.87124 239.044821 
L 288.058007 238.917246 
L 288.265676 238.780592 
L 289.226482 238.129729 
L 289.434151 238.008736 
L 290.080083 237.564682 
L 290.267524 237.437814 
L 290.463057 237.316853 
L 290.599255 237.223085 
L 291.053026 236.91477 
L 291.261369 236.776864 
L 291.645691 236.541164 
L 292.162841 236.192445 
L 292.336123 236.075075 
L 292.542444 235.939143 
L 293.189049 235.496583 
L 296.434215 233.320652 
L 296.593338 233.207705 
L 297.250057 232.791357 
L 297.946557 232.325093 
L 298.151529 232.184383 
L 298.372009 232.040997 
L 298.673399 231.8608 
L 303.479452 228.690297 
L 303.698584 228.554444 
L 303.869169 228.430091 
L 304.154377 228.245119 
L 304.320916 228.123169 
L 306.460312 226.676986 
L 306.667981 226.533252 
L 308.930763 225.026829 
L 309.093258 224.908838 
L 309.310366 224.763577 
L 309.519384 224.627449 
L 313.730749 221.793564 
L 313.862902 221.713549 
L 314.489954 221.27235 
L 314.659865 221.154349 
L 314.824382 221.039289 
L 314.980134 220.928045 
L 315.162182 220.794789 
L 315.324676 220.683069 
L 315.511443 220.559842 
L 315.922736 220.270667 
L 316.207269 220.078989 
L 316.347513 219.986439 
L 321.41113 216.643243 
L 321.601943 216.530527 
L 321.770505 216.412888 
L 322.549938 215.9067 
L 322.84054 215.713563 
L 323.862703 215.051289 
L 324.006993 214.955267 
L 324.385921 214.697461 
L 324.552461 214.585735 
L 324.743274 214.460833 
L 324.940155 214.320636 
L 325.464721 213.960425 
L 325.691943 213.828315 
L 325.880059 213.706698 
L 326.634545 213.208199 
L 327.129444 212.859439 
L 327.343856 212.724066 
L 327.513092 212.619714 
L 327.840104 212.406929 
L 328.040356 212.270956 
L 328.525142 211.942999 
L 328.797539 211.76376 
L 329.04364 211.598061 
L 330.450125 210.666467 
L 330.677348 210.525067 
L 331.116284 210.248155 
L 331.267316 210.147216 
L 331.476334 210.013687 
L 333.264445 208.828381 
L 333.480879 208.684378 
L 334.016908 208.329756 
L 381.705259 176.705958 
L 381.8482 176.614637 
L 397.511027 166.167168 
L 397.784098 165.985521 
L 410.472134 157.498947 
L 410.667666 157.368711 
L 411.842884 156.578036 
L 411.989871 156.484419 
L 412.301374 156.292201 
L 412.436224 156.205184 
L 412.608158 156.094915 
L 412.780766 155.975788 
L 412.93854 155.862478 
L 413.111148 155.734083 
L 413.294544 155.607016 
L 413.528509 155.439917 
L 424.067036 148.307955 
L 424.245038 148.180796 
L 424.462146 148.048221 
L 424.946258 147.721884 
L 425.367664 147.445381 
L 425.536227 147.335514 
L 425.843685 147.139531 
L 426.018315 147.019565 
L 426.199014 146.89466 
L 426.359486 146.778695 
L 426.646042 146.585834 
L 426.844272 146.43885 
L 427.388391 146.055743 
L 427.664159 145.860793 
L 427.997239 145.631475 
L 428.231204 145.461313 
L 429.639712 144.519305 
L 429.781304 144.423953 
L 430.08674 144.219201 
L 431.291624 143.355697 
L 431.470301 143.234528 
L 432.42369 142.578342 
L 432.803967 142.341566 
L 432.998151 142.204413 
L 433.45327 141.893229 
L 433.630597 141.76963 
L 433.988624 141.532378 
L 434.755921 140.981782 
L 435.838092 140.218285 
L 435.983056 140.110621 
L 436.623593 139.651799 
L 436.760466 139.562146 
L 437.72262 138.902428 
L 437.945123 138.750346 
L 438.139307 138.612716 
L 438.296407 138.501626 
L 453.27959 127.757928 
L 453.421182 127.663247 
L 453.747519 127.405661 
L 454.032727 127.182591 
L 454.168251 127.091235 
L 456.783667 125.176375 
L 457.070223 124.973695 
L 457.21249 124.877392 
L 457.542872 124.628965 
L 457.799762 124.435573 
L 458.010128 124.290182 
L 459.083534 123.529166 
L 460.375397 122.578815 
L 460.565535 122.440132 
L 460.727355 122.320847 
L 460.945138 122.163017 
L 461.09617 122.050378 
L 461.255967 121.944072 
L 461.467007 121.780645 
L 461.619388 121.663966 
L 462.028657 121.352672 
L 462.202614 121.21697 
L 462.336115 121.119684 
L 464.566534 119.462227 
L 464.721612 119.349267 
L 464.946137 119.175221 
L 465.984482 118.419818 
L 485.630103 104.14714 
L 485.822939 104.003462 
L 485.974645 103.899533 
L 486.472916 103.544374 
L 488.089093 102.38478 
L 488.228663 102.296918 
L 489.026975 101.724572 
L 489.171264 101.628682 
L 489.583905 101.332261 
L 489.718755 101.237872 
L 490.214329 100.862312 
L 490.500885 100.647179 
L 490.706531 100.513911 
L 491.32819 100.039669 
L 491.483941 99.914822 
L 492.997633 98.821651 
L 493.127763 98.710854 
L 493.275424 98.607651 
L 493.479047 98.462371 
L 493.62064 98.360577 
L 494.170153 97.960039 
L 494.327928 97.85472 
L 494.913851 97.386405 
L 495.054095 97.27951 
L 495.2739 97.11684 
L 495.437743 97.005238 
L 495.763406 96.763597 
L 496.076258 96.535477 
L 496.254934 96.39449 
L 496.482156 96.232553 
L 496.678363 96.078303 
L 496.838835 95.950099 
L 497.583881 95.386011 
L 498.19138 94.951416 
L 498.746288 94.522601 
L 506.272266 88.749489 
L 506.527132 88.528444 
L 506.696369 88.403465 
L 507.262065 87.952875 
L 507.477151 87.786282 
L 507.618069 87.660701 
L 508.032733 87.319625 
L 508.701589 86.747984 
L 508.849923 86.616277 
L 509.158056 86.317604 
L 510.604322 85.007864 
L 510.720967 84.894666 
L 510.908409 84.725275 
L 511.029099 84.591328 
L 511.290708 84.320108 
L 511.44174 84.156944 
L 511.732342 83.844454 
L 511.85101 83.714104 
L 512.02227 83.537546 
L 512.438282 83.073431 
L 512.578526 82.911582 
L 513.727448 81.465139 
L 513.877131 81.248205 
L 514.257408 80.717176 
L 514.376076 80.527622 
L 514.559472 80.201641 
L 514.610715 80.084616 
L 514.961325 79.447138 
L 515.017288 79.340765 
L 515.156183 79.073164 
L 515.237768 78.897808 
L 515.544551 78.227109 
L 515.684795 77.959108 
L 515.83785 77.632397 
L 516.493895 76.388139 
L 516.581548 76.263458 
L 516.761573 75.977391 
L 517.010371 75.659047 
L 517.101395 75.540667 
L 517.358958 75.264501 
L 517.462118 75.15064 
L 517.724402 74.956167 
L 518.013655 74.8147 
L 518.313022 74.693728 
L 518.398652 74.621453 
L 518.398652 74.621453 
" style="fill:none;stroke:#0000ff;stroke-linecap:square;"/>
   </g>
   <g id="patch_3">
    <path d="M 72 43.2 
L 518.4 43.2 
" style="fill:none;stroke:#000000;stroke-linecap:square;stroke-linejoin:miter;"/>
   </g>
   <g id="patch_4">
    <path d="M 518.4 388.8 
L 518.4 43.2 
" style="fill:none;stroke:#000000;stroke-linecap:square;stroke-linejoin:miter;"/>
   </g>
   <g id="patch_5">
    <path d="M 72 388.8 
L 518.4 388.8 
" style="fill:none;stroke:#000000;stroke-linecap:square;stroke-linejoin:miter;"/>
   </g>
   <g id="patch_6">
    <path d="M 72 388.8 
L 72 43.2 
" style="fill:none;stroke:#000000;stroke-linecap:square;stroke-linejoin:miter;"/>
   </g>
   <g id="matplotlib.axis_1">
    <g id="xtick_1">
     <g id="line2d_2">
      <defs>
       <path d="M 0 0 
L 0 -4 
" id="mc4c4810af4" style="stroke:#000000;stroke-width:0.5;"/>
      </defs>
      <g>
       <use style="stroke:#000000;stroke-width:0.5;" x="72.00067425" xlink:href="#mc4c4810af4" y="388.8"/>
      </g>
     </g>
     <g id="line2d_3">
      <defs>
       <path d="M 0 0 
L 0 4 
" id="m02951f7e6d" style="stroke:#000000;stroke-width:0.5;"/>
      </defs>
      <g>
       <use style="stroke:#000000;stroke-width:0.5;" x="72.00067425" xlink:href="#m02951f7e6d" y="43.2"/>
      </g>
     </g>
     <g id="text_1">
      <!-- 0 -->
      <defs>
       <path d="M 31.78125 66.40625 
Q 24.171875 66.40625 20.328125 58.90625 
Q 16.5 51.421875 16.5 36.375 
Q 16.5 21.390625 20.328125 13.890625 
Q 24.171875 6.390625 31.78125 6.390625 
Q 39.453125 6.390625 43.28125 13.890625 
Q 47.125 21.390625 47.125 36.375 
Q 47.125 51.421875 43.28125 58.90625 
Q 39.453125 66.40625 31.78125 66.40625 
M 31.78125 74.21875 
Q 44.046875 74.21875 50.515625 64.515625 
Q 56.984375 54.828125 56.984375 36.375 
Q 56.984375 17.96875 50.515625 8.265625 
Q 44.046875 -1.421875 31.78125 -1.421875 
Q 19.53125 -1.421875 13.0625 8.265625 
Q 6.59375 17.96875 6.59375 36.375 
Q 6.59375 54.828125 13.0625 64.515625 
Q 19.53125 74.21875 31.78125 74.21875 
" id="BitstreamVeraSans-Roman-30"/>
      </defs>
      <g transform="translate(68.18317425 401.918125)scale(0.12 -0.12)">
       <use xlink:href="#BitstreamVeraSans-Roman-30"/>
      </g>
     </g>
    </g>
    <g id="xtick_2">
     <g id="line2d_4">
      <g>
       <use style="stroke:#000000;stroke-width:0.5;" x="139.425670738" xlink:href="#mc4c4810af4" y="388.8"/>
      </g>
     </g>
     <g id="line2d_5">
      <g>
       <use style="stroke:#000000;stroke-width:0.5;" x="139.425670738" xlink:href="#m02951f7e6d" y="43.2"/>
      </g>
     </g>
     <g id="text_2">
      <!-- 100000 -->
      <defs>
       <path d="M 12.40625 8.296875 
L 28.515625 8.296875 
L 28.515625 63.921875 
L 10.984375 60.40625 
L 10.984375 69.390625 
L 28.421875 72.90625 
L 38.28125 72.90625 
L 38.28125 8.296875 
L 54.390625 8.296875 
L 54.390625 0 
L 12.40625 0 
z
" id="BitstreamVeraSans-Roman-31"/>
      </defs>
      <g transform="translate(116.520670738 401.918125)scale(0.12 -0.12)">
       <use xlink:href="#BitstreamVeraSans-Roman-31"/>
       <use x="63.623046875" xlink:href="#BitstreamVeraSans-Roman-30"/>
       <use x="127.24609375" xlink:href="#BitstreamVeraSans-Roman-30"/>
       <use x="190.869140625" xlink:href="#BitstreamVeraSans-Roman-30"/>
       <use x="254.4921875" xlink:href="#BitstreamVeraSans-Roman-30"/>
       <use x="318.115234375" xlink:href="#BitstreamVeraSans-Roman-30"/>
      </g>
     </g>
    </g>
    <g id="xtick_3">
     <g id="line2d_6">
      <g>
       <use style="stroke:#000000;stroke-width:0.5;" x="206.850667227" xlink:href="#mc4c4810af4" y="388.8"/>
      </g>
     </g>
     <g id="line2d_7">
      <g>
       <use style="stroke:#000000;stroke-width:0.5;" x="206.850667227" xlink:href="#m02951f7e6d" y="43.2"/>
      </g>
     </g>
     <g id="text_3">
      <!-- 200000 -->
      <defs>
       <path d="M 19.1875 8.296875 
L 53.609375 8.296875 
L 53.609375 0 
L 7.328125 0 
L 7.328125 8.296875 
Q 12.9375 14.109375 22.625 23.890625 
Q 32.328125 33.6875 34.8125 36.53125 
Q 39.546875 41.84375 41.421875 45.53125 
Q 43.3125 49.21875 43.3125 52.78125 
Q 43.3125 58.59375 39.234375 62.25 
Q 35.15625 65.921875 28.609375 65.921875 
Q 23.96875 65.921875 18.8125 64.3125 
Q 13.671875 62.703125 7.8125 59.421875 
L 7.8125 69.390625 
Q 13.765625 71.78125 18.9375 73 
Q 24.125 74.21875 28.421875 74.21875 
Q 39.75 74.21875 46.484375 68.546875 
Q 53.21875 62.890625 53.21875 53.421875 
Q 53.21875 48.921875 51.53125 44.890625 
Q 49.859375 40.875 45.40625 35.40625 
Q 44.1875 33.984375 37.640625 27.21875 
Q 31.109375 20.453125 19.1875 8.296875 
" id="BitstreamVeraSans-Roman-32"/>
      </defs>
      <g transform="translate(183.945667227 401.918125)scale(0.12 -0.12)">
       <use xlink:href="#BitstreamVeraSans-Roman-32"/>
       <use x="63.623046875" xlink:href="#BitstreamVeraSans-Roman-30"/>
       <use x="127.24609375" xlink:href="#BitstreamVeraSans-Roman-30"/>
       <use x="190.869140625" xlink:href="#BitstreamVeraSans-Roman-30"/>
       <use x="254.4921875" xlink:href="#BitstreamVeraSans-Roman-30"/>
       <use x="318.115234375" xlink:href="#BitstreamVeraSans-Roman-30"/>
      </g>
     </g>
    </g>
    <g id="xtick_4">
     <g id="line2d_8">
      <g>
       <use style="stroke:#000000;stroke-width:0.5;" x="274.275663715" xlink:href="#mc4c4810af4" y="388.8"/>
      </g>
     </g>
     <g id="line2d_9">
      <g>
       <use style="stroke:#000000;stroke-width:0.5;" x="274.275663715" xlink:href="#m02951f7e6d" y="43.2"/>
      </g>
     </g>
     <g id="text_4">
      <!-- 300000 -->
      <defs>
       <path d="M 40.578125 39.3125 
Q 47.65625 37.796875 51.625 33 
Q 55.609375 28.21875 55.609375 21.1875 
Q 55.609375 10.40625 48.1875 4.484375 
Q 40.765625 -1.421875 27.09375 -1.421875 
Q 22.515625 -1.421875 17.65625 -0.515625 
Q 12.796875 0.390625 7.625 2.203125 
L 7.625 11.71875 
Q 11.71875 9.328125 16.59375 8.109375 
Q 21.484375 6.890625 26.8125 6.890625 
Q 36.078125 6.890625 40.9375 10.546875 
Q 45.796875 14.203125 45.796875 21.1875 
Q 45.796875 27.640625 41.28125 31.265625 
Q 36.765625 34.90625 28.71875 34.90625 
L 20.21875 34.90625 
L 20.21875 43.015625 
L 29.109375 43.015625 
Q 36.375 43.015625 40.234375 45.921875 
Q 44.09375 48.828125 44.09375 54.296875 
Q 44.09375 59.90625 40.109375 62.90625 
Q 36.140625 65.921875 28.71875 65.921875 
Q 24.65625 65.921875 20.015625 65.03125 
Q 15.375 64.15625 9.8125 62.3125 
L 9.8125 71.09375 
Q 15.4375 72.65625 20.34375 73.4375 
Q 25.25 74.21875 29.59375 74.21875 
Q 40.828125 74.21875 47.359375 69.109375 
Q 53.90625 64.015625 53.90625 55.328125 
Q 53.90625 49.265625 50.4375 45.09375 
Q 46.96875 40.921875 40.578125 39.3125 
" id="BitstreamVeraSans-Roman-33"/>
      </defs>
      <g transform="translate(251.370663715 401.918125)scale(0.12 -0.12)">
       <use xlink:href="#BitstreamVeraSans-Roman-33"/>
       <use x="63.623046875" xlink:href="#BitstreamVeraSans-Roman-30"/>
       <use x="127.24609375" xlink:href="#BitstreamVeraSans-Roman-30"/>
       <use x="190.869140625" xlink:href="#BitstreamVeraSans-Roman-30"/>
       <use x="254.4921875" xlink:href="#BitstreamVeraSans-Roman-30"/>
       <use x="318.115234375" xlink:href="#BitstreamVeraSans-Roman-30"/>
      </g>
     </g>
    </g>
    <g id="xtick_5">
     <g id="line2d_10">
      <g>
       <use style="stroke:#000000;stroke-width:0.5;" x="341.700660203" xlink:href="#mc4c4810af4" y="388.8"/>
      </g>
     </g>
     <g id="line2d_11">
      <g>
       <use style="stroke:#000000;stroke-width:0.5;" x="341.700660203" xlink:href="#m02951f7e6d" y="43.2"/>
      </g>
     </g>
     <g id="text_5">
      <!-- 400000 -->
      <defs>
       <path d="M 37.796875 64.3125 
L 12.890625 25.390625 
L 37.796875 25.390625 
z
M 35.203125 72.90625 
L 47.609375 72.90625 
L 47.609375 25.390625 
L 58.015625 25.390625 
L 58.015625 17.1875 
L 47.609375 17.1875 
L 47.609375 0 
L 37.796875 0 
L 37.796875 17.1875 
L 4.890625 17.1875 
L 4.890625 26.703125 
z
" id="BitstreamVeraSans-Roman-34"/>
      </defs>
      <g transform="translate(318.795660203 401.918125)scale(0.12 -0.12)">
       <use xlink:href="#BitstreamVeraSans-Roman-34"/>
       <use x="63.623046875" xlink:href="#BitstreamVeraSans-Roman-30"/>
       <use x="127.24609375" xlink:href="#BitstreamVeraSans-Roman-30"/>
       <use x="190.869140625" xlink:href="#BitstreamVeraSans-Roman-30"/>
       <use x="254.4921875" xlink:href="#BitstreamVeraSans-Roman-30"/>
       <use x="318.115234375" xlink:href="#BitstreamVeraSans-Roman-30"/>
      </g>
     </g>
    </g>
    <g id="xtick_6">
     <g id="line2d_12">
      <g>
       <use style="stroke:#000000;stroke-width:0.5;" x="409.125656691" xlink:href="#mc4c4810af4" y="388.8"/>
      </g>
     </g>
     <g id="line2d_13">
      <g>
       <use style="stroke:#000000;stroke-width:0.5;" x="409.125656691" xlink:href="#m02951f7e6d" y="43.2"/>
      </g>
     </g>
     <g id="text_6">
      <!-- 500000 -->
      <defs>
       <path d="M 10.796875 72.90625 
L 49.515625 72.90625 
L 49.515625 64.59375 
L 19.828125 64.59375 
L 19.828125 46.734375 
Q 21.96875 47.46875 24.109375 47.828125 
Q 26.265625 48.1875 28.421875 48.1875 
Q 40.625 48.1875 47.75 41.5 
Q 54.890625 34.8125 54.890625 23.390625 
Q 54.890625 11.625 47.5625 5.09375 
Q 40.234375 -1.421875 26.90625 -1.421875 
Q 22.3125 -1.421875 17.546875 -0.640625 
Q 12.796875 0.140625 7.71875 1.703125 
L 7.71875 11.625 
Q 12.109375 9.234375 16.796875 8.0625 
Q 21.484375 6.890625 26.703125 6.890625 
Q 35.15625 6.890625 40.078125 11.328125 
Q 45.015625 15.765625 45.015625 23.390625 
Q 45.015625 31 40.078125 35.4375 
Q 35.15625 39.890625 26.703125 39.890625 
Q 22.75 39.890625 18.8125 39.015625 
Q 14.890625 38.140625 10.796875 36.28125 
z
" id="BitstreamVeraSans-Roman-35"/>
      </defs>
      <g transform="translate(386.220656691 401.918125)scale(0.12 -0.12)">
       <use xlink:href="#BitstreamVeraSans-Roman-35"/>
       <use x="63.623046875" xlink:href="#BitstreamVeraSans-Roman-30"/>
       <use x="127.24609375" xlink:href="#BitstreamVeraSans-Roman-30"/>
       <use x="190.869140625" xlink:href="#BitstreamVeraSans-Roman-30"/>
       <use x="254.4921875" xlink:href="#BitstreamVeraSans-Roman-30"/>
       <use x="318.115234375" xlink:href="#BitstreamVeraSans-Roman-30"/>
      </g>
     </g>
    </g>
    <g id="xtick_7">
     <g id="line2d_14">
      <g>
       <use style="stroke:#000000;stroke-width:0.5;" x="476.55065318" xlink:href="#mc4c4810af4" y="388.8"/>
      </g>
     </g>
     <g id="line2d_15">
      <g>
       <use style="stroke:#000000;stroke-width:0.5;" x="476.55065318" xlink:href="#m02951f7e6d" y="43.2"/>
      </g>
     </g>
     <g id="text_7">
      <!-- 600000 -->
      <defs>
       <path d="M 33.015625 40.375 
Q 26.375 40.375 22.484375 35.828125 
Q 18.609375 31.296875 18.609375 23.390625 
Q 18.609375 15.53125 22.484375 10.953125 
Q 26.375 6.390625 33.015625 6.390625 
Q 39.65625 6.390625 43.53125 10.953125 
Q 47.40625 15.53125 47.40625 23.390625 
Q 47.40625 31.296875 43.53125 35.828125 
Q 39.65625 40.375 33.015625 40.375 
M 52.59375 71.296875 
L 52.59375 62.3125 
Q 48.875 64.0625 45.09375 64.984375 
Q 41.3125 65.921875 37.59375 65.921875 
Q 27.828125 65.921875 22.671875 59.328125 
Q 17.53125 52.734375 16.796875 39.40625 
Q 19.671875 43.65625 24.015625 45.921875 
Q 28.375 48.1875 33.59375 48.1875 
Q 44.578125 48.1875 50.953125 41.515625 
Q 57.328125 34.859375 57.328125 23.390625 
Q 57.328125 12.15625 50.6875 5.359375 
Q 44.046875 -1.421875 33.015625 -1.421875 
Q 20.359375 -1.421875 13.671875 8.265625 
Q 6.984375 17.96875 6.984375 36.375 
Q 6.984375 53.65625 15.1875 63.9375 
Q 23.390625 74.21875 37.203125 74.21875 
Q 40.921875 74.21875 44.703125 73.484375 
Q 48.484375 72.75 52.59375 71.296875 
" id="BitstreamVeraSans-Roman-36"/>
      </defs>
      <g transform="translate(453.64565318 401.918125)scale(0.12 -0.12)">
       <use xlink:href="#BitstreamVeraSans-Roman-36"/>
       <use x="63.623046875" xlink:href="#BitstreamVeraSans-Roman-30"/>
       <use x="127.24609375" xlink:href="#BitstreamVeraSans-Roman-30"/>
       <use x="190.869140625" xlink:href="#BitstreamVeraSans-Roman-30"/>
       <use x="254.4921875" xlink:href="#BitstreamVeraSans-Roman-30"/>
       <use x="318.115234375" xlink:href="#BitstreamVeraSans-Roman-30"/>
      </g>
     </g>
    </g>
    <g id="text_8">
     <!-- Channel vs Channel -->
     <defs>
      <path id="BitstreamVeraSans-Roman-20"/>
      <path d="M 54.890625 33.015625 
L 54.890625 0 
L 45.90625 0 
L 45.90625 32.71875 
Q 45.90625 40.484375 42.875 44.328125 
Q 39.84375 48.1875 33.796875 48.1875 
Q 26.515625 48.1875 22.3125 43.546875 
Q 18.109375 38.921875 18.109375 30.90625 
L 18.109375 0 
L 9.078125 0 
L 9.078125 54.6875 
L 18.109375 54.6875 
L 18.109375 46.1875 
Q 21.34375 51.125 25.703125 53.5625 
Q 30.078125 56 35.796875 56 
Q 45.21875 56 50.046875 50.171875 
Q 54.890625 44.34375 54.890625 33.015625 
" id="BitstreamVeraSans-Roman-6e"/>
      <path d="M 9.421875 75.984375 
L 18.40625 75.984375 
L 18.40625 0 
L 9.421875 0 
z
" id="BitstreamVeraSans-Roman-6c"/>
      <path d="M 2.984375 54.6875 
L 12.5 54.6875 
L 29.59375 8.796875 
L 46.6875 54.6875 
L 56.203125 54.6875 
L 35.6875 0 
L 23.484375 0 
z
" id="BitstreamVeraSans-Roman-76"/>
      <path d="M 64.40625 67.28125 
L 64.40625 56.890625 
Q 59.421875 61.53125 53.78125 63.8125 
Q 48.140625 66.109375 41.796875 66.109375 
Q 29.296875 66.109375 22.65625 58.46875 
Q 16.015625 50.828125 16.015625 36.375 
Q 16.015625 21.96875 22.65625 14.328125 
Q 29.296875 6.6875 41.796875 6.6875 
Q 48.140625 6.6875 53.78125 8.984375 
Q 59.421875 11.28125 64.40625 15.921875 
L 64.40625 5.609375 
Q 59.234375 2.09375 53.4375 0.328125 
Q 47.65625 -1.421875 41.21875 -1.421875 
Q 24.65625 -1.421875 15.125 8.703125 
Q 5.609375 18.84375 5.609375 36.375 
Q 5.609375 53.953125 15.125 64.078125 
Q 24.65625 74.21875 41.21875 74.21875 
Q 47.75 74.21875 53.53125 72.484375 
Q 59.328125 70.75 64.40625 67.28125 
" id="BitstreamVeraSans-Roman-43"/>
      <path d="M 54.890625 33.015625 
L 54.890625 0 
L 45.90625 0 
L 45.90625 32.71875 
Q 45.90625 40.484375 42.875 44.328125 
Q 39.84375 48.1875 33.796875 48.1875 
Q 26.515625 48.1875 22.3125 43.546875 
Q 18.109375 38.921875 18.109375 30.90625 
L 18.109375 0 
L 9.078125 0 
L 9.078125 75.984375 
L 18.109375 75.984375 
L 18.109375 46.1875 
Q 21.34375 51.125 25.703125 53.5625 
Q 30.078125 56 35.796875 56 
Q 45.21875 56 50.046875 50.171875 
Q 54.890625 44.34375 54.890625 33.015625 
" id="BitstreamVeraSans-Roman-68"/>
      <path d="M 56.203125 29.59375 
L 56.203125 25.203125 
L 14.890625 25.203125 
Q 15.484375 15.921875 20.484375 11.0625 
Q 25.484375 6.203125 34.421875 6.203125 
Q 39.59375 6.203125 44.453125 7.46875 
Q 49.3125 8.734375 54.109375 11.28125 
L 54.109375 2.78125 
Q 49.265625 0.734375 44.1875 -0.34375 
Q 39.109375 -1.421875 33.890625 -1.421875 
Q 20.796875 -1.421875 13.15625 6.1875 
Q 5.515625 13.8125 5.515625 26.8125 
Q 5.515625 40.234375 12.765625 48.109375 
Q 20.015625 56 32.328125 56 
Q 43.359375 56 49.78125 48.890625 
Q 56.203125 41.796875 56.203125 29.59375 
M 47.21875 32.234375 
Q 47.125 39.59375 43.09375 43.984375 
Q 39.0625 48.390625 32.421875 48.390625 
Q 24.90625 48.390625 20.390625 44.140625 
Q 15.875 39.890625 15.1875 32.171875 
z
" id="BitstreamVeraSans-Roman-65"/>
      <path d="M 34.28125 27.484375 
Q 23.390625 27.484375 19.1875 25 
Q 14.984375 22.515625 14.984375 16.5 
Q 14.984375 11.71875 18.140625 8.90625 
Q 21.296875 6.109375 26.703125 6.109375 
Q 34.1875 6.109375 38.703125 11.40625 
Q 43.21875 16.703125 43.21875 25.484375 
L 43.21875 27.484375 
z
M 52.203125 31.203125 
L 52.203125 0 
L 43.21875 0 
L 43.21875 8.296875 
Q 40.140625 3.328125 35.546875 0.953125 
Q 30.953125 -1.421875 24.3125 -1.421875 
Q 15.921875 -1.421875 10.953125 3.296875 
Q 6 8.015625 6 15.921875 
Q 6 25.140625 12.171875 29.828125 
Q 18.359375 34.515625 30.609375 34.515625 
L 43.21875 34.515625 
L 43.21875 35.40625 
Q 43.21875 41.609375 39.140625 45 
Q 35.0625 48.390625 27.6875 48.390625 
Q 23 48.390625 18.546875 47.265625 
Q 14.109375 46.140625 10.015625 43.890625 
L 10.015625 52.203125 
Q 14.9375 54.109375 19.578125 55.046875 
Q 24.21875 56 28.609375 56 
Q 40.484375 56 46.34375 49.84375 
Q 52.203125 43.703125 52.203125 31.203125 
" id="BitstreamVeraSans-Roman-61"/>
      <path d="M 44.28125 53.078125 
L 44.28125 44.578125 
Q 40.484375 46.53125 36.375 47.5 
Q 32.28125 48.484375 27.875 48.484375 
Q 21.1875 48.484375 17.84375 46.4375 
Q 14.5 44.390625 14.5 40.28125 
Q 14.5 37.15625 16.890625 35.375 
Q 19.28125 33.59375 26.515625 31.984375 
L 29.59375 31.296875 
Q 39.15625 29.25 43.1875 25.515625 
Q 47.21875 21.78125 47.21875 15.09375 
Q 47.21875 7.46875 41.1875 3.015625 
Q 35.15625 -1.421875 24.609375 -1.421875 
Q 20.21875 -1.421875 15.453125 -0.5625 
Q 10.6875 0.296875 5.421875 2 
L 5.421875 11.28125 
Q 10.40625 8.6875 15.234375 7.390625 
Q 20.0625 6.109375 24.8125 6.109375 
Q 31.15625 6.109375 34.5625 8.28125 
Q 37.984375 10.453125 37.984375 14.40625 
Q 37.984375 18.0625 35.515625 20.015625 
Q 33.0625 21.96875 24.703125 23.78125 
L 21.578125 24.515625 
Q 13.234375 26.265625 9.515625 29.90625 
Q 5.8125 33.546875 5.8125 39.890625 
Q 5.8125 47.609375 11.28125 51.796875 
Q 16.75 56 26.8125 56 
Q 31.78125 56 36.171875 55.265625 
Q 40.578125 54.546875 44.28125 53.078125 
" id="BitstreamVeraSans-Roman-73"/>
     </defs>
     <g transform="translate(235.44375 418.531875)scale(0.12 -0.12)">
      <use xlink:href="#BitstreamVeraSans-Roman-43"/>
      <use x="69.82421875" xlink:href="#BitstreamVeraSans-Roman-68"/>
      <use x="133.203125" xlink:href="#BitstreamVeraSans-Roman-61"/>
      <use x="194.482421875" xlink:href="#BitstreamVeraSans-Roman-6e"/>
      <use x="257.861328125" xlink:href="#BitstreamVeraSans-Roman-6e"/>
      <use x="321.240234375" xlink:href="#BitstreamVeraSans-Roman-65"/>
      <use x="382.763671875" xlink:href="#BitstreamVeraSans-Roman-6c"/>
      <use x="410.546875" xlink:href="#BitstreamVeraSans-Roman-20"/>
      <use x="442.333984375" xlink:href="#BitstreamVeraSans-Roman-76"/>
      <use x="501.513671875" xlink:href="#BitstreamVeraSans-Roman-73"/>
      <use x="553.61328125" xlink:href="#BitstreamVeraSans-Roman-20"/>
      <use x="585.400390625" xlink:href="#BitstreamVeraSans-Roman-43"/>
      <use x="655.224609375" xlink:href="#BitstreamVeraSans-Roman-68"/>
      <use x="718.603515625" xlink:href="#BitstreamVeraSans-Roman-61"/>
      <use x="779.8828125" xlink:href="#BitstreamVeraSans-Roman-6e"/>
      <use x="843.26171875" xlink:href="#BitstreamVeraSans-Roman-6e"/>
      <use x="906.640625" xlink:href="#BitstreamVeraSans-Roman-65"/>
      <use x="968.1640625" xlink:href="#BitstreamVeraSans-Roman-6c"/>
     </g>
    </g>
   </g>
   <g id="matplotlib.axis_2">
    <g id="ytick_1">
     <g id="line2d_16">
      <defs>
       <path d="M 0 0 
L 4 0 
" id="m7254cc516f" style="stroke:#000000;stroke-width:0.5;"/>
      </defs>
      <g>
       <use style="stroke:#000000;stroke-width:0.5;" x="72.0" xlink:href="#m7254cc516f" y="388.8"/>
      </g>
     </g>
     <g id="line2d_17">
      <defs>
       <path d="M 0 0 
L -4 0 
" id="mc8734a79c9" style="stroke:#000000;stroke-width:0.5;"/>
      </defs>
      <g>
       <use style="stroke:#000000;stroke-width:0.5;" x="518.4" xlink:href="#mc8734a79c9" y="388.8"/>
      </g>
     </g>
     <g id="text_9">
      <!-- 0.0 -->
      <defs>
       <path d="M 10.6875 12.40625 
L 21 12.40625 
L 21 0 
L 10.6875 0 
z
" id="BitstreamVeraSans-Roman-2e"/>
      </defs>
      <g transform="translate(48.91625 392.11125)scale(0.12 -0.12)">
       <use xlink:href="#BitstreamVeraSans-Roman-30"/>
       <use x="63.623046875" xlink:href="#BitstreamVeraSans-Roman-2e"/>
       <use x="95.41015625" xlink:href="#BitstreamVeraSans-Roman-30"/>
      </g>
     </g>
    </g>
    <g id="ytick_2">
     <g id="line2d_18">
      <g>
       <use style="stroke:#000000;stroke-width:0.5;" x="72.0" xlink:href="#m7254cc516f" y="325.963636364"/>
      </g>
     </g>
     <g id="line2d_19">
      <g>
       <use style="stroke:#000000;stroke-width:0.5;" x="518.4" xlink:href="#mc8734a79c9" y="325.963636364"/>
      </g>
     </g>
     <g id="text_10">
      <!-- 0.2 -->
      <g transform="translate(48.91625 329.274886364)scale(0.12 -0.12)">
       <use xlink:href="#BitstreamVeraSans-Roman-30"/>
       <use x="63.623046875" xlink:href="#BitstreamVeraSans-Roman-2e"/>
       <use x="95.41015625" xlink:href="#BitstreamVeraSans-Roman-32"/>
      </g>
     </g>
    </g>
    <g id="ytick_3">
     <g id="line2d_20">
      <g>
       <use style="stroke:#000000;stroke-width:0.5;" x="72.0" xlink:href="#m7254cc516f" y="263.127272727"/>
      </g>
     </g>
     <g id="line2d_21">
      <g>
       <use style="stroke:#000000;stroke-width:0.5;" x="518.4" xlink:href="#mc8734a79c9" y="263.127272727"/>
      </g>
     </g>
     <g id="text_11">
      <!-- 0.4 -->
      <g transform="translate(48.91625 266.438522727)scale(0.12 -0.12)">
       <use xlink:href="#BitstreamVeraSans-Roman-30"/>
       <use x="63.623046875" xlink:href="#BitstreamVeraSans-Roman-2e"/>
       <use x="95.41015625" xlink:href="#BitstreamVeraSans-Roman-34"/>
      </g>
     </g>
    </g>
    <g id="ytick_4">
     <g id="line2d_22">
      <g>
       <use style="stroke:#000000;stroke-width:0.5;" x="72.0" xlink:href="#m7254cc516f" y="200.290909091"/>
      </g>
     </g>
     <g id="line2d_23">
      <g>
       <use style="stroke:#000000;stroke-width:0.5;" x="518.4" xlink:href="#mc8734a79c9" y="200.290909091"/>
      </g>
     </g>
     <g id="text_12">
      <!-- 0.6 -->
      <g transform="translate(48.91625 203.602159091)scale(0.12 -0.12)">
       <use xlink:href="#BitstreamVeraSans-Roman-30"/>
       <use x="63.623046875" xlink:href="#BitstreamVeraSans-Roman-2e"/>
       <use x="95.41015625" xlink:href="#BitstreamVeraSans-Roman-36"/>
      </g>
     </g>
    </g>
    <g id="ytick_5">
     <g id="line2d_24">
      <g>
       <use style="stroke:#000000;stroke-width:0.5;" x="72.0" xlink:href="#m7254cc516f" y="137.454545455"/>
      </g>
     </g>
     <g id="line2d_25">
      <g>
       <use style="stroke:#000000;stroke-width:0.5;" x="518.4" xlink:href="#mc8734a79c9" y="137.454545455"/>
      </g>
     </g>
     <g id="text_13">
      <!-- 0.8 -->
      <defs>
       <path d="M 31.78125 34.625 
Q 24.75 34.625 20.71875 30.859375 
Q 16.703125 27.09375 16.703125 20.515625 
Q 16.703125 13.921875 20.71875 10.15625 
Q 24.75 6.390625 31.78125 6.390625 
Q 38.8125 6.390625 42.859375 10.171875 
Q 46.921875 13.96875 46.921875 20.515625 
Q 46.921875 27.09375 42.890625 30.859375 
Q 38.875 34.625 31.78125 34.625 
M 21.921875 38.8125 
Q 15.578125 40.375 12.03125 44.71875 
Q 8.5 49.078125 8.5 55.328125 
Q 8.5 64.0625 14.71875 69.140625 
Q 20.953125 74.21875 31.78125 74.21875 
Q 42.671875 74.21875 48.875 69.140625 
Q 55.078125 64.0625 55.078125 55.328125 
Q 55.078125 49.078125 51.53125 44.71875 
Q 48 40.375 41.703125 38.8125 
Q 48.828125 37.15625 52.796875 32.3125 
Q 56.78125 27.484375 56.78125 20.515625 
Q 56.78125 9.90625 50.3125 4.234375 
Q 43.84375 -1.421875 31.78125 -1.421875 
Q 19.734375 -1.421875 13.25 4.234375 
Q 6.78125 9.90625 6.78125 20.515625 
Q 6.78125 27.484375 10.78125 32.3125 
Q 14.796875 37.15625 21.921875 38.8125 
M 18.3125 54.390625 
Q 18.3125 48.734375 21.84375 45.5625 
Q 25.390625 42.390625 31.78125 42.390625 
Q 38.140625 42.390625 41.71875 45.5625 
Q 45.3125 48.734375 45.3125 54.390625 
Q 45.3125 60.0625 41.71875 63.234375 
Q 38.140625 66.40625 31.78125 66.40625 
Q 25.390625 66.40625 21.84375 63.234375 
Q 18.3125 60.0625 18.3125 54.390625 
" id="BitstreamVeraSans-Roman-38"/>
      </defs>
      <g transform="translate(48.91625 140.765795455)scale(0.12 -0.12)">
       <use xlink:href="#BitstreamVeraSans-Roman-30"/>
       <use x="63.623046875" xlink:href="#BitstreamVeraSans-Roman-2e"/>
       <use x="95.41015625" xlink:href="#BitstreamVeraSans-Roman-38"/>
      </g>
     </g>
    </g>
    <g id="ytick_6">
     <g id="line2d_26">
      <g>
       <use style="stroke:#000000;stroke-width:0.5;" x="72.0" xlink:href="#m7254cc516f" y="74.6181818182"/>
      </g>
     </g>
     <g id="line2d_27">
      <g>
       <use style="stroke:#000000;stroke-width:0.5;" x="518.4" xlink:href="#mc8734a79c9" y="74.6181818182"/>
      </g>
     </g>
     <g id="text_14">
      <!-- 1.0 -->
      <g transform="translate(48.91625 77.9294318182)scale(0.12 -0.12)">
       <use xlink:href="#BitstreamVeraSans-Roman-31"/>
       <use x="63.623046875" xlink:href="#BitstreamVeraSans-Roman-2e"/>
       <use x="95.41015625" xlink:href="#BitstreamVeraSans-Roman-30"/>
      </g>
     </g>
    </g>
    <g id="text_15">
     <!-- Correlation value -->
     <defs>
      <path d="M 8.5 21.578125 
L 8.5 54.6875 
L 17.484375 54.6875 
L 17.484375 21.921875 
Q 17.484375 14.15625 20.5 10.265625 
Q 23.53125 6.390625 29.59375 6.390625 
Q 36.859375 6.390625 41.078125 11.03125 
Q 45.3125 15.671875 45.3125 23.6875 
L 45.3125 54.6875 
L 54.296875 54.6875 
L 54.296875 0 
L 45.3125 0 
L 45.3125 8.40625 
Q 42.046875 3.421875 37.71875 1 
Q 33.40625 -1.421875 27.6875 -1.421875 
Q 18.265625 -1.421875 13.375 4.4375 
Q 8.5 10.296875 8.5 21.578125 
" id="BitstreamVeraSans-Roman-75"/>
      <path d="M 9.421875 54.6875 
L 18.40625 54.6875 
L 18.40625 0 
L 9.421875 0 
z
M 9.421875 75.984375 
L 18.40625 75.984375 
L 18.40625 64.59375 
L 9.421875 64.59375 
z
" id="BitstreamVeraSans-Roman-69"/>
      <path d="M 18.3125 70.21875 
L 18.3125 54.6875 
L 36.8125 54.6875 
L 36.8125 47.703125 
L 18.3125 47.703125 
L 18.3125 18.015625 
Q 18.3125 11.328125 20.140625 9.421875 
Q 21.96875 7.515625 27.59375 7.515625 
L 36.8125 7.515625 
L 36.8125 0 
L 27.59375 0 
Q 17.1875 0 13.234375 3.875 
Q 9.28125 7.765625 9.28125 18.015625 
L 9.28125 47.703125 
L 2.6875 47.703125 
L 2.6875 54.6875 
L 9.28125 54.6875 
L 9.28125 70.21875 
z
" id="BitstreamVeraSans-Roman-74"/>
      <path d="M 30.609375 48.390625 
Q 23.390625 48.390625 19.1875 42.75 
Q 14.984375 37.109375 14.984375 27.296875 
Q 14.984375 17.484375 19.15625 11.84375 
Q 23.34375 6.203125 30.609375 6.203125 
Q 37.796875 6.203125 41.984375 11.859375 
Q 46.1875 17.53125 46.1875 27.296875 
Q 46.1875 37.015625 41.984375 42.703125 
Q 37.796875 48.390625 30.609375 48.390625 
M 30.609375 56 
Q 42.328125 56 49.015625 48.375 
Q 55.71875 40.765625 55.71875 27.296875 
Q 55.71875 13.875 49.015625 6.21875 
Q 42.328125 -1.421875 30.609375 -1.421875 
Q 18.84375 -1.421875 12.171875 6.21875 
Q 5.515625 13.875 5.515625 27.296875 
Q 5.515625 40.765625 12.171875 48.375 
Q 18.84375 56 30.609375 56 
" id="BitstreamVeraSans-Roman-6f"/>
      <path d="M 41.109375 46.296875 
Q 39.59375 47.171875 37.8125 47.578125 
Q 36.03125 48 33.890625 48 
Q 26.265625 48 22.1875 43.046875 
Q 18.109375 38.09375 18.109375 28.8125 
L 18.109375 0 
L 9.078125 0 
L 9.078125 54.6875 
L 18.109375 54.6875 
L 18.109375 46.1875 
Q 20.953125 51.171875 25.484375 53.578125 
Q 30.03125 56 36.53125 56 
Q 37.453125 56 38.578125 55.875 
Q 39.703125 55.765625 41.0625 55.515625 
z
" id="BitstreamVeraSans-Roman-72"/>
     </defs>
     <g transform="translate(41.420625 267.6159375)rotate(-90.0)scale(0.12 -0.12)">
      <use xlink:href="#BitstreamVeraSans-Roman-43"/>
      <use x="69.82421875" xlink:href="#BitstreamVeraSans-Roman-6f"/>
      <use x="131.005859375" xlink:href="#BitstreamVeraSans-Roman-72"/>
      <use x="172.103515625" xlink:href="#BitstreamVeraSans-Roman-72"/>
      <use x="213.185546875" xlink:href="#BitstreamVeraSans-Roman-65"/>
      <use x="274.708984375" xlink:href="#BitstreamVeraSans-Roman-6c"/>
      <use x="302.4921875" xlink:href="#BitstreamVeraSans-Roman-61"/>
      <use x="363.771484375" xlink:href="#BitstreamVeraSans-Roman-74"/>
      <use x="402.98046875" xlink:href="#BitstreamVeraSans-Roman-69"/>
      <use x="430.763671875" xlink:href="#BitstreamVeraSans-Roman-6f"/>
      <use x="491.9453125" xlink:href="#BitstreamVeraSans-Roman-6e"/>
      <use x="555.32421875" xlink:href="#BitstreamVeraSans-Roman-20"/>
      <use x="587.111328125" xlink:href="#BitstreamVeraSans-Roman-76"/>
      <use x="646.291015625" xlink:href="#BitstreamVeraSans-Roman-61"/>
      <use x="707.5703125" xlink:href="#BitstreamVeraSans-Roman-6c"/>
      <use x="735.353515625" xlink:href="#BitstreamVeraSans-Roman-75"/>
      <use x="798.732421875" xlink:href="#BitstreamVeraSans-Roman-65"/>
     </g>
    </g>
   </g>
   <g id="text_16">
    <!-- Sorted Absolute Value Correlations between 2 Channels (10 second intervals) -->
    <defs>
     <path d="M 34.1875 63.1875 
L 20.796875 26.90625 
L 47.609375 26.90625 
z
M 28.609375 72.90625 
L 39.796875 72.90625 
L 67.578125 0 
L 57.328125 0 
L 50.6875 18.703125 
L 17.828125 18.703125 
L 11.1875 0 
L 0.78125 0 
z
" id="BitstreamVeraSans-Roman-41"/>
     <path d="M 8.015625 75.875 
L 15.828125 75.875 
Q 23.140625 64.359375 26.78125 53.3125 
Q 30.421875 42.28125 30.421875 31.390625 
Q 30.421875 20.453125 26.78125 9.375 
Q 23.140625 -1.703125 15.828125 -13.1875 
L 8.015625 -13.1875 
Q 14.5 -2 17.703125 9.0625 
Q 20.90625 20.125 20.90625 31.390625 
Q 20.90625 42.671875 17.703125 53.65625 
Q 14.5 64.65625 8.015625 75.875 
" id="BitstreamVeraSans-Roman-29"/>
     <path d="M 31 75.875 
Q 24.46875 64.65625 21.28125 53.65625 
Q 18.109375 42.671875 18.109375 31.390625 
Q 18.109375 20.125 21.3125 9.0625 
Q 24.515625 -2 31 -13.1875 
L 23.1875 -13.1875 
Q 15.875 -1.703125 12.234375 9.375 
Q 8.59375 20.453125 8.59375 31.390625 
Q 8.59375 42.28125 12.203125 53.3125 
Q 15.828125 64.359375 23.1875 75.875 
z
" id="BitstreamVeraSans-Roman-28"/>
     <path d="M 53.515625 70.515625 
L 53.515625 60.890625 
Q 47.90625 63.578125 42.921875 64.890625 
Q 37.9375 66.21875 33.296875 66.21875 
Q 25.25 66.21875 20.875 63.09375 
Q 16.5 59.96875 16.5 54.203125 
Q 16.5 49.359375 19.40625 46.890625 
Q 22.3125 44.4375 30.421875 42.921875 
L 36.375 41.703125 
Q 47.40625 39.59375 52.65625 34.296875 
Q 57.90625 29 57.90625 20.125 
Q 57.90625 9.515625 50.796875 4.046875 
Q 43.703125 -1.421875 29.984375 -1.421875 
Q 24.8125 -1.421875 18.96875 -0.25 
Q 13.140625 0.921875 6.890625 3.21875 
L 6.890625 13.375 
Q 12.890625 10.015625 18.65625 8.296875 
Q 24.421875 6.59375 29.984375 6.59375 
Q 38.421875 6.59375 43.015625 9.90625 
Q 47.609375 13.234375 47.609375 19.390625 
Q 47.609375 24.75 44.3125 27.78125 
Q 41.015625 30.8125 33.5 32.328125 
L 27.484375 33.5 
Q 16.453125 35.6875 11.515625 40.375 
Q 6.59375 45.0625 6.59375 53.421875 
Q 6.59375 63.09375 13.40625 68.65625 
Q 20.21875 74.21875 32.171875 74.21875 
Q 37.3125 74.21875 42.625 73.28125 
Q 47.953125 72.359375 53.515625 70.515625 
" id="BitstreamVeraSans-Roman-53"/>
     <path d="M 28.609375 0 
L 0.78125 72.90625 
L 11.078125 72.90625 
L 34.1875 11.53125 
L 57.328125 72.90625 
L 67.578125 72.90625 
L 39.796875 0 
z
" id="BitstreamVeraSans-Roman-56"/>
     <path d="M 4.203125 54.6875 
L 13.1875 54.6875 
L 24.421875 12.015625 
L 35.59375 54.6875 
L 46.1875 54.6875 
L 57.421875 12.015625 
L 68.609375 54.6875 
L 77.59375 54.6875 
L 63.28125 0 
L 52.6875 0 
L 40.921875 44.828125 
L 29.109375 0 
L 18.5 0 
z
" id="BitstreamVeraSans-Roman-77"/>
     <path d="M 45.40625 46.390625 
L 45.40625 75.984375 
L 54.390625 75.984375 
L 54.390625 0 
L 45.40625 0 
L 45.40625 8.203125 
Q 42.578125 3.328125 38.25 0.953125 
Q 33.9375 -1.421875 27.875 -1.421875 
Q 17.96875 -1.421875 11.734375 6.484375 
Q 5.515625 14.40625 5.515625 27.296875 
Q 5.515625 40.1875 11.734375 48.09375 
Q 17.96875 56 27.875 56 
Q 33.9375 56 38.25 53.625 
Q 42.578125 51.265625 45.40625 46.390625 
M 14.796875 27.296875 
Q 14.796875 17.390625 18.875 11.75 
Q 22.953125 6.109375 30.078125 6.109375 
Q 37.203125 6.109375 41.296875 11.75 
Q 45.40625 17.390625 45.40625 27.296875 
Q 45.40625 37.203125 41.296875 42.84375 
Q 37.203125 48.484375 30.078125 48.484375 
Q 22.953125 48.484375 18.875 42.84375 
Q 14.796875 37.203125 14.796875 27.296875 
" id="BitstreamVeraSans-Roman-64"/>
     <path d="M 48.78125 52.59375 
L 48.78125 44.1875 
Q 44.96875 46.296875 41.140625 47.34375 
Q 37.3125 48.390625 33.40625 48.390625 
Q 24.65625 48.390625 19.8125 42.84375 
Q 14.984375 37.3125 14.984375 27.296875 
Q 14.984375 17.28125 19.8125 11.734375 
Q 24.65625 6.203125 33.40625 6.203125 
Q 37.3125 6.203125 41.140625 7.25 
Q 44.96875 8.296875 48.78125 10.40625 
L 48.78125 2.09375 
Q 45.015625 0.34375 40.984375 -0.53125 
Q 36.96875 -1.421875 32.421875 -1.421875 
Q 20.0625 -1.421875 12.78125 6.34375 
Q 5.515625 14.109375 5.515625 27.296875 
Q 5.515625 40.671875 12.859375 48.328125 
Q 20.21875 56 33.015625 56 
Q 37.15625 56 41.109375 55.140625 
Q 45.0625 54.296875 48.78125 52.59375 
" id="BitstreamVeraSans-Roman-63"/>
     <path d="M 48.6875 27.296875 
Q 48.6875 37.203125 44.609375 42.84375 
Q 40.53125 48.484375 33.40625 48.484375 
Q 26.265625 48.484375 22.1875 42.84375 
Q 18.109375 37.203125 18.109375 27.296875 
Q 18.109375 17.390625 22.1875 11.75 
Q 26.265625 6.109375 33.40625 6.109375 
Q 40.53125 6.109375 44.609375 11.75 
Q 48.6875 17.390625 48.6875 27.296875 
M 18.109375 46.390625 
Q 20.953125 51.265625 25.265625 53.625 
Q 29.59375 56 35.59375 56 
Q 45.5625 56 51.78125 48.09375 
Q 58.015625 40.1875 58.015625 27.296875 
Q 58.015625 14.40625 51.78125 6.484375 
Q 45.5625 -1.421875 35.59375 -1.421875 
Q 29.59375 -1.421875 25.265625 0.953125 
Q 20.953125 3.328125 18.109375 8.203125 
L 18.109375 0 
L 9.078125 0 
L 9.078125 75.984375 
L 18.109375 75.984375 
z
" id="BitstreamVeraSans-Roman-62"/>
    </defs>
    <g transform="translate(14.632875 38.2)scale(0.144 -0.144)">
     <use xlink:href="#BitstreamVeraSans-Roman-53"/>
     <use x="63.4765625" xlink:href="#BitstreamVeraSans-Roman-6f"/>
     <use x="124.658203125" xlink:href="#BitstreamVeraSans-Roman-72"/>
     <use x="165.771484375" xlink:href="#BitstreamVeraSans-Roman-74"/>
     <use x="204.98046875" xlink:href="#BitstreamVeraSans-Roman-65"/>
     <use x="266.50390625" xlink:href="#BitstreamVeraSans-Roman-64"/>
     <use x="329.98046875" xlink:href="#BitstreamVeraSans-Roman-20"/>
     <use x="361.767578125" xlink:href="#BitstreamVeraSans-Roman-41"/>
     <use x="430.17578125" xlink:href="#BitstreamVeraSans-Roman-62"/>
     <use x="493.65234375" xlink:href="#BitstreamVeraSans-Roman-73"/>
     <use x="545.751953125" xlink:href="#BitstreamVeraSans-Roman-6f"/>
     <use x="606.93359375" xlink:href="#BitstreamVeraSans-Roman-6c"/>
     <use x="634.716796875" xlink:href="#BitstreamVeraSans-Roman-75"/>
     <use x="698.095703125" xlink:href="#BitstreamVeraSans-Roman-74"/>
     <use x="737.3046875" xlink:href="#BitstreamVeraSans-Roman-65"/>
     <use x="798.828125" xlink:href="#BitstreamVeraSans-Roman-20"/>
     <use x="830.615234375" xlink:href="#BitstreamVeraSans-Roman-56"/>
     <use x="898.9140625" xlink:href="#BitstreamVeraSans-Roman-61"/>
     <use x="960.193359375" xlink:href="#BitstreamVeraSans-Roman-6c"/>
     <use x="987.9765625" xlink:href="#BitstreamVeraSans-Roman-75"/>
     <use x="1051.35546875" xlink:href="#BitstreamVeraSans-Roman-65"/>
     <use x="1112.87890625" xlink:href="#BitstreamVeraSans-Roman-20"/>
     <use x="1144.66601562" xlink:href="#BitstreamVeraSans-Roman-43"/>
     <use x="1214.49023438" xlink:href="#BitstreamVeraSans-Roman-6f"/>
     <use x="1275.671875" xlink:href="#BitstreamVeraSans-Roman-72"/>
     <use x="1316.76953125" xlink:href="#BitstreamVeraSans-Roman-72"/>
     <use x="1357.8515625" xlink:href="#BitstreamVeraSans-Roman-65"/>
     <use x="1419.375" xlink:href="#BitstreamVeraSans-Roman-6c"/>
     <use x="1447.15820312" xlink:href="#BitstreamVeraSans-Roman-61"/>
     <use x="1508.4375" xlink:href="#BitstreamVeraSans-Roman-74"/>
     <use x="1547.64648438" xlink:href="#BitstreamVeraSans-Roman-69"/>
     <use x="1575.4296875" xlink:href="#BitstreamVeraSans-Roman-6f"/>
     <use x="1636.61132812" xlink:href="#BitstreamVeraSans-Roman-6e"/>
     <use x="1699.99023438" xlink:href="#BitstreamVeraSans-Roman-73"/>
     <use x="1752.08984375" xlink:href="#BitstreamVeraSans-Roman-20"/>
     <use x="1783.87695312" xlink:href="#BitstreamVeraSans-Roman-62"/>
     <use x="1847.35351562" xlink:href="#BitstreamVeraSans-Roman-65"/>
     <use x="1908.87695312" xlink:href="#BitstreamVeraSans-Roman-74"/>
     <use x="1948.0859375" xlink:href="#BitstreamVeraSans-Roman-77"/>
     <use x="2029.87304688" xlink:href="#BitstreamVeraSans-Roman-65"/>
     <use x="2091.39648438" xlink:href="#BitstreamVeraSans-Roman-65"/>
     <use x="2152.91992188" xlink:href="#BitstreamVeraSans-Roman-6e"/>
     <use x="2216.29882812" xlink:href="#BitstreamVeraSans-Roman-20"/>
     <use x="2248.0859375" xlink:href="#BitstreamVeraSans-Roman-32"/>
     <use x="2311.70898438" xlink:href="#BitstreamVeraSans-Roman-20"/>
     <use x="2343.49609375" xlink:href="#BitstreamVeraSans-Roman-43"/>
     <use x="2413.3203125" xlink:href="#BitstreamVeraSans-Roman-68"/>
     <use x="2476.69921875" xlink:href="#BitstreamVeraSans-Roman-61"/>
     <use x="2537.97851562" xlink:href="#BitstreamVeraSans-Roman-6e"/>
     <use x="2601.35742188" xlink:href="#BitstreamVeraSans-Roman-6e"/>
     <use x="2664.73632812" xlink:href="#BitstreamVeraSans-Roman-65"/>
     <use x="2726.25976562" xlink:href="#BitstreamVeraSans-Roman-6c"/>
     <use x="2754.04296875" xlink:href="#BitstreamVeraSans-Roman-73"/>
     <use x="2806.14257812" xlink:href="#BitstreamVeraSans-Roman-20"/>
     <use x="2837.9296875" xlink:href="#BitstreamVeraSans-Roman-28"/>
     <use x="2876.94335938" xlink:href="#BitstreamVeraSans-Roman-31"/>
     <use x="2940.56640625" xlink:href="#BitstreamVeraSans-Roman-30"/>
     <use x="3004.18945312" xlink:href="#BitstreamVeraSans-Roman-20"/>
     <use x="3035.9765625" xlink:href="#BitstreamVeraSans-Roman-73"/>
     <use x="3088.07617188" xlink:href="#BitstreamVeraSans-Roman-65"/>
     <use x="3149.59960938" xlink:href="#BitstreamVeraSans-Roman-63"/>
     <use x="3204.58007812" xlink:href="#BitstreamVeraSans-Roman-6f"/>
     <use x="3265.76171875" xlink:href="#BitstreamVeraSans-Roman-6e"/>
     <use x="3329.140625" xlink:href="#BitstreamVeraSans-Roman-64"/>
     <use x="3392.6171875" xlink:href="#BitstreamVeraSans-Roman-20"/>
     <use x="3424.40429688" xlink:href="#BitstreamVeraSans-Roman-69"/>
     <use x="3452.1875" xlink:href="#BitstreamVeraSans-Roman-6e"/>
     <use x="3515.56640625" xlink:href="#BitstreamVeraSans-Roman-74"/>
     <use x="3554.77539062" xlink:href="#BitstreamVeraSans-Roman-65"/>
     <use x="3616.29882812" xlink:href="#BitstreamVeraSans-Roman-72"/>
     <use x="3657.41210938" xlink:href="#BitstreamVeraSans-Roman-76"/>
     <use x="3716.59179688" xlink:href="#BitstreamVeraSans-Roman-61"/>
     <use x="3777.87109375" xlink:href="#BitstreamVeraSans-Roman-6c"/>
     <use x="3805.65429688" xlink:href="#BitstreamVeraSans-Roman-73"/>
     <use x="3857.75390625" xlink:href="#BitstreamVeraSans-Roman-29"/>
    </g>
   </g>
  </g>
 </g>
 <defs>
  <clipPath id="pdd8c5587aa">
   <rect height="345.6" width="446.4" x="72.0" y="43.2"/>
  </clipPath>
 </defs>
</svg>
