<?xml version="1.0" encoding="utf-8" standalone="no"?>
<!DOCTYPE svg PUBLIC "-//W3C//DTD SVG 1.1//EN"
  "http://www.w3.org/Graphics/SVG/1.1/DTD/svg11.dtd">
<!-- Created with matplotlib (http://matplotlib.org/) -->
<svg height="432pt" version="1.1" viewBox="0 0 576 432" width="576pt" xmlns="http://www.w3.org/2000/svg" xmlns:xlink="http://www.w3.org/1999/xlink">
 <defs>
  <style type="text/css">
*{stroke-linecap:butt;stroke-linejoin:round;stroke-miterlimit:100000;}
  </style>
 </defs>
 <g id="figure_1">
  <g id="patch_1">
   <path d="M 0 432 
L 576 432 
L 576 0 
L 0 0 
z
" style="fill:#ffffff;"/>
  </g>
  <g id="axes_1">
   <g id="patch_2">
    <path d="M 72 388.8 
L 518.4 388.8 
L 518.4 43.2 
L 72 43.2 
z
" style="fill:#ffffff;"/>
   </g>
   <g id="line2d_1">
    <path clip-path="url(#pbf3fb3aba0)" d="M 72.000338 388.799392 
L 74.062542 387.337944 
L 74.28301 387.185477 
L 74.420085 387.091495 
L 75.886046 386.023601 
L 76.114617 385.858837 
L 76.319892 385.712111 
L 77.651817 384.781013 
L 77.792943 384.681498 
L 78.049875 384.507195 
L 78.538416 384.154683 
L 78.701488 384.038219 
L 78.852406 383.931339 
L 79.029996 383.804851 
L 79.380449 383.564054 
L 79.554325 383.451643 
L 80.036114 383.126127 
L 80.215392 382.995912 
L 89.793769 376.185005 
L 89.983176 376.051169 
L 90.52101 375.652956 
L 90.715144 375.511839 
L 90.905226 375.372959 
L 91.124681 375.209727 
L 91.686486 374.809472 
L 95.182915 372.324136 
L 97.139105 370.941431 
L 97.856555 370.434417 
L 98.508506 369.948878 
L 98.674954 369.835374 
L 98.889008 369.676591 
L 99.067273 369.554988 
L 99.27795 369.417795 
L 99.482212 369.281763 
L 100.172652 368.778456 
L 100.360033 368.653172 
L 100.660856 368.45025 
L 100.813799 368.333198 
L 102.687609 367.016769 
L 103.001937 366.800501 
L 103.237935 366.635378 
L 103.633293 366.355766 
L 103.797715 366.236261 
L 105.884903 364.74138 
L 106.155002 364.55128 
L 107.895113 363.323517 
L 108.177029 363.120016 
L 109.051474 362.501898 
L 109.477555 362.194703 
L 109.638263 362.07617 
L 109.832735 361.942838 
L 110.024167 361.798848 
L 112.58234 359.937444 
L 112.738322 359.813834 
L 112.959803 359.659875 
L 113.223825 359.478927 
L 113.394324 359.362055 
L 113.544229 359.245584 
L 113.76571 359.099705 
L 114.975415 358.240734 
L 115.161446 358.108624 
L 115.361319 357.969256 
L 115.643234 357.763108 
L 116.155071 357.391108 
L 116.553805 357.10066 
L 117.145996 356.65994 
L 118.332743 355.822582 
L 118.508307 355.699226 
L 119.003938 355.326508 
L 119.245001 355.149702 
L 119.595117 354.89535 
L 120.680914 354.134245 
L 120.924678 353.95346 
L 121.084036 353.831851 
L 121.431113 353.596214 
L 121.6688 353.43033 
L 121.896021 353.274575 
L 122.082051 353.150721 
L 122.254914 353.022894 
L 122.598953 352.784199 
L 123.186755 352.366796 
L 125.92792 350.415396 
L 126.069384 350.319459 
L 126.262505 350.179794 
L 200.743928 297.04666 
L 201.217277 296.724893 
L 201.349287 296.635516 
L 201.569755 296.470024 
L 202.04648 296.130463 
L 202.497207 295.823552 
L 203.364562 295.214827 
L 203.813939 294.894792 
L 204.468591 294.437304 
L 204.632676 294.319606 
L 204.804863 294.196874 
L 205.002711 294.058121 
L 205.230607 293.893287 
L 205.543246 293.68018 
L 205.858249 293.457014 
L 206.091546 293.283467 
L 206.369073 293.080402 
L 206.764092 292.805334 
L 207.286396 292.433111 
L 207.450143 292.321611 
L 208.51467 291.59168 
L 208.727373 291.44274 
L 208.920831 291.306162 
L 209.350288 291.004208 
L 209.750034 290.733612 
L 210.094748 290.491438 
L 210.296309 290.352013 
L 210.743323 290.038976 
L 210.961427 289.90356 
L 211.115721 289.803123 
L 211.386833 289.615159 
L 211.564085 289.49287 
L 211.842287 289.306254 
L 212.460475 288.885305 
L 212.735639 288.697118 
L 212.955094 288.555078 
L 214.166487 287.698728 
L 214.321118 287.597618 
L 214.94741 287.1597 
L 215.90626 286.477084 
L 216.106134 286.343866 
L 216.303643 286.200523 
L 216.471105 286.078468 
L 217.624089 285.277551 
L 218.127485 284.929452 
L 218.429321 284.715451 
L 221.401082 282.581697 
L 221.560441 282.479173 
L 221.742082 282.352749 
L 221.910218 282.235013 
L 222.092873 282.119145 
L 222.255607 282.007903 
L 222.592893 281.769812 
L 222.819101 281.619635 
L 222.963941 281.520396 
L 223.716504 280.987536 
L 223.875862 280.877911 
L 224.045687 280.763027 
L 224.233743 280.623089 
L 224.408632 280.506628 
L 227.093076 278.657575 
L 227.22745 278.558427 
L 227.490797 278.36679 
L 227.90371 278.090188 
L 228.226141 277.862048 
L 228.43783 277.717772 
L 228.627575 277.574054 
L 228.783895 277.462622 
L 228.930085 277.354302 
L 229.126245 277.221704 
L 233.822925 273.967702 
L 234.006592 273.844729 
L 234.164262 273.739763 
L 234.639973 273.406793 
L 234.773672 273.308774 
L 235.302391 272.942444 
L 235.585994 272.750085 
L 235.811864 272.587863 
L 236.10087 272.390866 
L 236.694412 271.966409 
L 238.34978 270.810954 
L 238.491582 270.710812 
L 238.693143 270.587271 
L 239.264064 270.193944 
L 239.937286 269.724982 
L 240.111499 269.610842 
L 240.265456 269.499465 
L 240.556825 269.296511 
L 240.767839 269.154647 
L 242.446503 267.991709 
L 242.710187 267.814488 
L 242.857728 267.718406 
L 243.03363 267.60155 
L 243.656546 267.187012 
L 243.865197 267.04286 
L 244.051565 266.91463 
L 244.238946 266.785583 
L 244.553611 266.562136 
L 245.352091 266.007069 
L 245.770744 265.720213 
L 245.955761 265.600961 
L 247.444343 264.543122 
L 247.674265 264.37961 
L 249.994751 262.753198 
L 250.176392 262.629708 
L 250.32866 262.531734 
L 250.505575 262.410696 
L 250.684516 262.294871 
L 250.859742 262.168805 
L 302.877389 227.117703 
L 303.178549 226.923552 
L 304.837293 225.817929 
L 304.998677 225.701944 
L 305.159386 225.589623 
L 306.123638 224.93395 
L 306.303592 224.815494 
L 307.521399 224.004048 
L 307.69325 223.888729 
L 307.90629 223.750629 
L 310.293626 222.172858 
L 310.554609 222.000668 
L 311.0786 221.667763 
L 312.677247 220.617529 
L 313.203265 220.269074 
L 313.393684 220.14832 
L 313.690455 219.959223 
L 313.873785 219.837255 
L 315.637867 218.699512 
L 315.822547 218.584345 
L 315.983931 218.48001 
L 317.511678 217.477397 
L 317.716277 217.330401 
L 318.135606 217.064696 
L 318.44183 216.87255 
L 318.619758 216.75006 
L 319.088042 216.453671 
L 319.269345 216.337125 
L 319.655587 216.071411 
L 320.128259 215.750701 
L 320.424693 215.558525 
L 320.619839 215.435658 
L 321.105004 215.121001 
L 321.288671 215.003798 
L 325.189573 212.434697 
L 325.418144 212.295855 
L 325.652792 212.149551 
L 325.971509 211.940002 
L 326.478619 211.604296 
L 326.626498 211.500887 
L 326.864185 211.345923 
L 327.118753 211.168979 
L 327.675832 210.794156 
L 328.248104 210.404236 
L 328.458105 210.263724 
L 328.9561 209.940037 
L 329.139092 209.812501 
L 330.161078 209.159275 
L 330.340356 209.050441 
L 330.5956 208.895703 
L 331.188804 208.500439 
L 331.415349 208.350377 
L 331.713133 208.152341 
L 336.245391 205.185659 
L 336.467884 205.04898 
L 336.929753 204.748124 
L 337.204916 204.56688 
L 338.460876 203.734963 
L 338.663787 203.606538 
L 339.380562 203.14867 
L 339.561866 203.02603 
L 339.741144 202.913751 
L 339.950133 202.77868 
L 340.19626 202.615903 
L 341.108856 201.995278 
L 341.325611 201.855264 
L 342.211872 201.260697 
L 342.406681 201.1341 
L 342.656522 200.967776 
L 343.07315 200.680181 
L 343.213601 200.581915 
L 343.782834 200.197418 
L 344.469223 199.742027 
L 361.899709 188.430707 
L 362.061093 188.323873 
L 366.90025 185.172591 
L 367.198709 184.978277 
L 371.335272 182.284822 
L 371.560805 182.137902 
L 372.019297 181.838221 
L 372.290746 181.667668 
L 372.427146 181.573723 
L 380.130363 176.535951 
L 380.51863 176.281889 
L 380.686429 176.174784 
L 380.881238 176.040233 
L 381.3583 175.728366 
L 382.033884 175.280154 
L 382.294192 175.11686 
L 382.814807 174.778589 
L 383.021095 174.640885 
L 383.229409 174.508017 
L 383.77332 174.14878 
L 384.093725 173.934157 
L 384.290222 173.811674 
L 385.312208 173.152762 
L 386.754873 172.199393 
L 386.93145 172.078788 
L 388.873798 170.805913 
L 389.015262 170.720107 
L 389.24856 170.572052 
L 389.452822 170.44398 
L 389.794497 170.222076 
L 389.997746 170.087731 
L 390.357315 169.851254 
L 390.911693 169.493476 
L 391.371874 169.189184 
L 391.821251 168.89531 
L 392.099452 168.717242 
L 392.233827 168.62918 
L 392.479279 168.47063 
L 393.257163 167.958318 
L 393.394238 167.864923 
L 403.29167 161.381484 
L 403.418279 161.301777 
L 403.987512 160.91923 
L 404.223849 160.761891 
L 404.375442 160.66352 
L 405.437605 159.971696 
L 405.617896 159.854297 
L 405.87449 159.690624 
L 406.091244 159.545959 
L 407.29656 158.740063 
L 407.452204 158.642658 
L 407.957289 158.291754 
L 408.339479 158.039055 
L 408.722681 157.782362 
L 408.923567 157.652734 
L 409.105884 157.53182 
L 409.282799 157.416637 
L 409.635953 157.176301 
L 409.808141 157.052405 
L 410.03131 156.901869 
L 413.814718 154.382312 
L 414.048691 154.222877 
L 414.256667 154.089824 
L 414.703343 153.802625 
L 414.880596 153.681374 
L 419.804834 150.446085 
L 420.011459 150.307276 
L 420.494598 149.999295 
L 420.682992 149.872684 
L 420.974024 149.674841 
L 421.165456 149.550447 
L 421.341358 149.433691 
L 421.538193 149.310636 
L 422.156381 148.882934 
L 422.505821 148.640412 
L 422.648636 148.554304 
L 422.931902 148.374102 
L 423.102402 148.250994 
L 423.391745 148.062535 
L 423.709449 147.84386 
L 435.471237 139.868601 
L 435.88145 139.575296 
L 436.115423 139.42509 
L 436.917954 138.876552 
L 437.156654 138.711275 
L 437.381849 138.555293 
L 437.732302 138.306216 
L 439.007843 137.422957 
L 439.429535 137.128213 
L 439.618942 137.004747 
L 441.699377 135.587608 
L 442.627842 134.95162 
L 442.859452 134.78811 
L 442.995852 134.693815 
L 459.923954 122.721084 
L 460.067107 122.616098 
L 460.355099 122.428088 
L 460.592111 122.249225 
L 460.894622 122.047296 
L 461.031697 121.948194 
L 461.380799 121.706008 
L 461.595528 121.568573 
L 462.215067 121.128617 
L 462.703608 120.778003 
L 462.870394 120.662985 
L 463.213757 120.411413 
L 463.981175 119.873618 
L 464.168894 119.734178 
L 474.405975 112.408973 
L 474.595719 112.265194 
L 474.816187 112.097833 
L 475.02889 111.950106 
L 475.211207 111.8235 
L 475.517431 111.620498 
L 475.924268 111.329207 
L 476.10287 111.203661 
L 477.767692 110.034175 
L 478.02361 109.844753 
L 478.466572 109.530653 
L 478.739372 109.346638 
L 479.15026 109.056515 
L 479.341692 108.91982 
L 479.482819 108.813443 
L 480.036521 108.438713 
L 480.486236 108.114171 
L 480.627362 108.00459 
L 480.82656 107.86237 
L 481.066611 107.685251 
L 481.405247 107.438605 
L 482.652766 106.556685 
L 482.789165 106.463611 
L 482.944135 106.34197 
L 483.286822 106.110516 
L 483.510329 105.946936 
L 483.687244 105.836688 
L 483.917503 105.675492 
L 485.390217 104.622183 
L 485.753499 104.381199 
L 485.955398 104.238518 
L 486.125561 104.127857 
L 486.381479 103.948256 
L 488.283987 102.634271 
L 488.53788 102.447949 
L 488.867063 102.215487 
L 490.050096 101.375175 
L 490.225997 101.250504 
L 490.663557 100.950032 
L 490.861742 100.818244 
L 493.758214 98.761718 
L 493.916897 98.649393 
L 502.438176 92.360794 
L 502.789979 92.092975 
L 502.995254 91.94035 
L 503.217411 91.782213 
L 503.846403 91.297061 
L 504.072611 91.127056 
L 504.293754 90.964731 
L 504.641844 90.68946 
L 504.896412 90.488706 
L 505.18508 90.26192 
L 505.847497 89.753406 
L 506.472776 89.265504 
L 506.617616 89.152401 
L 506.76347 89.035108 
L 511.360551 85.070085 
L 511.505391 84.926148 
L 511.772114 84.662995 
L 511.947003 84.482915 
L 512.374772 84.048141 
L 512.680321 83.715915 
L 512.819422 83.5588 
L 514.048371 82.072299 
L 514.224611 81.823678 
L 514.383631 81.609363 
L 514.549404 81.347528 
L 514.908298 80.743912 
L 515.127078 80.355904 
L 515.321549 79.983388 
L 515.38401 79.857533 
L 515.603802 79.374265 
L 515.645668 79.259684 
L 515.863097 78.719847 
L 516.04744 78.188066 
L 516.230432 77.715221 
L 516.381012 77.323918 
L 516.752735 76.315257 
L 516.961049 75.863761 
L 517.335136 75.333619 
L 517.83178 74.921848 
L 518.399325 74.62013 
L 518.399325 74.62013 
" style="fill:none;stroke:#0000ff;stroke-linecap:square;"/>
   </g>
   <g id="patch_3">
    <path d="M 72 43.2 
L 518.4 43.2 
" style="fill:none;stroke:#000000;stroke-linecap:square;stroke-linejoin:miter;"/>
   </g>
   <g id="patch_4">
    <path d="M 518.4 388.8 
L 518.4 43.2 
" style="fill:none;stroke:#000000;stroke-linecap:square;stroke-linejoin:miter;"/>
   </g>
   <g id="patch_5">
    <path d="M 72 388.8 
L 518.4 388.8 
" style="fill:none;stroke:#000000;stroke-linecap:square;stroke-linejoin:miter;"/>
   </g>
   <g id="patch_6">
    <path d="M 72 388.8 
L 72 43.2 
" style="fill:none;stroke:#000000;stroke-linecap:square;stroke-linejoin:miter;"/>
   </g>
   <g id="matplotlib.axis_1">
    <g id="xtick_1">
     <g id="line2d_2">
      <defs>
       <path d="M 0 0 
L 0 -4 
" id="m5420624ecd" style="stroke:#000000;stroke-width:0.5;"/>
      </defs>
      <g>
       <use style="stroke:#000000;stroke-width:0.5;" x="72.0003376235" xlink:href="#m5420624ecd" y="388.8"/>
      </g>
     </g>
     <g id="line2d_3">
      <defs>
       <path d="M 0 0 
L 0 4 
" id="m4549a044ca" style="stroke:#000000;stroke-width:0.5;"/>
      </defs>
      <g>
       <use style="stroke:#000000;stroke-width:0.5;" x="72.0003376235" xlink:href="#m4549a044ca" y="43.2"/>
      </g>
     </g>
     <g id="text_1">
      <!-- 0 -->
      <defs>
       <path d="M 31.78125 66.40625 
Q 24.171875 66.40625 20.328125 58.90625 
Q 16.5 51.421875 16.5 36.375 
Q 16.5 21.390625 20.328125 13.890625 
Q 24.171875 6.390625 31.78125 6.390625 
Q 39.453125 6.390625 43.28125 13.890625 
Q 47.125 21.390625 47.125 36.375 
Q 47.125 51.421875 43.28125 58.90625 
Q 39.453125 66.40625 31.78125 66.40625 
M 31.78125 74.21875 
Q 44.046875 74.21875 50.515625 64.515625 
Q 56.984375 54.828125 56.984375 36.375 
Q 56.984375 17.96875 50.515625 8.265625 
Q 44.046875 -1.421875 31.78125 -1.421875 
Q 19.53125 -1.421875 13.0625 8.265625 
Q 6.59375 17.96875 6.59375 36.375 
Q 6.59375 54.828125 13.0625 64.515625 
Q 19.53125 74.21875 31.78125 74.21875 
" id="BitstreamVeraSans-Roman-30"/>
      </defs>
      <g transform="translate(68.1828376235 401.918125)scale(0.12 -0.12)">
       <use xlink:href="#BitstreamVeraSans-Roman-30"/>
      </g>
     </g>
    </g>
    <g id="xtick_2">
     <g id="line2d_4">
      <g>
       <use style="stroke:#000000;stroke-width:0.5;" x="139.525029742" xlink:href="#m5420624ecd" y="388.8"/>
      </g>
     </g>
     <g id="line2d_5">
      <g>
       <use style="stroke:#000000;stroke-width:0.5;" x="139.525029742" xlink:href="#m4549a044ca" y="43.2"/>
      </g>
     </g>
     <g id="text_2">
      <!-- 200000 -->
      <defs>
       <path d="M 19.1875 8.296875 
L 53.609375 8.296875 
L 53.609375 0 
L 7.328125 0 
L 7.328125 8.296875 
Q 12.9375 14.109375 22.625 23.890625 
Q 32.328125 33.6875 34.8125 36.53125 
Q 39.546875 41.84375 41.421875 45.53125 
Q 43.3125 49.21875 43.3125 52.78125 
Q 43.3125 58.59375 39.234375 62.25 
Q 35.15625 65.921875 28.609375 65.921875 
Q 23.96875 65.921875 18.8125 64.3125 
Q 13.671875 62.703125 7.8125 59.421875 
L 7.8125 69.390625 
Q 13.765625 71.78125 18.9375 73 
Q 24.125 74.21875 28.421875 74.21875 
Q 39.75 74.21875 46.484375 68.546875 
Q 53.21875 62.890625 53.21875 53.421875 
Q 53.21875 48.921875 51.53125 44.890625 
Q 49.859375 40.875 45.40625 35.40625 
Q 44.1875 33.984375 37.640625 27.21875 
Q 31.109375 20.453125 19.1875 8.296875 
" id="BitstreamVeraSans-Roman-32"/>
      </defs>
      <g transform="translate(116.620029742 401.918125)scale(0.12 -0.12)">
       <use xlink:href="#BitstreamVeraSans-Roman-32"/>
       <use x="63.623046875" xlink:href="#BitstreamVeraSans-Roman-30"/>
       <use x="127.24609375" xlink:href="#BitstreamVeraSans-Roman-30"/>
       <use x="190.869140625" xlink:href="#BitstreamVeraSans-Roman-30"/>
       <use x="254.4921875" xlink:href="#BitstreamVeraSans-Roman-30"/>
       <use x="318.115234375" xlink:href="#BitstreamVeraSans-Roman-30"/>
      </g>
     </g>
    </g>
    <g id="xtick_3">
     <g id="line2d_6">
      <g>
       <use style="stroke:#000000;stroke-width:0.5;" x="207.049721861" xlink:href="#m5420624ecd" y="388.8"/>
      </g>
     </g>
     <g id="line2d_7">
      <g>
       <use style="stroke:#000000;stroke-width:0.5;" x="207.049721861" xlink:href="#m4549a044ca" y="43.2"/>
      </g>
     </g>
     <g id="text_3">
      <!-- 400000 -->
      <defs>
       <path d="M 37.796875 64.3125 
L 12.890625 25.390625 
L 37.796875 25.390625 
z
M 35.203125 72.90625 
L 47.609375 72.90625 
L 47.609375 25.390625 
L 58.015625 25.390625 
L 58.015625 17.1875 
L 47.609375 17.1875 
L 47.609375 0 
L 37.796875 0 
L 37.796875 17.1875 
L 4.890625 17.1875 
L 4.890625 26.703125 
z
" id="BitstreamVeraSans-Roman-34"/>
      </defs>
      <g transform="translate(184.144721861 401.918125)scale(0.12 -0.12)">
       <use xlink:href="#BitstreamVeraSans-Roman-34"/>
       <use x="63.623046875" xlink:href="#BitstreamVeraSans-Roman-30"/>
       <use x="127.24609375" xlink:href="#BitstreamVeraSans-Roman-30"/>
       <use x="190.869140625" xlink:href="#BitstreamVeraSans-Roman-30"/>
       <use x="254.4921875" xlink:href="#BitstreamVeraSans-Roman-30"/>
       <use x="318.115234375" xlink:href="#BitstreamVeraSans-Roman-30"/>
      </g>
     </g>
    </g>
    <g id="xtick_4">
     <g id="line2d_8">
      <g>
       <use style="stroke:#000000;stroke-width:0.5;" x="274.574413981" xlink:href="#m5420624ecd" y="388.8"/>
      </g>
     </g>
     <g id="line2d_9">
      <g>
       <use style="stroke:#000000;stroke-width:0.5;" x="274.574413981" xlink:href="#m4549a044ca" y="43.2"/>
      </g>
     </g>
     <g id="text_4">
      <!-- 600000 -->
      <defs>
       <path d="M 33.015625 40.375 
Q 26.375 40.375 22.484375 35.828125 
Q 18.609375 31.296875 18.609375 23.390625 
Q 18.609375 15.53125 22.484375 10.953125 
Q 26.375 6.390625 33.015625 6.390625 
Q 39.65625 6.390625 43.53125 10.953125 
Q 47.40625 15.53125 47.40625 23.390625 
Q 47.40625 31.296875 43.53125 35.828125 
Q 39.65625 40.375 33.015625 40.375 
M 52.59375 71.296875 
L 52.59375 62.3125 
Q 48.875 64.0625 45.09375 64.984375 
Q 41.3125 65.921875 37.59375 65.921875 
Q 27.828125 65.921875 22.671875 59.328125 
Q 17.53125 52.734375 16.796875 39.40625 
Q 19.671875 43.65625 24.015625 45.921875 
Q 28.375 48.1875 33.59375 48.1875 
Q 44.578125 48.1875 50.953125 41.515625 
Q 57.328125 34.859375 57.328125 23.390625 
Q 57.328125 12.15625 50.6875 5.359375 
Q 44.046875 -1.421875 33.015625 -1.421875 
Q 20.359375 -1.421875 13.671875 8.265625 
Q 6.984375 17.96875 6.984375 36.375 
Q 6.984375 53.65625 15.1875 63.9375 
Q 23.390625 74.21875 37.203125 74.21875 
Q 40.921875 74.21875 44.703125 73.484375 
Q 48.484375 72.75 52.59375 71.296875 
" id="BitstreamVeraSans-Roman-36"/>
      </defs>
      <g transform="translate(251.669413981 401.918125)scale(0.12 -0.12)">
       <use xlink:href="#BitstreamVeraSans-Roman-36"/>
       <use x="63.623046875" xlink:href="#BitstreamVeraSans-Roman-30"/>
       <use x="127.24609375" xlink:href="#BitstreamVeraSans-Roman-30"/>
       <use x="190.869140625" xlink:href="#BitstreamVeraSans-Roman-30"/>
       <use x="254.4921875" xlink:href="#BitstreamVeraSans-Roman-30"/>
       <use x="318.115234375" xlink:href="#BitstreamVeraSans-Roman-30"/>
      </g>
     </g>
    </g>
    <g id="xtick_5">
     <g id="line2d_10">
      <g>
       <use style="stroke:#000000;stroke-width:0.5;" x="342.0991061" xlink:href="#m5420624ecd" y="388.8"/>
      </g>
     </g>
     <g id="line2d_11">
      <g>
       <use style="stroke:#000000;stroke-width:0.5;" x="342.0991061" xlink:href="#m4549a044ca" y="43.2"/>
      </g>
     </g>
     <g id="text_5">
      <!-- 800000 -->
      <defs>
       <path d="M 31.78125 34.625 
Q 24.75 34.625 20.71875 30.859375 
Q 16.703125 27.09375 16.703125 20.515625 
Q 16.703125 13.921875 20.71875 10.15625 
Q 24.75 6.390625 31.78125 6.390625 
Q 38.8125 6.390625 42.859375 10.171875 
Q 46.921875 13.96875 46.921875 20.515625 
Q 46.921875 27.09375 42.890625 30.859375 
Q 38.875 34.625 31.78125 34.625 
M 21.921875 38.8125 
Q 15.578125 40.375 12.03125 44.71875 
Q 8.5 49.078125 8.5 55.328125 
Q 8.5 64.0625 14.71875 69.140625 
Q 20.953125 74.21875 31.78125 74.21875 
Q 42.671875 74.21875 48.875 69.140625 
Q 55.078125 64.0625 55.078125 55.328125 
Q 55.078125 49.078125 51.53125 44.71875 
Q 48 40.375 41.703125 38.8125 
Q 48.828125 37.15625 52.796875 32.3125 
Q 56.78125 27.484375 56.78125 20.515625 
Q 56.78125 9.90625 50.3125 4.234375 
Q 43.84375 -1.421875 31.78125 -1.421875 
Q 19.734375 -1.421875 13.25 4.234375 
Q 6.78125 9.90625 6.78125 20.515625 
Q 6.78125 27.484375 10.78125 32.3125 
Q 14.796875 37.15625 21.921875 38.8125 
M 18.3125 54.390625 
Q 18.3125 48.734375 21.84375 45.5625 
Q 25.390625 42.390625 31.78125 42.390625 
Q 38.140625 42.390625 41.71875 45.5625 
Q 45.3125 48.734375 45.3125 54.390625 
Q 45.3125 60.0625 41.71875 63.234375 
Q 38.140625 66.40625 31.78125 66.40625 
Q 25.390625 66.40625 21.84375 63.234375 
Q 18.3125 60.0625 18.3125 54.390625 
" id="BitstreamVeraSans-Roman-38"/>
      </defs>
      <g transform="translate(319.1941061 401.918125)scale(0.12 -0.12)">
       <use xlink:href="#BitstreamVeraSans-Roman-38"/>
       <use x="63.623046875" xlink:href="#BitstreamVeraSans-Roman-30"/>
       <use x="127.24609375" xlink:href="#BitstreamVeraSans-Roman-30"/>
       <use x="190.869140625" xlink:href="#BitstreamVeraSans-Roman-30"/>
       <use x="254.4921875" xlink:href="#BitstreamVeraSans-Roman-30"/>
       <use x="318.115234375" xlink:href="#BitstreamVeraSans-Roman-30"/>
      </g>
     </g>
    </g>
    <g id="xtick_6">
     <g id="line2d_12">
      <g>
       <use style="stroke:#000000;stroke-width:0.5;" x="409.623798219" xlink:href="#m5420624ecd" y="388.8"/>
      </g>
     </g>
     <g id="line2d_13">
      <g>
       <use style="stroke:#000000;stroke-width:0.5;" x="409.623798219" xlink:href="#m4549a044ca" y="43.2"/>
      </g>
     </g>
     <g id="text_6">
      <!-- 1000000 -->
      <defs>
       <path d="M 12.40625 8.296875 
L 28.515625 8.296875 
L 28.515625 63.921875 
L 10.984375 60.40625 
L 10.984375 69.390625 
L 28.421875 72.90625 
L 38.28125 72.90625 
L 38.28125 8.296875 
L 54.390625 8.296875 
L 54.390625 0 
L 12.40625 0 
z
" id="BitstreamVeraSans-Roman-31"/>
      </defs>
      <g transform="translate(382.901298219 401.918125)scale(0.12 -0.12)">
       <use xlink:href="#BitstreamVeraSans-Roman-31"/>
       <use x="63.623046875" xlink:href="#BitstreamVeraSans-Roman-30"/>
       <use x="127.24609375" xlink:href="#BitstreamVeraSans-Roman-30"/>
       <use x="190.869140625" xlink:href="#BitstreamVeraSans-Roman-30"/>
       <use x="254.4921875" xlink:href="#BitstreamVeraSans-Roman-30"/>
       <use x="318.115234375" xlink:href="#BitstreamVeraSans-Roman-30"/>
       <use x="381.73828125" xlink:href="#BitstreamVeraSans-Roman-30"/>
      </g>
     </g>
    </g>
    <g id="xtick_7">
     <g id="line2d_14">
      <g>
       <use style="stroke:#000000;stroke-width:0.5;" x="477.148490338" xlink:href="#m5420624ecd" y="388.8"/>
      </g>
     </g>
     <g id="line2d_15">
      <g>
       <use style="stroke:#000000;stroke-width:0.5;" x="477.148490338" xlink:href="#m4549a044ca" y="43.2"/>
      </g>
     </g>
     <g id="text_7">
      <!-- 1200000 -->
      <g transform="translate(450.425990338 401.918125)scale(0.12 -0.12)">
       <use xlink:href="#BitstreamVeraSans-Roman-31"/>
       <use x="63.623046875" xlink:href="#BitstreamVeraSans-Roman-32"/>
       <use x="127.24609375" xlink:href="#BitstreamVeraSans-Roman-30"/>
       <use x="190.869140625" xlink:href="#BitstreamVeraSans-Roman-30"/>
       <use x="254.4921875" xlink:href="#BitstreamVeraSans-Roman-30"/>
       <use x="318.115234375" xlink:href="#BitstreamVeraSans-Roman-30"/>
       <use x="381.73828125" xlink:href="#BitstreamVeraSans-Roman-30"/>
      </g>
     </g>
    </g>
    <g id="text_8">
     <!-- Channel vs Channel -->
     <defs>
      <path id="BitstreamVeraSans-Roman-20"/>
      <path d="M 54.890625 33.015625 
L 54.890625 0 
L 45.90625 0 
L 45.90625 32.71875 
Q 45.90625 40.484375 42.875 44.328125 
Q 39.84375 48.1875 33.796875 48.1875 
Q 26.515625 48.1875 22.3125 43.546875 
Q 18.109375 38.921875 18.109375 30.90625 
L 18.109375 0 
L 9.078125 0 
L 9.078125 54.6875 
L 18.109375 54.6875 
L 18.109375 46.1875 
Q 21.34375 51.125 25.703125 53.5625 
Q 30.078125 56 35.796875 56 
Q 45.21875 56 50.046875 50.171875 
Q 54.890625 44.34375 54.890625 33.015625 
" id="BitstreamVeraSans-Roman-6e"/>
      <path d="M 9.421875 75.984375 
L 18.40625 75.984375 
L 18.40625 0 
L 9.421875 0 
z
" id="BitstreamVeraSans-Roman-6c"/>
      <path d="M 2.984375 54.6875 
L 12.5 54.6875 
L 29.59375 8.796875 
L 46.6875 54.6875 
L 56.203125 54.6875 
L 35.6875 0 
L 23.484375 0 
z
" id="BitstreamVeraSans-Roman-76"/>
      <path d="M 64.40625 67.28125 
L 64.40625 56.890625 
Q 59.421875 61.53125 53.78125 63.8125 
Q 48.140625 66.109375 41.796875 66.109375 
Q 29.296875 66.109375 22.65625 58.46875 
Q 16.015625 50.828125 16.015625 36.375 
Q 16.015625 21.96875 22.65625 14.328125 
Q 29.296875 6.6875 41.796875 6.6875 
Q 48.140625 6.6875 53.78125 8.984375 
Q 59.421875 11.28125 64.40625 15.921875 
L 64.40625 5.609375 
Q 59.234375 2.09375 53.4375 0.328125 
Q 47.65625 -1.421875 41.21875 -1.421875 
Q 24.65625 -1.421875 15.125 8.703125 
Q 5.609375 18.84375 5.609375 36.375 
Q 5.609375 53.953125 15.125 64.078125 
Q 24.65625 74.21875 41.21875 74.21875 
Q 47.75 74.21875 53.53125 72.484375 
Q 59.328125 70.75 64.40625 67.28125 
" id="BitstreamVeraSans-Roman-43"/>
      <path d="M 54.890625 33.015625 
L 54.890625 0 
L 45.90625 0 
L 45.90625 32.71875 
Q 45.90625 40.484375 42.875 44.328125 
Q 39.84375 48.1875 33.796875 48.1875 
Q 26.515625 48.1875 22.3125 43.546875 
Q 18.109375 38.921875 18.109375 30.90625 
L 18.109375 0 
L 9.078125 0 
L 9.078125 75.984375 
L 18.109375 75.984375 
L 18.109375 46.1875 
Q 21.34375 51.125 25.703125 53.5625 
Q 30.078125 56 35.796875 56 
Q 45.21875 56 50.046875 50.171875 
Q 54.890625 44.34375 54.890625 33.015625 
" id="BitstreamVeraSans-Roman-68"/>
      <path d="M 56.203125 29.59375 
L 56.203125 25.203125 
L 14.890625 25.203125 
Q 15.484375 15.921875 20.484375 11.0625 
Q 25.484375 6.203125 34.421875 6.203125 
Q 39.59375 6.203125 44.453125 7.46875 
Q 49.3125 8.734375 54.109375 11.28125 
L 54.109375 2.78125 
Q 49.265625 0.734375 44.1875 -0.34375 
Q 39.109375 -1.421875 33.890625 -1.421875 
Q 20.796875 -1.421875 13.15625 6.1875 
Q 5.515625 13.8125 5.515625 26.8125 
Q 5.515625 40.234375 12.765625 48.109375 
Q 20.015625 56 32.328125 56 
Q 43.359375 56 49.78125 48.890625 
Q 56.203125 41.796875 56.203125 29.59375 
M 47.21875 32.234375 
Q 47.125 39.59375 43.09375 43.984375 
Q 39.0625 48.390625 32.421875 48.390625 
Q 24.90625 48.390625 20.390625 44.140625 
Q 15.875 39.890625 15.1875 32.171875 
z
" id="BitstreamVeraSans-Roman-65"/>
      <path d="M 34.28125 27.484375 
Q 23.390625 27.484375 19.1875 25 
Q 14.984375 22.515625 14.984375 16.5 
Q 14.984375 11.71875 18.140625 8.90625 
Q 21.296875 6.109375 26.703125 6.109375 
Q 34.1875 6.109375 38.703125 11.40625 
Q 43.21875 16.703125 43.21875 25.484375 
L 43.21875 27.484375 
z
M 52.203125 31.203125 
L 52.203125 0 
L 43.21875 0 
L 43.21875 8.296875 
Q 40.140625 3.328125 35.546875 0.953125 
Q 30.953125 -1.421875 24.3125 -1.421875 
Q 15.921875 -1.421875 10.953125 3.296875 
Q 6 8.015625 6 15.921875 
Q 6 25.140625 12.171875 29.828125 
Q 18.359375 34.515625 30.609375 34.515625 
L 43.21875 34.515625 
L 43.21875 35.40625 
Q 43.21875 41.609375 39.140625 45 
Q 35.0625 48.390625 27.6875 48.390625 
Q 23 48.390625 18.546875 47.265625 
Q 14.109375 46.140625 10.015625 43.890625 
L 10.015625 52.203125 
Q 14.9375 54.109375 19.578125 55.046875 
Q 24.21875 56 28.609375 56 
Q 40.484375 56 46.34375 49.84375 
Q 52.203125 43.703125 52.203125 31.203125 
" id="BitstreamVeraSans-Roman-61"/>
      <path d="M 44.28125 53.078125 
L 44.28125 44.578125 
Q 40.484375 46.53125 36.375 47.5 
Q 32.28125 48.484375 27.875 48.484375 
Q 21.1875 48.484375 17.84375 46.4375 
Q 14.5 44.390625 14.5 40.28125 
Q 14.5 37.15625 16.890625 35.375 
Q 19.28125 33.59375 26.515625 31.984375 
L 29.59375 31.296875 
Q 39.15625 29.25 43.1875 25.515625 
Q 47.21875 21.78125 47.21875 15.09375 
Q 47.21875 7.46875 41.1875 3.015625 
Q 35.15625 -1.421875 24.609375 -1.421875 
Q 20.21875 -1.421875 15.453125 -0.5625 
Q 10.6875 0.296875 5.421875 2 
L 5.421875 11.28125 
Q 10.40625 8.6875 15.234375 7.390625 
Q 20.0625 6.109375 24.8125 6.109375 
Q 31.15625 6.109375 34.5625 8.28125 
Q 37.984375 10.453125 37.984375 14.40625 
Q 37.984375 18.0625 35.515625 20.015625 
Q 33.0625 21.96875 24.703125 23.78125 
L 21.578125 24.515625 
Q 13.234375 26.265625 9.515625 29.90625 
Q 5.8125 33.546875 5.8125 39.890625 
Q 5.8125 47.609375 11.28125 51.796875 
Q 16.75 56 26.8125 56 
Q 31.78125 56 36.171875 55.265625 
Q 40.578125 54.546875 44.28125 53.078125 
" id="BitstreamVeraSans-Roman-73"/>
     </defs>
     <g transform="translate(235.44375 418.531875)scale(0.12 -0.12)">
      <use xlink:href="#BitstreamVeraSans-Roman-43"/>
      <use x="69.82421875" xlink:href="#BitstreamVeraSans-Roman-68"/>
      <use x="133.203125" xlink:href="#BitstreamVeraSans-Roman-61"/>
      <use x="194.482421875" xlink:href="#BitstreamVeraSans-Roman-6e"/>
      <use x="257.861328125" xlink:href="#BitstreamVeraSans-Roman-6e"/>
      <use x="321.240234375" xlink:href="#BitstreamVeraSans-Roman-65"/>
      <use x="382.763671875" xlink:href="#BitstreamVeraSans-Roman-6c"/>
      <use x="410.546875" xlink:href="#BitstreamVeraSans-Roman-20"/>
      <use x="442.333984375" xlink:href="#BitstreamVeraSans-Roman-76"/>
      <use x="501.513671875" xlink:href="#BitstreamVeraSans-Roman-73"/>
      <use x="553.61328125" xlink:href="#BitstreamVeraSans-Roman-20"/>
      <use x="585.400390625" xlink:href="#BitstreamVeraSans-Roman-43"/>
      <use x="655.224609375" xlink:href="#BitstreamVeraSans-Roman-68"/>
      <use x="718.603515625" xlink:href="#BitstreamVeraSans-Roman-61"/>
      <use x="779.8828125" xlink:href="#BitstreamVeraSans-Roman-6e"/>
      <use x="843.26171875" xlink:href="#BitstreamVeraSans-Roman-6e"/>
      <use x="906.640625" xlink:href="#BitstreamVeraSans-Roman-65"/>
      <use x="968.1640625" xlink:href="#BitstreamVeraSans-Roman-6c"/>
     </g>
    </g>
   </g>
   <g id="matplotlib.axis_2">
    <g id="ytick_1">
     <g id="line2d_16">
      <defs>
       <path d="M 0 0 
L 4 0 
" id="m780f39a853" style="stroke:#000000;stroke-width:0.5;"/>
      </defs>
      <g>
       <use style="stroke:#000000;stroke-width:0.5;" x="72.0" xlink:href="#m780f39a853" y="388.8"/>
      </g>
     </g>
     <g id="line2d_17">
      <defs>
       <path d="M 0 0 
L -4 0 
" id="md4ce08bad3" style="stroke:#000000;stroke-width:0.5;"/>
      </defs>
      <g>
       <use style="stroke:#000000;stroke-width:0.5;" x="518.4" xlink:href="#md4ce08bad3" y="388.8"/>
      </g>
     </g>
     <g id="text_9">
      <!-- 0.0 -->
      <defs>
       <path d="M 10.6875 12.40625 
L 21 12.40625 
L 21 0 
L 10.6875 0 
z
" id="BitstreamVeraSans-Roman-2e"/>
      </defs>
      <g transform="translate(48.91625 392.11125)scale(0.12 -0.12)">
       <use xlink:href="#BitstreamVeraSans-Roman-30"/>
       <use x="63.623046875" xlink:href="#BitstreamVeraSans-Roman-2e"/>
       <use x="95.41015625" xlink:href="#BitstreamVeraSans-Roman-30"/>
      </g>
     </g>
    </g>
    <g id="ytick_2">
     <g id="line2d_18">
      <g>
       <use style="stroke:#000000;stroke-width:0.5;" x="72.0" xlink:href="#m780f39a853" y="325.963636364"/>
      </g>
     </g>
     <g id="line2d_19">
      <g>
       <use style="stroke:#000000;stroke-width:0.5;" x="518.4" xlink:href="#md4ce08bad3" y="325.963636364"/>
      </g>
     </g>
     <g id="text_10">
      <!-- 0.2 -->
      <g transform="translate(48.91625 329.274886364)scale(0.12 -0.12)">
       <use xlink:href="#BitstreamVeraSans-Roman-30"/>
       <use x="63.623046875" xlink:href="#BitstreamVeraSans-Roman-2e"/>
       <use x="95.41015625" xlink:href="#BitstreamVeraSans-Roman-32"/>
      </g>
     </g>
    </g>
    <g id="ytick_3">
     <g id="line2d_20">
      <g>
       <use style="stroke:#000000;stroke-width:0.5;" x="72.0" xlink:href="#m780f39a853" y="263.127272727"/>
      </g>
     </g>
     <g id="line2d_21">
      <g>
       <use style="stroke:#000000;stroke-width:0.5;" x="518.4" xlink:href="#md4ce08bad3" y="263.127272727"/>
      </g>
     </g>
     <g id="text_11">
      <!-- 0.4 -->
      <g transform="translate(48.91625 266.438522727)scale(0.12 -0.12)">
       <use xlink:href="#BitstreamVeraSans-Roman-30"/>
       <use x="63.623046875" xlink:href="#BitstreamVeraSans-Roman-2e"/>
       <use x="95.41015625" xlink:href="#BitstreamVeraSans-Roman-34"/>
      </g>
     </g>
    </g>
    <g id="ytick_4">
     <g id="line2d_22">
      <g>
       <use style="stroke:#000000;stroke-width:0.5;" x="72.0" xlink:href="#m780f39a853" y="200.290909091"/>
      </g>
     </g>
     <g id="line2d_23">
      <g>
       <use style="stroke:#000000;stroke-width:0.5;" x="518.4" xlink:href="#md4ce08bad3" y="200.290909091"/>
      </g>
     </g>
     <g id="text_12">
      <!-- 0.6 -->
      <g transform="translate(48.91625 203.602159091)scale(0.12 -0.12)">
       <use xlink:href="#BitstreamVeraSans-Roman-30"/>
       <use x="63.623046875" xlink:href="#BitstreamVeraSans-Roman-2e"/>
       <use x="95.41015625" xlink:href="#BitstreamVeraSans-Roman-36"/>
      </g>
     </g>
    </g>
    <g id="ytick_5">
     <g id="line2d_24">
      <g>
       <use style="stroke:#000000;stroke-width:0.5;" x="72.0" xlink:href="#m780f39a853" y="137.454545455"/>
      </g>
     </g>
     <g id="line2d_25">
      <g>
       <use style="stroke:#000000;stroke-width:0.5;" x="518.4" xlink:href="#md4ce08bad3" y="137.454545455"/>
      </g>
     </g>
     <g id="text_13">
      <!-- 0.8 -->
      <g transform="translate(48.91625 140.765795455)scale(0.12 -0.12)">
       <use xlink:href="#BitstreamVeraSans-Roman-30"/>
       <use x="63.623046875" xlink:href="#BitstreamVeraSans-Roman-2e"/>
       <use x="95.41015625" xlink:href="#BitstreamVeraSans-Roman-38"/>
      </g>
     </g>
    </g>
    <g id="ytick_6">
     <g id="line2d_26">
      <g>
       <use style="stroke:#000000;stroke-width:0.5;" x="72.0" xlink:href="#m780f39a853" y="74.6181818182"/>
      </g>
     </g>
     <g id="line2d_27">
      <g>
       <use style="stroke:#000000;stroke-width:0.5;" x="518.4" xlink:href="#md4ce08bad3" y="74.6181818182"/>
      </g>
     </g>
     <g id="text_14">
      <!-- 1.0 -->
      <g transform="translate(48.91625 77.9294318182)scale(0.12 -0.12)">
       <use xlink:href="#BitstreamVeraSans-Roman-31"/>
       <use x="63.623046875" xlink:href="#BitstreamVeraSans-Roman-2e"/>
       <use x="95.41015625" xlink:href="#BitstreamVeraSans-Roman-30"/>
      </g>
     </g>
    </g>
    <g id="text_15">
     <!-- Correlation value -->
     <defs>
      <path d="M 8.5 21.578125 
L 8.5 54.6875 
L 17.484375 54.6875 
L 17.484375 21.921875 
Q 17.484375 14.15625 20.5 10.265625 
Q 23.53125 6.390625 29.59375 6.390625 
Q 36.859375 6.390625 41.078125 11.03125 
Q 45.3125 15.671875 45.3125 23.6875 
L 45.3125 54.6875 
L 54.296875 54.6875 
L 54.296875 0 
L 45.3125 0 
L 45.3125 8.40625 
Q 42.046875 3.421875 37.71875 1 
Q 33.40625 -1.421875 27.6875 -1.421875 
Q 18.265625 -1.421875 13.375 4.4375 
Q 8.5 10.296875 8.5 21.578125 
" id="BitstreamVeraSans-Roman-75"/>
      <path d="M 9.421875 54.6875 
L 18.40625 54.6875 
L 18.40625 0 
L 9.421875 0 
z
M 9.421875 75.984375 
L 18.40625 75.984375 
L 18.40625 64.59375 
L 9.421875 64.59375 
z
" id="BitstreamVeraSans-Roman-69"/>
      <path d="M 18.3125 70.21875 
L 18.3125 54.6875 
L 36.8125 54.6875 
L 36.8125 47.703125 
L 18.3125 47.703125 
L 18.3125 18.015625 
Q 18.3125 11.328125 20.140625 9.421875 
Q 21.96875 7.515625 27.59375 7.515625 
L 36.8125 7.515625 
L 36.8125 0 
L 27.59375 0 
Q 17.1875 0 13.234375 3.875 
Q 9.28125 7.765625 9.28125 18.015625 
L 9.28125 47.703125 
L 2.6875 47.703125 
L 2.6875 54.6875 
L 9.28125 54.6875 
L 9.28125 70.21875 
z
" id="BitstreamVeraSans-Roman-74"/>
      <path d="M 30.609375 48.390625 
Q 23.390625 48.390625 19.1875 42.75 
Q 14.984375 37.109375 14.984375 27.296875 
Q 14.984375 17.484375 19.15625 11.84375 
Q 23.34375 6.203125 30.609375 6.203125 
Q 37.796875 6.203125 41.984375 11.859375 
Q 46.1875 17.53125 46.1875 27.296875 
Q 46.1875 37.015625 41.984375 42.703125 
Q 37.796875 48.390625 30.609375 48.390625 
M 30.609375 56 
Q 42.328125 56 49.015625 48.375 
Q 55.71875 40.765625 55.71875 27.296875 
Q 55.71875 13.875 49.015625 6.21875 
Q 42.328125 -1.421875 30.609375 -1.421875 
Q 18.84375 -1.421875 12.171875 6.21875 
Q 5.515625 13.875 5.515625 27.296875 
Q 5.515625 40.765625 12.171875 48.375 
Q 18.84375 56 30.609375 56 
" id="BitstreamVeraSans-Roman-6f"/>
      <path d="M 41.109375 46.296875 
Q 39.59375 47.171875 37.8125 47.578125 
Q 36.03125 48 33.890625 48 
Q 26.265625 48 22.1875 43.046875 
Q 18.109375 38.09375 18.109375 28.8125 
L 18.109375 0 
L 9.078125 0 
L 9.078125 54.6875 
L 18.109375 54.6875 
L 18.109375 46.1875 
Q 20.953125 51.171875 25.484375 53.578125 
Q 30.03125 56 36.53125 56 
Q 37.453125 56 38.578125 55.875 
Q 39.703125 55.765625 41.0625 55.515625 
z
" id="BitstreamVeraSans-Roman-72"/>
     </defs>
     <g transform="translate(41.420625 267.6159375)rotate(-90.0)scale(0.12 -0.12)">
      <use xlink:href="#BitstreamVeraSans-Roman-43"/>
      <use x="69.82421875" xlink:href="#BitstreamVeraSans-Roman-6f"/>
      <use x="131.005859375" xlink:href="#BitstreamVeraSans-Roman-72"/>
      <use x="172.103515625" xlink:href="#BitstreamVeraSans-Roman-72"/>
      <use x="213.185546875" xlink:href="#BitstreamVeraSans-Roman-65"/>
      <use x="274.708984375" xlink:href="#BitstreamVeraSans-Roman-6c"/>
      <use x="302.4921875" xlink:href="#BitstreamVeraSans-Roman-61"/>
      <use x="363.771484375" xlink:href="#BitstreamVeraSans-Roman-74"/>
      <use x="402.98046875" xlink:href="#BitstreamVeraSans-Roman-69"/>
      <use x="430.763671875" xlink:href="#BitstreamVeraSans-Roman-6f"/>
      <use x="491.9453125" xlink:href="#BitstreamVeraSans-Roman-6e"/>
      <use x="555.32421875" xlink:href="#BitstreamVeraSans-Roman-20"/>
      <use x="587.111328125" xlink:href="#BitstreamVeraSans-Roman-76"/>
      <use x="646.291015625" xlink:href="#BitstreamVeraSans-Roman-61"/>
      <use x="707.5703125" xlink:href="#BitstreamVeraSans-Roman-6c"/>
      <use x="735.353515625" xlink:href="#BitstreamVeraSans-Roman-75"/>
      <use x="798.732421875" xlink:href="#BitstreamVeraSans-Roman-65"/>
     </g>
    </g>
   </g>
   <g id="text_16">
    <!-- Sorted Absolute Value Correlations between 2 Channels (5 second intervals) -->
    <defs>
     <path d="M 34.1875 63.1875 
L 20.796875 26.90625 
L 47.609375 26.90625 
z
M 28.609375 72.90625 
L 39.796875 72.90625 
L 67.578125 0 
L 57.328125 0 
L 50.6875 18.703125 
L 17.828125 18.703125 
L 11.1875 0 
L 0.78125 0 
z
" id="BitstreamVeraSans-Roman-41"/>
     <path d="M 10.796875 72.90625 
L 49.515625 72.90625 
L 49.515625 64.59375 
L 19.828125 64.59375 
L 19.828125 46.734375 
Q 21.96875 47.46875 24.109375 47.828125 
Q 26.265625 48.1875 28.421875 48.1875 
Q 40.625 48.1875 47.75 41.5 
Q 54.890625 34.8125 54.890625 23.390625 
Q 54.890625 11.625 47.5625 5.09375 
Q 40.234375 -1.421875 26.90625 -1.421875 
Q 22.3125 -1.421875 17.546875 -0.640625 
Q 12.796875 0.140625 7.71875 1.703125 
L 7.71875 11.625 
Q 12.109375 9.234375 16.796875 8.0625 
Q 21.484375 6.890625 26.703125 6.890625 
Q 35.15625 6.890625 40.078125 11.328125 
Q 45.015625 15.765625 45.015625 23.390625 
Q 45.015625 31 40.078125 35.4375 
Q 35.15625 39.890625 26.703125 39.890625 
Q 22.75 39.890625 18.8125 39.015625 
Q 14.890625 38.140625 10.796875 36.28125 
z
" id="BitstreamVeraSans-Roman-35"/>
     <path d="M 8.015625 75.875 
L 15.828125 75.875 
Q 23.140625 64.359375 26.78125 53.3125 
Q 30.421875 42.28125 30.421875 31.390625 
Q 30.421875 20.453125 26.78125 9.375 
Q 23.140625 -1.703125 15.828125 -13.1875 
L 8.015625 -13.1875 
Q 14.5 -2 17.703125 9.0625 
Q 20.90625 20.125 20.90625 31.390625 
Q 20.90625 42.671875 17.703125 53.65625 
Q 14.5 64.65625 8.015625 75.875 
" id="BitstreamVeraSans-Roman-29"/>
     <path d="M 31 75.875 
Q 24.46875 64.65625 21.28125 53.65625 
Q 18.109375 42.671875 18.109375 31.390625 
Q 18.109375 20.125 21.3125 9.0625 
Q 24.515625 -2 31 -13.1875 
L 23.1875 -13.1875 
Q 15.875 -1.703125 12.234375 9.375 
Q 8.59375 20.453125 8.59375 31.390625 
Q 8.59375 42.28125 12.203125 53.3125 
Q 15.828125 64.359375 23.1875 75.875 
z
" id="BitstreamVeraSans-Roman-28"/>
     <path d="M 53.515625 70.515625 
L 53.515625 60.890625 
Q 47.90625 63.578125 42.921875 64.890625 
Q 37.9375 66.21875 33.296875 66.21875 
Q 25.25 66.21875 20.875 63.09375 
Q 16.5 59.96875 16.5 54.203125 
Q 16.5 49.359375 19.40625 46.890625 
Q 22.3125 44.4375 30.421875 42.921875 
L 36.375 41.703125 
Q 47.40625 39.59375 52.65625 34.296875 
Q 57.90625 29 57.90625 20.125 
Q 57.90625 9.515625 50.796875 4.046875 
Q 43.703125 -1.421875 29.984375 -1.421875 
Q 24.8125 -1.421875 18.96875 -0.25 
Q 13.140625 0.921875 6.890625 3.21875 
L 6.890625 13.375 
Q 12.890625 10.015625 18.65625 8.296875 
Q 24.421875 6.59375 29.984375 6.59375 
Q 38.421875 6.59375 43.015625 9.90625 
Q 47.609375 13.234375 47.609375 19.390625 
Q 47.609375 24.75 44.3125 27.78125 
Q 41.015625 30.8125 33.5 32.328125 
L 27.484375 33.5 
Q 16.453125 35.6875 11.515625 40.375 
Q 6.59375 45.0625 6.59375 53.421875 
Q 6.59375 63.09375 13.40625 68.65625 
Q 20.21875 74.21875 32.171875 74.21875 
Q 37.3125 74.21875 42.625 73.28125 
Q 47.953125 72.359375 53.515625 70.515625 
" id="BitstreamVeraSans-Roman-53"/>
     <path d="M 28.609375 0 
L 0.78125 72.90625 
L 11.078125 72.90625 
L 34.1875 11.53125 
L 57.328125 72.90625 
L 67.578125 72.90625 
L 39.796875 0 
z
" id="BitstreamVeraSans-Roman-56"/>
     <path d="M 4.203125 54.6875 
L 13.1875 54.6875 
L 24.421875 12.015625 
L 35.59375 54.6875 
L 46.1875 54.6875 
L 57.421875 12.015625 
L 68.609375 54.6875 
L 77.59375 54.6875 
L 63.28125 0 
L 52.6875 0 
L 40.921875 44.828125 
L 29.109375 0 
L 18.5 0 
z
" id="BitstreamVeraSans-Roman-77"/>
     <path d="M 45.40625 46.390625 
L 45.40625 75.984375 
L 54.390625 75.984375 
L 54.390625 0 
L 45.40625 0 
L 45.40625 8.203125 
Q 42.578125 3.328125 38.25 0.953125 
Q 33.9375 -1.421875 27.875 -1.421875 
Q 17.96875 -1.421875 11.734375 6.484375 
Q 5.515625 14.40625 5.515625 27.296875 
Q 5.515625 40.1875 11.734375 48.09375 
Q 17.96875 56 27.875 56 
Q 33.9375 56 38.25 53.625 
Q 42.578125 51.265625 45.40625 46.390625 
M 14.796875 27.296875 
Q 14.796875 17.390625 18.875 11.75 
Q 22.953125 6.109375 30.078125 6.109375 
Q 37.203125 6.109375 41.296875 11.75 
Q 45.40625 17.390625 45.40625 27.296875 
Q 45.40625 37.203125 41.296875 42.84375 
Q 37.203125 48.484375 30.078125 48.484375 
Q 22.953125 48.484375 18.875 42.84375 
Q 14.796875 37.203125 14.796875 27.296875 
" id="BitstreamVeraSans-Roman-64"/>
     <path d="M 48.78125 52.59375 
L 48.78125 44.1875 
Q 44.96875 46.296875 41.140625 47.34375 
Q 37.3125 48.390625 33.40625 48.390625 
Q 24.65625 48.390625 19.8125 42.84375 
Q 14.984375 37.3125 14.984375 27.296875 
Q 14.984375 17.28125 19.8125 11.734375 
Q 24.65625 6.203125 33.40625 6.203125 
Q 37.3125 6.203125 41.140625 7.25 
Q 44.96875 8.296875 48.78125 10.40625 
L 48.78125 2.09375 
Q 45.015625 0.34375 40.984375 -0.53125 
Q 36.96875 -1.421875 32.421875 -1.421875 
Q 20.0625 -1.421875 12.78125 6.34375 
Q 5.515625 14.109375 5.515625 27.296875 
Q 5.515625 40.671875 12.859375 48.328125 
Q 20.21875 56 33.015625 56 
Q 37.15625 56 41.109375 55.140625 
Q 45.0625 54.296875 48.78125 52.59375 
" id="BitstreamVeraSans-Roman-63"/>
     <path d="M 48.6875 27.296875 
Q 48.6875 37.203125 44.609375 42.84375 
Q 40.53125 48.484375 33.40625 48.484375 
Q 26.265625 48.484375 22.1875 42.84375 
Q 18.109375 37.203125 18.109375 27.296875 
Q 18.109375 17.390625 22.1875 11.75 
Q 26.265625 6.109375 33.40625 6.109375 
Q 40.53125 6.109375 44.609375 11.75 
Q 48.6875 17.390625 48.6875 27.296875 
M 18.109375 46.390625 
Q 20.953125 51.265625 25.265625 53.625 
Q 29.59375 56 35.59375 56 
Q 45.5625 56 51.78125 48.09375 
Q 58.015625 40.1875 58.015625 27.296875 
Q 58.015625 14.40625 51.78125 6.484375 
Q 45.5625 -1.421875 35.59375 -1.421875 
Q 29.59375 -1.421875 25.265625 0.953125 
Q 20.953125 3.328125 18.109375 8.203125 
L 18.109375 0 
L 9.078125 0 
L 9.078125 75.984375 
L 18.109375 75.984375 
z
" id="BitstreamVeraSans-Roman-62"/>
    </defs>
    <g transform="translate(19.213875 38.2)scale(0.144 -0.144)">
     <use xlink:href="#BitstreamVeraSans-Roman-53"/>
     <use x="63.4765625" xlink:href="#BitstreamVeraSans-Roman-6f"/>
     <use x="124.658203125" xlink:href="#BitstreamVeraSans-Roman-72"/>
     <use x="165.771484375" xlink:href="#BitstreamVeraSans-Roman-74"/>
     <use x="204.98046875" xlink:href="#BitstreamVeraSans-Roman-65"/>
     <use x="266.50390625" xlink:href="#BitstreamVeraSans-Roman-64"/>
     <use x="329.98046875" xlink:href="#BitstreamVeraSans-Roman-20"/>
     <use x="361.767578125" xlink:href="#BitstreamVeraSans-Roman-41"/>
     <use x="430.17578125" xlink:href="#BitstreamVeraSans-Roman-62"/>
     <use x="493.65234375" xlink:href="#BitstreamVeraSans-Roman-73"/>
     <use x="545.751953125" xlink:href="#BitstreamVeraSans-Roman-6f"/>
     <use x="606.93359375" xlink:href="#BitstreamVeraSans-Roman-6c"/>
     <use x="634.716796875" xlink:href="#BitstreamVeraSans-Roman-75"/>
     <use x="698.095703125" xlink:href="#BitstreamVeraSans-Roman-74"/>
     <use x="737.3046875" xlink:href="#BitstreamVeraSans-Roman-65"/>
     <use x="798.828125" xlink:href="#BitstreamVeraSans-Roman-20"/>
     <use x="830.615234375" xlink:href="#BitstreamVeraSans-Roman-56"/>
     <use x="898.9140625" xlink:href="#BitstreamVeraSans-Roman-61"/>
     <use x="960.193359375" xlink:href="#BitstreamVeraSans-Roman-6c"/>
     <use x="987.9765625" xlink:href="#BitstreamVeraSans-Roman-75"/>
     <use x="1051.35546875" xlink:href="#BitstreamVeraSans-Roman-65"/>
     <use x="1112.87890625" xlink:href="#BitstreamVeraSans-Roman-20"/>
     <use x="1144.66601562" xlink:href="#BitstreamVeraSans-Roman-43"/>
     <use x="1214.49023438" xlink:href="#BitstreamVeraSans-Roman-6f"/>
     <use x="1275.671875" xlink:href="#BitstreamVeraSans-Roman-72"/>
     <use x="1316.76953125" xlink:href="#BitstreamVeraSans-Roman-72"/>
     <use x="1357.8515625" xlink:href="#BitstreamVeraSans-Roman-65"/>
     <use x="1419.375" xlink:href="#BitstreamVeraSans-Roman-6c"/>
     <use x="1447.15820312" xlink:href="#BitstreamVeraSans-Roman-61"/>
     <use x="1508.4375" xlink:href="#BitstreamVeraSans-Roman-74"/>
     <use x="1547.64648438" xlink:href="#BitstreamVeraSans-Roman-69"/>
     <use x="1575.4296875" xlink:href="#BitstreamVeraSans-Roman-6f"/>
     <use x="1636.61132812" xlink:href="#BitstreamVeraSans-Roman-6e"/>
     <use x="1699.99023438" xlink:href="#BitstreamVeraSans-Roman-73"/>
     <use x="1752.08984375" xlink:href="#BitstreamVeraSans-Roman-20"/>
     <use x="1783.87695312" xlink:href="#BitstreamVeraSans-Roman-62"/>
     <use x="1847.35351562" xlink:href="#BitstreamVeraSans-Roman-65"/>
     <use x="1908.87695312" xlink:href="#BitstreamVeraSans-Roman-74"/>
     <use x="1948.0859375" xlink:href="#BitstreamVeraSans-Roman-77"/>
     <use x="2029.87304688" xlink:href="#BitstreamVeraSans-Roman-65"/>
     <use x="2091.39648438" xlink:href="#BitstreamVeraSans-Roman-65"/>
     <use x="2152.91992188" xlink:href="#BitstreamVeraSans-Roman-6e"/>
     <use x="2216.29882812" xlink:href="#BitstreamVeraSans-Roman-20"/>
     <use x="2248.0859375" xlink:href="#BitstreamVeraSans-Roman-32"/>
     <use x="2311.70898438" xlink:href="#BitstreamVeraSans-Roman-20"/>
     <use x="2343.49609375" xlink:href="#BitstreamVeraSans-Roman-43"/>
     <use x="2413.3203125" xlink:href="#BitstreamVeraSans-Roman-68"/>
     <use x="2476.69921875" xlink:href="#BitstreamVeraSans-Roman-61"/>
     <use x="2537.97851562" xlink:href="#BitstreamVeraSans-Roman-6e"/>
     <use x="2601.35742188" xlink:href="#BitstreamVeraSans-Roman-6e"/>
     <use x="2664.73632812" xlink:href="#BitstreamVeraSans-Roman-65"/>
     <use x="2726.25976562" xlink:href="#BitstreamVeraSans-Roman-6c"/>
     <use x="2754.04296875" xlink:href="#BitstreamVeraSans-Roman-73"/>
     <use x="2806.14257812" xlink:href="#BitstreamVeraSans-Roman-20"/>
     <use x="2837.9296875" xlink:href="#BitstreamVeraSans-Roman-28"/>
     <use x="2876.94335938" xlink:href="#BitstreamVeraSans-Roman-35"/>
     <use x="2940.56640625" xlink:href="#BitstreamVeraSans-Roman-20"/>
     <use x="2972.35351562" xlink:href="#BitstreamVeraSans-Roman-73"/>
     <use x="3024.453125" xlink:href="#BitstreamVeraSans-Roman-65"/>
     <use x="3085.9765625" xlink:href="#BitstreamVeraSans-Roman-63"/>
     <use x="3140.95703125" xlink:href="#BitstreamVeraSans-Roman-6f"/>
     <use x="3202.13867188" xlink:href="#BitstreamVeraSans-Roman-6e"/>
     <use x="3265.51757812" xlink:href="#BitstreamVeraSans-Roman-64"/>
     <use x="3328.99414062" xlink:href="#BitstreamVeraSans-Roman-20"/>
     <use x="3360.78125" xlink:href="#BitstreamVeraSans-Roman-69"/>
     <use x="3388.56445312" xlink:href="#BitstreamVeraSans-Roman-6e"/>
     <use x="3451.94335938" xlink:href="#BitstreamVeraSans-Roman-74"/>
     <use x="3491.15234375" xlink:href="#BitstreamVeraSans-Roman-65"/>
     <use x="3552.67578125" xlink:href="#BitstreamVeraSans-Roman-72"/>
     <use x="3593.7890625" xlink:href="#BitstreamVeraSans-Roman-76"/>
     <use x="3652.96875" xlink:href="#BitstreamVeraSans-Roman-61"/>
     <use x="3714.24804688" xlink:href="#BitstreamVeraSans-Roman-6c"/>
     <use x="3742.03125" xlink:href="#BitstreamVeraSans-Roman-73"/>
     <use x="3794.13085938" xlink:href="#BitstreamVeraSans-Roman-29"/>
    </g>
   </g>
  </g>
 </g>
 <defs>
  <clipPath id="pbf3fb3aba0">
   <rect height="345.6" width="446.4" x="72.0" y="43.2"/>
  </clipPath>
 </defs>
</svg>
