<?xml version="1.0" encoding="utf-8" standalone="no"?>
<!DOCTYPE svg PUBLIC "-//W3C//DTD SVG 1.1//EN"
  "http://www.w3.org/Graphics/SVG/1.1/DTD/svg11.dtd">
<!-- Created with matplotlib (http://matplotlib.org/) -->
<svg height="432pt" version="1.1" viewBox="0 0 576 432" width="576pt" xmlns="http://www.w3.org/2000/svg" xmlns:xlink="http://www.w3.org/1999/xlink">
 <defs>
  <style type="text/css">
*{stroke-linecap:butt;stroke-linejoin:round;stroke-miterlimit:100000;}
  </style>
 </defs>
 <g id="figure_1">
  <g id="patch_1">
   <path d="M 0 432 
L 576 432 
L 576 0 
L 0 0 
z
" style="fill:#ffffff;"/>
  </g>
  <g id="axes_1">
   <g id="patch_2">
    <path d="M 72 388.8 
L 518.4 388.8 
L 518.4 43.2 
L 72 43.2 
z
" style="fill:#ffffff;"/>
   </g>
   <g id="line2d_1">
    <path clip-path="url(#p28ae09cc49)" d="M 72.002023 373.006255 
L 72.145637 372.531963 
L 72.208342 372.409291 
L 72.38432 372.069317 
L 72.449048 371.946017 
L 72.956755 370.962291 
L 73.110483 370.462124 
L 73.502894 369.271336 
L 73.650554 368.613838 
L 73.691009 368.389548 
L 73.947896 367.209911 
L 74.591127 364.135955 
L 75.839156 352.970036 
L 76.197181 348.416968 
L 76.213363 348.236003 
L 76.621956 340.801941 
L 76.660388 340.257756 
L 76.949639 334.524085 
L 77.590847 323.863943 
L 77.635347 323.431211 
L 77.948871 318.721865 
L 78.410056 313.023787 
L 80.376157 297.369247 
L 82.259325 287.250964 
L 82.285621 287.104985 
L 84.364995 277.626776 
L 84.757407 276.091195 
L 84.949567 275.371913 
L 85.208477 274.419526 
L 85.344 273.913817 
L 86.486847 270.19919 
L 86.70328 269.494045 
L 86.842849 269.079101 
L 86.988486 268.672549 
L 87.069396 268.468998 
L 89.698955 261.43746 
L 89.759637 261.279952 
L 90.281503 260.118871 
L 90.487822 259.572354 
L 90.578846 259.449052 
L 91.088575 258.414285 
L 91.234213 258.10904 
L 91.387941 257.777659 
L 91.54976 257.432417 
L 91.652919 257.296046 
L 91.796534 257.062074 
L 91.942171 256.796876 
L 92.136354 256.401883 
L 92.233445 256.209981 
L 92.700697 255.22159 
L 92.775539 255.09856 
L 93.022313 254.515225 
L 93.21245 254.202789 
L 93.420792 253.832044 
L 93.475406 253.713458 
L 93.671611 253.345234 
L 94.411933 252.058775 
L 94.579821 251.748757 
L 94.668821 251.59894 
L 95.020777 250.959475 
L 95.107755 250.836147 
L 95.530507 250.112037 
L 95.678167 249.870835 
L 95.793463 249.697495 
L 95.969441 249.459533 
L 96.050351 249.34598 
L 96.357807 248.906302 
L 96.462989 248.786792 
L 96.816969 248.243402 
L 97.373221 247.460947 
L 97.567404 247.202315 
L 97.735291 246.967566 
L 97.826315 246.835408 
L 98.087248 246.376616 
L 98.162089 246.267522 
L 98.354249 245.933679 
L 98.5545 245.66784 
L 98.63541 245.538378 
L 98.847797 245.211539 
L 99.155253 244.787815 
L 99.238186 244.678535 
L 99.642733 244.143431 
L 99.808598 243.929056 
L 99.946144 243.731218 
L 100.097849 243.520783 
L 100.213145 243.388328 
L 100.522624 243.004077 
L 100.613647 242.878976 
L 100.937285 242.432349 
L 101.050558 242.289081 
L 101.19215 242.130531 
L 103.257365 239.770832 
L 103.38682 239.609501 
L 104.260643 238.672353 
L 104.396167 238.501351 
L 104.891737 237.952153 
L 104.99692 237.823361 
L 106.352154 236.40265 
L 106.4897 236.259324 
L 106.871997 235.878559 
L 110.128605 232.889979 
L 110.308629 232.752026 
L 110.563494 232.486307 
L 110.984223 232.178761 
L 111.230997 231.987722 
L 111.574863 231.698554 
L 111.744773 231.575445 
L 113.447918 230.119303 
L 113.627941 229.990288 
L 113.884829 229.74181 
L 114.048671 229.617457 
L 114.23274 229.461813 
L 116.154341 228.029677 
L 116.457751 227.791388 
L 116.639798 227.662005 
L 117.016027 227.404058 
L 117.303256 227.136108 
L 117.483279 227.011302 
L 117.774554 226.813257 
L 117.960645 226.693508 
L 118.114373 226.586024 
L 118.868855 226.048126 
L 119.026628 225.94774 
L 119.214743 225.805355 
L 119.72245 225.444233 
L 119.99552 225.252882 
L 120.537613 224.901148 
L 120.782364 224.733106 
L 120.960365 224.573143 
L 121.130275 224.443662 
L 121.366936 224.273963 
L 121.55505 224.12934 
L 121.712824 224.021145 
L 121.888802 223.876621 
L 122.790943 223.241035 
L 123.684993 222.647994 
L 123.887267 222.514104 
L 124.342383 222.204699 
L 124.471838 222.127669 
L 139.581688 212.993945 
L 140.139964 212.677749 
L 140.734649 212.307434 
L 140.938945 212.186799 
L 141.27472 211.982499 
L 141.557903 211.811109 
L 141.818836 211.669882 
L 142.490385 211.297298 
L 142.866614 211.076423 
L 143.105297 210.938235 
L 143.685823 210.600605 
L 143.863824 210.476973 
L 144.051939 210.358895 
L 144.254212 210.253961 
L 144.480759 210.128778 
L 144.74776 209.985234 
L 144.941943 209.863266 
L 147.389456 208.420798 
L 147.905254 208.127563 
L 148.081232 208.030554 
L 148.317892 207.901309 
L 148.8256 207.572353 
L 149.760104 206.998924 
L 150.067561 206.840531 
L 150.21522 206.750084 
L 151.776774 205.867613 
L 151.946684 205.771241 
L 154.802789 204.225959 
L 155.071814 204.090416 
L 155.227564 204.003082 
L 155.713021 203.765555 
L 156.008341 203.61372 
L 157.497076 202.830467 
L 157.709463 202.691592 
L 157.974442 202.548906 
L 158.237398 202.411242 
L 158.783537 202.115255 
L 158.945356 202.016801 
L 159.212358 201.861715 
L 159.517791 201.710715 
L 160.438137 201.249373 
L 160.790093 201.063798 
L 161.087435 200.896148 
L 161.443437 200.724608 
L 161.61537 200.635035 
L 161.951144 200.464884 
L 162.254555 200.281052 
L 169.111636 196.708533 
L 169.281546 196.619836 
L 169.914663 196.284604 
L 170.145255 196.163275 
L 170.396074 196.030662 
L 170.835008 195.811737 
L 171.116169 195.665228 
L 171.391261 195.506842 
L 190.368586 186.190728 
L 190.837861 185.965916 
L 191.181726 185.7857 
L 191.48716 185.641176 
L 191.693479 185.557283 
L 202.786173 180.564507 
L 203.08756 180.428614 
L 203.759109 180.113113 
L 203.985656 180.007689 
L 204.529772 179.774753 
L 204.800819 179.651725 
L 205.56946 179.318763 
L 205.822302 179.195012 
L 206.362373 178.963141 
L 207.438469 178.451256 
L 207.624561 178.372011 
L 208.099904 178.150744 
L 208.854386 177.815913 
L 209.095091 177.698415 
L 209.313547 177.615804 
L 209.592685 177.49992 
L 210.739577 176.981518 
L 211.101647 176.81372 
L 211.352467 176.699795 
L 211.597218 176.582794 
L 211.862196 176.462029 
L 212.163584 176.336194 
L 213.541069 175.714485 
L 213.700865 175.642997 
L 214.924621 175.132039 
L 215.134986 175.037645 
L 215.519306 174.876729 
L 215.885422 174.722335 
L 216.116014 174.602532 
L 233.883742 167.106354 
L 234.185129 166.986778 
L 234.537086 166.84774 
L 243.222721 163.273266 
L 243.497814 163.159894 
L 243.694019 163.074325 
L 243.963043 162.955226 
L 244.333204 162.776505 
L 244.656842 162.658021 
L 245.154436 162.462122 
L 246.1921 162.070886 
L 246.511693 161.95483 
L 246.778694 161.843908 
L 247.104355 161.718669 
L 248.085383 161.30309 
L 248.451498 161.149599 
L 249.440617 160.772668 
L 249.798642 160.620589 
L 249.984733 160.552319 
L 250.437827 160.381534 
L 250.603691 160.311798 
L 250.996102 160.161079 
L 251.384468 159.989885 
L 256.119697 158.097565 
L 256.315902 158.019591 
L 256.629427 157.899679 
L 256.975315 157.761168 
L 257.309067 157.606121 
L 257.715637 157.4357 
L 258.057479 157.305731 
L 258.563164 157.098303 
L 258.97378 156.924663 
L 259.430918 156.745849 
L 259.732306 156.628173 
L 259.944694 156.548992 
L 260.424083 156.339461 
L 262.121159 155.687125 
L 262.32141 155.594805 
L 262.701685 155.460992 
L 263.802054 155.060957 
L 264.109511 154.940764 
L 265.745905 154.28511 
L 265.97852 154.198612 
L 266.336545 154.046281 
L 266.496341 153.983649 
L 266.955502 153.79846 
L 267.297345 153.679891 
L 268.130713 153.35261 
L 268.409851 153.240066 
L 268.869012 153.068498 
L 269.117809 152.977852 
L 270.080632 152.627351 
L 270.386066 152.501675 
L 270.78859 152.363025 
L 271.013114 152.280019 
L 272.127643 151.851027 
L 272.265189 151.801328 
L 272.995397 151.530069 
L 273.310944 151.412872 
L 273.715492 151.278246 
L 274.049244 151.158274 
L 274.437609 151.008967 
L 276.132663 150.371789 
L 276.334937 150.299087 
L 277.030759 150.037387 
L 277.477784 149.866054 
L 278.711654 149.44334 
L 278.911905 149.347306 
L 279.237566 149.23583 
L 279.64009 149.077755 
L 280.121502 148.918918 
L 283.026153 147.836575 
L 283.287086 147.742774 
L 283.788725 147.563123 
L 284.02134 147.478355 
L 284.603889 147.256395 
L 284.862799 147.155335 
L 285.241051 147.015132 
L 285.888327 146.787346 
L 286.816764 146.451993 
L 287.273902 146.289527 
L 287.640018 146.152806 
L 287.898928 146.067631 
L 288.214475 145.953926 
L 288.420795 145.880291 
L 288.825342 145.733247 
L 289.197526 145.596657 
L 290.591192 145.092026 
L 290.975512 144.961461 
L 292.433906 144.426591 
L 292.642248 144.362339 
L 293.87005 143.908389 
L 294.08446 143.817197 
L 294.476871 143.686587 
L 294.950192 143.516955 
L 295.484195 143.299185 
L 296.776724 142.812263 
L 296.938543 142.75559 
L 297.577728 142.518111 
L 299.444715 141.804907 
L 299.683398 141.713841 
L 300.01715 141.596817 
L 300.280106 141.496732 
L 301.437112 141.060782 
L 301.696022 140.941117 
L 301.991342 140.827073 
L 304.641128 139.874037 
L 305.385496 139.598765 
L 305.539224 139.544911 
L 305.814316 139.444958 
L 306.131886 139.332071 
L 306.435296 139.227534 
L 306.710389 139.113816 
L 306.995595 139.02018 
L 307.458802 138.84732 
L 307.976623 138.647665 
L 308.437807 138.474671 
L 308.579398 138.42439 
L 308.894945 138.308555 
L 312.028166 137.124195 
L 312.746238 136.867002 
L 314.269359 136.328663 
L 314.63952 136.194785 
L 314.811453 136.140151 
L 315.470866 135.897894 
L 318.345176 134.821396 
L 326.5494 131.883773 
L 326.729423 131.81633 
L 327.202744 131.651111 
L 327.463677 131.540472 
L 328.827002 131.043953 
L 329.005003 130.974332 
L 330.337988 130.525475 
L 331.460607 130.122814 
L 331.909655 129.941642 
L 332.166542 129.850636 
L 338.712121 127.562144 
L 338.886077 127.495955 
L 340.433471 126.961437 
L 340.601358 126.895929 
L 340.937133 126.778876 
L 341.280998 126.652179 
L 343.641533 125.807263 
L 344.165422 125.637484 
L 354.461157 122.009649 
L 354.829295 121.869704 
L 355.124615 121.763873 
L 355.46848 121.648879 
L 356.400962 121.343089 
L 357.620673 120.903418 
L 357.93622 120.789489 
L 359.066931 120.432114 
L 359.319773 120.33647 
L 359.633297 120.218116 
L 360.343278 119.974063 
L 360.739735 119.852062 
L 361.10585 119.716433 
L 361.453761 119.600634 
L 361.747058 119.497032 
L 362.072719 119.384563 
L 363.711136 118.77703 
L 363.99432 118.66421 
L 364.190525 118.597463 
L 364.760937 118.400468 
L 365.066371 118.297405 
L 365.626669 118.098391 
L 365.89367 117.999677 
L 367.030449 117.614318 
L 368.138909 117.236069 
L 368.466593 117.117848 
L 368.907549 116.966776 
L 369.751031 116.658014 
L 370.196033 116.513211 
L 372.471613 115.761088 
L 373.480959 115.39766 
L 373.836961 115.2768 
L 379.668514 113.260142 
L 380.333995 113.028661 
L 380.55245 112.964705 
L 381.163317 112.730985 
L 381.737775 112.520764 
L 382.027026 112.418312 
L 382.467983 112.274211 
L 383.36001 111.977563 
L 383.760512 111.861761 
L 384.543312 111.598442 
L 384.721313 111.541259 
L 385.03686 111.421561 
L 386.242411 110.999958 
L 386.436594 110.925636 
L 388.14783 110.354218 
L 388.473491 110.22322 
L 388.754652 110.119122 
L 389.092449 110.004555 
L 389.57386 109.828921 
L 391.643121 109.101435 
L 392.009236 108.974045 
L 392.656512 108.739311 
L 392.919468 108.638179 
L 393.218834 108.525191 
L 393.550563 108.4041 
L 394.956365 107.918565 
L 395.162684 107.860436 
L 395.583414 107.698751 
L 396.133599 107.511154 
L 396.716147 107.319789 
L 396.928534 107.24072 
L 397.395787 107.073014 
L 397.986426 106.874942 
L 398.552793 106.677236 
L 399.048364 106.505474 
L 399.458979 106.359436 
L 399.827118 106.218619 
L 400.195256 106.086133 
L 400.367189 106.019323 
L 401.186397 105.72491 
L 401.370466 105.649726 
L 410.179489 102.533128 
L 410.341308 102.479388 
L 410.739787 102.342958 
L 410.909697 102.279454 
L 412.323591 101.755939 
L 412.734207 101.61573 
L 413.650507 101.324446 
L 413.97819 101.207845 
L 414.140009 101.144408 
L 414.641648 100.95744 
L 414.785263 100.920889 
L 416.650227 100.23948 
L 416.943524 100.132289 
L 417.437072 99.932711 
L 417.734414 99.802442 
L 419.518469 99.151935 
L 419.862334 99.033562 
L 420.246654 98.903447 
L 444.792576 90.300128 
L 444.95035 90.241047 
L 445.727081 89.922485 
L 446.099265 89.777123 
L 446.366266 89.672533 
L 448.352594 88.929374 
L 448.554868 88.860968 
L 449.867625 88.376002 
L 450.169013 88.251401 
L 450.480514 88.119968 
L 450.787971 87.981273 
L 451.241064 87.820484 
L 451.421087 87.745423 
L 451.716407 87.634208 
L 452.256478 87.424931 
L 452.778344 87.214072 
L 453.23346 87.004438 
L 453.447871 86.903484 
L 453.805895 86.760406 
L 454.103238 86.638794 
L 454.641286 86.412798 
L 454.938628 86.287919 
L 455.308789 86.144166 
L 455.537359 86.04974 
L 456.330272 85.73846 
L 456.736842 85.572339 
L 456.920911 85.495516 
L 457.552005 85.239898 
L 457.74012 85.152008 
L 458.063758 85.024229 
L 458.292327 84.933092 
L 458.58967 84.806058 
L 464.625519 82.369075 
L 464.765088 82.313412 
L 465.183795 82.133743 
L 467.427011 81.239043 
L 467.720308 81.118835 
L 467.86999 81.068557 
L 468.673017 80.741099 
L 468.93395 80.629899 
L 469.166565 80.533087 
L 469.93116 80.22907 
L 470.184002 80.131571 
L 471.229757 79.705694 
L 471.561486 79.585266 
L 471.941761 79.413428 
L 472.400923 79.243546 
L 472.566787 79.174724 
L 472.851993 79.052084 
L 473.074494 78.968249 
L 474.494456 78.444408 
L 474.692684 78.365845 
L 475.344006 78.092312 
L 475.481552 78.032281 
L 475.989259 77.861914 
L 488.758802 72.995331 
L 488.920621 72.941772 
L 489.209873 72.829239 
L 489.387874 72.766753 
L 489.707466 72.654535 
L 489.915808 72.575475 
L 490.344628 72.422277 
L 490.670289 72.301665 
L 491.74234 71.911831 
L 491.948659 71.826779 
L 492.573685 71.606907 
L 492.836641 71.513977 
L 493.667986 71.184703 
L 494.531695 70.862687 
L 495.118289 70.652603 
L 495.52486 70.499684 
L 495.85052 70.359156 
L 496.348114 70.171733 
L 496.629274 70.047563 
L 496.839639 69.942501 
L 497.310937 69.754298 
L 497.57187 69.66052 
L 498.793604 69.179979 
L 498.957445 69.115917 
L 499.33772 68.959979 
L 499.46313 68.922188 
L 499.940496 68.740688 
L 510.764165 64.356153 
L 510.948234 64.260834 
L 511.213213 64.127561 
L 513.680953 62.598369 
L 514.115842 62.290763 
L 514.368684 62.11879 
L 514.560844 61.97971 
L 514.771209 61.812314 
L 516.53099 60.352709 
L 516.931492 60.003139 
L 517.21063 59.776475 
L 517.400768 59.645906 
L 518.395955 58.921754 
L 518.395955 58.921754 
" style="fill:none;stroke:#0000ff;stroke-linecap:square;"/>
   </g>
   <g id="line2d_2">
    <path clip-path="url(#p28ae09cc49)" d="M 72.002023 216 
L 518.395955 216 
L 518.395955 216 
" style="fill:none;stroke:#000000;stroke-linecap:square;"/>
   </g>
   <g id="patch_3">
    <path d="M 72 43.2 
L 518.4 43.2 
" style="fill:none;stroke:#000000;stroke-linecap:square;stroke-linejoin:miter;"/>
   </g>
   <g id="patch_4">
    <path d="M 518.4 388.8 
L 518.4 43.2 
" style="fill:none;stroke:#000000;stroke-linecap:square;stroke-linejoin:miter;"/>
   </g>
   <g id="patch_5">
    <path d="M 72 388.8 
L 518.4 388.8 
" style="fill:none;stroke:#000000;stroke-linecap:square;stroke-linejoin:miter;"/>
   </g>
   <g id="patch_6">
    <path d="M 72 388.8 
L 72 43.2 
" style="fill:none;stroke:#000000;stroke-linecap:square;stroke-linejoin:miter;"/>
   </g>
   <g id="matplotlib.axis_1">
    <g id="xtick_1">
     <g id="line2d_3">
      <defs>
       <path d="M 0 0 
L 0 -4 
" id="mc4909eff70" style="stroke:#000000;stroke-width:0.5;"/>
      </defs>
      <g>
       <use style="stroke:#000000;stroke-width:0.5;" x="72.0020227377" xlink:href="#mc4909eff70" y="388.8"/>
      </g>
     </g>
     <g id="line2d_4">
      <defs>
       <path d="M 0 0 
L 0 4 
" id="m3ce2413cb2" style="stroke:#000000;stroke-width:0.5;"/>
      </defs>
      <g>
       <use style="stroke:#000000;stroke-width:0.5;" x="72.0020227377" xlink:href="#m3ce2413cb2" y="43.2"/>
      </g>
     </g>
     <g id="text_1">
      <!-- 0 -->
      <defs>
       <path d="M 31.78125 66.40625 
Q 24.171875 66.40625 20.328125 58.90625 
Q 16.5 51.421875 16.5 36.375 
Q 16.5 21.390625 20.328125 13.890625 
Q 24.171875 6.390625 31.78125 6.390625 
Q 39.453125 6.390625 43.28125 13.890625 
Q 47.125 21.390625 47.125 36.375 
Q 47.125 51.421875 43.28125 58.90625 
Q 39.453125 66.40625 31.78125 66.40625 
M 31.78125 74.21875 
Q 44.046875 74.21875 50.515625 64.515625 
Q 56.984375 54.828125 56.984375 36.375 
Q 56.984375 17.96875 50.515625 8.265625 
Q 44.046875 -1.421875 31.78125 -1.421875 
Q 19.53125 -1.421875 13.0625 8.265625 
Q 6.59375 17.96875 6.59375 36.375 
Q 6.59375 54.828125 13.0625 64.515625 
Q 19.53125 74.21875 31.78125 74.21875 
" id="BitstreamVeraSans-Roman-30"/>
      </defs>
      <g transform="translate(68.1845227377 401.918125)scale(0.12 -0.12)">
       <use xlink:href="#BitstreamVeraSans-Roman-30"/>
      </g>
     </g>
    </g>
    <g id="xtick_2">
     <g id="line2d_5">
      <g>
       <use style="stroke:#000000;stroke-width:0.5;" x="173.138906435" xlink:href="#mc4909eff70" y="388.8"/>
      </g>
     </g>
     <g id="line2d_6">
      <g>
       <use style="stroke:#000000;stroke-width:0.5;" x="173.138906435" xlink:href="#m3ce2413cb2" y="43.2"/>
      </g>
     </g>
     <g id="text_2">
      <!-- 50000 -->
      <defs>
       <path d="M 10.796875 72.90625 
L 49.515625 72.90625 
L 49.515625 64.59375 
L 19.828125 64.59375 
L 19.828125 46.734375 
Q 21.96875 47.46875 24.109375 47.828125 
Q 26.265625 48.1875 28.421875 48.1875 
Q 40.625 48.1875 47.75 41.5 
Q 54.890625 34.8125 54.890625 23.390625 
Q 54.890625 11.625 47.5625 5.09375 
Q 40.234375 -1.421875 26.90625 -1.421875 
Q 22.3125 -1.421875 17.546875 -0.640625 
Q 12.796875 0.140625 7.71875 1.703125 
L 7.71875 11.625 
Q 12.109375 9.234375 16.796875 8.0625 
Q 21.484375 6.890625 26.703125 6.890625 
Q 35.15625 6.890625 40.078125 11.328125 
Q 45.015625 15.765625 45.015625 23.390625 
Q 45.015625 31 40.078125 35.4375 
Q 35.15625 39.890625 26.703125 39.890625 
Q 22.75 39.890625 18.8125 39.015625 
Q 14.890625 38.140625 10.796875 36.28125 
z
" id="BitstreamVeraSans-Roman-35"/>
      </defs>
      <g transform="translate(154.051406435 401.918125)scale(0.12 -0.12)">
       <use xlink:href="#BitstreamVeraSans-Roman-35"/>
       <use x="63.623046875" xlink:href="#BitstreamVeraSans-Roman-30"/>
       <use x="127.24609375" xlink:href="#BitstreamVeraSans-Roman-30"/>
       <use x="190.869140625" xlink:href="#BitstreamVeraSans-Roman-30"/>
       <use x="254.4921875" xlink:href="#BitstreamVeraSans-Roman-30"/>
      </g>
     </g>
    </g>
    <g id="xtick_3">
     <g id="line2d_7">
      <g>
       <use style="stroke:#000000;stroke-width:0.5;" x="274.275790132" xlink:href="#mc4909eff70" y="388.8"/>
      </g>
     </g>
     <g id="line2d_8">
      <g>
       <use style="stroke:#000000;stroke-width:0.5;" x="274.275790132" xlink:href="#m3ce2413cb2" y="43.2"/>
      </g>
     </g>
     <g id="text_3">
      <!-- 100000 -->
      <defs>
       <path d="M 12.40625 8.296875 
L 28.515625 8.296875 
L 28.515625 63.921875 
L 10.984375 60.40625 
L 10.984375 69.390625 
L 28.421875 72.90625 
L 38.28125 72.90625 
L 38.28125 8.296875 
L 54.390625 8.296875 
L 54.390625 0 
L 12.40625 0 
z
" id="BitstreamVeraSans-Roman-31"/>
      </defs>
      <g transform="translate(251.370790132 401.918125)scale(0.12 -0.12)">
       <use xlink:href="#BitstreamVeraSans-Roman-31"/>
       <use x="63.623046875" xlink:href="#BitstreamVeraSans-Roman-30"/>
       <use x="127.24609375" xlink:href="#BitstreamVeraSans-Roman-30"/>
       <use x="190.869140625" xlink:href="#BitstreamVeraSans-Roman-30"/>
       <use x="254.4921875" xlink:href="#BitstreamVeraSans-Roman-30"/>
       <use x="318.115234375" xlink:href="#BitstreamVeraSans-Roman-30"/>
      </g>
     </g>
    </g>
    <g id="xtick_4">
     <g id="line2d_9">
      <g>
       <use style="stroke:#000000;stroke-width:0.5;" x="375.412673829" xlink:href="#mc4909eff70" y="388.8"/>
      </g>
     </g>
     <g id="line2d_10">
      <g>
       <use style="stroke:#000000;stroke-width:0.5;" x="375.412673829" xlink:href="#m3ce2413cb2" y="43.2"/>
      </g>
     </g>
     <g id="text_4">
      <!-- 150000 -->
      <g transform="translate(352.507673829 401.918125)scale(0.12 -0.12)">
       <use xlink:href="#BitstreamVeraSans-Roman-31"/>
       <use x="63.623046875" xlink:href="#BitstreamVeraSans-Roman-35"/>
       <use x="127.24609375" xlink:href="#BitstreamVeraSans-Roman-30"/>
       <use x="190.869140625" xlink:href="#BitstreamVeraSans-Roman-30"/>
       <use x="254.4921875" xlink:href="#BitstreamVeraSans-Roman-30"/>
       <use x="318.115234375" xlink:href="#BitstreamVeraSans-Roman-30"/>
      </g>
     </g>
    </g>
    <g id="xtick_5">
     <g id="line2d_11">
      <g>
       <use style="stroke:#000000;stroke-width:0.5;" x="476.549557526" xlink:href="#mc4909eff70" y="388.8"/>
      </g>
     </g>
     <g id="line2d_12">
      <g>
       <use style="stroke:#000000;stroke-width:0.5;" x="476.549557526" xlink:href="#m3ce2413cb2" y="43.2"/>
      </g>
     </g>
     <g id="text_5">
      <!-- 200000 -->
      <defs>
       <path d="M 19.1875 8.296875 
L 53.609375 8.296875 
L 53.609375 0 
L 7.328125 0 
L 7.328125 8.296875 
Q 12.9375 14.109375 22.625 23.890625 
Q 32.328125 33.6875 34.8125 36.53125 
Q 39.546875 41.84375 41.421875 45.53125 
Q 43.3125 49.21875 43.3125 52.78125 
Q 43.3125 58.59375 39.234375 62.25 
Q 35.15625 65.921875 28.609375 65.921875 
Q 23.96875 65.921875 18.8125 64.3125 
Q 13.671875 62.703125 7.8125 59.421875 
L 7.8125 69.390625 
Q 13.765625 71.78125 18.9375 73 
Q 24.125 74.21875 28.421875 74.21875 
Q 39.75 74.21875 46.484375 68.546875 
Q 53.21875 62.890625 53.21875 53.421875 
Q 53.21875 48.921875 51.53125 44.890625 
Q 49.859375 40.875 45.40625 35.40625 
Q 44.1875 33.984375 37.640625 27.21875 
Q 31.109375 20.453125 19.1875 8.296875 
" id="BitstreamVeraSans-Roman-32"/>
      </defs>
      <g transform="translate(453.644557526 401.918125)scale(0.12 -0.12)">
       <use xlink:href="#BitstreamVeraSans-Roman-32"/>
       <use x="63.623046875" xlink:href="#BitstreamVeraSans-Roman-30"/>
       <use x="127.24609375" xlink:href="#BitstreamVeraSans-Roman-30"/>
       <use x="190.869140625" xlink:href="#BitstreamVeraSans-Roman-30"/>
       <use x="254.4921875" xlink:href="#BitstreamVeraSans-Roman-30"/>
       <use x="318.115234375" xlink:href="#BitstreamVeraSans-Roman-30"/>
      </g>
     </g>
    </g>
    <g id="text_6">
     <!-- Channel vs Channel -->
     <defs>
      <path id="BitstreamVeraSans-Roman-20"/>
      <path d="M 54.890625 33.015625 
L 54.890625 0 
L 45.90625 0 
L 45.90625 32.71875 
Q 45.90625 40.484375 42.875 44.328125 
Q 39.84375 48.1875 33.796875 48.1875 
Q 26.515625 48.1875 22.3125 43.546875 
Q 18.109375 38.921875 18.109375 30.90625 
L 18.109375 0 
L 9.078125 0 
L 9.078125 54.6875 
L 18.109375 54.6875 
L 18.109375 46.1875 
Q 21.34375 51.125 25.703125 53.5625 
Q 30.078125 56 35.796875 56 
Q 45.21875 56 50.046875 50.171875 
Q 54.890625 44.34375 54.890625 33.015625 
" id="BitstreamVeraSans-Roman-6e"/>
      <path d="M 9.421875 75.984375 
L 18.40625 75.984375 
L 18.40625 0 
L 9.421875 0 
z
" id="BitstreamVeraSans-Roman-6c"/>
      <path d="M 2.984375 54.6875 
L 12.5 54.6875 
L 29.59375 8.796875 
L 46.6875 54.6875 
L 56.203125 54.6875 
L 35.6875 0 
L 23.484375 0 
z
" id="BitstreamVeraSans-Roman-76"/>
      <path d="M 64.40625 67.28125 
L 64.40625 56.890625 
Q 59.421875 61.53125 53.78125 63.8125 
Q 48.140625 66.109375 41.796875 66.109375 
Q 29.296875 66.109375 22.65625 58.46875 
Q 16.015625 50.828125 16.015625 36.375 
Q 16.015625 21.96875 22.65625 14.328125 
Q 29.296875 6.6875 41.796875 6.6875 
Q 48.140625 6.6875 53.78125 8.984375 
Q 59.421875 11.28125 64.40625 15.921875 
L 64.40625 5.609375 
Q 59.234375 2.09375 53.4375 0.328125 
Q 47.65625 -1.421875 41.21875 -1.421875 
Q 24.65625 -1.421875 15.125 8.703125 
Q 5.609375 18.84375 5.609375 36.375 
Q 5.609375 53.953125 15.125 64.078125 
Q 24.65625 74.21875 41.21875 74.21875 
Q 47.75 74.21875 53.53125 72.484375 
Q 59.328125 70.75 64.40625 67.28125 
" id="BitstreamVeraSans-Roman-43"/>
      <path d="M 54.890625 33.015625 
L 54.890625 0 
L 45.90625 0 
L 45.90625 32.71875 
Q 45.90625 40.484375 42.875 44.328125 
Q 39.84375 48.1875 33.796875 48.1875 
Q 26.515625 48.1875 22.3125 43.546875 
Q 18.109375 38.921875 18.109375 30.90625 
L 18.109375 0 
L 9.078125 0 
L 9.078125 75.984375 
L 18.109375 75.984375 
L 18.109375 46.1875 
Q 21.34375 51.125 25.703125 53.5625 
Q 30.078125 56 35.796875 56 
Q 45.21875 56 50.046875 50.171875 
Q 54.890625 44.34375 54.890625 33.015625 
" id="BitstreamVeraSans-Roman-68"/>
      <path d="M 56.203125 29.59375 
L 56.203125 25.203125 
L 14.890625 25.203125 
Q 15.484375 15.921875 20.484375 11.0625 
Q 25.484375 6.203125 34.421875 6.203125 
Q 39.59375 6.203125 44.453125 7.46875 
Q 49.3125 8.734375 54.109375 11.28125 
L 54.109375 2.78125 
Q 49.265625 0.734375 44.1875 -0.34375 
Q 39.109375 -1.421875 33.890625 -1.421875 
Q 20.796875 -1.421875 13.15625 6.1875 
Q 5.515625 13.8125 5.515625 26.8125 
Q 5.515625 40.234375 12.765625 48.109375 
Q 20.015625 56 32.328125 56 
Q 43.359375 56 49.78125 48.890625 
Q 56.203125 41.796875 56.203125 29.59375 
M 47.21875 32.234375 
Q 47.125 39.59375 43.09375 43.984375 
Q 39.0625 48.390625 32.421875 48.390625 
Q 24.90625 48.390625 20.390625 44.140625 
Q 15.875 39.890625 15.1875 32.171875 
z
" id="BitstreamVeraSans-Roman-65"/>
      <path d="M 34.28125 27.484375 
Q 23.390625 27.484375 19.1875 25 
Q 14.984375 22.515625 14.984375 16.5 
Q 14.984375 11.71875 18.140625 8.90625 
Q 21.296875 6.109375 26.703125 6.109375 
Q 34.1875 6.109375 38.703125 11.40625 
Q 43.21875 16.703125 43.21875 25.484375 
L 43.21875 27.484375 
z
M 52.203125 31.203125 
L 52.203125 0 
L 43.21875 0 
L 43.21875 8.296875 
Q 40.140625 3.328125 35.546875 0.953125 
Q 30.953125 -1.421875 24.3125 -1.421875 
Q 15.921875 -1.421875 10.953125 3.296875 
Q 6 8.015625 6 15.921875 
Q 6 25.140625 12.171875 29.828125 
Q 18.359375 34.515625 30.609375 34.515625 
L 43.21875 34.515625 
L 43.21875 35.40625 
Q 43.21875 41.609375 39.140625 45 
Q 35.0625 48.390625 27.6875 48.390625 
Q 23 48.390625 18.546875 47.265625 
Q 14.109375 46.140625 10.015625 43.890625 
L 10.015625 52.203125 
Q 14.9375 54.109375 19.578125 55.046875 
Q 24.21875 56 28.609375 56 
Q 40.484375 56 46.34375 49.84375 
Q 52.203125 43.703125 52.203125 31.203125 
" id="BitstreamVeraSans-Roman-61"/>
      <path d="M 44.28125 53.078125 
L 44.28125 44.578125 
Q 40.484375 46.53125 36.375 47.5 
Q 32.28125 48.484375 27.875 48.484375 
Q 21.1875 48.484375 17.84375 46.4375 
Q 14.5 44.390625 14.5 40.28125 
Q 14.5 37.15625 16.890625 35.375 
Q 19.28125 33.59375 26.515625 31.984375 
L 29.59375 31.296875 
Q 39.15625 29.25 43.1875 25.515625 
Q 47.21875 21.78125 47.21875 15.09375 
Q 47.21875 7.46875 41.1875 3.015625 
Q 35.15625 -1.421875 24.609375 -1.421875 
Q 20.21875 -1.421875 15.453125 -0.5625 
Q 10.6875 0.296875 5.421875 2 
L 5.421875 11.28125 
Q 10.40625 8.6875 15.234375 7.390625 
Q 20.0625 6.109375 24.8125 6.109375 
Q 31.15625 6.109375 34.5625 8.28125 
Q 37.984375 10.453125 37.984375 14.40625 
Q 37.984375 18.0625 35.515625 20.015625 
Q 33.0625 21.96875 24.703125 23.78125 
L 21.578125 24.515625 
Q 13.234375 26.265625 9.515625 29.90625 
Q 5.8125 33.546875 5.8125 39.890625 
Q 5.8125 47.609375 11.28125 51.796875 
Q 16.75 56 26.8125 56 
Q 31.78125 56 36.171875 55.265625 
Q 40.578125 54.546875 44.28125 53.078125 
" id="BitstreamVeraSans-Roman-73"/>
     </defs>
     <g transform="translate(235.44375 418.531875)scale(0.12 -0.12)">
      <use xlink:href="#BitstreamVeraSans-Roman-43"/>
      <use x="69.82421875" xlink:href="#BitstreamVeraSans-Roman-68"/>
      <use x="133.203125" xlink:href="#BitstreamVeraSans-Roman-61"/>
      <use x="194.482421875" xlink:href="#BitstreamVeraSans-Roman-6e"/>
      <use x="257.861328125" xlink:href="#BitstreamVeraSans-Roman-6e"/>
      <use x="321.240234375" xlink:href="#BitstreamVeraSans-Roman-65"/>
      <use x="382.763671875" xlink:href="#BitstreamVeraSans-Roman-6c"/>
      <use x="410.546875" xlink:href="#BitstreamVeraSans-Roman-20"/>
      <use x="442.333984375" xlink:href="#BitstreamVeraSans-Roman-76"/>
      <use x="501.513671875" xlink:href="#BitstreamVeraSans-Roman-73"/>
      <use x="553.61328125" xlink:href="#BitstreamVeraSans-Roman-20"/>
      <use x="585.400390625" xlink:href="#BitstreamVeraSans-Roman-43"/>
      <use x="655.224609375" xlink:href="#BitstreamVeraSans-Roman-68"/>
      <use x="718.603515625" xlink:href="#BitstreamVeraSans-Roman-61"/>
      <use x="779.8828125" xlink:href="#BitstreamVeraSans-Roman-6e"/>
      <use x="843.26171875" xlink:href="#BitstreamVeraSans-Roman-6e"/>
      <use x="906.640625" xlink:href="#BitstreamVeraSans-Roman-65"/>
      <use x="968.1640625" xlink:href="#BitstreamVeraSans-Roman-6c"/>
     </g>
    </g>
   </g>
   <g id="matplotlib.axis_2">
    <g id="ytick_1">
     <g id="line2d_13">
      <defs>
       <path d="M 0 0 
L 4 0 
" id="m195991fe44" style="stroke:#000000;stroke-width:0.5;"/>
      </defs>
      <g>
       <use style="stroke:#000000;stroke-width:0.5;" x="72.0" xlink:href="#m195991fe44" y="373.090909091"/>
      </g>
     </g>
     <g id="line2d_14">
      <defs>
       <path d="M 0 0 
L -4 0 
" id="medda7d25e1" style="stroke:#000000;stroke-width:0.5;"/>
      </defs>
      <g>
       <use style="stroke:#000000;stroke-width:0.5;" x="518.4" xlink:href="#medda7d25e1" y="373.090909091"/>
      </g>
     </g>
     <g id="text_7">
      <!-- −1.0 -->
      <defs>
       <path d="M 10.59375 35.5 
L 73.1875 35.5 
L 73.1875 27.203125 
L 10.59375 27.203125 
z
" id="BitstreamVeraSans-Roman-2212"/>
       <path d="M 10.6875 12.40625 
L 21 12.40625 
L 21 0 
L 10.6875 0 
z
" id="BitstreamVeraSans-Roman-2e"/>
      </defs>
      <g transform="translate(38.860625 376.402159091)scale(0.12 -0.12)">
       <use xlink:href="#BitstreamVeraSans-Roman-2212"/>
       <use x="83.7890625" xlink:href="#BitstreamVeraSans-Roman-31"/>
       <use x="147.412109375" xlink:href="#BitstreamVeraSans-Roman-2e"/>
       <use x="179.19921875" xlink:href="#BitstreamVeraSans-Roman-30"/>
      </g>
     </g>
    </g>
    <g id="ytick_2">
     <g id="line2d_15">
      <g>
       <use style="stroke:#000000;stroke-width:0.5;" x="72.0" xlink:href="#m195991fe44" y="294.545454545"/>
      </g>
     </g>
     <g id="line2d_16">
      <g>
       <use style="stroke:#000000;stroke-width:0.5;" x="518.4" xlink:href="#medda7d25e1" y="294.545454545"/>
      </g>
     </g>
     <g id="text_8">
      <!-- −0.5 -->
      <g transform="translate(38.860625 297.856704545)scale(0.12 -0.12)">
       <use xlink:href="#BitstreamVeraSans-Roman-2212"/>
       <use x="83.7890625" xlink:href="#BitstreamVeraSans-Roman-30"/>
       <use x="147.412109375" xlink:href="#BitstreamVeraSans-Roman-2e"/>
       <use x="179.19921875" xlink:href="#BitstreamVeraSans-Roman-35"/>
      </g>
     </g>
    </g>
    <g id="ytick_3">
     <g id="line2d_17">
      <g>
       <use style="stroke:#000000;stroke-width:0.5;" x="72.0" xlink:href="#m195991fe44" y="216.0"/>
      </g>
     </g>
     <g id="line2d_18">
      <g>
       <use style="stroke:#000000;stroke-width:0.5;" x="518.4" xlink:href="#medda7d25e1" y="216.0"/>
      </g>
     </g>
     <g id="text_9">
      <!-- 0.0 -->
      <g transform="translate(48.91625 219.31125)scale(0.12 -0.12)">
       <use xlink:href="#BitstreamVeraSans-Roman-30"/>
       <use x="63.623046875" xlink:href="#BitstreamVeraSans-Roman-2e"/>
       <use x="95.41015625" xlink:href="#BitstreamVeraSans-Roman-30"/>
      </g>
     </g>
    </g>
    <g id="ytick_4">
     <g id="line2d_19">
      <g>
       <use style="stroke:#000000;stroke-width:0.5;" x="72.0" xlink:href="#m195991fe44" y="137.454545455"/>
      </g>
     </g>
     <g id="line2d_20">
      <g>
       <use style="stroke:#000000;stroke-width:0.5;" x="518.4" xlink:href="#medda7d25e1" y="137.454545455"/>
      </g>
     </g>
     <g id="text_10">
      <!-- 0.5 -->
      <g transform="translate(48.91625 140.765795455)scale(0.12 -0.12)">
       <use xlink:href="#BitstreamVeraSans-Roman-30"/>
       <use x="63.623046875" xlink:href="#BitstreamVeraSans-Roman-2e"/>
       <use x="95.41015625" xlink:href="#BitstreamVeraSans-Roman-35"/>
      </g>
     </g>
    </g>
    <g id="ytick_5">
     <g id="line2d_21">
      <g>
       <use style="stroke:#000000;stroke-width:0.5;" x="72.0" xlink:href="#m195991fe44" y="58.9090909091"/>
      </g>
     </g>
     <g id="line2d_22">
      <g>
       <use style="stroke:#000000;stroke-width:0.5;" x="518.4" xlink:href="#medda7d25e1" y="58.9090909091"/>
      </g>
     </g>
     <g id="text_11">
      <!-- 1.0 -->
      <g transform="translate(48.91625 62.2203409091)scale(0.12 -0.12)">
       <use xlink:href="#BitstreamVeraSans-Roman-31"/>
       <use x="63.623046875" xlink:href="#BitstreamVeraSans-Roman-2e"/>
       <use x="95.41015625" xlink:href="#BitstreamVeraSans-Roman-30"/>
      </g>
     </g>
    </g>
    <g id="text_12">
     <!-- Correlation value -->
     <defs>
      <path d="M 8.5 21.578125 
L 8.5 54.6875 
L 17.484375 54.6875 
L 17.484375 21.921875 
Q 17.484375 14.15625 20.5 10.265625 
Q 23.53125 6.390625 29.59375 6.390625 
Q 36.859375 6.390625 41.078125 11.03125 
Q 45.3125 15.671875 45.3125 23.6875 
L 45.3125 54.6875 
L 54.296875 54.6875 
L 54.296875 0 
L 45.3125 0 
L 45.3125 8.40625 
Q 42.046875 3.421875 37.71875 1 
Q 33.40625 -1.421875 27.6875 -1.421875 
Q 18.265625 -1.421875 13.375 4.4375 
Q 8.5 10.296875 8.5 21.578125 
" id="BitstreamVeraSans-Roman-75"/>
      <path d="M 9.421875 54.6875 
L 18.40625 54.6875 
L 18.40625 0 
L 9.421875 0 
z
M 9.421875 75.984375 
L 18.40625 75.984375 
L 18.40625 64.59375 
L 9.421875 64.59375 
z
" id="BitstreamVeraSans-Roman-69"/>
      <path d="M 18.3125 70.21875 
L 18.3125 54.6875 
L 36.8125 54.6875 
L 36.8125 47.703125 
L 18.3125 47.703125 
L 18.3125 18.015625 
Q 18.3125 11.328125 20.140625 9.421875 
Q 21.96875 7.515625 27.59375 7.515625 
L 36.8125 7.515625 
L 36.8125 0 
L 27.59375 0 
Q 17.1875 0 13.234375 3.875 
Q 9.28125 7.765625 9.28125 18.015625 
L 9.28125 47.703125 
L 2.6875 47.703125 
L 2.6875 54.6875 
L 9.28125 54.6875 
L 9.28125 70.21875 
z
" id="BitstreamVeraSans-Roman-74"/>
      <path d="M 30.609375 48.390625 
Q 23.390625 48.390625 19.1875 42.75 
Q 14.984375 37.109375 14.984375 27.296875 
Q 14.984375 17.484375 19.15625 11.84375 
Q 23.34375 6.203125 30.609375 6.203125 
Q 37.796875 6.203125 41.984375 11.859375 
Q 46.1875 17.53125 46.1875 27.296875 
Q 46.1875 37.015625 41.984375 42.703125 
Q 37.796875 48.390625 30.609375 48.390625 
M 30.609375 56 
Q 42.328125 56 49.015625 48.375 
Q 55.71875 40.765625 55.71875 27.296875 
Q 55.71875 13.875 49.015625 6.21875 
Q 42.328125 -1.421875 30.609375 -1.421875 
Q 18.84375 -1.421875 12.171875 6.21875 
Q 5.515625 13.875 5.515625 27.296875 
Q 5.515625 40.765625 12.171875 48.375 
Q 18.84375 56 30.609375 56 
" id="BitstreamVeraSans-Roman-6f"/>
      <path d="M 41.109375 46.296875 
Q 39.59375 47.171875 37.8125 47.578125 
Q 36.03125 48 33.890625 48 
Q 26.265625 48 22.1875 43.046875 
Q 18.109375 38.09375 18.109375 28.8125 
L 18.109375 0 
L 9.078125 0 
L 9.078125 54.6875 
L 18.109375 54.6875 
L 18.109375 46.1875 
Q 20.953125 51.171875 25.484375 53.578125 
Q 30.03125 56 36.53125 56 
Q 37.453125 56 38.578125 55.875 
Q 39.703125 55.765625 41.0625 55.515625 
z
" id="BitstreamVeraSans-Roman-72"/>
     </defs>
     <g transform="translate(31.365 267.6159375)rotate(-90.0)scale(0.12 -0.12)">
      <use xlink:href="#BitstreamVeraSans-Roman-43"/>
      <use x="69.82421875" xlink:href="#BitstreamVeraSans-Roman-6f"/>
      <use x="131.005859375" xlink:href="#BitstreamVeraSans-Roman-72"/>
      <use x="172.103515625" xlink:href="#BitstreamVeraSans-Roman-72"/>
      <use x="213.185546875" xlink:href="#BitstreamVeraSans-Roman-65"/>
      <use x="274.708984375" xlink:href="#BitstreamVeraSans-Roman-6c"/>
      <use x="302.4921875" xlink:href="#BitstreamVeraSans-Roman-61"/>
      <use x="363.771484375" xlink:href="#BitstreamVeraSans-Roman-74"/>
      <use x="402.98046875" xlink:href="#BitstreamVeraSans-Roman-69"/>
      <use x="430.763671875" xlink:href="#BitstreamVeraSans-Roman-6f"/>
      <use x="491.9453125" xlink:href="#BitstreamVeraSans-Roman-6e"/>
      <use x="555.32421875" xlink:href="#BitstreamVeraSans-Roman-20"/>
      <use x="587.111328125" xlink:href="#BitstreamVeraSans-Roman-76"/>
      <use x="646.291015625" xlink:href="#BitstreamVeraSans-Roman-61"/>
      <use x="707.5703125" xlink:href="#BitstreamVeraSans-Roman-6c"/>
      <use x="735.353515625" xlink:href="#BitstreamVeraSans-Roman-75"/>
      <use x="798.732421875" xlink:href="#BitstreamVeraSans-Roman-65"/>
     </g>
    </g>
   </g>
   <g id="text_13">
    <!-- Sorted Correlations between 2 Channels (30 second intervals) -->
    <defs>
     <path d="M 40.578125 39.3125 
Q 47.65625 37.796875 51.625 33 
Q 55.609375 28.21875 55.609375 21.1875 
Q 55.609375 10.40625 48.1875 4.484375 
Q 40.765625 -1.421875 27.09375 -1.421875 
Q 22.515625 -1.421875 17.65625 -0.515625 
Q 12.796875 0.390625 7.625 2.203125 
L 7.625 11.71875 
Q 11.71875 9.328125 16.59375 8.109375 
Q 21.484375 6.890625 26.8125 6.890625 
Q 36.078125 6.890625 40.9375 10.546875 
Q 45.796875 14.203125 45.796875 21.1875 
Q 45.796875 27.640625 41.28125 31.265625 
Q 36.765625 34.90625 28.71875 34.90625 
L 20.21875 34.90625 
L 20.21875 43.015625 
L 29.109375 43.015625 
Q 36.375 43.015625 40.234375 45.921875 
Q 44.09375 48.828125 44.09375 54.296875 
Q 44.09375 59.90625 40.109375 62.90625 
Q 36.140625 65.921875 28.71875 65.921875 
Q 24.65625 65.921875 20.015625 65.03125 
Q 15.375 64.15625 9.8125 62.3125 
L 9.8125 71.09375 
Q 15.4375 72.65625 20.34375 73.4375 
Q 25.25 74.21875 29.59375 74.21875 
Q 40.828125 74.21875 47.359375 69.109375 
Q 53.90625 64.015625 53.90625 55.328125 
Q 53.90625 49.265625 50.4375 45.09375 
Q 46.96875 40.921875 40.578125 39.3125 
" id="BitstreamVeraSans-Roman-33"/>
     <path d="M 8.015625 75.875 
L 15.828125 75.875 
Q 23.140625 64.359375 26.78125 53.3125 
Q 30.421875 42.28125 30.421875 31.390625 
Q 30.421875 20.453125 26.78125 9.375 
Q 23.140625 -1.703125 15.828125 -13.1875 
L 8.015625 -13.1875 
Q 14.5 -2 17.703125 9.0625 
Q 20.90625 20.125 20.90625 31.390625 
Q 20.90625 42.671875 17.703125 53.65625 
Q 14.5 64.65625 8.015625 75.875 
" id="BitstreamVeraSans-Roman-29"/>
     <path d="M 31 75.875 
Q 24.46875 64.65625 21.28125 53.65625 
Q 18.109375 42.671875 18.109375 31.390625 
Q 18.109375 20.125 21.3125 9.0625 
Q 24.515625 -2 31 -13.1875 
L 23.1875 -13.1875 
Q 15.875 -1.703125 12.234375 9.375 
Q 8.59375 20.453125 8.59375 31.390625 
Q 8.59375 42.28125 12.203125 53.3125 
Q 15.828125 64.359375 23.1875 75.875 
z
" id="BitstreamVeraSans-Roman-28"/>
     <path d="M 53.515625 70.515625 
L 53.515625 60.890625 
Q 47.90625 63.578125 42.921875 64.890625 
Q 37.9375 66.21875 33.296875 66.21875 
Q 25.25 66.21875 20.875 63.09375 
Q 16.5 59.96875 16.5 54.203125 
Q 16.5 49.359375 19.40625 46.890625 
Q 22.3125 44.4375 30.421875 42.921875 
L 36.375 41.703125 
Q 47.40625 39.59375 52.65625 34.296875 
Q 57.90625 29 57.90625 20.125 
Q 57.90625 9.515625 50.796875 4.046875 
Q 43.703125 -1.421875 29.984375 -1.421875 
Q 24.8125 -1.421875 18.96875 -0.25 
Q 13.140625 0.921875 6.890625 3.21875 
L 6.890625 13.375 
Q 12.890625 10.015625 18.65625 8.296875 
Q 24.421875 6.59375 29.984375 6.59375 
Q 38.421875 6.59375 43.015625 9.90625 
Q 47.609375 13.234375 47.609375 19.390625 
Q 47.609375 24.75 44.3125 27.78125 
Q 41.015625 30.8125 33.5 32.328125 
L 27.484375 33.5 
Q 16.453125 35.6875 11.515625 40.375 
Q 6.59375 45.0625 6.59375 53.421875 
Q 6.59375 63.09375 13.40625 68.65625 
Q 20.21875 74.21875 32.171875 74.21875 
Q 37.3125 74.21875 42.625 73.28125 
Q 47.953125 72.359375 53.515625 70.515625 
" id="BitstreamVeraSans-Roman-53"/>
     <path d="M 4.203125 54.6875 
L 13.1875 54.6875 
L 24.421875 12.015625 
L 35.59375 54.6875 
L 46.1875 54.6875 
L 57.421875 12.015625 
L 68.609375 54.6875 
L 77.59375 54.6875 
L 63.28125 0 
L 52.6875 0 
L 40.921875 44.828125 
L 29.109375 0 
L 18.5 0 
z
" id="BitstreamVeraSans-Roman-77"/>
     <path d="M 45.40625 46.390625 
L 45.40625 75.984375 
L 54.390625 75.984375 
L 54.390625 0 
L 45.40625 0 
L 45.40625 8.203125 
Q 42.578125 3.328125 38.25 0.953125 
Q 33.9375 -1.421875 27.875 -1.421875 
Q 17.96875 -1.421875 11.734375 6.484375 
Q 5.515625 14.40625 5.515625 27.296875 
Q 5.515625 40.1875 11.734375 48.09375 
Q 17.96875 56 27.875 56 
Q 33.9375 56 38.25 53.625 
Q 42.578125 51.265625 45.40625 46.390625 
M 14.796875 27.296875 
Q 14.796875 17.390625 18.875 11.75 
Q 22.953125 6.109375 30.078125 6.109375 
Q 37.203125 6.109375 41.296875 11.75 
Q 45.40625 17.390625 45.40625 27.296875 
Q 45.40625 37.203125 41.296875 42.84375 
Q 37.203125 48.484375 30.078125 48.484375 
Q 22.953125 48.484375 18.875 42.84375 
Q 14.796875 37.203125 14.796875 27.296875 
" id="BitstreamVeraSans-Roman-64"/>
     <path d="M 48.78125 52.59375 
L 48.78125 44.1875 
Q 44.96875 46.296875 41.140625 47.34375 
Q 37.3125 48.390625 33.40625 48.390625 
Q 24.65625 48.390625 19.8125 42.84375 
Q 14.984375 37.3125 14.984375 27.296875 
Q 14.984375 17.28125 19.8125 11.734375 
Q 24.65625 6.203125 33.40625 6.203125 
Q 37.3125 6.203125 41.140625 7.25 
Q 44.96875 8.296875 48.78125 10.40625 
L 48.78125 2.09375 
Q 45.015625 0.34375 40.984375 -0.53125 
Q 36.96875 -1.421875 32.421875 -1.421875 
Q 20.0625 -1.421875 12.78125 6.34375 
Q 5.515625 14.109375 5.515625 27.296875 
Q 5.515625 40.671875 12.859375 48.328125 
Q 20.21875 56 33.015625 56 
Q 37.15625 56 41.109375 55.140625 
Q 45.0625 54.296875 48.78125 52.59375 
" id="BitstreamVeraSans-Roman-63"/>
     <path d="M 48.6875 27.296875 
Q 48.6875 37.203125 44.609375 42.84375 
Q 40.53125 48.484375 33.40625 48.484375 
Q 26.265625 48.484375 22.1875 42.84375 
Q 18.109375 37.203125 18.109375 27.296875 
Q 18.109375 17.390625 22.1875 11.75 
Q 26.265625 6.109375 33.40625 6.109375 
Q 40.53125 6.109375 44.609375 11.75 
Q 48.6875 17.390625 48.6875 27.296875 
M 18.109375 46.390625 
Q 20.953125 51.265625 25.265625 53.625 
Q 29.59375 56 35.59375 56 
Q 45.5625 56 51.78125 48.09375 
Q 58.015625 40.1875 58.015625 27.296875 
Q 58.015625 14.40625 51.78125 6.484375 
Q 45.5625 -1.421875 35.59375 -1.421875 
Q 29.59375 -1.421875 25.265625 0.953125 
Q 20.953125 3.328125 18.109375 8.203125 
L 18.109375 0 
L 9.078125 0 
L 9.078125 75.984375 
L 18.109375 75.984375 
z
" id="BitstreamVeraSans-Roman-62"/>
    </defs>
    <g transform="translate(71.001 38.2)scale(0.144 -0.144)">
     <use xlink:href="#BitstreamVeraSans-Roman-53"/>
     <use x="63.4765625" xlink:href="#BitstreamVeraSans-Roman-6f"/>
     <use x="124.658203125" xlink:href="#BitstreamVeraSans-Roman-72"/>
     <use x="165.771484375" xlink:href="#BitstreamVeraSans-Roman-74"/>
     <use x="204.98046875" xlink:href="#BitstreamVeraSans-Roman-65"/>
     <use x="266.50390625" xlink:href="#BitstreamVeraSans-Roman-64"/>
     <use x="329.98046875" xlink:href="#BitstreamVeraSans-Roman-20"/>
     <use x="361.767578125" xlink:href="#BitstreamVeraSans-Roman-43"/>
     <use x="431.591796875" xlink:href="#BitstreamVeraSans-Roman-6f"/>
     <use x="492.7734375" xlink:href="#BitstreamVeraSans-Roman-72"/>
     <use x="533.87109375" xlink:href="#BitstreamVeraSans-Roman-72"/>
     <use x="574.953125" xlink:href="#BitstreamVeraSans-Roman-65"/>
     <use x="636.4765625" xlink:href="#BitstreamVeraSans-Roman-6c"/>
     <use x="664.259765625" xlink:href="#BitstreamVeraSans-Roman-61"/>
     <use x="725.5390625" xlink:href="#BitstreamVeraSans-Roman-74"/>
     <use x="764.748046875" xlink:href="#BitstreamVeraSans-Roman-69"/>
     <use x="792.53125" xlink:href="#BitstreamVeraSans-Roman-6f"/>
     <use x="853.712890625" xlink:href="#BitstreamVeraSans-Roman-6e"/>
     <use x="917.091796875" xlink:href="#BitstreamVeraSans-Roman-73"/>
     <use x="969.19140625" xlink:href="#BitstreamVeraSans-Roman-20"/>
     <use x="1000.97851562" xlink:href="#BitstreamVeraSans-Roman-62"/>
     <use x="1064.45507812" xlink:href="#BitstreamVeraSans-Roman-65"/>
     <use x="1125.97851562" xlink:href="#BitstreamVeraSans-Roman-74"/>
     <use x="1165.1875" xlink:href="#BitstreamVeraSans-Roman-77"/>
     <use x="1246.97460938" xlink:href="#BitstreamVeraSans-Roman-65"/>
     <use x="1308.49804688" xlink:href="#BitstreamVeraSans-Roman-65"/>
     <use x="1370.02148438" xlink:href="#BitstreamVeraSans-Roman-6e"/>
     <use x="1433.40039062" xlink:href="#BitstreamVeraSans-Roman-20"/>
     <use x="1465.1875" xlink:href="#BitstreamVeraSans-Roman-32"/>
     <use x="1528.81054688" xlink:href="#BitstreamVeraSans-Roman-20"/>
     <use x="1560.59765625" xlink:href="#BitstreamVeraSans-Roman-43"/>
     <use x="1630.421875" xlink:href="#BitstreamVeraSans-Roman-68"/>
     <use x="1693.80078125" xlink:href="#BitstreamVeraSans-Roman-61"/>
     <use x="1755.08007812" xlink:href="#BitstreamVeraSans-Roman-6e"/>
     <use x="1818.45898438" xlink:href="#BitstreamVeraSans-Roman-6e"/>
     <use x="1881.83789062" xlink:href="#BitstreamVeraSans-Roman-65"/>
     <use x="1943.36132812" xlink:href="#BitstreamVeraSans-Roman-6c"/>
     <use x="1971.14453125" xlink:href="#BitstreamVeraSans-Roman-73"/>
     <use x="2023.24414062" xlink:href="#BitstreamVeraSans-Roman-20"/>
     <use x="2055.03125" xlink:href="#BitstreamVeraSans-Roman-28"/>
     <use x="2094.04492188" xlink:href="#BitstreamVeraSans-Roman-33"/>
     <use x="2157.66796875" xlink:href="#BitstreamVeraSans-Roman-30"/>
     <use x="2221.29101562" xlink:href="#BitstreamVeraSans-Roman-20"/>
     <use x="2253.078125" xlink:href="#BitstreamVeraSans-Roman-73"/>
     <use x="2305.17773438" xlink:href="#BitstreamVeraSans-Roman-65"/>
     <use x="2366.70117188" xlink:href="#BitstreamVeraSans-Roman-63"/>
     <use x="2421.68164062" xlink:href="#BitstreamVeraSans-Roman-6f"/>
     <use x="2482.86328125" xlink:href="#BitstreamVeraSans-Roman-6e"/>
     <use x="2546.2421875" xlink:href="#BitstreamVeraSans-Roman-64"/>
     <use x="2609.71875" xlink:href="#BitstreamVeraSans-Roman-20"/>
     <use x="2641.50585938" xlink:href="#BitstreamVeraSans-Roman-69"/>
     <use x="2669.2890625" xlink:href="#BitstreamVeraSans-Roman-6e"/>
     <use x="2732.66796875" xlink:href="#BitstreamVeraSans-Roman-74"/>
     <use x="2771.87695312" xlink:href="#BitstreamVeraSans-Roman-65"/>
     <use x="2833.40039062" xlink:href="#BitstreamVeraSans-Roman-72"/>
     <use x="2874.51367188" xlink:href="#BitstreamVeraSans-Roman-76"/>
     <use x="2933.69335938" xlink:href="#BitstreamVeraSans-Roman-61"/>
     <use x="2994.97265625" xlink:href="#BitstreamVeraSans-Roman-6c"/>
     <use x="3022.75585938" xlink:href="#BitstreamVeraSans-Roman-73"/>
     <use x="3074.85546875" xlink:href="#BitstreamVeraSans-Roman-29"/>
    </g>
   </g>
  </g>
 </g>
 <defs>
  <clipPath id="p28ae09cc49">
   <rect height="345.6" width="446.4" x="72.0" y="43.2"/>
  </clipPath>
 </defs>
</svg>
