<?xml version="1.0" encoding="utf-8" standalone="no"?>
<!DOCTYPE svg PUBLIC "-//W3C//DTD SVG 1.1//EN"
  "http://www.w3.org/Graphics/SVG/1.1/DTD/svg11.dtd">
<!-- Created with matplotlib (http://matplotlib.org/) -->
<svg height="432pt" version="1.1" viewBox="0 0 576 432" width="576pt" xmlns="http://www.w3.org/2000/svg" xmlns:xlink="http://www.w3.org/1999/xlink">
 <defs>
  <style type="text/css">
*{stroke-linecap:butt;stroke-linejoin:round;stroke-miterlimit:100000;}
  </style>
 </defs>
 <g id="figure_1">
  <g id="patch_1">
   <path d="M 0 432 
L 576 432 
L 576 0 
L 0 0 
z
" style="fill:#ffffff;"/>
  </g>
  <g id="axes_1">
   <g id="patch_2">
    <path d="M 72 388.8 
L 518.4 388.8 
L 518.4 43.2 
L 72 43.2 
z
" style="fill:#ffffff;"/>
   </g>
   <g id="line2d_1">
    <path clip-path="url(#p4533c8ca89)" d="M 72.002023 388.799751 
L 73.06396 388.149426 
L 73.272302 388.004153 
L 73.988351 387.577225 
L 74.249284 387.449126 
L 74.564831 387.253075 
L 74.831833 387.121 
L 75.013879 387.021026 
L 75.195926 386.890421 
L 75.584291 386.646975 
L 75.96052 386.440409 
L 76.134476 386.321876 
L 76.375182 386.16857 
L 76.814116 385.901241 
L 77.050776 385.762457 
L 77.374414 385.565952 
L 78.027758 385.179584 
L 78.171373 385.099535 
L 81.8123 382.947566 
L 82.087393 382.798095 
L 82.364508 382.661278 
L 83.327331 382.062317 
L 83.630742 381.88586 
L 84.008994 381.673332 
L 84.166767 381.564929 
L 84.462087 381.389444 
L 86.964213 379.853755 
L 87.117941 379.773403 
L 87.376852 379.616285 
L 88.297197 379.060681 
L 88.467107 378.947316 
L 89.290362 378.466388 
L 90.487822 377.722878 
L 90.732574 377.568639 
L 91.033962 377.399585 
L 91.553805 377.074511 
L 93.04254 376.175714 
L 93.420792 375.927721 
L 93.647339 375.770204 
L 93.817249 375.657914 
L 94.033681 375.519799 
L 94.442274 375.26482 
L 94.650616 375.139693 
L 95.303961 374.735757 
L 95.957305 374.346545 
L 96.48524 374.033108 
L 96.659195 373.918718 
L 96.839219 373.78837 
L 97.118356 373.590957 
L 97.314562 373.457091 
L 97.733269 373.208704 
L 101.153718 370.942175 
L 101.38431 370.804226 
L 101.800994 370.558599 
L 102.039677 370.410339 
L 104.011846 369.195428 
L 104.551917 368.833335 
L 104.766328 368.702663 
L 106.257085 367.735868 
L 106.459359 367.62424 
L 106.647474 367.516865 
L 108.067435 366.660256 
L 108.273755 366.534031 
L 108.700552 366.252604 
L 108.945304 366.102973 
L 109.113191 365.987738 
L 109.539988 365.741776 
L 110.177151 365.338569 
L 110.423925 365.199618 
L 110.688903 365.024799 
L 111.014564 364.830156 
L 111.16627 364.730978 
L 111.449453 364.543714 
L 112.311139 364.048453 
L 112.513413 363.92569 
L 113.807965 363.127286 
L 113.998102 363.015267 
L 114.333877 362.803231 
L 114.467377 362.696239 
L 114.673697 362.569856 
L 114.962948 362.359129 
L 115.523247 362.013431 
L 115.719452 361.907565 
L 116.716662 361.267928 
L 116.971527 361.093659 
L 117.349779 360.807014 
L 117.560143 360.675716 
L 117.87569 360.474853 
L 118.375307 360.176415 
L 118.583649 360.052656 
L 118.713104 359.970991 
L 125.683458 355.480215 
L 125.837186 355.364228 
L 126.049573 355.221081 
L 126.189142 355.150255 
L 127.234898 354.493937 
L 127.6799 354.208694 
L 127.835651 354.092433 
L 128.080402 353.930806 
L 128.288744 353.799461 
L 129.142339 353.257611 
L 129.5125 353.015015 
L 129.872548 352.803255 
L 130.222481 352.573628 
L 130.560278 352.349353 
L 130.863689 352.147268 
L 132.843949 350.757489 
L 133.165565 350.541593 
L 133.357725 350.411985 
L 133.663158 350.192443 
L 133.916 350.02301 
L 134.213343 349.79848 
L 134.342798 349.720475 
L 134.672504 349.512854 
L 153.738829 336.40752 
L 153.898626 336.292197 
L 154.224286 336.065335 
L 154.537811 335.848817 
L 154.679402 335.757944 
L 154.918085 335.59122 
L 157.217938 333.984668 
L 157.438417 333.84598 
L 158.387081 333.181736 
L 158.542831 333.07404 
L 158.712741 332.954244 
L 158.842197 332.85387 
L 158.995925 332.710821 
L 159.226517 332.572571 
L 159.906157 332.08137 
L 160.047748 331.957333 
L 161.82978 330.636285 
L 162.161509 330.40708 
L 162.400192 330.228556 
L 162.687421 330.010947 
L 162.873513 329.869077 
L 163.025218 329.777302 
L 163.290197 329.603009 
L 163.860609 329.221927 
L 164.325838 328.899293 
L 166.122029 327.599041 
L 166.399145 327.380631 
L 166.569054 327.253848 
L 168.808225 325.657123 
L 169.028703 325.51157 
L 169.297728 325.334223 
L 169.463592 325.215551 
L 169.688116 325.067039 
L 169.884322 324.923066 
L 170.092663 324.76874 
L 170.228187 324.659141 
L 171.903014 323.570438 
L 172.141697 323.390263 
L 172.507812 323.151547 
L 172.762677 322.971275 
L 173.320953 322.557228 
L 173.509067 322.440893 
L 173.988456 322.134253 
L 175.058484 321.398369 
L 175.216258 321.285811 
L 175.426623 321.140497 
L 176.183127 320.605486 
L 176.500696 320.374507 
L 176.717129 320.229688 
L 176.864789 320.119081 
L 184.975967 314.3674 
L 185.135764 314.253373 
L 186.217928 313.455071 
L 186.410088 313.326238 
L 186.561794 313.18438 
L 186.757999 313.056579 
L 187.338525 312.643421 
L 187.645981 312.422487 
L 187.783527 312.304404 
L 188.111211 312.100056 
L 188.268984 311.984632 
L 188.463167 311.874225 
L 188.622963 311.754021 
L 193.667671 308.014358 
L 193.85174 307.894393 
L 195.326316 306.843803 
L 195.953365 306.42125 
L 196.222389 306.248346 
L 196.457026 306.052393 
L 197.692919 305.142451 
L 197.919466 304.991559 
L 198.390764 304.682159 
L 198.544492 304.562937 
L 198.730583 304.425116 
L 198.914653 304.279478 
L 199.278745 304.023068 
L 199.414269 303.898161 
L 199.97659 303.496384 
L 200.138409 303.358869 
L 200.318433 303.230477 
L 200.591502 303.071642 
L 201.52803 302.40949 
L 201.679735 302.291968 
L 202.047873 302.045181 
L 206.876148 298.679513 
L 207.031899 298.546255 
L 207.248332 298.404132 
L 207.391946 298.281296 
L 207.624561 298.141095 
L 208.995977 297.113846 
L 209.226569 296.976219 
L 209.44907 296.788627 
L 209.841482 296.532746 
L 210.076119 296.371086 
L 211.700377 295.260343 
L 211.870287 295.144974 
L 212.63286 294.550916 
L 212.89177 294.333808 
L 213.085953 294.212733 
L 213.42375 293.964179 
L 213.628046 293.80557 
L 213.76357 293.694955 
L 214.176208 293.391869 
L 214.416914 293.201664 
L 218.415867 290.38882 
L 218.553413 290.294103 
L 219.069211 289.919258 
L 219.233053 289.786365 
L 219.48994 289.598465 
L 219.686146 289.463788 
L 219.819646 289.345056 
L 220.013829 289.207257 
L 220.228239 289.092028 
L 220.537718 288.891529 
L 220.673242 288.794496 
L 221.731134 288.031557 
L 221.923294 287.873261 
L 222.396614 287.533783 
L 222.540229 287.435437 
L 222.780934 287.281985 
L 223.001413 287.129354 
L 223.207732 286.998126 
L 223.424165 286.810733 
L 223.640598 286.674553 
L 224.128078 286.337816 
L 224.261578 286.245595 
L 224.937173 285.781109 
L 225.202151 285.575523 
L 225.546017 285.324193 
L 225.778632 285.145911 
L 226.003156 284.984135 
L 226.19127 284.841019 
L 226.401635 284.646603 
L 226.775841 284.414505 
L 227.876211 283.614751 
L 228.062302 283.482145 
L 228.232212 283.357397 
L 228.408191 283.231729 
L 228.729806 283.026207 
L 229.447878 282.433338 
L 229.615765 282.299185 
L 229.911085 282.103514 
L 230.888067 281.452057 
L 231.094386 281.320255 
L 231.355319 281.137093 
L 232.214983 280.537746 
L 232.380847 280.431189 
L 232.595258 280.277268 
L 232.831918 280.094172 
L 234.164902 279.077223 
L 234.37729 278.937478 
L 234.773746 278.658194 
L 235.127725 278.415915 
L 235.746683 277.962607 
L 235.967161 277.830243 
L 236.12898 277.721403 
L 236.347436 277.57676 
L 236.511278 277.451866 
L 237.512533 276.711013 
L 237.70267 276.582589 
L 237.967649 276.361052 
L 238.27106 276.167777 
L 238.523902 275.99163 
L 239.144882 275.547013 
L 239.369406 275.396964 
L 239.519089 275.296818 
L 239.836658 275.077534 
L 240.752959 274.406717 
L 240.979505 274.249954 
L 241.473053 273.903697 
L 241.67735 273.792243 
L 241.822987 273.69837 
L 242.069761 273.538328 
L 242.29833 273.363039 
L 243.182267 272.704823 
L 243.59086 272.421473 
L 243.807293 272.259552 
L 243.967089 272.130517 
L 244.132953 271.977102 
L 245.142299 271.269013 
L 245.332437 271.113772 
L 245.554938 270.945337 
L 245.884644 270.691883 
L 246.477306 270.267179 
L 246.671489 270.154486 
L 248.148088 269.100377 
L 248.299793 268.991049 
L 248.475771 268.846109 
L 248.643658 268.735364 
L 248.82975 268.578644 
L 248.985501 268.465592 
L 249.161479 268.354447 
L 249.367798 268.205218 
L 249.889665 267.851947 
L 250.053506 267.720931 
L 250.30028 267.559595 
L 252.104562 266.321549 
L 252.780157 265.845194 
L 253.103795 265.612664 
L 253.283819 265.479203 
L 256.684041 263.016744 
L 256.817541 262.9128 
L 257.029929 262.773656 
L 257.218043 262.656496 
L 257.46684 262.48197 
L 257.697432 262.305402 
L 257.99882 262.133976 
L 258.154571 261.999875 
L 258.4418 261.795626 
L 258.585414 261.704558 
L 259.076939 261.371724 
L 259.273145 261.250039 
L 259.485532 261.107168 
L 261.437474 259.715941 
L 261.609407 259.60491 
L 261.821794 259.467432 
L 262.738094 258.864579 
L 262.942391 258.716215 
L 272.685918 252.05124 
L 272.843692 251.938965 
L 273.321058 251.606721 
L 273.826742 251.239552 
L 277.03885 249.109058 
L 277.340238 248.931812 
L 280.412776 246.885537 
L 280.835528 246.611345 
L 281.424145 246.232252 
L 281.810488 245.963533 
L 281.95208 245.851461 
L 282.955357 245.197461 
L 283.133358 245.077714 
L 283.507565 244.837251 
L 283.709839 244.695514 
L 283.881771 244.559478 
L 284.025386 244.44404 
L 284.705026 244.019449 
L 284.901231 243.881256 
L 285.230937 243.636327 
L 285.48378 243.445824 
L 285.773031 243.261391 
L 286.203874 242.951616 
L 286.375807 242.81458 
L 286.54774 242.690825 
L 287.21322 242.243054 
L 287.50854 242.040122 
L 287.872633 241.79272 
L 288.072884 241.644336 
L 288.665546 241.225881 
L 288.894115 241.051201 
L 289.118639 240.898833 
L 289.347209 240.724656 
L 289.767938 240.462794 
L 289.935825 240.340902 
L 290.12394 240.213315 
L 290.589169 239.87538 
L 290.779307 239.754128 
L 290.947194 239.636178 
L 292.359065 238.580564 
L 292.522907 238.475665 
L 293.289524 237.981755 
L 293.566639 237.77805 
L 294.183574 237.348067 
L 294.383825 237.21406 
L 294.976487 236.791145 
L 295.205057 236.640582 
L 295.617695 236.388742 
L 295.838174 236.233242 
L 296.669519 235.631633 
L 296.855611 235.525858 
L 297.025521 235.400461 
L 298.649779 234.284327 
L 298.876326 234.13459 
L 299.143327 233.956093 
L 299.499329 233.701682 
L 299.84724 233.45653 
L 300.009059 233.340595 
L 300.587562 232.96398 
L 300.755449 232.799545 
L 301.39868 232.366728 
L 301.600953 232.232682 
L 301.754681 232.121038 
L 302.10057 231.882878 
L 303.239371 231.065876 
L 303.629759 230.786436 
L 303.759214 230.700733 
L 303.925079 230.58923 
L 304.076784 230.492636 
L 304.307376 230.355923 
L 304.473241 230.253705 
L 304.703833 230.100143 
L 305.073994 229.803708 
L 305.239858 229.692798 
L 306.348319 228.9572 
L 306.578911 228.796212 
L 306.85198 228.621455 
L 307.12505 228.434604 
L 308.502534 227.470681 
L 308.791786 227.258128 
L 308.981923 227.117346 
L 309.176106 226.983814 
L 309.896201 226.46154 
L 310.401885 226.150276 
L 310.608204 226.017916 
L 310.956115 225.803678 
L 311.213003 225.625975 
L 311.724755 225.270615 
L 311.902756 225.150276 
L 312.543964 224.772366 
L 312.970762 224.458771 
L 313.118422 224.347035 
L 313.2944 224.235455 
L 313.533083 224.107727 
L 313.719175 223.959194 
L 313.868857 223.845274 
L 314.04079 223.687877 
L 314.234973 223.541309 
L 314.48377 223.37255 
L 314.768976 223.206654 
L 314.938886 223.054698 
L 327.621451 214.42931 
L 327.789338 214.30631 
L 328.424478 213.89966 
L 328.628774 213.785319 
L 328.843184 213.637846 
L 329.08389 213.485196 
L 329.255823 213.369103 
L 329.44596 213.23493 
L 329.943554 212.919807 
L 330.105373 212.820488 
L 330.459352 212.613514 
L 330.815354 212.360762 
L 331.072241 212.182863 
L 331.452516 211.869881 
L 331.786268 211.66081 
L 332.006746 211.508309 
L 332.176656 211.397162 
L 332.639863 211.07917 
L 336.711634 208.281153 
L 337.126295 208.011865 
L 337.407456 207.812628 
L 337.563206 207.704562 
L 337.704798 207.621425 
L 337.977868 207.442365 
L 338.228687 207.260071 
L 338.691894 206.918834 
L 339.090373 206.653267 
L 339.535376 206.361276 
L 339.943969 206.034348 
L 340.117924 205.920048 
L 340.332334 205.740757 
L 340.734859 205.443709 
L 340.892633 205.326895 
L 341.191998 205.133129 
L 341.541931 204.904473 
L 341.750273 204.766089 
L 341.966706 204.604765 
L 342.122457 204.496331 
L 356.131938 195.187428 
L 356.265439 195.116941 
L 356.572895 194.900289 
L 357.311194 194.36337 
L 357.762265 194.030845 
L 357.954425 193.910065 
L 358.185017 193.74216 
L 358.727111 193.39364 
L 358.91118 193.277011 
L 359.079067 193.132213 
L 359.255045 193.02697 
L 361.484102 191.537854 
L 361.649967 191.431655 
L 361.819877 191.307289 
L 361.961468 191.222664 
L 362.135424 191.109469 
L 362.329607 190.973112 
L 362.515698 190.831408 
L 362.887882 190.598603 
L 363.06386 190.460989 
L 363.324793 190.271826 
L 363.52909 190.141174 
L 363.660568 190.043586 
L 363.864864 189.910792 
L 364.144002 189.728334 
L 364.33414 189.603995 
L 364.469663 189.527695 
L 364.76296 189.336736 
L 364.904552 189.236696 
L 365.319213 188.976699 
L 365.56801 188.828921 
L 366.320468 188.330548 
L 366.561174 188.168082 
L 366.731084 188.047778 
L 366.983926 187.840542 
L 367.265086 187.646537 
L 367.491633 187.523793 
L 367.924499 187.228027 
L 368.286569 187.010488 
L 368.490866 186.853751 
L 368.691117 186.727012 
L 369.172528 186.406165 
L 369.587189 186.137295 
L 370.226374 185.725223 
L 370.372012 185.622441 
L 370.509558 185.517151 
L 370.683513 185.396512 
L 372.86807 183.868183 
L 373.040003 183.756926 
L 373.480959 183.454712 
L 373.76212 183.295893 
L 377.884459 180.536097 
L 378.096847 180.416219 
L 378.523644 180.141167 
L 378.944374 179.838858 
L 379.282171 179.603407 
L 379.539059 179.451802 
L 379.868765 179.215784 
L 380.55245 178.722337 
L 380.940816 178.433498 
L 381.082408 178.335969 
L 381.535501 178.054996 
L 381.747888 177.899739 
L 381.950162 177.788301 
L 382.856348 177.137265 
L 383.080872 176.995859 
L 383.311464 176.830556 
L 384.458357 176.016577 
L 384.658608 175.878822 
L 385.382748 175.373567 
L 385.603226 175.23933 
L 385.823705 175.101775 
L 386.602459 174.582102 
L 386.778437 174.455554 
L 386.954415 174.322765 
L 388.066921 173.517195 
L 388.25099 173.399031 
L 395.949529 168.106839 
L 396.097189 167.98765 
L 396.321713 167.831935 
L 396.643328 167.607973 
L 396.892125 167.459518 
L 397.177331 167.261551 
L 397.484787 167.051885 
L 397.943949 166.772276 
L 407.738045 159.896701 
L 407.936273 159.765408 
L 408.282161 159.545164 
L 414.661876 154.974873 
L 414.914718 154.806342 
L 415.220151 154.60061 
L 415.424448 154.443404 
L 415.952382 154.131339 
L 416.144542 153.994484 
L 416.29827 153.873279 
L 416.931387 153.473529 
L 417.194343 153.324931 
L 417.350094 153.226838 
L 417.499777 153.109049 
L 427.326236 146.425886 
L 427.492101 146.312486 
L 427.825852 146.080153 
L 429.120405 145.152979 
L 429.306496 145.020374 
L 429.595748 144.844444 
L 429.729249 144.746529 
L 430.08525 144.526253 
L 430.214706 144.459019 
L 430.851868 144.000006 
L 431.177529 143.804771 
L 431.456667 143.609322 
L 431.618486 143.483911 
L 431.881441 143.33952 
L 432.018988 143.24541 
L 436.731966 139.854386 
L 436.881649 139.741276 
L 437.108196 139.588993 
L 437.338788 139.414972 
L 439.456594 137.945396 
L 439.61639 137.848489 
L 440.708669 137.01562 
L 440.868465 136.870326 
L 441.448991 136.447824 
L 441.608787 136.314073 
L 442.094244 135.960078 
L 442.239881 135.855399 
L 442.405746 135.723193 
L 442.943794 135.286414 
L 443.152136 135.147827 
L 443.396887 134.969931 
L 443.831776 134.687313 
L 444.493211 134.225309 
L 444.709644 134.068359 
L 445.138464 133.738116 
L 445.71899 133.283419 
L 446.977133 132.298105 
L 447.149065 132.174052 
L 447.766 131.708951 
L 447.929842 131.564695 
L 448.403163 131.193445 
L 448.662073 130.964897 
L 448.813779 130.814597 
L 449.08078 130.583121 
L 449.264849 130.429594 
L 449.438804 130.299838 
L 449.606692 130.164137 
L 449.978875 129.86415 
L 450.150808 129.728014 
L 451.234996 128.85983 
L 451.510088 128.660961 
L 452.739912 127.658126 
L 452.879481 127.529686 
L 453.99401 126.670892 
L 454.176056 126.542081 
L 455.593995 125.401097 
L 456.030907 125.060899 
L 456.243294 124.895084 
L 456.415227 124.77384 
L 456.827865 124.4542 
L 457.056435 124.273845 
L 457.291072 124.095401 
L 457.460982 123.941128 
L 457.940371 123.569179 
L 458.061735 123.457721 
L 458.217486 123.339837 
L 458.583602 123.063648 
L 458.731261 122.962817 
L 458.872853 122.842628 
L 459.050854 122.701144 
L 459.2329 122.577248 
L 466.172913 117.124177 
L 466.830303 116.621558 
L 467.230805 116.289066 
L 467.388579 116.177668 
L 467.645466 116.004318 
L 467.967082 115.714166 
L 468.246219 115.516363 
L 468.547607 115.285451 
L 468.707404 115.172701 
L 472.744788 112.171393 
L 472.936948 112.022454 
L 473.125063 111.879003 
L 473.689406 111.461646 
L 473.992817 111.242253 
L 474.184977 111.093103 
L 474.409501 110.928788 
L 474.929345 110.572921 
L 475.279278 110.33346 
L 475.424915 110.218339 
L 475.740462 109.9743 
L 475.920486 109.826878 
L 476.288624 109.591097 
L 476.466625 109.461472 
L 476.600126 109.349107 
L 476.842854 109.155804 
L 477.045128 109.033573 
L 477.188743 108.94466 
L 477.562949 108.637212 
L 478.163702 108.190231 
L 478.359908 108.007658 
L 478.525772 107.902832 
L 478.6795 107.770142 
L 479.080002 107.501312 
L 479.674687 107.026054 
L 479.820324 106.922472 
L 479.982143 106.811577 
L 481.046103 106.046301 
L 481.321196 105.833047 
L 481.495151 105.702201 
L 482.164677 105.218462 
L 482.431679 105.035891 
L 482.591475 104.927396 
L 482.729021 104.791424 
L 483.271115 104.404279 
L 483.598798 104.178369 
L 483.80714 104.024289 
L 484.288552 103.685835 
L 484.496894 103.523667 
L 485.43949 102.860958 
L 485.57299 102.747328 
L 485.777287 102.602912 
L 486.070584 102.39282 
L 486.210153 102.305939 
L 486.513563 102.10416 
L 486.924179 101.835107 
L 487.100157 101.716096 
L 487.537069 101.387394 
L 487.719115 101.270972 
L 488.000275 101.061032 
L 488.170185 100.944261 
L 488.38055 100.802522 
L 488.93478 100.385553 
L 489.195713 100.212108 
L 489.410124 100.066157 
L 489.553738 99.956558 
L 489.907717 99.70461 
L 490.176741 99.523674 
L 490.603539 99.195575 
L 490.783563 99.068718 
L 490.959541 98.917481 
L 491.362066 98.633583 
L 491.556248 98.519274 
L 502.16753 90.707661 
L 502.901784 90.164398 
L 503.100012 90.025969 
L 503.42365 89.778176 
L 503.892925 89.45337 
L 504.050699 89.337681 
L 504.517951 88.945992 
L 504.677748 88.797131 
L 506.9776 87.097286 
L 507.157624 86.954675 
L 508.794019 85.607429 
L 508.969997 85.440611 
L 509.269362 85.169815 
L 509.437249 85.022452 
L 512.139627 82.123579 
L 512.313582 81.86305 
L 512.424833 81.749992 
L 512.82938 81.286058 
L 512.926472 81.170134 
L 517.661701 75.537276 
L 517.748678 75.424945 
L 517.910497 75.2129 
L 518.068271 74.98916 
L 518.250317 74.76968 
L 518.395955 74.643508 
L 518.395955 74.643508 
" style="fill:none;stroke:#0000ff;stroke-linecap:square;"/>
   </g>
   <g id="patch_3">
    <path d="M 72 43.2 
L 518.4 43.2 
" style="fill:none;stroke:#000000;stroke-linecap:square;stroke-linejoin:miter;"/>
   </g>
   <g id="patch_4">
    <path d="M 518.4 388.8 
L 518.4 43.2 
" style="fill:none;stroke:#000000;stroke-linecap:square;stroke-linejoin:miter;"/>
   </g>
   <g id="patch_5">
    <path d="M 72 388.8 
L 518.4 388.8 
" style="fill:none;stroke:#000000;stroke-linecap:square;stroke-linejoin:miter;"/>
   </g>
   <g id="patch_6">
    <path d="M 72 388.8 
L 72 43.2 
" style="fill:none;stroke:#000000;stroke-linecap:square;stroke-linejoin:miter;"/>
   </g>
   <g id="matplotlib.axis_1">
    <g id="xtick_1">
     <g id="line2d_2">
      <defs>
       <path d="M 0 0 
L 0 -4 
" id="mcff74de3af" style="stroke:#000000;stroke-width:0.5;"/>
      </defs>
      <g>
       <use style="stroke:#000000;stroke-width:0.5;" x="72.0020227377" xlink:href="#mcff74de3af" y="388.8"/>
      </g>
     </g>
     <g id="line2d_3">
      <defs>
       <path d="M 0 0 
L 0 4 
" id="m16a332b325" style="stroke:#000000;stroke-width:0.5;"/>
      </defs>
      <g>
       <use style="stroke:#000000;stroke-width:0.5;" x="72.0020227377" xlink:href="#m16a332b325" y="43.2"/>
      </g>
     </g>
     <g id="text_1">
      <!-- 0 -->
      <defs>
       <path d="M 31.78125 66.40625 
Q 24.171875 66.40625 20.328125 58.90625 
Q 16.5 51.421875 16.5 36.375 
Q 16.5 21.390625 20.328125 13.890625 
Q 24.171875 6.390625 31.78125 6.390625 
Q 39.453125 6.390625 43.28125 13.890625 
Q 47.125 21.390625 47.125 36.375 
Q 47.125 51.421875 43.28125 58.90625 
Q 39.453125 66.40625 31.78125 66.40625 
M 31.78125 74.21875 
Q 44.046875 74.21875 50.515625 64.515625 
Q 56.984375 54.828125 56.984375 36.375 
Q 56.984375 17.96875 50.515625 8.265625 
Q 44.046875 -1.421875 31.78125 -1.421875 
Q 19.53125 -1.421875 13.0625 8.265625 
Q 6.59375 17.96875 6.59375 36.375 
Q 6.59375 54.828125 13.0625 64.515625 
Q 19.53125 74.21875 31.78125 74.21875 
" id="BitstreamVeraSans-Roman-30"/>
      </defs>
      <g transform="translate(68.1845227377 401.918125)scale(0.12 -0.12)">
       <use xlink:href="#BitstreamVeraSans-Roman-30"/>
      </g>
     </g>
    </g>
    <g id="xtick_2">
     <g id="line2d_4">
      <g>
       <use style="stroke:#000000;stroke-width:0.5;" x="173.138906435" xlink:href="#mcff74de3af" y="388.8"/>
      </g>
     </g>
     <g id="line2d_5">
      <g>
       <use style="stroke:#000000;stroke-width:0.5;" x="173.138906435" xlink:href="#m16a332b325" y="43.2"/>
      </g>
     </g>
     <g id="text_2">
      <!-- 50000 -->
      <defs>
       <path d="M 10.796875 72.90625 
L 49.515625 72.90625 
L 49.515625 64.59375 
L 19.828125 64.59375 
L 19.828125 46.734375 
Q 21.96875 47.46875 24.109375 47.828125 
Q 26.265625 48.1875 28.421875 48.1875 
Q 40.625 48.1875 47.75 41.5 
Q 54.890625 34.8125 54.890625 23.390625 
Q 54.890625 11.625 47.5625 5.09375 
Q 40.234375 -1.421875 26.90625 -1.421875 
Q 22.3125 -1.421875 17.546875 -0.640625 
Q 12.796875 0.140625 7.71875 1.703125 
L 7.71875 11.625 
Q 12.109375 9.234375 16.796875 8.0625 
Q 21.484375 6.890625 26.703125 6.890625 
Q 35.15625 6.890625 40.078125 11.328125 
Q 45.015625 15.765625 45.015625 23.390625 
Q 45.015625 31 40.078125 35.4375 
Q 35.15625 39.890625 26.703125 39.890625 
Q 22.75 39.890625 18.8125 39.015625 
Q 14.890625 38.140625 10.796875 36.28125 
z
" id="BitstreamVeraSans-Roman-35"/>
      </defs>
      <g transform="translate(154.051406435 401.918125)scale(0.12 -0.12)">
       <use xlink:href="#BitstreamVeraSans-Roman-35"/>
       <use x="63.623046875" xlink:href="#BitstreamVeraSans-Roman-30"/>
       <use x="127.24609375" xlink:href="#BitstreamVeraSans-Roman-30"/>
       <use x="190.869140625" xlink:href="#BitstreamVeraSans-Roman-30"/>
       <use x="254.4921875" xlink:href="#BitstreamVeraSans-Roman-30"/>
      </g>
     </g>
    </g>
    <g id="xtick_3">
     <g id="line2d_6">
      <g>
       <use style="stroke:#000000;stroke-width:0.5;" x="274.275790132" xlink:href="#mcff74de3af" y="388.8"/>
      </g>
     </g>
     <g id="line2d_7">
      <g>
       <use style="stroke:#000000;stroke-width:0.5;" x="274.275790132" xlink:href="#m16a332b325" y="43.2"/>
      </g>
     </g>
     <g id="text_3">
      <!-- 100000 -->
      <defs>
       <path d="M 12.40625 8.296875 
L 28.515625 8.296875 
L 28.515625 63.921875 
L 10.984375 60.40625 
L 10.984375 69.390625 
L 28.421875 72.90625 
L 38.28125 72.90625 
L 38.28125 8.296875 
L 54.390625 8.296875 
L 54.390625 0 
L 12.40625 0 
z
" id="BitstreamVeraSans-Roman-31"/>
      </defs>
      <g transform="translate(251.370790132 401.918125)scale(0.12 -0.12)">
       <use xlink:href="#BitstreamVeraSans-Roman-31"/>
       <use x="63.623046875" xlink:href="#BitstreamVeraSans-Roman-30"/>
       <use x="127.24609375" xlink:href="#BitstreamVeraSans-Roman-30"/>
       <use x="190.869140625" xlink:href="#BitstreamVeraSans-Roman-30"/>
       <use x="254.4921875" xlink:href="#BitstreamVeraSans-Roman-30"/>
       <use x="318.115234375" xlink:href="#BitstreamVeraSans-Roman-30"/>
      </g>
     </g>
    </g>
    <g id="xtick_4">
     <g id="line2d_8">
      <g>
       <use style="stroke:#000000;stroke-width:0.5;" x="375.412673829" xlink:href="#mcff74de3af" y="388.8"/>
      </g>
     </g>
     <g id="line2d_9">
      <g>
       <use style="stroke:#000000;stroke-width:0.5;" x="375.412673829" xlink:href="#m16a332b325" y="43.2"/>
      </g>
     </g>
     <g id="text_4">
      <!-- 150000 -->
      <g transform="translate(352.507673829 401.918125)scale(0.12 -0.12)">
       <use xlink:href="#BitstreamVeraSans-Roman-31"/>
       <use x="63.623046875" xlink:href="#BitstreamVeraSans-Roman-35"/>
       <use x="127.24609375" xlink:href="#BitstreamVeraSans-Roman-30"/>
       <use x="190.869140625" xlink:href="#BitstreamVeraSans-Roman-30"/>
       <use x="254.4921875" xlink:href="#BitstreamVeraSans-Roman-30"/>
       <use x="318.115234375" xlink:href="#BitstreamVeraSans-Roman-30"/>
      </g>
     </g>
    </g>
    <g id="xtick_5">
     <g id="line2d_10">
      <g>
       <use style="stroke:#000000;stroke-width:0.5;" x="476.549557526" xlink:href="#mcff74de3af" y="388.8"/>
      </g>
     </g>
     <g id="line2d_11">
      <g>
       <use style="stroke:#000000;stroke-width:0.5;" x="476.549557526" xlink:href="#m16a332b325" y="43.2"/>
      </g>
     </g>
     <g id="text_5">
      <!-- 200000 -->
      <defs>
       <path d="M 19.1875 8.296875 
L 53.609375 8.296875 
L 53.609375 0 
L 7.328125 0 
L 7.328125 8.296875 
Q 12.9375 14.109375 22.625 23.890625 
Q 32.328125 33.6875 34.8125 36.53125 
Q 39.546875 41.84375 41.421875 45.53125 
Q 43.3125 49.21875 43.3125 52.78125 
Q 43.3125 58.59375 39.234375 62.25 
Q 35.15625 65.921875 28.609375 65.921875 
Q 23.96875 65.921875 18.8125 64.3125 
Q 13.671875 62.703125 7.8125 59.421875 
L 7.8125 69.390625 
Q 13.765625 71.78125 18.9375 73 
Q 24.125 74.21875 28.421875 74.21875 
Q 39.75 74.21875 46.484375 68.546875 
Q 53.21875 62.890625 53.21875 53.421875 
Q 53.21875 48.921875 51.53125 44.890625 
Q 49.859375 40.875 45.40625 35.40625 
Q 44.1875 33.984375 37.640625 27.21875 
Q 31.109375 20.453125 19.1875 8.296875 
" id="BitstreamVeraSans-Roman-32"/>
      </defs>
      <g transform="translate(453.644557526 401.918125)scale(0.12 -0.12)">
       <use xlink:href="#BitstreamVeraSans-Roman-32"/>
       <use x="63.623046875" xlink:href="#BitstreamVeraSans-Roman-30"/>
       <use x="127.24609375" xlink:href="#BitstreamVeraSans-Roman-30"/>
       <use x="190.869140625" xlink:href="#BitstreamVeraSans-Roman-30"/>
       <use x="254.4921875" xlink:href="#BitstreamVeraSans-Roman-30"/>
       <use x="318.115234375" xlink:href="#BitstreamVeraSans-Roman-30"/>
      </g>
     </g>
    </g>
    <g id="text_6">
     <!-- Channel vs Channel -->
     <defs>
      <path id="BitstreamVeraSans-Roman-20"/>
      <path d="M 54.890625 33.015625 
L 54.890625 0 
L 45.90625 0 
L 45.90625 32.71875 
Q 45.90625 40.484375 42.875 44.328125 
Q 39.84375 48.1875 33.796875 48.1875 
Q 26.515625 48.1875 22.3125 43.546875 
Q 18.109375 38.921875 18.109375 30.90625 
L 18.109375 0 
L 9.078125 0 
L 9.078125 54.6875 
L 18.109375 54.6875 
L 18.109375 46.1875 
Q 21.34375 51.125 25.703125 53.5625 
Q 30.078125 56 35.796875 56 
Q 45.21875 56 50.046875 50.171875 
Q 54.890625 44.34375 54.890625 33.015625 
" id="BitstreamVeraSans-Roman-6e"/>
      <path d="M 9.421875 75.984375 
L 18.40625 75.984375 
L 18.40625 0 
L 9.421875 0 
z
" id="BitstreamVeraSans-Roman-6c"/>
      <path d="M 2.984375 54.6875 
L 12.5 54.6875 
L 29.59375 8.796875 
L 46.6875 54.6875 
L 56.203125 54.6875 
L 35.6875 0 
L 23.484375 0 
z
" id="BitstreamVeraSans-Roman-76"/>
      <path d="M 64.40625 67.28125 
L 64.40625 56.890625 
Q 59.421875 61.53125 53.78125 63.8125 
Q 48.140625 66.109375 41.796875 66.109375 
Q 29.296875 66.109375 22.65625 58.46875 
Q 16.015625 50.828125 16.015625 36.375 
Q 16.015625 21.96875 22.65625 14.328125 
Q 29.296875 6.6875 41.796875 6.6875 
Q 48.140625 6.6875 53.78125 8.984375 
Q 59.421875 11.28125 64.40625 15.921875 
L 64.40625 5.609375 
Q 59.234375 2.09375 53.4375 0.328125 
Q 47.65625 -1.421875 41.21875 -1.421875 
Q 24.65625 -1.421875 15.125 8.703125 
Q 5.609375 18.84375 5.609375 36.375 
Q 5.609375 53.953125 15.125 64.078125 
Q 24.65625 74.21875 41.21875 74.21875 
Q 47.75 74.21875 53.53125 72.484375 
Q 59.328125 70.75 64.40625 67.28125 
" id="BitstreamVeraSans-Roman-43"/>
      <path d="M 54.890625 33.015625 
L 54.890625 0 
L 45.90625 0 
L 45.90625 32.71875 
Q 45.90625 40.484375 42.875 44.328125 
Q 39.84375 48.1875 33.796875 48.1875 
Q 26.515625 48.1875 22.3125 43.546875 
Q 18.109375 38.921875 18.109375 30.90625 
L 18.109375 0 
L 9.078125 0 
L 9.078125 75.984375 
L 18.109375 75.984375 
L 18.109375 46.1875 
Q 21.34375 51.125 25.703125 53.5625 
Q 30.078125 56 35.796875 56 
Q 45.21875 56 50.046875 50.171875 
Q 54.890625 44.34375 54.890625 33.015625 
" id="BitstreamVeraSans-Roman-68"/>
      <path d="M 56.203125 29.59375 
L 56.203125 25.203125 
L 14.890625 25.203125 
Q 15.484375 15.921875 20.484375 11.0625 
Q 25.484375 6.203125 34.421875 6.203125 
Q 39.59375 6.203125 44.453125 7.46875 
Q 49.3125 8.734375 54.109375 11.28125 
L 54.109375 2.78125 
Q 49.265625 0.734375 44.1875 -0.34375 
Q 39.109375 -1.421875 33.890625 -1.421875 
Q 20.796875 -1.421875 13.15625 6.1875 
Q 5.515625 13.8125 5.515625 26.8125 
Q 5.515625 40.234375 12.765625 48.109375 
Q 20.015625 56 32.328125 56 
Q 43.359375 56 49.78125 48.890625 
Q 56.203125 41.796875 56.203125 29.59375 
M 47.21875 32.234375 
Q 47.125 39.59375 43.09375 43.984375 
Q 39.0625 48.390625 32.421875 48.390625 
Q 24.90625 48.390625 20.390625 44.140625 
Q 15.875 39.890625 15.1875 32.171875 
z
" id="BitstreamVeraSans-Roman-65"/>
      <path d="M 34.28125 27.484375 
Q 23.390625 27.484375 19.1875 25 
Q 14.984375 22.515625 14.984375 16.5 
Q 14.984375 11.71875 18.140625 8.90625 
Q 21.296875 6.109375 26.703125 6.109375 
Q 34.1875 6.109375 38.703125 11.40625 
Q 43.21875 16.703125 43.21875 25.484375 
L 43.21875 27.484375 
z
M 52.203125 31.203125 
L 52.203125 0 
L 43.21875 0 
L 43.21875 8.296875 
Q 40.140625 3.328125 35.546875 0.953125 
Q 30.953125 -1.421875 24.3125 -1.421875 
Q 15.921875 -1.421875 10.953125 3.296875 
Q 6 8.015625 6 15.921875 
Q 6 25.140625 12.171875 29.828125 
Q 18.359375 34.515625 30.609375 34.515625 
L 43.21875 34.515625 
L 43.21875 35.40625 
Q 43.21875 41.609375 39.140625 45 
Q 35.0625 48.390625 27.6875 48.390625 
Q 23 48.390625 18.546875 47.265625 
Q 14.109375 46.140625 10.015625 43.890625 
L 10.015625 52.203125 
Q 14.9375 54.109375 19.578125 55.046875 
Q 24.21875 56 28.609375 56 
Q 40.484375 56 46.34375 49.84375 
Q 52.203125 43.703125 52.203125 31.203125 
" id="BitstreamVeraSans-Roman-61"/>
      <path d="M 44.28125 53.078125 
L 44.28125 44.578125 
Q 40.484375 46.53125 36.375 47.5 
Q 32.28125 48.484375 27.875 48.484375 
Q 21.1875 48.484375 17.84375 46.4375 
Q 14.5 44.390625 14.5 40.28125 
Q 14.5 37.15625 16.890625 35.375 
Q 19.28125 33.59375 26.515625 31.984375 
L 29.59375 31.296875 
Q 39.15625 29.25 43.1875 25.515625 
Q 47.21875 21.78125 47.21875 15.09375 
Q 47.21875 7.46875 41.1875 3.015625 
Q 35.15625 -1.421875 24.609375 -1.421875 
Q 20.21875 -1.421875 15.453125 -0.5625 
Q 10.6875 0.296875 5.421875 2 
L 5.421875 11.28125 
Q 10.40625 8.6875 15.234375 7.390625 
Q 20.0625 6.109375 24.8125 6.109375 
Q 31.15625 6.109375 34.5625 8.28125 
Q 37.984375 10.453125 37.984375 14.40625 
Q 37.984375 18.0625 35.515625 20.015625 
Q 33.0625 21.96875 24.703125 23.78125 
L 21.578125 24.515625 
Q 13.234375 26.265625 9.515625 29.90625 
Q 5.8125 33.546875 5.8125 39.890625 
Q 5.8125 47.609375 11.28125 51.796875 
Q 16.75 56 26.8125 56 
Q 31.78125 56 36.171875 55.265625 
Q 40.578125 54.546875 44.28125 53.078125 
" id="BitstreamVeraSans-Roman-73"/>
     </defs>
     <g transform="translate(235.44375 418.531875)scale(0.12 -0.12)">
      <use xlink:href="#BitstreamVeraSans-Roman-43"/>
      <use x="69.82421875" xlink:href="#BitstreamVeraSans-Roman-68"/>
      <use x="133.203125" xlink:href="#BitstreamVeraSans-Roman-61"/>
      <use x="194.482421875" xlink:href="#BitstreamVeraSans-Roman-6e"/>
      <use x="257.861328125" xlink:href="#BitstreamVeraSans-Roman-6e"/>
      <use x="321.240234375" xlink:href="#BitstreamVeraSans-Roman-65"/>
      <use x="382.763671875" xlink:href="#BitstreamVeraSans-Roman-6c"/>
      <use x="410.546875" xlink:href="#BitstreamVeraSans-Roman-20"/>
      <use x="442.333984375" xlink:href="#BitstreamVeraSans-Roman-76"/>
      <use x="501.513671875" xlink:href="#BitstreamVeraSans-Roman-73"/>
      <use x="553.61328125" xlink:href="#BitstreamVeraSans-Roman-20"/>
      <use x="585.400390625" xlink:href="#BitstreamVeraSans-Roman-43"/>
      <use x="655.224609375" xlink:href="#BitstreamVeraSans-Roman-68"/>
      <use x="718.603515625" xlink:href="#BitstreamVeraSans-Roman-61"/>
      <use x="779.8828125" xlink:href="#BitstreamVeraSans-Roman-6e"/>
      <use x="843.26171875" xlink:href="#BitstreamVeraSans-Roman-6e"/>
      <use x="906.640625" xlink:href="#BitstreamVeraSans-Roman-65"/>
      <use x="968.1640625" xlink:href="#BitstreamVeraSans-Roman-6c"/>
     </g>
    </g>
   </g>
   <g id="matplotlib.axis_2">
    <g id="ytick_1">
     <g id="line2d_12">
      <defs>
       <path d="M 0 0 
L 4 0 
" id="mdfa4fa7faf" style="stroke:#000000;stroke-width:0.5;"/>
      </defs>
      <g>
       <use style="stroke:#000000;stroke-width:0.5;" x="72.0" xlink:href="#mdfa4fa7faf" y="388.8"/>
      </g>
     </g>
     <g id="line2d_13">
      <defs>
       <path d="M 0 0 
L -4 0 
" id="ma72c613f27" style="stroke:#000000;stroke-width:0.5;"/>
      </defs>
      <g>
       <use style="stroke:#000000;stroke-width:0.5;" x="518.4" xlink:href="#ma72c613f27" y="388.8"/>
      </g>
     </g>
     <g id="text_7">
      <!-- 0.0 -->
      <defs>
       <path d="M 10.6875 12.40625 
L 21 12.40625 
L 21 0 
L 10.6875 0 
z
" id="BitstreamVeraSans-Roman-2e"/>
      </defs>
      <g transform="translate(48.91625 392.11125)scale(0.12 -0.12)">
       <use xlink:href="#BitstreamVeraSans-Roman-30"/>
       <use x="63.623046875" xlink:href="#BitstreamVeraSans-Roman-2e"/>
       <use x="95.41015625" xlink:href="#BitstreamVeraSans-Roman-30"/>
      </g>
     </g>
    </g>
    <g id="ytick_2">
     <g id="line2d_14">
      <g>
       <use style="stroke:#000000;stroke-width:0.5;" x="72.0" xlink:href="#mdfa4fa7faf" y="325.963636364"/>
      </g>
     </g>
     <g id="line2d_15">
      <g>
       <use style="stroke:#000000;stroke-width:0.5;" x="518.4" xlink:href="#ma72c613f27" y="325.963636364"/>
      </g>
     </g>
     <g id="text_8">
      <!-- 0.2 -->
      <g transform="translate(48.91625 329.274886364)scale(0.12 -0.12)">
       <use xlink:href="#BitstreamVeraSans-Roman-30"/>
       <use x="63.623046875" xlink:href="#BitstreamVeraSans-Roman-2e"/>
       <use x="95.41015625" xlink:href="#BitstreamVeraSans-Roman-32"/>
      </g>
     </g>
    </g>
    <g id="ytick_3">
     <g id="line2d_16">
      <g>
       <use style="stroke:#000000;stroke-width:0.5;" x="72.0" xlink:href="#mdfa4fa7faf" y="263.127272727"/>
      </g>
     </g>
     <g id="line2d_17">
      <g>
       <use style="stroke:#000000;stroke-width:0.5;" x="518.4" xlink:href="#ma72c613f27" y="263.127272727"/>
      </g>
     </g>
     <g id="text_9">
      <!-- 0.4 -->
      <defs>
       <path d="M 37.796875 64.3125 
L 12.890625 25.390625 
L 37.796875 25.390625 
z
M 35.203125 72.90625 
L 47.609375 72.90625 
L 47.609375 25.390625 
L 58.015625 25.390625 
L 58.015625 17.1875 
L 47.609375 17.1875 
L 47.609375 0 
L 37.796875 0 
L 37.796875 17.1875 
L 4.890625 17.1875 
L 4.890625 26.703125 
z
" id="BitstreamVeraSans-Roman-34"/>
      </defs>
      <g transform="translate(48.91625 266.438522727)scale(0.12 -0.12)">
       <use xlink:href="#BitstreamVeraSans-Roman-30"/>
       <use x="63.623046875" xlink:href="#BitstreamVeraSans-Roman-2e"/>
       <use x="95.41015625" xlink:href="#BitstreamVeraSans-Roman-34"/>
      </g>
     </g>
    </g>
    <g id="ytick_4">
     <g id="line2d_18">
      <g>
       <use style="stroke:#000000;stroke-width:0.5;" x="72.0" xlink:href="#mdfa4fa7faf" y="200.290909091"/>
      </g>
     </g>
     <g id="line2d_19">
      <g>
       <use style="stroke:#000000;stroke-width:0.5;" x="518.4" xlink:href="#ma72c613f27" y="200.290909091"/>
      </g>
     </g>
     <g id="text_10">
      <!-- 0.6 -->
      <defs>
       <path d="M 33.015625 40.375 
Q 26.375 40.375 22.484375 35.828125 
Q 18.609375 31.296875 18.609375 23.390625 
Q 18.609375 15.53125 22.484375 10.953125 
Q 26.375 6.390625 33.015625 6.390625 
Q 39.65625 6.390625 43.53125 10.953125 
Q 47.40625 15.53125 47.40625 23.390625 
Q 47.40625 31.296875 43.53125 35.828125 
Q 39.65625 40.375 33.015625 40.375 
M 52.59375 71.296875 
L 52.59375 62.3125 
Q 48.875 64.0625 45.09375 64.984375 
Q 41.3125 65.921875 37.59375 65.921875 
Q 27.828125 65.921875 22.671875 59.328125 
Q 17.53125 52.734375 16.796875 39.40625 
Q 19.671875 43.65625 24.015625 45.921875 
Q 28.375 48.1875 33.59375 48.1875 
Q 44.578125 48.1875 50.953125 41.515625 
Q 57.328125 34.859375 57.328125 23.390625 
Q 57.328125 12.15625 50.6875 5.359375 
Q 44.046875 -1.421875 33.015625 -1.421875 
Q 20.359375 -1.421875 13.671875 8.265625 
Q 6.984375 17.96875 6.984375 36.375 
Q 6.984375 53.65625 15.1875 63.9375 
Q 23.390625 74.21875 37.203125 74.21875 
Q 40.921875 74.21875 44.703125 73.484375 
Q 48.484375 72.75 52.59375 71.296875 
" id="BitstreamVeraSans-Roman-36"/>
      </defs>
      <g transform="translate(48.91625 203.602159091)scale(0.12 -0.12)">
       <use xlink:href="#BitstreamVeraSans-Roman-30"/>
       <use x="63.623046875" xlink:href="#BitstreamVeraSans-Roman-2e"/>
       <use x="95.41015625" xlink:href="#BitstreamVeraSans-Roman-36"/>
      </g>
     </g>
    </g>
    <g id="ytick_5">
     <g id="line2d_20">
      <g>
       <use style="stroke:#000000;stroke-width:0.5;" x="72.0" xlink:href="#mdfa4fa7faf" y="137.454545455"/>
      </g>
     </g>
     <g id="line2d_21">
      <g>
       <use style="stroke:#000000;stroke-width:0.5;" x="518.4" xlink:href="#ma72c613f27" y="137.454545455"/>
      </g>
     </g>
     <g id="text_11">
      <!-- 0.8 -->
      <defs>
       <path d="M 31.78125 34.625 
Q 24.75 34.625 20.71875 30.859375 
Q 16.703125 27.09375 16.703125 20.515625 
Q 16.703125 13.921875 20.71875 10.15625 
Q 24.75 6.390625 31.78125 6.390625 
Q 38.8125 6.390625 42.859375 10.171875 
Q 46.921875 13.96875 46.921875 20.515625 
Q 46.921875 27.09375 42.890625 30.859375 
Q 38.875 34.625 31.78125 34.625 
M 21.921875 38.8125 
Q 15.578125 40.375 12.03125 44.71875 
Q 8.5 49.078125 8.5 55.328125 
Q 8.5 64.0625 14.71875 69.140625 
Q 20.953125 74.21875 31.78125 74.21875 
Q 42.671875 74.21875 48.875 69.140625 
Q 55.078125 64.0625 55.078125 55.328125 
Q 55.078125 49.078125 51.53125 44.71875 
Q 48 40.375 41.703125 38.8125 
Q 48.828125 37.15625 52.796875 32.3125 
Q 56.78125 27.484375 56.78125 20.515625 
Q 56.78125 9.90625 50.3125 4.234375 
Q 43.84375 -1.421875 31.78125 -1.421875 
Q 19.734375 -1.421875 13.25 4.234375 
Q 6.78125 9.90625 6.78125 20.515625 
Q 6.78125 27.484375 10.78125 32.3125 
Q 14.796875 37.15625 21.921875 38.8125 
M 18.3125 54.390625 
Q 18.3125 48.734375 21.84375 45.5625 
Q 25.390625 42.390625 31.78125 42.390625 
Q 38.140625 42.390625 41.71875 45.5625 
Q 45.3125 48.734375 45.3125 54.390625 
Q 45.3125 60.0625 41.71875 63.234375 
Q 38.140625 66.40625 31.78125 66.40625 
Q 25.390625 66.40625 21.84375 63.234375 
Q 18.3125 60.0625 18.3125 54.390625 
" id="BitstreamVeraSans-Roman-38"/>
      </defs>
      <g transform="translate(48.91625 140.765795455)scale(0.12 -0.12)">
       <use xlink:href="#BitstreamVeraSans-Roman-30"/>
       <use x="63.623046875" xlink:href="#BitstreamVeraSans-Roman-2e"/>
       <use x="95.41015625" xlink:href="#BitstreamVeraSans-Roman-38"/>
      </g>
     </g>
    </g>
    <g id="ytick_6">
     <g id="line2d_22">
      <g>
       <use style="stroke:#000000;stroke-width:0.5;" x="72.0" xlink:href="#mdfa4fa7faf" y="74.6181818182"/>
      </g>
     </g>
     <g id="line2d_23">
      <g>
       <use style="stroke:#000000;stroke-width:0.5;" x="518.4" xlink:href="#ma72c613f27" y="74.6181818182"/>
      </g>
     </g>
     <g id="text_12">
      <!-- 1.0 -->
      <g transform="translate(48.91625 77.9294318182)scale(0.12 -0.12)">
       <use xlink:href="#BitstreamVeraSans-Roman-31"/>
       <use x="63.623046875" xlink:href="#BitstreamVeraSans-Roman-2e"/>
       <use x="95.41015625" xlink:href="#BitstreamVeraSans-Roman-30"/>
      </g>
     </g>
    </g>
    <g id="text_13">
     <!-- Correlation value -->
     <defs>
      <path d="M 8.5 21.578125 
L 8.5 54.6875 
L 17.484375 54.6875 
L 17.484375 21.921875 
Q 17.484375 14.15625 20.5 10.265625 
Q 23.53125 6.390625 29.59375 6.390625 
Q 36.859375 6.390625 41.078125 11.03125 
Q 45.3125 15.671875 45.3125 23.6875 
L 45.3125 54.6875 
L 54.296875 54.6875 
L 54.296875 0 
L 45.3125 0 
L 45.3125 8.40625 
Q 42.046875 3.421875 37.71875 1 
Q 33.40625 -1.421875 27.6875 -1.421875 
Q 18.265625 -1.421875 13.375 4.4375 
Q 8.5 10.296875 8.5 21.578125 
" id="BitstreamVeraSans-Roman-75"/>
      <path d="M 9.421875 54.6875 
L 18.40625 54.6875 
L 18.40625 0 
L 9.421875 0 
z
M 9.421875 75.984375 
L 18.40625 75.984375 
L 18.40625 64.59375 
L 9.421875 64.59375 
z
" id="BitstreamVeraSans-Roman-69"/>
      <path d="M 18.3125 70.21875 
L 18.3125 54.6875 
L 36.8125 54.6875 
L 36.8125 47.703125 
L 18.3125 47.703125 
L 18.3125 18.015625 
Q 18.3125 11.328125 20.140625 9.421875 
Q 21.96875 7.515625 27.59375 7.515625 
L 36.8125 7.515625 
L 36.8125 0 
L 27.59375 0 
Q 17.1875 0 13.234375 3.875 
Q 9.28125 7.765625 9.28125 18.015625 
L 9.28125 47.703125 
L 2.6875 47.703125 
L 2.6875 54.6875 
L 9.28125 54.6875 
L 9.28125 70.21875 
z
" id="BitstreamVeraSans-Roman-74"/>
      <path d="M 30.609375 48.390625 
Q 23.390625 48.390625 19.1875 42.75 
Q 14.984375 37.109375 14.984375 27.296875 
Q 14.984375 17.484375 19.15625 11.84375 
Q 23.34375 6.203125 30.609375 6.203125 
Q 37.796875 6.203125 41.984375 11.859375 
Q 46.1875 17.53125 46.1875 27.296875 
Q 46.1875 37.015625 41.984375 42.703125 
Q 37.796875 48.390625 30.609375 48.390625 
M 30.609375 56 
Q 42.328125 56 49.015625 48.375 
Q 55.71875 40.765625 55.71875 27.296875 
Q 55.71875 13.875 49.015625 6.21875 
Q 42.328125 -1.421875 30.609375 -1.421875 
Q 18.84375 -1.421875 12.171875 6.21875 
Q 5.515625 13.875 5.515625 27.296875 
Q 5.515625 40.765625 12.171875 48.375 
Q 18.84375 56 30.609375 56 
" id="BitstreamVeraSans-Roman-6f"/>
      <path d="M 41.109375 46.296875 
Q 39.59375 47.171875 37.8125 47.578125 
Q 36.03125 48 33.890625 48 
Q 26.265625 48 22.1875 43.046875 
Q 18.109375 38.09375 18.109375 28.8125 
L 18.109375 0 
L 9.078125 0 
L 9.078125 54.6875 
L 18.109375 54.6875 
L 18.109375 46.1875 
Q 20.953125 51.171875 25.484375 53.578125 
Q 30.03125 56 36.53125 56 
Q 37.453125 56 38.578125 55.875 
Q 39.703125 55.765625 41.0625 55.515625 
z
" id="BitstreamVeraSans-Roman-72"/>
     </defs>
     <g transform="translate(41.420625 267.6159375)rotate(-90.0)scale(0.12 -0.12)">
      <use xlink:href="#BitstreamVeraSans-Roman-43"/>
      <use x="69.82421875" xlink:href="#BitstreamVeraSans-Roman-6f"/>
      <use x="131.005859375" xlink:href="#BitstreamVeraSans-Roman-72"/>
      <use x="172.103515625" xlink:href="#BitstreamVeraSans-Roman-72"/>
      <use x="213.185546875" xlink:href="#BitstreamVeraSans-Roman-65"/>
      <use x="274.708984375" xlink:href="#BitstreamVeraSans-Roman-6c"/>
      <use x="302.4921875" xlink:href="#BitstreamVeraSans-Roman-61"/>
      <use x="363.771484375" xlink:href="#BitstreamVeraSans-Roman-74"/>
      <use x="402.98046875" xlink:href="#BitstreamVeraSans-Roman-69"/>
      <use x="430.763671875" xlink:href="#BitstreamVeraSans-Roman-6f"/>
      <use x="491.9453125" xlink:href="#BitstreamVeraSans-Roman-6e"/>
      <use x="555.32421875" xlink:href="#BitstreamVeraSans-Roman-20"/>
      <use x="587.111328125" xlink:href="#BitstreamVeraSans-Roman-76"/>
      <use x="646.291015625" xlink:href="#BitstreamVeraSans-Roman-61"/>
      <use x="707.5703125" xlink:href="#BitstreamVeraSans-Roman-6c"/>
      <use x="735.353515625" xlink:href="#BitstreamVeraSans-Roman-75"/>
      <use x="798.732421875" xlink:href="#BitstreamVeraSans-Roman-65"/>
     </g>
    </g>
   </g>
   <g id="text_14">
    <!-- Sorted Absolute Value Correlations between 2 Channels (30 second intervals) -->
    <defs>
     <path d="M 40.578125 39.3125 
Q 47.65625 37.796875 51.625 33 
Q 55.609375 28.21875 55.609375 21.1875 
Q 55.609375 10.40625 48.1875 4.484375 
Q 40.765625 -1.421875 27.09375 -1.421875 
Q 22.515625 -1.421875 17.65625 -0.515625 
Q 12.796875 0.390625 7.625 2.203125 
L 7.625 11.71875 
Q 11.71875 9.328125 16.59375 8.109375 
Q 21.484375 6.890625 26.8125 6.890625 
Q 36.078125 6.890625 40.9375 10.546875 
Q 45.796875 14.203125 45.796875 21.1875 
Q 45.796875 27.640625 41.28125 31.265625 
Q 36.765625 34.90625 28.71875 34.90625 
L 20.21875 34.90625 
L 20.21875 43.015625 
L 29.109375 43.015625 
Q 36.375 43.015625 40.234375 45.921875 
Q 44.09375 48.828125 44.09375 54.296875 
Q 44.09375 59.90625 40.109375 62.90625 
Q 36.140625 65.921875 28.71875 65.921875 
Q 24.65625 65.921875 20.015625 65.03125 
Q 15.375 64.15625 9.8125 62.3125 
L 9.8125 71.09375 
Q 15.4375 72.65625 20.34375 73.4375 
Q 25.25 74.21875 29.59375 74.21875 
Q 40.828125 74.21875 47.359375 69.109375 
Q 53.90625 64.015625 53.90625 55.328125 
Q 53.90625 49.265625 50.4375 45.09375 
Q 46.96875 40.921875 40.578125 39.3125 
" id="BitstreamVeraSans-Roman-33"/>
     <path d="M 34.1875 63.1875 
L 20.796875 26.90625 
L 47.609375 26.90625 
z
M 28.609375 72.90625 
L 39.796875 72.90625 
L 67.578125 0 
L 57.328125 0 
L 50.6875 18.703125 
L 17.828125 18.703125 
L 11.1875 0 
L 0.78125 0 
z
" id="BitstreamVeraSans-Roman-41"/>
     <path d="M 8.015625 75.875 
L 15.828125 75.875 
Q 23.140625 64.359375 26.78125 53.3125 
Q 30.421875 42.28125 30.421875 31.390625 
Q 30.421875 20.453125 26.78125 9.375 
Q 23.140625 -1.703125 15.828125 -13.1875 
L 8.015625 -13.1875 
Q 14.5 -2 17.703125 9.0625 
Q 20.90625 20.125 20.90625 31.390625 
Q 20.90625 42.671875 17.703125 53.65625 
Q 14.5 64.65625 8.015625 75.875 
" id="BitstreamVeraSans-Roman-29"/>
     <path d="M 31 75.875 
Q 24.46875 64.65625 21.28125 53.65625 
Q 18.109375 42.671875 18.109375 31.390625 
Q 18.109375 20.125 21.3125 9.0625 
Q 24.515625 -2 31 -13.1875 
L 23.1875 -13.1875 
Q 15.875 -1.703125 12.234375 9.375 
Q 8.59375 20.453125 8.59375 31.390625 
Q 8.59375 42.28125 12.203125 53.3125 
Q 15.828125 64.359375 23.1875 75.875 
z
" id="BitstreamVeraSans-Roman-28"/>
     <path d="M 53.515625 70.515625 
L 53.515625 60.890625 
Q 47.90625 63.578125 42.921875 64.890625 
Q 37.9375 66.21875 33.296875 66.21875 
Q 25.25 66.21875 20.875 63.09375 
Q 16.5 59.96875 16.5 54.203125 
Q 16.5 49.359375 19.40625 46.890625 
Q 22.3125 44.4375 30.421875 42.921875 
L 36.375 41.703125 
Q 47.40625 39.59375 52.65625 34.296875 
Q 57.90625 29 57.90625 20.125 
Q 57.90625 9.515625 50.796875 4.046875 
Q 43.703125 -1.421875 29.984375 -1.421875 
Q 24.8125 -1.421875 18.96875 -0.25 
Q 13.140625 0.921875 6.890625 3.21875 
L 6.890625 13.375 
Q 12.890625 10.015625 18.65625 8.296875 
Q 24.421875 6.59375 29.984375 6.59375 
Q 38.421875 6.59375 43.015625 9.90625 
Q 47.609375 13.234375 47.609375 19.390625 
Q 47.609375 24.75 44.3125 27.78125 
Q 41.015625 30.8125 33.5 32.328125 
L 27.484375 33.5 
Q 16.453125 35.6875 11.515625 40.375 
Q 6.59375 45.0625 6.59375 53.421875 
Q 6.59375 63.09375 13.40625 68.65625 
Q 20.21875 74.21875 32.171875 74.21875 
Q 37.3125 74.21875 42.625 73.28125 
Q 47.953125 72.359375 53.515625 70.515625 
" id="BitstreamVeraSans-Roman-53"/>
     <path d="M 28.609375 0 
L 0.78125 72.90625 
L 11.078125 72.90625 
L 34.1875 11.53125 
L 57.328125 72.90625 
L 67.578125 72.90625 
L 39.796875 0 
z
" id="BitstreamVeraSans-Roman-56"/>
     <path d="M 4.203125 54.6875 
L 13.1875 54.6875 
L 24.421875 12.015625 
L 35.59375 54.6875 
L 46.1875 54.6875 
L 57.421875 12.015625 
L 68.609375 54.6875 
L 77.59375 54.6875 
L 63.28125 0 
L 52.6875 0 
L 40.921875 44.828125 
L 29.109375 0 
L 18.5 0 
z
" id="BitstreamVeraSans-Roman-77"/>
     <path d="M 45.40625 46.390625 
L 45.40625 75.984375 
L 54.390625 75.984375 
L 54.390625 0 
L 45.40625 0 
L 45.40625 8.203125 
Q 42.578125 3.328125 38.25 0.953125 
Q 33.9375 -1.421875 27.875 -1.421875 
Q 17.96875 -1.421875 11.734375 6.484375 
Q 5.515625 14.40625 5.515625 27.296875 
Q 5.515625 40.1875 11.734375 48.09375 
Q 17.96875 56 27.875 56 
Q 33.9375 56 38.25 53.625 
Q 42.578125 51.265625 45.40625 46.390625 
M 14.796875 27.296875 
Q 14.796875 17.390625 18.875 11.75 
Q 22.953125 6.109375 30.078125 6.109375 
Q 37.203125 6.109375 41.296875 11.75 
Q 45.40625 17.390625 45.40625 27.296875 
Q 45.40625 37.203125 41.296875 42.84375 
Q 37.203125 48.484375 30.078125 48.484375 
Q 22.953125 48.484375 18.875 42.84375 
Q 14.796875 37.203125 14.796875 27.296875 
" id="BitstreamVeraSans-Roman-64"/>
     <path d="M 48.78125 52.59375 
L 48.78125 44.1875 
Q 44.96875 46.296875 41.140625 47.34375 
Q 37.3125 48.390625 33.40625 48.390625 
Q 24.65625 48.390625 19.8125 42.84375 
Q 14.984375 37.3125 14.984375 27.296875 
Q 14.984375 17.28125 19.8125 11.734375 
Q 24.65625 6.203125 33.40625 6.203125 
Q 37.3125 6.203125 41.140625 7.25 
Q 44.96875 8.296875 48.78125 10.40625 
L 48.78125 2.09375 
Q 45.015625 0.34375 40.984375 -0.53125 
Q 36.96875 -1.421875 32.421875 -1.421875 
Q 20.0625 -1.421875 12.78125 6.34375 
Q 5.515625 14.109375 5.515625 27.296875 
Q 5.515625 40.671875 12.859375 48.328125 
Q 20.21875 56 33.015625 56 
Q 37.15625 56 41.109375 55.140625 
Q 45.0625 54.296875 48.78125 52.59375 
" id="BitstreamVeraSans-Roman-63"/>
     <path d="M 48.6875 27.296875 
Q 48.6875 37.203125 44.609375 42.84375 
Q 40.53125 48.484375 33.40625 48.484375 
Q 26.265625 48.484375 22.1875 42.84375 
Q 18.109375 37.203125 18.109375 27.296875 
Q 18.109375 17.390625 22.1875 11.75 
Q 26.265625 6.109375 33.40625 6.109375 
Q 40.53125 6.109375 44.609375 11.75 
Q 48.6875 17.390625 48.6875 27.296875 
M 18.109375 46.390625 
Q 20.953125 51.265625 25.265625 53.625 
Q 29.59375 56 35.59375 56 
Q 45.5625 56 51.78125 48.09375 
Q 58.015625 40.1875 58.015625 27.296875 
Q 58.015625 14.40625 51.78125 6.484375 
Q 45.5625 -1.421875 35.59375 -1.421875 
Q 29.59375 -1.421875 25.265625 0.953125 
Q 20.953125 3.328125 18.109375 8.203125 
L 18.109375 0 
L 9.078125 0 
L 9.078125 75.984375 
L 18.109375 75.984375 
z
" id="BitstreamVeraSans-Roman-62"/>
    </defs>
    <g transform="translate(14.632875 38.2)scale(0.144 -0.144)">
     <use xlink:href="#BitstreamVeraSans-Roman-53"/>
     <use x="63.4765625" xlink:href="#BitstreamVeraSans-Roman-6f"/>
     <use x="124.658203125" xlink:href="#BitstreamVeraSans-Roman-72"/>
     <use x="165.771484375" xlink:href="#BitstreamVeraSans-Roman-74"/>
     <use x="204.98046875" xlink:href="#BitstreamVeraSans-Roman-65"/>
     <use x="266.50390625" xlink:href="#BitstreamVeraSans-Roman-64"/>
     <use x="329.98046875" xlink:href="#BitstreamVeraSans-Roman-20"/>
     <use x="361.767578125" xlink:href="#BitstreamVeraSans-Roman-41"/>
     <use x="430.17578125" xlink:href="#BitstreamVeraSans-Roman-62"/>
     <use x="493.65234375" xlink:href="#BitstreamVeraSans-Roman-73"/>
     <use x="545.751953125" xlink:href="#BitstreamVeraSans-Roman-6f"/>
     <use x="606.93359375" xlink:href="#BitstreamVeraSans-Roman-6c"/>
     <use x="634.716796875" xlink:href="#BitstreamVeraSans-Roman-75"/>
     <use x="698.095703125" xlink:href="#BitstreamVeraSans-Roman-74"/>
     <use x="737.3046875" xlink:href="#BitstreamVeraSans-Roman-65"/>
     <use x="798.828125" xlink:href="#BitstreamVeraSans-Roman-20"/>
     <use x="830.615234375" xlink:href="#BitstreamVeraSans-Roman-56"/>
     <use x="898.9140625" xlink:href="#BitstreamVeraSans-Roman-61"/>
     <use x="960.193359375" xlink:href="#BitstreamVeraSans-Roman-6c"/>
     <use x="987.9765625" xlink:href="#BitstreamVeraSans-Roman-75"/>
     <use x="1051.35546875" xlink:href="#BitstreamVeraSans-Roman-65"/>
     <use x="1112.87890625" xlink:href="#BitstreamVeraSans-Roman-20"/>
     <use x="1144.66601562" xlink:href="#BitstreamVeraSans-Roman-43"/>
     <use x="1214.49023438" xlink:href="#BitstreamVeraSans-Roman-6f"/>
     <use x="1275.671875" xlink:href="#BitstreamVeraSans-Roman-72"/>
     <use x="1316.76953125" xlink:href="#BitstreamVeraSans-Roman-72"/>
     <use x="1357.8515625" xlink:href="#BitstreamVeraSans-Roman-65"/>
     <use x="1419.375" xlink:href="#BitstreamVeraSans-Roman-6c"/>
     <use x="1447.15820312" xlink:href="#BitstreamVeraSans-Roman-61"/>
     <use x="1508.4375" xlink:href="#BitstreamVeraSans-Roman-74"/>
     <use x="1547.64648438" xlink:href="#BitstreamVeraSans-Roman-69"/>
     <use x="1575.4296875" xlink:href="#BitstreamVeraSans-Roman-6f"/>
     <use x="1636.61132812" xlink:href="#BitstreamVeraSans-Roman-6e"/>
     <use x="1699.99023438" xlink:href="#BitstreamVeraSans-Roman-73"/>
     <use x="1752.08984375" xlink:href="#BitstreamVeraSans-Roman-20"/>
     <use x="1783.87695312" xlink:href="#BitstreamVeraSans-Roman-62"/>
     <use x="1847.35351562" xlink:href="#BitstreamVeraSans-Roman-65"/>
     <use x="1908.87695312" xlink:href="#BitstreamVeraSans-Roman-74"/>
     <use x="1948.0859375" xlink:href="#BitstreamVeraSans-Roman-77"/>
     <use x="2029.87304688" xlink:href="#BitstreamVeraSans-Roman-65"/>
     <use x="2091.39648438" xlink:href="#BitstreamVeraSans-Roman-65"/>
     <use x="2152.91992188" xlink:href="#BitstreamVeraSans-Roman-6e"/>
     <use x="2216.29882812" xlink:href="#BitstreamVeraSans-Roman-20"/>
     <use x="2248.0859375" xlink:href="#BitstreamVeraSans-Roman-32"/>
     <use x="2311.70898438" xlink:href="#BitstreamVeraSans-Roman-20"/>
     <use x="2343.49609375" xlink:href="#BitstreamVeraSans-Roman-43"/>
     <use x="2413.3203125" xlink:href="#BitstreamVeraSans-Roman-68"/>
     <use x="2476.69921875" xlink:href="#BitstreamVeraSans-Roman-61"/>
     <use x="2537.97851562" xlink:href="#BitstreamVeraSans-Roman-6e"/>
     <use x="2601.35742188" xlink:href="#BitstreamVeraSans-Roman-6e"/>
     <use x="2664.73632812" xlink:href="#BitstreamVeraSans-Roman-65"/>
     <use x="2726.25976562" xlink:href="#BitstreamVeraSans-Roman-6c"/>
     <use x="2754.04296875" xlink:href="#BitstreamVeraSans-Roman-73"/>
     <use x="2806.14257812" xlink:href="#BitstreamVeraSans-Roman-20"/>
     <use x="2837.9296875" xlink:href="#BitstreamVeraSans-Roman-28"/>
     <use x="2876.94335938" xlink:href="#BitstreamVeraSans-Roman-33"/>
     <use x="2940.56640625" xlink:href="#BitstreamVeraSans-Roman-30"/>
     <use x="3004.18945312" xlink:href="#BitstreamVeraSans-Roman-20"/>
     <use x="3035.9765625" xlink:href="#BitstreamVeraSans-Roman-73"/>
     <use x="3088.07617188" xlink:href="#BitstreamVeraSans-Roman-65"/>
     <use x="3149.59960938" xlink:href="#BitstreamVeraSans-Roman-63"/>
     <use x="3204.58007812" xlink:href="#BitstreamVeraSans-Roman-6f"/>
     <use x="3265.76171875" xlink:href="#BitstreamVeraSans-Roman-6e"/>
     <use x="3329.140625" xlink:href="#BitstreamVeraSans-Roman-64"/>
     <use x="3392.6171875" xlink:href="#BitstreamVeraSans-Roman-20"/>
     <use x="3424.40429688" xlink:href="#BitstreamVeraSans-Roman-69"/>
     <use x="3452.1875" xlink:href="#BitstreamVeraSans-Roman-6e"/>
     <use x="3515.56640625" xlink:href="#BitstreamVeraSans-Roman-74"/>
     <use x="3554.77539062" xlink:href="#BitstreamVeraSans-Roman-65"/>
     <use x="3616.29882812" xlink:href="#BitstreamVeraSans-Roman-72"/>
     <use x="3657.41210938" xlink:href="#BitstreamVeraSans-Roman-76"/>
     <use x="3716.59179688" xlink:href="#BitstreamVeraSans-Roman-61"/>
     <use x="3777.87109375" xlink:href="#BitstreamVeraSans-Roman-6c"/>
     <use x="3805.65429688" xlink:href="#BitstreamVeraSans-Roman-73"/>
     <use x="3857.75390625" xlink:href="#BitstreamVeraSans-Roman-29"/>
    </g>
   </g>
  </g>
 </g>
 <defs>
  <clipPath id="p4533c8ca89">
   <rect height="345.6" width="446.4" x="72.0" y="43.2"/>
  </clipPath>
 </defs>
</svg>
