<?xml version="1.0" encoding="utf-8" standalone="no"?>
<!DOCTYPE svg PUBLIC "-//W3C//DTD SVG 1.1//EN"
  "http://www.w3.org/Graphics/SVG/1.1/DTD/svg11.dtd">
<!-- Created with matplotlib (http://matplotlib.org/) -->
<svg height="432pt" version="1.1" viewBox="0 0 576 432" width="576pt" xmlns="http://www.w3.org/2000/svg" xmlns:xlink="http://www.w3.org/1999/xlink">
 <defs>
  <style type="text/css">
*{stroke-linecap:butt;stroke-linejoin:round;stroke-miterlimit:100000;}
  </style>
 </defs>
 <g id="figure_1">
  <g id="patch_1">
   <path d="M 0 432 
L 576 432 
L 576 0 
L 0 0 
z
" style="fill:#ffffff;"/>
  </g>
  <g id="axes_1">
   <g id="patch_2">
    <path d="M 72 388.8 
L 518.4 388.8 
L 518.4 43.2 
L 72 43.2 
z
" style="fill:#ffffff;"/>
   </g>
   <g id="line2d_1">
    <path clip-path="url(#pdab8fec1eb)" d="M 72.000338 373.08373 
L 72.169149 372.885059 
L 72.325131 372.684739 
L 72.807258 370.079312 
L 73.227937 359.59032 
L 73.658069 337.972401 
L 73.719179 336.222658 
L 73.990628 329.52692 
L 74.605103 318.322068 
L 74.610505 318.213635 
L 75.176362 309.97225 
L 75.228693 309.317578 
L 75.397167 307.267655 
L 75.418775 307.016598 
L 75.557201 305.60002 
L 75.567667 305.468073 
L 75.636205 304.697676 
L 75.789823 303.237694 
L 76.487016 297.140047 
L 76.632869 295.966287 
L 76.808096 294.685327 
L 76.877984 294.156828 
L 77.084947 292.712225 
L 77.132214 292.380537 
L 77.313856 291.217342 
L 77.762895 288.41445 
L 79.506382 279.950376 
L 79.551962 279.757784 
L 79.696464 279.194083 
L 79.725838 279.083951 
L 79.969602 278.093306 
L 82.34377 269.831804 
L 82.448771 269.55243 
L 82.623322 269.043463 
L 82.670252 268.92301 
L 83.353264 267.004242 
L 83.41066 266.84354 
L 83.630115 266.268455 
L 83.67772 266.140276 
L 83.843831 265.701003 
L 84.501184 264.1255 
L 84.618002 263.806656 
L 84.762842 263.458712 
L 84.814836 263.347301 
L 86.368917 259.856091 
L 86.431715 259.711136 
L 89.413268 253.863162 
L 89.683366 253.381944 
L 89.887291 253.029019 
L 90.141859 252.552507 
L 90.280622 252.307314 
L 90.387649 252.127997 
L 90.845466 251.361378 
L 90.928859 251.214249 
L 91.076063 250.976246 
L 91.256016 250.69397 
L 91.405246 250.426304 
L 91.851584 249.729685 
L 92.026136 249.453087 
L 92.105139 249.326049 
L 92.245253 249.105923 
L 92.579838 248.564278 
L 92.648713 248.45293 
L 92.775997 248.261416 
L 92.92759 248.032284 
L 93.747002 246.844411 
L 93.907036 246.612388 
L 94.355737 245.977936 
L 94.64373 245.548549 
L 94.828073 245.310263 
L 95.103236 244.926972 
L 95.248414 244.701118 
L 95.427354 244.461319 
L 95.53168 244.31612 
L 97.730959 241.39798 
L 97.839674 241.255033 
L 98.063856 240.954397 
L 98.409245 240.540936 
L 103.29837 235.000078 
L 103.435108 234.864049 
L 103.604932 234.69517 
L 103.814259 234.48263 
L 103.966189 234.337269 
L 104.360871 233.931106 
L 104.49457 233.793952 
L 104.65933 233.633612 
L 104.970619 233.320248 
L 105.269078 233.019304 
L 105.416957 232.877805 
L 106.506131 231.800023 
L 106.78602 231.513704 
L 107.043289 231.269645 
L 107.194545 231.129159 
L 107.436958 230.911813 
L 107.558165 230.799 
L 107.723601 230.641406 
L 107.855612 230.523522 
L 108.412015 229.980703 
L 108.54774 229.858467 
L 108.698657 229.722812 
L 108.99239 229.451971 
L 109.681817 228.815553 
L 109.830371 228.669173 
L 110.004247 228.51083 
L 110.122753 228.399271 
L 110.616021 227.971108 
L 110.777405 227.832171 
L 112.97871 225.94467 
L 113.117811 225.827901 
L 115.349164 223.946076 
L 115.530806 223.792947 
L 125.304667 216.354517 
L 125.462675 216.231408 
L 125.768899 216.0221 
L 126.115301 215.773164 
L 126.258116 215.674943 
L 126.759824 215.322105 
L 127.025534 215.148303 
L 127.181854 215.03198 
L 127.606246 214.718422 
L 127.772357 214.600533 
L 128.10863 214.361934 
L 128.419244 214.157018 
L 128.672799 213.979243 
L 128.835871 213.869777 
L 129.040133 213.733294 
L 129.323399 213.536256 
L 130.194805 212.957345 
L 130.367669 212.838996 
L 130.602992 212.671992 
L 131.012529 212.397341 
L 131.215779 212.249299 
L 135.939131 209.159861 
L 136.480679 208.828182 
L 137.314609 208.306632 
L 137.513807 208.18539 
L 137.93246 207.922412 
L 138.112076 207.808323 
L 138.370358 207.643752 
L 138.983819 207.267501 
L 139.385591 207.023423 
L 139.599645 206.896088 
L 140.030452 206.625268 
L 140.192849 206.525913 
L 140.451806 206.373493 
L 140.711776 206.217851 
L 141.127391 205.959447 
L 141.282022 205.869602 
L 141.45995 205.758487 
L 141.72836 205.60577 
L 141.89751 205.498348 
L 142.38335 205.219058 
L 142.587612 205.094057 
L 142.809431 204.965327 
L 145.012086 203.639371 
L 145.220062 203.519042 
L 145.431415 203.397261 
L 146.061758 203.030194 
L 146.472645 202.789487 
L 146.788323 202.604652 
L 146.996637 202.482185 
L 147.25053 202.32304 
L 147.386592 202.244885 
L 147.591529 202.121206 
L 147.776547 202.010522 
L 148.29041 201.707333 
L 148.607776 201.516272 
L 164.164452 193.07503 
L 164.389309 192.960721 
L 164.956179 192.656306 
L 165.239108 192.514154 
L 172.251209 188.998756 
L 172.411581 188.914637 
L 173.217825 188.520585 
L 173.444708 188.414461 
L 173.871802 188.218067 
L 174.039601 188.136034 
L 176.289861 187.039227 
L 176.460023 186.961667 
L 176.68353 186.849178 
L 176.899947 186.740136 
L 177.546833 186.42462 
L 177.73489 186.341487 
L 180.219123 185.16657 
L 180.361938 185.096102 
L 180.791395 184.885727 
L 181.006799 184.7881 
L 181.794137 184.416578 
L 181.965649 184.338601 
L 182.560879 184.056349 
L 182.707408 183.991653 
L 183.115257 183.809035 
L 183.281368 183.724116 
L 183.61494 183.573226 
L 184.308081 183.246695 
L 184.643341 183.091569 
L 184.847941 183.004183 
L 187.645826 181.7117 
L 188.458486 181.333826 
L 188.681993 181.234499 
L 188.957493 181.108827 
L 189.523013 180.848723 
L 189.734365 180.754309 
L 190.036538 180.615612 
L 191.988339 179.736275 
L 192.164579 179.659952 
L 192.692622 179.4303 
L 192.873926 179.346012 
L 193.581922 179.034119 
L 193.756473 178.956346 
L 194.092071 178.805894 
L 194.249404 178.737597 
L 194.730179 178.51907 
L 194.897641 178.441425 
L 195.214669 178.297876 
L 196.75592 177.610099 
L 197.082402 177.46268 
L 197.366006 177.34106 
L 197.655687 177.218013 
L 197.926123 177.098115 
L 198.279277 176.943291 
L 206.445713 173.412795 
L 206.592242 173.346218 
L 207.629759 172.905375 
L 207.974135 172.764758 
L 208.215198 172.660834 
L 208.532902 172.531064 
L 208.733788 172.444028 
L 209.080527 172.290635 
L 209.25339 172.209471 
L 209.542058 172.088916 
L 209.833765 171.961694 
L 210.302724 171.765638 
L 210.698419 171.591428 
L 211.025913 171.450905 
L 211.786917 171.124781 
L 212.389912 170.87286 
L 212.846379 170.674047 
L 213.049291 170.593073 
L 213.31365 170.474242 
L 213.62899 170.345509 
L 213.936903 170.22384 
L 214.707697 169.917502 
L 215.013922 169.784185 
L 215.369102 169.632783 
L 215.936984 169.398526 
L 216.09668 169.333247 
L 216.334367 169.233324 
L 216.624723 169.118667 
L 216.761123 169.059753 
L 218.866881 168.182457 
L 219.073506 168.099518 
L 219.695746 167.840422 
L 219.928369 167.751681 
L 220.50503 167.520261 
L 221.073588 167.290661 
L 221.47097 167.12978 
L 221.876119 166.96714 
L 222.838008 166.575574 
L 223.002768 166.512561 
L 223.369427 166.369944 
L 223.875525 166.172505 
L 224.281348 166.012627 
L 224.496077 165.928577 
L 225.035936 165.718097 
L 225.219604 165.644696 
L 225.773306 165.417742 
L 225.945156 165.34864 
L 226.278053 165.215772 
L 226.503923 165.12454 
L 226.841884 164.986723 
L 227.132578 164.868184 
L 228.08704 164.488517 
L 228.376045 164.369045 
L 228.763299 164.211589 
L 232.785408 162.592036 
L 233.075426 162.477813 
L 233.41305 162.34475 
L 233.66019 162.24649 
L 233.966415 162.124136 
L 235.325011 161.586947 
L 235.652844 161.464108 
L 236.30682 161.208959 
L 236.621148 161.095486 
L 237.046891 160.926549 
L 238.630345 160.300331 
L 238.995991 160.158953 
L 239.167504 160.09519 
L 239.629711 159.918783 
L 239.904874 159.810932 
L 240.264443 159.668353 
L 240.55041 159.558511 
L 241.013292 159.373193 
L 241.158132 159.317232 
L 241.806369 159.065675 
L 242.257096 158.893105 
L 242.604848 158.756325 
L 242.954626 158.624814 
L 243.521159 158.407988 
L 243.85912 158.276858 
L 244.37332 158.078007 
L 245.836918 157.505733 
L 246.142129 157.388673 
L 246.613114 157.206901 
L 246.926091 157.092336 
L 247.742127 156.782366 
L 248.069284 156.656145 
L 248.428853 156.522595 
L 251.913803 155.212628 
L 252.361154 155.042001 
L 273.838732 147.042848 
L 274.175005 146.914965 
L 274.461648 146.810054 
L 274.794544 146.691713 
L 275.249999 146.527727 
L 275.589648 146.400999 
L 275.770276 146.33849 
L 276.498868 146.077348 
L 278.263288 145.43429 
L 278.639738 145.304687 
L 279.051976 145.152434 
L 279.369005 145.031728 
L 279.666451 144.929865 
L 280.167822 144.75146 
L 282.316795 143.990874 
L 282.640914 143.878772 
L 283.121352 143.708544 
L 283.692948 143.508862 
L 283.855345 143.447915 
L 284.201072 143.327023 
L 284.541734 143.202536 
L 290.804649 140.988115 
L 290.973123 140.930204 
L 291.697325 140.680641 
L 291.841828 140.627856 
L 309.605887 134.387561 
L 310.050199 134.231401 
L 310.586008 134.042949 
L 310.904049 133.929176 
L 311.329792 133.781049 
L 313.005755 133.20323 
L 314.646605 132.641421 
L 314.94135 132.542644 
L 315.315775 132.41564 
L 331.215139 127.022763 
L 331.378886 126.963931 
L 331.779983 126.822361 
L 335.638006 125.523056 
L 336.003652 125.399328 
L 336.706247 125.167789 
L 337.477716 124.910564 
L 337.747477 124.818603 
L 338.37073 124.611922 
L 339.463617 124.241444 
L 339.615548 124.188161 
L 340.728355 123.820127 
L 341.049435 123.707973 
L 341.56296 123.53037 
L 352.314579 119.90002 
L 352.698119 119.776872 
L 354.278535 119.255102 
L 354.638441 119.135242 
L 356.132763 118.656219 
L 356.6787 118.468815 
L 357.571039 118.170528 
L 357.7044 118.126003 
L 358.300981 117.928492 
L 358.509632 117.854139 
L 358.864474 117.736935 
L 359.203111 117.627538 
L 359.600156 117.492645 
L 359.790575 117.429442 
L 360.186945 117.296849 
L 360.346979 117.244931 
L 361.065779 117.007674 
L 361.698823 116.794665 
L 362.033408 116.679167 
L 363.201248 116.299552 
L 363.499707 116.202332 
L 364.316418 115.928632 
L 364.741823 115.77942 
L 365.686832 115.460425 
L 366.048089 115.342377 
L 367.450577 114.875031 
L 367.886786 114.732412 
L 368.087334 114.661773 
L 368.590731 114.503988 
L 369.19035 114.300255 
L 369.613055 114.160576 
L 369.833861 114.087406 
L 370.718772 113.797529 
L 371.264371 113.618518 
L 371.672896 113.481504 
L 372.058124 113.353293 
L 372.509526 113.199079 
L 372.76612 113.11186 
L 373.520033 112.863488 
L 374.311085 112.599037 
L 374.54202 112.524331 
L 375.307074 112.269969 
L 378.49559 111.192699 
L 378.781557 111.099067 
L 379.445663 110.878987 
L 379.804557 110.760987 
L 380.301876 110.593166 
L 380.975772 110.36699 
L 381.235742 110.283885 
L 383.862791 109.415805 
L 384.233163 109.288669 
L 384.60725 109.167708 
L 384.860468 109.084288 
L 385.69271 108.807255 
L 386.131958 108.657954 
L 386.321027 108.592897 
L 386.919296 108.397007 
L 387.53816 108.194541 
L 387.893002 108.077628 
L 390.147314 107.318268 
L 390.512285 107.198021 
L 391.393482 106.908754 
L 391.912071 106.740559 
L 393.057628 106.360024 
L 393.598501 106.176101 
L 399.54405 104.208115 
L 400.188235 103.993672 
L 400.613641 103.847262 
L 400.967808 103.73014 
L 401.601527 103.512884 
L 401.995196 103.385003 
L 402.952696 103.066865 
L 403.108678 103.016871 
L 403.593506 102.857351 
L 404.707325 102.478223 
L 405.301543 102.280613 
L 405.528763 102.204292 
L 405.968687 102.057061 
L 406.199283 101.979352 
L 406.555814 101.864569 
L 413.865024 99.390309 
L 414.023032 99.336185 
L 414.563905 99.150881 
L 414.898827 99.038761 
L 415.418767 98.86467 
L 415.813787 98.731781 
L 416.074432 98.645567 
L 416.755419 98.422367 
L 417.058604 98.317296 
L 417.545795 98.15985 
L 417.859447 98.056468 
L 419.059023 97.659952 
L 419.278141 97.585805 
L 419.713675 97.44277 
L 419.881474 97.382954 
L 420.679616 97.114323 
L 421.040873 96.994545 
L 421.385924 96.879821 
L 421.71038 96.769685 
L 422.158744 96.62422 
L 422.421078 96.537408 
L 423.209429 96.276569 
L 431.153033 93.555045 
L 431.323196 93.499492 
L 431.920452 93.300858 
L 432.292513 93.173317 
L 432.816504 93.000682 
L 432.975862 92.945199 
L 433.311123 92.827569 
L 433.52315 92.756303 
L 433.943154 92.605844 
L 434.825026 92.300227 
L 435.167376 92.185369 
L 435.947287 91.922046 
L 436.204218 91.833436 
L 436.571215 91.706406 
L 441.125418 90.119413 
L 441.444472 90.012221 
L 441.912418 89.850653 
L 443.539763 89.291128 
L 443.677513 89.240339 
L 444.300766 89.030349 
L 444.59011 88.928168 
L 444.930434 88.80806 
L 445.465567 88.626479 
L 445.824799 88.50273 
L 448.238131 87.644267 
L 449.046739 87.361437 
L 449.440408 87.222042 
L 450.269274 86.918843 
L 450.513038 86.830986 
L 450.884761 86.703649 
L 451.060663 86.641365 
L 451.595796 86.453411 
L 451.910124 86.342785 
L 459.052548 83.80218 
L 459.358435 83.695576 
L 460.102895 83.412229 
L 460.419923 83.300867 
L 465.190205 81.600317 
L 465.50352 81.486929 
L 465.851947 81.358202 
L 466.277353 81.200375 
L 466.559268 81.095374 
L 466.87866 80.973433 
L 467.338841 80.811838 
L 467.889842 80.61515 
L 468.327065 80.460514 
L 469.412862 80.08004 
L 469.539133 80.036712 
L 470.387918 79.722166 
L 470.605685 79.641854 
L 471.086461 79.472928 
L 471.534825 79.311073 
L 472.346134 79.025625 
L 472.519335 78.962339 
L 473.029822 78.777173 
L 473.188505 78.714406 
L 473.594328 78.56647 
L 474.100088 78.382717 
L 474.255057 78.327689 
L 474.50186 78.241429 
L 475.055563 78.053004 
L 475.370228 77.936352 
L 476.050876 77.680057 
L 476.258853 77.600417 
L 476.90844 77.378202 
L 477.853786 77.049699 
L 478.225847 76.920979 
L 478.641799 76.770292 
L 479.05505 76.619632 
L 480.51831 76.09542 
L 480.908265 75.957121 
L 481.276275 75.830047 
L 481.627403 75.705079 
L 481.929576 75.591609 
L 483.113284 75.159745 
L 483.51877 75.015604 
L 483.711215 74.952082 
L 484.495514 74.672183 
L 485.012078 74.49577 
L 502.908823 68.00965 
L 503.047586 67.957521 
L 504.491939 67.421647 
L 504.78162 67.308698 
L 505.006477 67.220206 
L 505.32148 67.101184 
L 506.353933 66.69324 
L 506.823229 66.506586 
L 507.161865 66.377996 
L 507.483283 66.245076 
L 507.951229 66.055883 
L 508.24665 65.934364 
L 509.019807 65.610448 
L 509.305437 65.4898 
L 509.659266 65.334329 
L 509.941519 65.21257 
L 510.277455 65.072411 
L 510.563084 64.952702 
L 510.754854 64.873955 
L 515.019714 62.556323 
L 515.465715 62.204464 
L 516.695339 60.787908 
L 516.930663 60.389172 
L 517.005953 60.270951 
L 517.780799 59.156228 
L 518.241317 58.963425 
L 518.399325 58.910065 
L 518.399325 58.910065 
" style="fill:none;stroke:#0000ff;stroke-linecap:square;"/>
   </g>
   <g id="line2d_2">
    <path clip-path="url(#pdab8fec1eb)" d="M 72.000338 216 
L 518.399325 216 
L 518.399325 216 
" style="fill:none;stroke:#000000;stroke-linecap:square;"/>
   </g>
   <g id="patch_3">
    <path d="M 72 43.2 
L 518.4 43.2 
" style="fill:none;stroke:#000000;stroke-linecap:square;stroke-linejoin:miter;"/>
   </g>
   <g id="patch_4">
    <path d="M 518.4 388.8 
L 518.4 43.2 
" style="fill:none;stroke:#000000;stroke-linecap:square;stroke-linejoin:miter;"/>
   </g>
   <g id="patch_5">
    <path d="M 72 388.8 
L 518.4 388.8 
" style="fill:none;stroke:#000000;stroke-linecap:square;stroke-linejoin:miter;"/>
   </g>
   <g id="patch_6">
    <path d="M 72 388.8 
L 72 43.2 
" style="fill:none;stroke:#000000;stroke-linecap:square;stroke-linejoin:miter;"/>
   </g>
   <g id="matplotlib.axis_1">
    <g id="xtick_1">
     <g id="line2d_3">
      <defs>
       <path d="M 0 0 
L 0 -4 
" id="m241820efd8" style="stroke:#000000;stroke-width:0.5;"/>
      </defs>
      <g>
       <use style="stroke:#000000;stroke-width:0.5;" x="72.0003376235" xlink:href="#m241820efd8" y="388.8"/>
      </g>
     </g>
     <g id="line2d_4">
      <defs>
       <path d="M 0 0 
L 0 4 
" id="mefd25447b1" style="stroke:#000000;stroke-width:0.5;"/>
      </defs>
      <g>
       <use style="stroke:#000000;stroke-width:0.5;" x="72.0003376235" xlink:href="#mefd25447b1" y="43.2"/>
      </g>
     </g>
     <g id="text_1">
      <!-- 0 -->
      <defs>
       <path d="M 31.78125 66.40625 
Q 24.171875 66.40625 20.328125 58.90625 
Q 16.5 51.421875 16.5 36.375 
Q 16.5 21.390625 20.328125 13.890625 
Q 24.171875 6.390625 31.78125 6.390625 
Q 39.453125 6.390625 43.28125 13.890625 
Q 47.125 21.390625 47.125 36.375 
Q 47.125 51.421875 43.28125 58.90625 
Q 39.453125 66.40625 31.78125 66.40625 
M 31.78125 74.21875 
Q 44.046875 74.21875 50.515625 64.515625 
Q 56.984375 54.828125 56.984375 36.375 
Q 56.984375 17.96875 50.515625 8.265625 
Q 44.046875 -1.421875 31.78125 -1.421875 
Q 19.53125 -1.421875 13.0625 8.265625 
Q 6.59375 17.96875 6.59375 36.375 
Q 6.59375 54.828125 13.0625 64.515625 
Q 19.53125 74.21875 31.78125 74.21875 
" id="BitstreamVeraSans-Roman-30"/>
      </defs>
      <g transform="translate(68.1828376235 401.918125)scale(0.12 -0.12)">
       <use xlink:href="#BitstreamVeraSans-Roman-30"/>
      </g>
     </g>
    </g>
    <g id="xtick_2">
     <g id="line2d_5">
      <g>
       <use style="stroke:#000000;stroke-width:0.5;" x="139.525029742" xlink:href="#m241820efd8" y="388.8"/>
      </g>
     </g>
     <g id="line2d_6">
      <g>
       <use style="stroke:#000000;stroke-width:0.5;" x="139.525029742" xlink:href="#mefd25447b1" y="43.2"/>
      </g>
     </g>
     <g id="text_2">
      <!-- 200000 -->
      <defs>
       <path d="M 19.1875 8.296875 
L 53.609375 8.296875 
L 53.609375 0 
L 7.328125 0 
L 7.328125 8.296875 
Q 12.9375 14.109375 22.625 23.890625 
Q 32.328125 33.6875 34.8125 36.53125 
Q 39.546875 41.84375 41.421875 45.53125 
Q 43.3125 49.21875 43.3125 52.78125 
Q 43.3125 58.59375 39.234375 62.25 
Q 35.15625 65.921875 28.609375 65.921875 
Q 23.96875 65.921875 18.8125 64.3125 
Q 13.671875 62.703125 7.8125 59.421875 
L 7.8125 69.390625 
Q 13.765625 71.78125 18.9375 73 
Q 24.125 74.21875 28.421875 74.21875 
Q 39.75 74.21875 46.484375 68.546875 
Q 53.21875 62.890625 53.21875 53.421875 
Q 53.21875 48.921875 51.53125 44.890625 
Q 49.859375 40.875 45.40625 35.40625 
Q 44.1875 33.984375 37.640625 27.21875 
Q 31.109375 20.453125 19.1875 8.296875 
" id="BitstreamVeraSans-Roman-32"/>
      </defs>
      <g transform="translate(116.620029742 401.918125)scale(0.12 -0.12)">
       <use xlink:href="#BitstreamVeraSans-Roman-32"/>
       <use x="63.623046875" xlink:href="#BitstreamVeraSans-Roman-30"/>
       <use x="127.24609375" xlink:href="#BitstreamVeraSans-Roman-30"/>
       <use x="190.869140625" xlink:href="#BitstreamVeraSans-Roman-30"/>
       <use x="254.4921875" xlink:href="#BitstreamVeraSans-Roman-30"/>
       <use x="318.115234375" xlink:href="#BitstreamVeraSans-Roman-30"/>
      </g>
     </g>
    </g>
    <g id="xtick_3">
     <g id="line2d_7">
      <g>
       <use style="stroke:#000000;stroke-width:0.5;" x="207.049721861" xlink:href="#m241820efd8" y="388.8"/>
      </g>
     </g>
     <g id="line2d_8">
      <g>
       <use style="stroke:#000000;stroke-width:0.5;" x="207.049721861" xlink:href="#mefd25447b1" y="43.2"/>
      </g>
     </g>
     <g id="text_3">
      <!-- 400000 -->
      <defs>
       <path d="M 37.796875 64.3125 
L 12.890625 25.390625 
L 37.796875 25.390625 
z
M 35.203125 72.90625 
L 47.609375 72.90625 
L 47.609375 25.390625 
L 58.015625 25.390625 
L 58.015625 17.1875 
L 47.609375 17.1875 
L 47.609375 0 
L 37.796875 0 
L 37.796875 17.1875 
L 4.890625 17.1875 
L 4.890625 26.703125 
z
" id="BitstreamVeraSans-Roman-34"/>
      </defs>
      <g transform="translate(184.144721861 401.918125)scale(0.12 -0.12)">
       <use xlink:href="#BitstreamVeraSans-Roman-34"/>
       <use x="63.623046875" xlink:href="#BitstreamVeraSans-Roman-30"/>
       <use x="127.24609375" xlink:href="#BitstreamVeraSans-Roman-30"/>
       <use x="190.869140625" xlink:href="#BitstreamVeraSans-Roman-30"/>
       <use x="254.4921875" xlink:href="#BitstreamVeraSans-Roman-30"/>
       <use x="318.115234375" xlink:href="#BitstreamVeraSans-Roman-30"/>
      </g>
     </g>
    </g>
    <g id="xtick_4">
     <g id="line2d_9">
      <g>
       <use style="stroke:#000000;stroke-width:0.5;" x="274.574413981" xlink:href="#m241820efd8" y="388.8"/>
      </g>
     </g>
     <g id="line2d_10">
      <g>
       <use style="stroke:#000000;stroke-width:0.5;" x="274.574413981" xlink:href="#mefd25447b1" y="43.2"/>
      </g>
     </g>
     <g id="text_4">
      <!-- 600000 -->
      <defs>
       <path d="M 33.015625 40.375 
Q 26.375 40.375 22.484375 35.828125 
Q 18.609375 31.296875 18.609375 23.390625 
Q 18.609375 15.53125 22.484375 10.953125 
Q 26.375 6.390625 33.015625 6.390625 
Q 39.65625 6.390625 43.53125 10.953125 
Q 47.40625 15.53125 47.40625 23.390625 
Q 47.40625 31.296875 43.53125 35.828125 
Q 39.65625 40.375 33.015625 40.375 
M 52.59375 71.296875 
L 52.59375 62.3125 
Q 48.875 64.0625 45.09375 64.984375 
Q 41.3125 65.921875 37.59375 65.921875 
Q 27.828125 65.921875 22.671875 59.328125 
Q 17.53125 52.734375 16.796875 39.40625 
Q 19.671875 43.65625 24.015625 45.921875 
Q 28.375 48.1875 33.59375 48.1875 
Q 44.578125 48.1875 50.953125 41.515625 
Q 57.328125 34.859375 57.328125 23.390625 
Q 57.328125 12.15625 50.6875 5.359375 
Q 44.046875 -1.421875 33.015625 -1.421875 
Q 20.359375 -1.421875 13.671875 8.265625 
Q 6.984375 17.96875 6.984375 36.375 
Q 6.984375 53.65625 15.1875 63.9375 
Q 23.390625 74.21875 37.203125 74.21875 
Q 40.921875 74.21875 44.703125 73.484375 
Q 48.484375 72.75 52.59375 71.296875 
" id="BitstreamVeraSans-Roman-36"/>
      </defs>
      <g transform="translate(251.669413981 401.918125)scale(0.12 -0.12)">
       <use xlink:href="#BitstreamVeraSans-Roman-36"/>
       <use x="63.623046875" xlink:href="#BitstreamVeraSans-Roman-30"/>
       <use x="127.24609375" xlink:href="#BitstreamVeraSans-Roman-30"/>
       <use x="190.869140625" xlink:href="#BitstreamVeraSans-Roman-30"/>
       <use x="254.4921875" xlink:href="#BitstreamVeraSans-Roman-30"/>
       <use x="318.115234375" xlink:href="#BitstreamVeraSans-Roman-30"/>
      </g>
     </g>
    </g>
    <g id="xtick_5">
     <g id="line2d_11">
      <g>
       <use style="stroke:#000000;stroke-width:0.5;" x="342.0991061" xlink:href="#m241820efd8" y="388.8"/>
      </g>
     </g>
     <g id="line2d_12">
      <g>
       <use style="stroke:#000000;stroke-width:0.5;" x="342.0991061" xlink:href="#mefd25447b1" y="43.2"/>
      </g>
     </g>
     <g id="text_5">
      <!-- 800000 -->
      <defs>
       <path d="M 31.78125 34.625 
Q 24.75 34.625 20.71875 30.859375 
Q 16.703125 27.09375 16.703125 20.515625 
Q 16.703125 13.921875 20.71875 10.15625 
Q 24.75 6.390625 31.78125 6.390625 
Q 38.8125 6.390625 42.859375 10.171875 
Q 46.921875 13.96875 46.921875 20.515625 
Q 46.921875 27.09375 42.890625 30.859375 
Q 38.875 34.625 31.78125 34.625 
M 21.921875 38.8125 
Q 15.578125 40.375 12.03125 44.71875 
Q 8.5 49.078125 8.5 55.328125 
Q 8.5 64.0625 14.71875 69.140625 
Q 20.953125 74.21875 31.78125 74.21875 
Q 42.671875 74.21875 48.875 69.140625 
Q 55.078125 64.0625 55.078125 55.328125 
Q 55.078125 49.078125 51.53125 44.71875 
Q 48 40.375 41.703125 38.8125 
Q 48.828125 37.15625 52.796875 32.3125 
Q 56.78125 27.484375 56.78125 20.515625 
Q 56.78125 9.90625 50.3125 4.234375 
Q 43.84375 -1.421875 31.78125 -1.421875 
Q 19.734375 -1.421875 13.25 4.234375 
Q 6.78125 9.90625 6.78125 20.515625 
Q 6.78125 27.484375 10.78125 32.3125 
Q 14.796875 37.15625 21.921875 38.8125 
M 18.3125 54.390625 
Q 18.3125 48.734375 21.84375 45.5625 
Q 25.390625 42.390625 31.78125 42.390625 
Q 38.140625 42.390625 41.71875 45.5625 
Q 45.3125 48.734375 45.3125 54.390625 
Q 45.3125 60.0625 41.71875 63.234375 
Q 38.140625 66.40625 31.78125 66.40625 
Q 25.390625 66.40625 21.84375 63.234375 
Q 18.3125 60.0625 18.3125 54.390625 
" id="BitstreamVeraSans-Roman-38"/>
      </defs>
      <g transform="translate(319.1941061 401.918125)scale(0.12 -0.12)">
       <use xlink:href="#BitstreamVeraSans-Roman-38"/>
       <use x="63.623046875" xlink:href="#BitstreamVeraSans-Roman-30"/>
       <use x="127.24609375" xlink:href="#BitstreamVeraSans-Roman-30"/>
       <use x="190.869140625" xlink:href="#BitstreamVeraSans-Roman-30"/>
       <use x="254.4921875" xlink:href="#BitstreamVeraSans-Roman-30"/>
       <use x="318.115234375" xlink:href="#BitstreamVeraSans-Roman-30"/>
      </g>
     </g>
    </g>
    <g id="xtick_6">
     <g id="line2d_13">
      <g>
       <use style="stroke:#000000;stroke-width:0.5;" x="409.623798219" xlink:href="#m241820efd8" y="388.8"/>
      </g>
     </g>
     <g id="line2d_14">
      <g>
       <use style="stroke:#000000;stroke-width:0.5;" x="409.623798219" xlink:href="#mefd25447b1" y="43.2"/>
      </g>
     </g>
     <g id="text_6">
      <!-- 1000000 -->
      <defs>
       <path d="M 12.40625 8.296875 
L 28.515625 8.296875 
L 28.515625 63.921875 
L 10.984375 60.40625 
L 10.984375 69.390625 
L 28.421875 72.90625 
L 38.28125 72.90625 
L 38.28125 8.296875 
L 54.390625 8.296875 
L 54.390625 0 
L 12.40625 0 
z
" id="BitstreamVeraSans-Roman-31"/>
      </defs>
      <g transform="translate(382.901298219 401.918125)scale(0.12 -0.12)">
       <use xlink:href="#BitstreamVeraSans-Roman-31"/>
       <use x="63.623046875" xlink:href="#BitstreamVeraSans-Roman-30"/>
       <use x="127.24609375" xlink:href="#BitstreamVeraSans-Roman-30"/>
       <use x="190.869140625" xlink:href="#BitstreamVeraSans-Roman-30"/>
       <use x="254.4921875" xlink:href="#BitstreamVeraSans-Roman-30"/>
       <use x="318.115234375" xlink:href="#BitstreamVeraSans-Roman-30"/>
       <use x="381.73828125" xlink:href="#BitstreamVeraSans-Roman-30"/>
      </g>
     </g>
    </g>
    <g id="xtick_7">
     <g id="line2d_15">
      <g>
       <use style="stroke:#000000;stroke-width:0.5;" x="477.148490338" xlink:href="#m241820efd8" y="388.8"/>
      </g>
     </g>
     <g id="line2d_16">
      <g>
       <use style="stroke:#000000;stroke-width:0.5;" x="477.148490338" xlink:href="#mefd25447b1" y="43.2"/>
      </g>
     </g>
     <g id="text_7">
      <!-- 1200000 -->
      <g transform="translate(450.425990338 401.918125)scale(0.12 -0.12)">
       <use xlink:href="#BitstreamVeraSans-Roman-31"/>
       <use x="63.623046875" xlink:href="#BitstreamVeraSans-Roman-32"/>
       <use x="127.24609375" xlink:href="#BitstreamVeraSans-Roman-30"/>
       <use x="190.869140625" xlink:href="#BitstreamVeraSans-Roman-30"/>
       <use x="254.4921875" xlink:href="#BitstreamVeraSans-Roman-30"/>
       <use x="318.115234375" xlink:href="#BitstreamVeraSans-Roman-30"/>
       <use x="381.73828125" xlink:href="#BitstreamVeraSans-Roman-30"/>
      </g>
     </g>
    </g>
    <g id="text_8">
     <!-- Channel vs Channel -->
     <defs>
      <path id="BitstreamVeraSans-Roman-20"/>
      <path d="M 54.890625 33.015625 
L 54.890625 0 
L 45.90625 0 
L 45.90625 32.71875 
Q 45.90625 40.484375 42.875 44.328125 
Q 39.84375 48.1875 33.796875 48.1875 
Q 26.515625 48.1875 22.3125 43.546875 
Q 18.109375 38.921875 18.109375 30.90625 
L 18.109375 0 
L 9.078125 0 
L 9.078125 54.6875 
L 18.109375 54.6875 
L 18.109375 46.1875 
Q 21.34375 51.125 25.703125 53.5625 
Q 30.078125 56 35.796875 56 
Q 45.21875 56 50.046875 50.171875 
Q 54.890625 44.34375 54.890625 33.015625 
" id="BitstreamVeraSans-Roman-6e"/>
      <path d="M 9.421875 75.984375 
L 18.40625 75.984375 
L 18.40625 0 
L 9.421875 0 
z
" id="BitstreamVeraSans-Roman-6c"/>
      <path d="M 2.984375 54.6875 
L 12.5 54.6875 
L 29.59375 8.796875 
L 46.6875 54.6875 
L 56.203125 54.6875 
L 35.6875 0 
L 23.484375 0 
z
" id="BitstreamVeraSans-Roman-76"/>
      <path d="M 64.40625 67.28125 
L 64.40625 56.890625 
Q 59.421875 61.53125 53.78125 63.8125 
Q 48.140625 66.109375 41.796875 66.109375 
Q 29.296875 66.109375 22.65625 58.46875 
Q 16.015625 50.828125 16.015625 36.375 
Q 16.015625 21.96875 22.65625 14.328125 
Q 29.296875 6.6875 41.796875 6.6875 
Q 48.140625 6.6875 53.78125 8.984375 
Q 59.421875 11.28125 64.40625 15.921875 
L 64.40625 5.609375 
Q 59.234375 2.09375 53.4375 0.328125 
Q 47.65625 -1.421875 41.21875 -1.421875 
Q 24.65625 -1.421875 15.125 8.703125 
Q 5.609375 18.84375 5.609375 36.375 
Q 5.609375 53.953125 15.125 64.078125 
Q 24.65625 74.21875 41.21875 74.21875 
Q 47.75 74.21875 53.53125 72.484375 
Q 59.328125 70.75 64.40625 67.28125 
" id="BitstreamVeraSans-Roman-43"/>
      <path d="M 54.890625 33.015625 
L 54.890625 0 
L 45.90625 0 
L 45.90625 32.71875 
Q 45.90625 40.484375 42.875 44.328125 
Q 39.84375 48.1875 33.796875 48.1875 
Q 26.515625 48.1875 22.3125 43.546875 
Q 18.109375 38.921875 18.109375 30.90625 
L 18.109375 0 
L 9.078125 0 
L 9.078125 75.984375 
L 18.109375 75.984375 
L 18.109375 46.1875 
Q 21.34375 51.125 25.703125 53.5625 
Q 30.078125 56 35.796875 56 
Q 45.21875 56 50.046875 50.171875 
Q 54.890625 44.34375 54.890625 33.015625 
" id="BitstreamVeraSans-Roman-68"/>
      <path d="M 56.203125 29.59375 
L 56.203125 25.203125 
L 14.890625 25.203125 
Q 15.484375 15.921875 20.484375 11.0625 
Q 25.484375 6.203125 34.421875 6.203125 
Q 39.59375 6.203125 44.453125 7.46875 
Q 49.3125 8.734375 54.109375 11.28125 
L 54.109375 2.78125 
Q 49.265625 0.734375 44.1875 -0.34375 
Q 39.109375 -1.421875 33.890625 -1.421875 
Q 20.796875 -1.421875 13.15625 6.1875 
Q 5.515625 13.8125 5.515625 26.8125 
Q 5.515625 40.234375 12.765625 48.109375 
Q 20.015625 56 32.328125 56 
Q 43.359375 56 49.78125 48.890625 
Q 56.203125 41.796875 56.203125 29.59375 
M 47.21875 32.234375 
Q 47.125 39.59375 43.09375 43.984375 
Q 39.0625 48.390625 32.421875 48.390625 
Q 24.90625 48.390625 20.390625 44.140625 
Q 15.875 39.890625 15.1875 32.171875 
z
" id="BitstreamVeraSans-Roman-65"/>
      <path d="M 34.28125 27.484375 
Q 23.390625 27.484375 19.1875 25 
Q 14.984375 22.515625 14.984375 16.5 
Q 14.984375 11.71875 18.140625 8.90625 
Q 21.296875 6.109375 26.703125 6.109375 
Q 34.1875 6.109375 38.703125 11.40625 
Q 43.21875 16.703125 43.21875 25.484375 
L 43.21875 27.484375 
z
M 52.203125 31.203125 
L 52.203125 0 
L 43.21875 0 
L 43.21875 8.296875 
Q 40.140625 3.328125 35.546875 0.953125 
Q 30.953125 -1.421875 24.3125 -1.421875 
Q 15.921875 -1.421875 10.953125 3.296875 
Q 6 8.015625 6 15.921875 
Q 6 25.140625 12.171875 29.828125 
Q 18.359375 34.515625 30.609375 34.515625 
L 43.21875 34.515625 
L 43.21875 35.40625 
Q 43.21875 41.609375 39.140625 45 
Q 35.0625 48.390625 27.6875 48.390625 
Q 23 48.390625 18.546875 47.265625 
Q 14.109375 46.140625 10.015625 43.890625 
L 10.015625 52.203125 
Q 14.9375 54.109375 19.578125 55.046875 
Q 24.21875 56 28.609375 56 
Q 40.484375 56 46.34375 49.84375 
Q 52.203125 43.703125 52.203125 31.203125 
" id="BitstreamVeraSans-Roman-61"/>
      <path d="M 44.28125 53.078125 
L 44.28125 44.578125 
Q 40.484375 46.53125 36.375 47.5 
Q 32.28125 48.484375 27.875 48.484375 
Q 21.1875 48.484375 17.84375 46.4375 
Q 14.5 44.390625 14.5 40.28125 
Q 14.5 37.15625 16.890625 35.375 
Q 19.28125 33.59375 26.515625 31.984375 
L 29.59375 31.296875 
Q 39.15625 29.25 43.1875 25.515625 
Q 47.21875 21.78125 47.21875 15.09375 
Q 47.21875 7.46875 41.1875 3.015625 
Q 35.15625 -1.421875 24.609375 -1.421875 
Q 20.21875 -1.421875 15.453125 -0.5625 
Q 10.6875 0.296875 5.421875 2 
L 5.421875 11.28125 
Q 10.40625 8.6875 15.234375 7.390625 
Q 20.0625 6.109375 24.8125 6.109375 
Q 31.15625 6.109375 34.5625 8.28125 
Q 37.984375 10.453125 37.984375 14.40625 
Q 37.984375 18.0625 35.515625 20.015625 
Q 33.0625 21.96875 24.703125 23.78125 
L 21.578125 24.515625 
Q 13.234375 26.265625 9.515625 29.90625 
Q 5.8125 33.546875 5.8125 39.890625 
Q 5.8125 47.609375 11.28125 51.796875 
Q 16.75 56 26.8125 56 
Q 31.78125 56 36.171875 55.265625 
Q 40.578125 54.546875 44.28125 53.078125 
" id="BitstreamVeraSans-Roman-73"/>
     </defs>
     <g transform="translate(235.44375 418.531875)scale(0.12 -0.12)">
      <use xlink:href="#BitstreamVeraSans-Roman-43"/>
      <use x="69.82421875" xlink:href="#BitstreamVeraSans-Roman-68"/>
      <use x="133.203125" xlink:href="#BitstreamVeraSans-Roman-61"/>
      <use x="194.482421875" xlink:href="#BitstreamVeraSans-Roman-6e"/>
      <use x="257.861328125" xlink:href="#BitstreamVeraSans-Roman-6e"/>
      <use x="321.240234375" xlink:href="#BitstreamVeraSans-Roman-65"/>
      <use x="382.763671875" xlink:href="#BitstreamVeraSans-Roman-6c"/>
      <use x="410.546875" xlink:href="#BitstreamVeraSans-Roman-20"/>
      <use x="442.333984375" xlink:href="#BitstreamVeraSans-Roman-76"/>
      <use x="501.513671875" xlink:href="#BitstreamVeraSans-Roman-73"/>
      <use x="553.61328125" xlink:href="#BitstreamVeraSans-Roman-20"/>
      <use x="585.400390625" xlink:href="#BitstreamVeraSans-Roman-43"/>
      <use x="655.224609375" xlink:href="#BitstreamVeraSans-Roman-68"/>
      <use x="718.603515625" xlink:href="#BitstreamVeraSans-Roman-61"/>
      <use x="779.8828125" xlink:href="#BitstreamVeraSans-Roman-6e"/>
      <use x="843.26171875" xlink:href="#BitstreamVeraSans-Roman-6e"/>
      <use x="906.640625" xlink:href="#BitstreamVeraSans-Roman-65"/>
      <use x="968.1640625" xlink:href="#BitstreamVeraSans-Roman-6c"/>
     </g>
    </g>
   </g>
   <g id="matplotlib.axis_2">
    <g id="ytick_1">
     <g id="line2d_17">
      <defs>
       <path d="M 0 0 
L 4 0 
" id="m9de4bf2380" style="stroke:#000000;stroke-width:0.5;"/>
      </defs>
      <g>
       <use style="stroke:#000000;stroke-width:0.5;" x="72.0" xlink:href="#m9de4bf2380" y="373.090909091"/>
      </g>
     </g>
     <g id="line2d_18">
      <defs>
       <path d="M 0 0 
L -4 0 
" id="m908aedfc1b" style="stroke:#000000;stroke-width:0.5;"/>
      </defs>
      <g>
       <use style="stroke:#000000;stroke-width:0.5;" x="518.4" xlink:href="#m908aedfc1b" y="373.090909091"/>
      </g>
     </g>
     <g id="text_9">
      <!-- −1.0 -->
      <defs>
       <path d="M 10.59375 35.5 
L 73.1875 35.5 
L 73.1875 27.203125 
L 10.59375 27.203125 
z
" id="BitstreamVeraSans-Roman-2212"/>
       <path d="M 10.6875 12.40625 
L 21 12.40625 
L 21 0 
L 10.6875 0 
z
" id="BitstreamVeraSans-Roman-2e"/>
      </defs>
      <g transform="translate(38.860625 376.402159091)scale(0.12 -0.12)">
       <use xlink:href="#BitstreamVeraSans-Roman-2212"/>
       <use x="83.7890625" xlink:href="#BitstreamVeraSans-Roman-31"/>
       <use x="147.412109375" xlink:href="#BitstreamVeraSans-Roman-2e"/>
       <use x="179.19921875" xlink:href="#BitstreamVeraSans-Roman-30"/>
      </g>
     </g>
    </g>
    <g id="ytick_2">
     <g id="line2d_19">
      <g>
       <use style="stroke:#000000;stroke-width:0.5;" x="72.0" xlink:href="#m9de4bf2380" y="294.545454545"/>
      </g>
     </g>
     <g id="line2d_20">
      <g>
       <use style="stroke:#000000;stroke-width:0.5;" x="518.4" xlink:href="#m908aedfc1b" y="294.545454545"/>
      </g>
     </g>
     <g id="text_10">
      <!-- −0.5 -->
      <defs>
       <path d="M 10.796875 72.90625 
L 49.515625 72.90625 
L 49.515625 64.59375 
L 19.828125 64.59375 
L 19.828125 46.734375 
Q 21.96875 47.46875 24.109375 47.828125 
Q 26.265625 48.1875 28.421875 48.1875 
Q 40.625 48.1875 47.75 41.5 
Q 54.890625 34.8125 54.890625 23.390625 
Q 54.890625 11.625 47.5625 5.09375 
Q 40.234375 -1.421875 26.90625 -1.421875 
Q 22.3125 -1.421875 17.546875 -0.640625 
Q 12.796875 0.140625 7.71875 1.703125 
L 7.71875 11.625 
Q 12.109375 9.234375 16.796875 8.0625 
Q 21.484375 6.890625 26.703125 6.890625 
Q 35.15625 6.890625 40.078125 11.328125 
Q 45.015625 15.765625 45.015625 23.390625 
Q 45.015625 31 40.078125 35.4375 
Q 35.15625 39.890625 26.703125 39.890625 
Q 22.75 39.890625 18.8125 39.015625 
Q 14.890625 38.140625 10.796875 36.28125 
z
" id="BitstreamVeraSans-Roman-35"/>
      </defs>
      <g transform="translate(38.860625 297.856704545)scale(0.12 -0.12)">
       <use xlink:href="#BitstreamVeraSans-Roman-2212"/>
       <use x="83.7890625" xlink:href="#BitstreamVeraSans-Roman-30"/>
       <use x="147.412109375" xlink:href="#BitstreamVeraSans-Roman-2e"/>
       <use x="179.19921875" xlink:href="#BitstreamVeraSans-Roman-35"/>
      </g>
     </g>
    </g>
    <g id="ytick_3">
     <g id="line2d_21">
      <g>
       <use style="stroke:#000000;stroke-width:0.5;" x="72.0" xlink:href="#m9de4bf2380" y="216.0"/>
      </g>
     </g>
     <g id="line2d_22">
      <g>
       <use style="stroke:#000000;stroke-width:0.5;" x="518.4" xlink:href="#m908aedfc1b" y="216.0"/>
      </g>
     </g>
     <g id="text_11">
      <!-- 0.0 -->
      <g transform="translate(48.91625 219.31125)scale(0.12 -0.12)">
       <use xlink:href="#BitstreamVeraSans-Roman-30"/>
       <use x="63.623046875" xlink:href="#BitstreamVeraSans-Roman-2e"/>
       <use x="95.41015625" xlink:href="#BitstreamVeraSans-Roman-30"/>
      </g>
     </g>
    </g>
    <g id="ytick_4">
     <g id="line2d_23">
      <g>
       <use style="stroke:#000000;stroke-width:0.5;" x="72.0" xlink:href="#m9de4bf2380" y="137.454545455"/>
      </g>
     </g>
     <g id="line2d_24">
      <g>
       <use style="stroke:#000000;stroke-width:0.5;" x="518.4" xlink:href="#m908aedfc1b" y="137.454545455"/>
      </g>
     </g>
     <g id="text_12">
      <!-- 0.5 -->
      <g transform="translate(48.91625 140.765795455)scale(0.12 -0.12)">
       <use xlink:href="#BitstreamVeraSans-Roman-30"/>
       <use x="63.623046875" xlink:href="#BitstreamVeraSans-Roman-2e"/>
       <use x="95.41015625" xlink:href="#BitstreamVeraSans-Roman-35"/>
      </g>
     </g>
    </g>
    <g id="ytick_5">
     <g id="line2d_25">
      <g>
       <use style="stroke:#000000;stroke-width:0.5;" x="72.0" xlink:href="#m9de4bf2380" y="58.9090909091"/>
      </g>
     </g>
     <g id="line2d_26">
      <g>
       <use style="stroke:#000000;stroke-width:0.5;" x="518.4" xlink:href="#m908aedfc1b" y="58.9090909091"/>
      </g>
     </g>
     <g id="text_13">
      <!-- 1.0 -->
      <g transform="translate(48.91625 62.2203409091)scale(0.12 -0.12)">
       <use xlink:href="#BitstreamVeraSans-Roman-31"/>
       <use x="63.623046875" xlink:href="#BitstreamVeraSans-Roman-2e"/>
       <use x="95.41015625" xlink:href="#BitstreamVeraSans-Roman-30"/>
      </g>
     </g>
    </g>
    <g id="text_14">
     <!-- Correlation value -->
     <defs>
      <path d="M 8.5 21.578125 
L 8.5 54.6875 
L 17.484375 54.6875 
L 17.484375 21.921875 
Q 17.484375 14.15625 20.5 10.265625 
Q 23.53125 6.390625 29.59375 6.390625 
Q 36.859375 6.390625 41.078125 11.03125 
Q 45.3125 15.671875 45.3125 23.6875 
L 45.3125 54.6875 
L 54.296875 54.6875 
L 54.296875 0 
L 45.3125 0 
L 45.3125 8.40625 
Q 42.046875 3.421875 37.71875 1 
Q 33.40625 -1.421875 27.6875 -1.421875 
Q 18.265625 -1.421875 13.375 4.4375 
Q 8.5 10.296875 8.5 21.578125 
" id="BitstreamVeraSans-Roman-75"/>
      <path d="M 9.421875 54.6875 
L 18.40625 54.6875 
L 18.40625 0 
L 9.421875 0 
z
M 9.421875 75.984375 
L 18.40625 75.984375 
L 18.40625 64.59375 
L 9.421875 64.59375 
z
" id="BitstreamVeraSans-Roman-69"/>
      <path d="M 18.3125 70.21875 
L 18.3125 54.6875 
L 36.8125 54.6875 
L 36.8125 47.703125 
L 18.3125 47.703125 
L 18.3125 18.015625 
Q 18.3125 11.328125 20.140625 9.421875 
Q 21.96875 7.515625 27.59375 7.515625 
L 36.8125 7.515625 
L 36.8125 0 
L 27.59375 0 
Q 17.1875 0 13.234375 3.875 
Q 9.28125 7.765625 9.28125 18.015625 
L 9.28125 47.703125 
L 2.6875 47.703125 
L 2.6875 54.6875 
L 9.28125 54.6875 
L 9.28125 70.21875 
z
" id="BitstreamVeraSans-Roman-74"/>
      <path d="M 30.609375 48.390625 
Q 23.390625 48.390625 19.1875 42.75 
Q 14.984375 37.109375 14.984375 27.296875 
Q 14.984375 17.484375 19.15625 11.84375 
Q 23.34375 6.203125 30.609375 6.203125 
Q 37.796875 6.203125 41.984375 11.859375 
Q 46.1875 17.53125 46.1875 27.296875 
Q 46.1875 37.015625 41.984375 42.703125 
Q 37.796875 48.390625 30.609375 48.390625 
M 30.609375 56 
Q 42.328125 56 49.015625 48.375 
Q 55.71875 40.765625 55.71875 27.296875 
Q 55.71875 13.875 49.015625 6.21875 
Q 42.328125 -1.421875 30.609375 -1.421875 
Q 18.84375 -1.421875 12.171875 6.21875 
Q 5.515625 13.875 5.515625 27.296875 
Q 5.515625 40.765625 12.171875 48.375 
Q 18.84375 56 30.609375 56 
" id="BitstreamVeraSans-Roman-6f"/>
      <path d="M 41.109375 46.296875 
Q 39.59375 47.171875 37.8125 47.578125 
Q 36.03125 48 33.890625 48 
Q 26.265625 48 22.1875 43.046875 
Q 18.109375 38.09375 18.109375 28.8125 
L 18.109375 0 
L 9.078125 0 
L 9.078125 54.6875 
L 18.109375 54.6875 
L 18.109375 46.1875 
Q 20.953125 51.171875 25.484375 53.578125 
Q 30.03125 56 36.53125 56 
Q 37.453125 56 38.578125 55.875 
Q 39.703125 55.765625 41.0625 55.515625 
z
" id="BitstreamVeraSans-Roman-72"/>
     </defs>
     <g transform="translate(31.365 267.6159375)rotate(-90.0)scale(0.12 -0.12)">
      <use xlink:href="#BitstreamVeraSans-Roman-43"/>
      <use x="69.82421875" xlink:href="#BitstreamVeraSans-Roman-6f"/>
      <use x="131.005859375" xlink:href="#BitstreamVeraSans-Roman-72"/>
      <use x="172.103515625" xlink:href="#BitstreamVeraSans-Roman-72"/>
      <use x="213.185546875" xlink:href="#BitstreamVeraSans-Roman-65"/>
      <use x="274.708984375" xlink:href="#BitstreamVeraSans-Roman-6c"/>
      <use x="302.4921875" xlink:href="#BitstreamVeraSans-Roman-61"/>
      <use x="363.771484375" xlink:href="#BitstreamVeraSans-Roman-74"/>
      <use x="402.98046875" xlink:href="#BitstreamVeraSans-Roman-69"/>
      <use x="430.763671875" xlink:href="#BitstreamVeraSans-Roman-6f"/>
      <use x="491.9453125" xlink:href="#BitstreamVeraSans-Roman-6e"/>
      <use x="555.32421875" xlink:href="#BitstreamVeraSans-Roman-20"/>
      <use x="587.111328125" xlink:href="#BitstreamVeraSans-Roman-76"/>
      <use x="646.291015625" xlink:href="#BitstreamVeraSans-Roman-61"/>
      <use x="707.5703125" xlink:href="#BitstreamVeraSans-Roman-6c"/>
      <use x="735.353515625" xlink:href="#BitstreamVeraSans-Roman-75"/>
      <use x="798.732421875" xlink:href="#BitstreamVeraSans-Roman-65"/>
     </g>
    </g>
   </g>
   <g id="text_15">
    <!-- Sorted Correlations between 2 Channels (5 second intervals) -->
    <defs>
     <path d="M 8.015625 75.875 
L 15.828125 75.875 
Q 23.140625 64.359375 26.78125 53.3125 
Q 30.421875 42.28125 30.421875 31.390625 
Q 30.421875 20.453125 26.78125 9.375 
Q 23.140625 -1.703125 15.828125 -13.1875 
L 8.015625 -13.1875 
Q 14.5 -2 17.703125 9.0625 
Q 20.90625 20.125 20.90625 31.390625 
Q 20.90625 42.671875 17.703125 53.65625 
Q 14.5 64.65625 8.015625 75.875 
" id="BitstreamVeraSans-Roman-29"/>
     <path d="M 31 75.875 
Q 24.46875 64.65625 21.28125 53.65625 
Q 18.109375 42.671875 18.109375 31.390625 
Q 18.109375 20.125 21.3125 9.0625 
Q 24.515625 -2 31 -13.1875 
L 23.1875 -13.1875 
Q 15.875 -1.703125 12.234375 9.375 
Q 8.59375 20.453125 8.59375 31.390625 
Q 8.59375 42.28125 12.203125 53.3125 
Q 15.828125 64.359375 23.1875 75.875 
z
" id="BitstreamVeraSans-Roman-28"/>
     <path d="M 53.515625 70.515625 
L 53.515625 60.890625 
Q 47.90625 63.578125 42.921875 64.890625 
Q 37.9375 66.21875 33.296875 66.21875 
Q 25.25 66.21875 20.875 63.09375 
Q 16.5 59.96875 16.5 54.203125 
Q 16.5 49.359375 19.40625 46.890625 
Q 22.3125 44.4375 30.421875 42.921875 
L 36.375 41.703125 
Q 47.40625 39.59375 52.65625 34.296875 
Q 57.90625 29 57.90625 20.125 
Q 57.90625 9.515625 50.796875 4.046875 
Q 43.703125 -1.421875 29.984375 -1.421875 
Q 24.8125 -1.421875 18.96875 -0.25 
Q 13.140625 0.921875 6.890625 3.21875 
L 6.890625 13.375 
Q 12.890625 10.015625 18.65625 8.296875 
Q 24.421875 6.59375 29.984375 6.59375 
Q 38.421875 6.59375 43.015625 9.90625 
Q 47.609375 13.234375 47.609375 19.390625 
Q 47.609375 24.75 44.3125 27.78125 
Q 41.015625 30.8125 33.5 32.328125 
L 27.484375 33.5 
Q 16.453125 35.6875 11.515625 40.375 
Q 6.59375 45.0625 6.59375 53.421875 
Q 6.59375 63.09375 13.40625 68.65625 
Q 20.21875 74.21875 32.171875 74.21875 
Q 37.3125 74.21875 42.625 73.28125 
Q 47.953125 72.359375 53.515625 70.515625 
" id="BitstreamVeraSans-Roman-53"/>
     <path d="M 4.203125 54.6875 
L 13.1875 54.6875 
L 24.421875 12.015625 
L 35.59375 54.6875 
L 46.1875 54.6875 
L 57.421875 12.015625 
L 68.609375 54.6875 
L 77.59375 54.6875 
L 63.28125 0 
L 52.6875 0 
L 40.921875 44.828125 
L 29.109375 0 
L 18.5 0 
z
" id="BitstreamVeraSans-Roman-77"/>
     <path d="M 45.40625 46.390625 
L 45.40625 75.984375 
L 54.390625 75.984375 
L 54.390625 0 
L 45.40625 0 
L 45.40625 8.203125 
Q 42.578125 3.328125 38.25 0.953125 
Q 33.9375 -1.421875 27.875 -1.421875 
Q 17.96875 -1.421875 11.734375 6.484375 
Q 5.515625 14.40625 5.515625 27.296875 
Q 5.515625 40.1875 11.734375 48.09375 
Q 17.96875 56 27.875 56 
Q 33.9375 56 38.25 53.625 
Q 42.578125 51.265625 45.40625 46.390625 
M 14.796875 27.296875 
Q 14.796875 17.390625 18.875 11.75 
Q 22.953125 6.109375 30.078125 6.109375 
Q 37.203125 6.109375 41.296875 11.75 
Q 45.40625 17.390625 45.40625 27.296875 
Q 45.40625 37.203125 41.296875 42.84375 
Q 37.203125 48.484375 30.078125 48.484375 
Q 22.953125 48.484375 18.875 42.84375 
Q 14.796875 37.203125 14.796875 27.296875 
" id="BitstreamVeraSans-Roman-64"/>
     <path d="M 48.78125 52.59375 
L 48.78125 44.1875 
Q 44.96875 46.296875 41.140625 47.34375 
Q 37.3125 48.390625 33.40625 48.390625 
Q 24.65625 48.390625 19.8125 42.84375 
Q 14.984375 37.3125 14.984375 27.296875 
Q 14.984375 17.28125 19.8125 11.734375 
Q 24.65625 6.203125 33.40625 6.203125 
Q 37.3125 6.203125 41.140625 7.25 
Q 44.96875 8.296875 48.78125 10.40625 
L 48.78125 2.09375 
Q 45.015625 0.34375 40.984375 -0.53125 
Q 36.96875 -1.421875 32.421875 -1.421875 
Q 20.0625 -1.421875 12.78125 6.34375 
Q 5.515625 14.109375 5.515625 27.296875 
Q 5.515625 40.671875 12.859375 48.328125 
Q 20.21875 56 33.015625 56 
Q 37.15625 56 41.109375 55.140625 
Q 45.0625 54.296875 48.78125 52.59375 
" id="BitstreamVeraSans-Roman-63"/>
     <path d="M 48.6875 27.296875 
Q 48.6875 37.203125 44.609375 42.84375 
Q 40.53125 48.484375 33.40625 48.484375 
Q 26.265625 48.484375 22.1875 42.84375 
Q 18.109375 37.203125 18.109375 27.296875 
Q 18.109375 17.390625 22.1875 11.75 
Q 26.265625 6.109375 33.40625 6.109375 
Q 40.53125 6.109375 44.609375 11.75 
Q 48.6875 17.390625 48.6875 27.296875 
M 18.109375 46.390625 
Q 20.953125 51.265625 25.265625 53.625 
Q 29.59375 56 35.59375 56 
Q 45.5625 56 51.78125 48.09375 
Q 58.015625 40.1875 58.015625 27.296875 
Q 58.015625 14.40625 51.78125 6.484375 
Q 45.5625 -1.421875 35.59375 -1.421875 
Q 29.59375 -1.421875 25.265625 0.953125 
Q 20.953125 3.328125 18.109375 8.203125 
L 18.109375 0 
L 9.078125 0 
L 9.078125 75.984375 
L 18.109375 75.984375 
z
" id="BitstreamVeraSans-Roman-62"/>
    </defs>
    <g transform="translate(75.582 38.2)scale(0.144 -0.144)">
     <use xlink:href="#BitstreamVeraSans-Roman-53"/>
     <use x="63.4765625" xlink:href="#BitstreamVeraSans-Roman-6f"/>
     <use x="124.658203125" xlink:href="#BitstreamVeraSans-Roman-72"/>
     <use x="165.771484375" xlink:href="#BitstreamVeraSans-Roman-74"/>
     <use x="204.98046875" xlink:href="#BitstreamVeraSans-Roman-65"/>
     <use x="266.50390625" xlink:href="#BitstreamVeraSans-Roman-64"/>
     <use x="329.98046875" xlink:href="#BitstreamVeraSans-Roman-20"/>
     <use x="361.767578125" xlink:href="#BitstreamVeraSans-Roman-43"/>
     <use x="431.591796875" xlink:href="#BitstreamVeraSans-Roman-6f"/>
     <use x="492.7734375" xlink:href="#BitstreamVeraSans-Roman-72"/>
     <use x="533.87109375" xlink:href="#BitstreamVeraSans-Roman-72"/>
     <use x="574.953125" xlink:href="#BitstreamVeraSans-Roman-65"/>
     <use x="636.4765625" xlink:href="#BitstreamVeraSans-Roman-6c"/>
     <use x="664.259765625" xlink:href="#BitstreamVeraSans-Roman-61"/>
     <use x="725.5390625" xlink:href="#BitstreamVeraSans-Roman-74"/>
     <use x="764.748046875" xlink:href="#BitstreamVeraSans-Roman-69"/>
     <use x="792.53125" xlink:href="#BitstreamVeraSans-Roman-6f"/>
     <use x="853.712890625" xlink:href="#BitstreamVeraSans-Roman-6e"/>
     <use x="917.091796875" xlink:href="#BitstreamVeraSans-Roman-73"/>
     <use x="969.19140625" xlink:href="#BitstreamVeraSans-Roman-20"/>
     <use x="1000.97851562" xlink:href="#BitstreamVeraSans-Roman-62"/>
     <use x="1064.45507812" xlink:href="#BitstreamVeraSans-Roman-65"/>
     <use x="1125.97851562" xlink:href="#BitstreamVeraSans-Roman-74"/>
     <use x="1165.1875" xlink:href="#BitstreamVeraSans-Roman-77"/>
     <use x="1246.97460938" xlink:href="#BitstreamVeraSans-Roman-65"/>
     <use x="1308.49804688" xlink:href="#BitstreamVeraSans-Roman-65"/>
     <use x="1370.02148438" xlink:href="#BitstreamVeraSans-Roman-6e"/>
     <use x="1433.40039062" xlink:href="#BitstreamVeraSans-Roman-20"/>
     <use x="1465.1875" xlink:href="#BitstreamVeraSans-Roman-32"/>
     <use x="1528.81054688" xlink:href="#BitstreamVeraSans-Roman-20"/>
     <use x="1560.59765625" xlink:href="#BitstreamVeraSans-Roman-43"/>
     <use x="1630.421875" xlink:href="#BitstreamVeraSans-Roman-68"/>
     <use x="1693.80078125" xlink:href="#BitstreamVeraSans-Roman-61"/>
     <use x="1755.08007812" xlink:href="#BitstreamVeraSans-Roman-6e"/>
     <use x="1818.45898438" xlink:href="#BitstreamVeraSans-Roman-6e"/>
     <use x="1881.83789062" xlink:href="#BitstreamVeraSans-Roman-65"/>
     <use x="1943.36132812" xlink:href="#BitstreamVeraSans-Roman-6c"/>
     <use x="1971.14453125" xlink:href="#BitstreamVeraSans-Roman-73"/>
     <use x="2023.24414062" xlink:href="#BitstreamVeraSans-Roman-20"/>
     <use x="2055.03125" xlink:href="#BitstreamVeraSans-Roman-28"/>
     <use x="2094.04492188" xlink:href="#BitstreamVeraSans-Roman-35"/>
     <use x="2157.66796875" xlink:href="#BitstreamVeraSans-Roman-20"/>
     <use x="2189.45507812" xlink:href="#BitstreamVeraSans-Roman-73"/>
     <use x="2241.5546875" xlink:href="#BitstreamVeraSans-Roman-65"/>
     <use x="2303.078125" xlink:href="#BitstreamVeraSans-Roman-63"/>
     <use x="2358.05859375" xlink:href="#BitstreamVeraSans-Roman-6f"/>
     <use x="2419.24023438" xlink:href="#BitstreamVeraSans-Roman-6e"/>
     <use x="2482.61914062" xlink:href="#BitstreamVeraSans-Roman-64"/>
     <use x="2546.09570312" xlink:href="#BitstreamVeraSans-Roman-20"/>
     <use x="2577.8828125" xlink:href="#BitstreamVeraSans-Roman-69"/>
     <use x="2605.66601562" xlink:href="#BitstreamVeraSans-Roman-6e"/>
     <use x="2669.04492188" xlink:href="#BitstreamVeraSans-Roman-74"/>
     <use x="2708.25390625" xlink:href="#BitstreamVeraSans-Roman-65"/>
     <use x="2769.77734375" xlink:href="#BitstreamVeraSans-Roman-72"/>
     <use x="2810.890625" xlink:href="#BitstreamVeraSans-Roman-76"/>
     <use x="2870.0703125" xlink:href="#BitstreamVeraSans-Roman-61"/>
     <use x="2931.34960938" xlink:href="#BitstreamVeraSans-Roman-6c"/>
     <use x="2959.1328125" xlink:href="#BitstreamVeraSans-Roman-73"/>
     <use x="3011.23242188" xlink:href="#BitstreamVeraSans-Roman-29"/>
    </g>
   </g>
  </g>
 </g>
 <defs>
  <clipPath id="pdab8fec1eb">
   <rect height="345.6" width="446.4" x="72.0" y="43.2"/>
  </clipPath>
 </defs>
</svg>
