<?xml version="1.0" encoding="utf-8" standalone="no"?>
<!DOCTYPE svg PUBLIC "-//W3C//DTD SVG 1.1//EN"
  "http://www.w3.org/Graphics/SVG/1.1/DTD/svg11.dtd">
<!-- Created with matplotlib (http://matplotlib.org/) -->
<svg height="432pt" version="1.1" viewBox="0 0 576 432" width="576pt" xmlns="http://www.w3.org/2000/svg" xmlns:xlink="http://www.w3.org/1999/xlink">
 <defs>
  <style type="text/css">
*{stroke-linecap:butt;stroke-linejoin:round;stroke-miterlimit:100000;}
  </style>
 </defs>
 <g id="figure_1">
  <g id="patch_1">
   <path d="M 0 432 
L 576 432 
L 576 0 
L 0 0 
z
" style="fill:#ffffff;"/>
  </g>
  <g id="axes_1">
   <g id="patch_2">
    <path d="M 72 388.8 
L 518.4 388.8 
L 518.4 43.2 
L 72 43.2 
z
" style="fill:#ffffff;"/>
   </g>
   <g id="line2d_1">
    <path clip-path="url(#p941e565cc9)" d="M 72.00401 388.798151 
L 74.233544 387.676345 
L 75.312221 387.156899 
L 75.460589 387.080855 
L 75.753316 386.931134 
L 76.038023 386.803121 
L 76.346789 386.656804 
L 77.798392 385.842065 
L 78.431965 385.538846 
L 78.744741 385.387615 
L 78.941229 385.313656 
L 80.296593 384.576325 
L 80.456991 384.472514 
L 80.789817 384.287296 
L 81.026404 384.149022 
L 81.40735 383.930879 
L 81.647947 383.816728 
L 81.832405 383.715476 
L 82.141171 383.576458 
L 82.526127 383.362027 
L 82.826873 383.168446 
L 83.09153 383.040863 
L 83.640894 382.705085 
L 84.246397 382.436295 
L 84.663432 382.220797 
L 84.908039 382.089355 
L 85.264925 381.91245 
L 90.361575 378.915185 
L 90.558063 378.792383 
L 90.842769 378.644808 
L 91.64476 378.225473 
L 91.849267 378.085436 
L 92.121944 377.906079 
L 93.096363 377.265572 
L 93.248741 377.182365 
L 93.489338 377.059023 
L 93.878304 376.773235 
L 95.815111 375.630334 
L 96.019619 375.49458 
L 96.220116 375.348695 
L 96.420614 375.202931 
L 96.986017 374.881504 
L 97.218595 374.754666 
L 97.63964 374.483823 
L 98.024595 374.22404 
L 99.051143 373.610303 
L 99.231591 373.471778 
L 99.640606 373.221091 
L 99.788974 373.087677 
L 99.969422 372.982233 
L 100.711264 372.535788 
L 100.931811 372.384866 
L 101.216518 372.228527 
L 101.605483 371.998546 
L 101.805981 371.870824 
L 102.467623 371.498739 
L 102.71223 371.384781 
L 103.093176 371.158062 
L 103.245554 371.060944 
L 103.438032 370.964893 
L 103.754818 370.739129 
L 103.891156 370.66092 
L 104.127744 370.51367 
L 104.536759 370.291826 
L 104.697157 370.183963 
L 104.885625 370.080604 
L 105.206421 369.901035 
L 107.387835 368.506985 
L 107.608383 368.382179 
L 109.176274 367.473208 
L 109.344692 367.340698 
L 109.54519 367.187834 
L 109.689548 367.074165 
L 109.882026 366.961718 
L 110.090544 366.809756 
L 110.495549 366.599391 
L 111.542147 365.941865 
L 111.722595 365.822353 
L 111.987252 365.669667 
L 112.187749 365.559698 
L 112.444386 365.410988 
L 112.648894 365.299502 
L 113.86391 364.484663 
L 114.212775 364.228016 
L 114.577681 364.005054 
L 114.750109 363.886644 
L 115.247343 363.551415 
L 115.427791 363.447271 
L 115.648339 363.325344 
L 116.061364 363.052555 
L 116.37013 362.859296 
L 116.502459 362.778152 
L 117.424748 362.263138 
L 117.765594 362.039253 
L 128.644596 355.192819 
L 128.929303 354.987274 
L 129.502726 354.679872 
L 129.747333 354.521627 
L 129.931791 354.398892 
L 131.371364 353.416906 
L 131.551812 353.280676 
L 131.688151 353.195843 
L 131.864589 353.088444 
L 132.012957 352.977057 
L 132.241524 352.818291 
L 132.446032 352.657233 
L 132.810938 352.400462 
L 132.983366 352.258428 
L 136.455985 349.988971 
L 136.608363 349.877792 
L 136.764751 349.762761 
L 138.805817 348.446629 
L 138.930126 348.379964 
L 139.583748 347.984356 
L 139.740136 347.821284 
L 153.361947 338.314469 
L 153.586504 338.173542 
L 153.879231 337.962666 
L 156.646098 336.043383 
L 156.842586 335.898222 
L 157.002984 335.777204 
L 157.440069 335.462623 
L 157.580417 335.354072 
L 158.258099 334.895456 
L 158.546816 334.732066 
L 158.691174 334.614608 
L 159.03202 334.409327 
L 159.216478 334.271101 
L 160.214956 333.604493 
L 160.455554 333.400056 
L 161.113186 332.977505 
L 161.60641 332.615448 
L 161.746759 332.507386 
L 161.975326 332.356884 
L 162.139734 332.245706 
L 162.352261 332.103551 
L 162.576819 331.944784 
L 162.821426 331.758878 
L 163.31866 331.442429 
L 166.554692 329.147791 
L 166.75519 328.993527 
L 167.055936 328.737722 
L 167.352673 328.485278 
L 167.56119 328.335486 
L 167.825847 328.128726 
L 168.218823 327.849743 
L 168.47947 327.696904 
L 168.675957 327.507666 
L 168.928584 327.352062 
L 169.177201 327.198213 
L 169.602256 326.933796 
L 169.903003 326.723315 
L 172.858338 324.500594 
L 173.010717 324.345901 
L 173.155075 324.239032 
L 173.327503 324.136167 
L 173.475871 324.042825 
L 175.364559 322.666711 
L 175.528967 322.546405 
L 175.705405 322.430232 
L 175.954022 322.241654 
L 176.776062 321.607161 
L 176.96052 321.466094 
L 177.245227 321.269641 
L 177.437705 321.136457 
L 177.995088 320.746437 
L 178.307865 320.494047 
L 178.588561 320.327981 
L 182.99951 317.027623 
L 183.224067 316.894129 
L 183.384465 316.778592 
L 183.580953 316.665562 
L 183.737341 316.521195 
L 183.909769 316.399455 
L 184.106257 316.2332 
L 184.619531 315.86689 
L 184.787949 315.756164 
L 184.948347 315.646196 
L 185.112755 315.504591 
L 185.269143 315.37857 
L 185.593949 315.158688 
L 186.34381 314.623819 
L 186.536288 314.479073 
L 192.976273 309.709603 
L 193.17677 309.55906 
L 193.425387 309.371554 
L 194.295547 308.757183 
L 194.512085 308.630375 
L 194.708572 308.486108 
L 200.972119 303.960817 
L 201.252816 303.758443 
L 201.457323 303.60088 
L 202.239264 303.042607 
L 202.391642 302.911075 
L 202.965066 302.512267 
L 203.129474 302.380963 
L 203.42621 302.124816 
L 203.674827 301.946927 
L 203.835225 301.856114 
L 204.388599 301.446973 
L 204.573057 301.305231 
L 205.250739 300.85115 
L 205.563515 300.620813 
L 206.537934 299.881619 
L 206.690312 299.759099 
L 207.043188 299.495349 
L 207.339924 299.300663 
L 209.773966 297.575624 
L 209.942384 297.435764 
L 210.215061 297.200871 
L 210.760414 296.80575 
L 210.964922 296.643599 
L 211.209529 296.5077 
L 211.377947 296.371039 
L 212.889699 295.29556 
L 213.034058 295.183613 
L 213.206486 295.071865 
L 213.419013 294.91276 
L 214.020506 294.545095 
L 214.229024 294.367902 
L 214.413481 294.228071 
L 214.621999 294.101869 
L 214.974875 293.801877 
L 215.460079 293.479416 
L 216.065582 292.977677 
L 216.398408 292.723882 
L 216.574846 292.582469 
L 216.787374 292.426381 
L 217.08411 292.212187 
L 217.256538 292.103885 
L 217.705653 291.768563 
L 217.96229 291.586445 
L 219.445973 290.548384 
L 219.782809 290.298579 
L 219.927167 290.205132 
L 220.580789 289.751092 
L 220.773267 289.575918 
L 221.102083 289.358403 
L 221.984273 288.755017 
L 222.1968 288.634757 
L 222.357198 288.545652 
L 222.657945 288.324524 
L 222.858443 288.171852 
L 223.684493 287.594747 
L 223.832861 287.481663 
L 223.981229 287.376898 
L 224.141628 287.281447 
L 224.935598 286.697412 
L 225.075947 286.606478 
L 225.396743 286.427785 
L 225.537091 286.316921 
L 226.339082 285.773161 
L 226.535569 285.645944 
L 227.000724 285.293361 
L 227.253351 285.118835 
L 227.409739 285.04207 
L 227.566127 284.934837 
L 227.734545 284.769384 
L 228.023262 284.497541 
L 228.488417 284.203787 
L 228.869362 283.962012 
L 229.125999 283.770874 
L 230.625722 282.576774 
L 230.78612 282.461585 
L 231.223205 282.19838 
L 231.363553 282.084612 
L 231.896877 281.663697 
L 232.029205 281.553313 
L 232.43421 281.271285 
L 233.34848 280.63281 
L 233.536947 280.507761 
L 233.797594 280.305219 
L 233.957993 280.178508 
L 234.523396 279.797079 
L 234.719884 279.665677 
L 244.985363 272.048457 
L 245.129722 271.92718 
L 246.324688 271.096008 
L 246.665534 270.850776 
L 246.918161 270.701944 
L 247.162768 270.561488 
L 247.423415 270.39287 
L 249.55671 268.87255 
L 249.837406 268.635934 
L 250.057954 268.516036 
L 250.210332 268.403553 
L 250.36271 268.279408 
L 250.904054 267.8987 
L 251.168711 267.715642 
L 251.341139 267.56663 
L 251.561686 267.421363 
L 253.121558 266.266662 
L 253.358145 266.132785 
L 253.522553 266.048862 
L 254.152116 265.614493 
L 254.432813 265.441399 
L 254.877917 265.114315 
L 255.034306 264.998171 
L 255.194704 264.840187 
L 256.149073 264.13011 
L 261.221663 260.597314 
L 261.402111 260.458386 
L 261.52642 260.34936 
L 261.666768 260.235024 
L 261.779047 260.118993 
L 261.967514 260.001254 
L 262.147962 259.892349 
L 263.479267 258.950559 
L 263.647685 258.840325 
L 263.884272 258.69138 
L 264.249178 258.442626 
L 264.537894 258.276451 
L 264.714332 258.154611 
L 265.103298 257.886158 
L 265.291765 257.714117 
L 265.520333 257.524441 
L 271.908188 252.915553 
L 272.854537 252.245923 
L 273.002905 252.143618 
L 273.171323 252.034243 
L 273.375831 251.904972 
L 273.700637 251.698216 
L 274.085592 251.419487 
L 274.951742 250.820399 
L 275.16828 250.675702 
L 275.376797 250.528272 
L 275.561255 250.409766 
L 275.845962 250.228157 
L 276.258987 249.952165 
L 276.744191 249.626157 
L 277.036918 249.420199 
L 277.249445 249.273181 
L 277.498062 249.122191 
L 277.67851 248.988145 
L 279.491009 247.864433 
L 279.663437 247.739179 
L 279.871955 247.613897 
L 280.461418 247.264208 
L 280.657905 247.125503 
L 280.906522 246.973836 
L 281.099 246.831589 
L 281.379697 246.679629 
L 282.137578 246.194108 
L 282.362135 246.072958 
L 282.670902 245.835242 
L 282.903479 245.6377 
L 283.067887 245.485836 
L 283.304474 245.311113 
L 283.777649 245.036204 
L 284.130525 244.803161 
L 285.806685 243.576751 
L 286.179611 243.308196 
L 292.146421 238.839441 
L 292.338899 238.700711 
L 292.619595 238.533813 
L 295.839588 236.324978 
L 295.991966 236.20834 
L 296.204493 236.00948 
L 296.613508 235.711095 
L 296.838066 235.531291 
L 297.086683 235.371899 
L 299.139779 233.985266 
L 299.292157 233.874282 
L 299.496665 233.738422 
L 300.005929 233.326065 
L 301.265054 232.495833 
L 303.097602 231.235606 
L 303.26602 231.09623 
L 303.763255 230.778037 
L 303.979792 230.640361 
L 304.456977 230.275521 
L 304.709604 230.08399 
L 304.865992 229.958167 
L 305.03842 229.761295 
L 305.178768 229.661209 
L 306.125117 228.998439 
L 306.269475 228.900162 
L 306.826859 228.520404 
L 308.094004 227.549787 
L 308.322571 227.367376 
L 310.16715 226.049211 
L 310.323538 225.933309 
L 310.632304 225.671332 
L 311.069389 225.417514 
L 311.213747 225.312385 
L 311.490434 225.156786 
L 311.690932 225.021821 
L 311.975638 224.855361 
L 312.208216 224.655962 
L 312.404703 224.518783 
L 312.601191 224.382862 
L 312.801689 224.241813 
L 312.950057 224.159678 
L 313.230754 223.958079 
L 313.459321 223.804747 
L 314.505919 223.118148 
L 314.934984 222.802415 
L 315.079342 222.684551 
L 315.25979 222.563941 
L 315.720935 222.258018 
L 315.929452 222.139455 
L 316.08985 222.043091 
L 316.863771 221.550552 
L 317.216647 221.296148 
L 317.441204 221.154742 
L 317.605612 221.043561 
L 317.749971 220.92609 
L 318.319384 220.504089 
L 319.193554 219.823454 
L 319.51836 219.602129 
L 321.595516 218.17625 
L 321.731854 218.039468 
L 322.04864 217.774595 
L 322.425576 217.552715 
L 323.363905 216.921968 
L 323.580442 216.787374 
L 323.82906 216.581029 
L 324.101736 216.429333 
L 324.763379 215.915504 
L 324.999966 215.783873 
L 325.248583 215.591882 
L 326.275131 215.026511 
L 326.399439 214.908458 
L 326.591917 214.777827 
L 326.812465 214.639872 
L 326.976873 214.523212 
L 327.149301 214.402315 
L 327.301679 214.305147 
L 327.550296 214.15968 
L 327.730744 214.016924 
L 327.923222 213.874009 
L 328.10367 213.748737 
L 328.424466 213.557282 
L 329.017939 213.198055 
L 329.226456 213.030134 
L 329.386854 212.887148 
L 329.555272 212.763826 
L 329.968298 212.502619 
L 330.261024 212.330122 
L 330.902617 211.939912 
L 331.119154 211.797952 
L 331.728667 211.409864 
L 331.965254 211.278411 
L 332.165752 211.117603 
L 332.422389 210.949062 
L 332.642936 210.789389 
L 332.895563 210.617294 
L 333.264479 210.378679 
L 333.424877 210.243597 
L 334.01434 209.803158 
L 334.639893 209.371274 
L 334.820341 209.252868 
L 335.000789 209.122289 
L 335.237376 208.970152 
L 335.369704 208.860144 
L 335.963177 208.422642 
L 336.143625 208.290621 
L 336.428332 208.07886 
L 336.60076 207.952221 
L 336.757148 207.808377 
L 337.43082 207.323028 
L 337.675427 207.173263 
L 337.807756 207.069734 
L 338.236821 206.775195 
L 338.714005 206.439453 
L 339.957091 205.541614 
L 340.125509 205.424696 
L 340.8473 204.99264 
L 341.144037 204.832366 
L 341.356564 204.676323 
L 343.157033 203.366117 
L 343.377581 203.223491 
L 344.30388 202.598965 
L 344.504377 202.428997 
L 344.664775 202.31864 
L 345.013641 202.109162 
L 345.16602 201.972274 
L 345.386567 201.833821 
L 345.538945 201.710801 
L 345.715383 201.578058 
L 345.911871 201.425937 
L 346.116378 201.274464 
L 348.626609 199.63228 
L 348.787007 199.495468 
L 350.407028 198.462575 
L 350.583466 198.336595 
L 351.826552 197.531547 
L 352.023039 197.413081 
L 352.307746 197.228473 
L 354.629509 195.578569 
L 354.821986 195.447686 
L 355.062584 195.262363 
L 356.077102 194.601171 
L 356.345769 194.434879 
L 356.566316 194.286542 
L 357.183849 193.857964 
L 357.396376 193.713325 
L 357.528705 193.610418 
L 358.715651 192.762544 
L 358.916149 192.59749 
L 359.084567 192.486798 
L 359.922647 191.862859 
L 360.087055 191.756702 
L 360.299582 191.596192 
L 360.941175 191.201564 
L 361.125633 191.074808 
L 361.3542 190.953934 
L 364.393744 188.71899 
L 364.598252 188.565653 
L 364.814789 188.432538 
L 365.139596 188.211094 
L 366.944074 186.978217 
L 367.33705 186.749435 
L 367.846314 186.391869 
L 368.034782 186.256321 
L 368.21523 186.110047 
L 368.455827 185.923508 
L 368.937021 185.582597 
L 371.086356 184.186984 
L 371.254774 184.076749 
L 371.439232 183.952832 
L 376.876728 180.032679 
L 377.205544 179.758806 
L 378.360411 179.010023 
L 378.544869 178.849875 
L 378.789476 178.684101 
L 378.993983 178.532456 
L 379.222551 178.374152 
L 381.027029 177.062301 
L 381.315746 176.882743 
L 381.993428 176.395193 
L 382.173876 176.277417 
L 382.334274 176.143233 
L 382.639031 175.937427 
L 383.056066 175.635122 
L 383.236514 175.517384 
L 383.404932 175.388426 
L 383.641519 175.26497 
L 383.950285 175.075561 
L 384.142763 174.94347 
L 384.499649 174.710939 
L 384.904654 174.418249 
L 385.157281 174.254283 
L 386.416406 173.421951 
L 386.548735 173.31696 
L 386.737203 173.136228 
L 387.049979 172.936272 
L 387.366765 172.698443 
L 387.555233 172.581922 
L 387.723651 172.498149 
L 387.900089 172.354435 
L 388.236925 172.097833 
L 388.561731 171.910084 
L 388.818368 171.705197 
L 389.002826 171.551816 
L 389.223373 171.395181 
L 389.49204 171.220836 
L 389.684518 171.059846 
L 389.925115 170.916577 
L 391.376718 169.979311 
L 391.529096 169.863801 
L 391.769694 169.691702 
L 392.210788 169.419726 
L 392.395246 169.29194 
L 392.555644 169.167454 
L 392.800252 168.98386 
L 392.92857 168.871025 
L 393.129068 168.741986 
L 393.297486 168.621162 
L 393.485953 168.472857 
L 393.890959 168.22382 
L 394.103486 168.028713 
L 394.536561 167.756521 
L 394.717009 167.64709 
L 394.957606 167.488525 
L 395.154094 167.360179 
L 401.096844 163.054558 
L 401.297342 162.942859 
L 401.46576 162.819924 
L 401.958984 162.481746 
L 403.057711 161.693942 
L 403.434647 161.434822 
L 403.566975 161.320859 
L 403.947921 161.009979 
L 404.220598 160.833784 
L 407.961884 158.055858 
L 408.142332 157.914844 
L 408.350849 157.786917 
L 410.432015 156.318152 
L 410.604443 156.210047 
L 410.829 156.029863 
L 411.025488 155.882511 
L 411.270095 155.699104 
L 411.554802 155.516267 
L 411.815449 155.313502 
L 411.983867 155.198187 
L 412.124215 155.079669 
L 412.280603 154.966019 
L 412.54927 154.787039 
L 414.714645 153.321879 
L 414.883063 153.169671 
L 415.384307 152.826117 
L 415.665004 152.640741 
L 416.8319 151.915022 
L 417.449433 151.496609 
L 417.589781 151.386232 
L 418.119095 151.024979 
L 418.251423 150.910974 
L 418.640389 150.608057 
L 418.889006 150.458119 
L 419.121583 150.280875 
L 419.939614 149.661343 
L 420.108032 149.52522 
L 420.464917 149.312149 
L 421.186709 148.81817 
L 421.691963 148.500542 
L 421.848351 148.38545 
L 423.404213 147.274554 
L 424.009716 146.800908 
L 424.310462 146.599443 
L 424.446801 146.499751 
L 424.663338 146.371289 
L 425.072353 146.087249 
L 425.208692 145.963747 
L 425.629737 145.62797 
L 432.935871 140.342368 
L 433.429096 140.00303 
L 433.785981 139.774304 
L 433.974449 139.646026 
L 434.471683 139.283459 
L 434.640101 139.146604 
L 434.868669 138.983781 
L 435.029067 138.873028 
L 435.233574 138.726297 
L 435.706749 138.344399 
L 435.931306 138.190316 
L 436.107744 138.074692 
L 436.324282 137.928423 
L 436.749337 137.593551 
L 437.31474 137.20923 
L 444.316118 131.973386 
L 444.576765 131.781086 
L 444.821372 131.597719 
L 445.138158 131.337575 
L 445.318606 131.212992 
L 445.479004 131.081347 
L 445.627373 130.965306 
L 446.108567 130.597389 
L 446.272975 130.492623 
L 446.533622 130.255121 
L 447.207294 129.708097 
L 447.54012 129.472582 
L 447.728588 129.303522 
L 447.993245 129.067395 
L 448.306021 128.849492 
L 449.316529 128.014305 
L 449.456878 127.906067 
L 449.625296 127.778295 
L 449.990201 127.469419 
L 450.162629 127.339119 
L 450.335057 127.158222 
L 450.515505 127.032853 
L 450.679913 126.899487 
L 466.37487 114.780943 
L 466.827994 114.487264 
L 467.004432 114.351389 
L 467.232999 114.211544 
L 467.553796 114.001239 
L 467.786373 113.856731 
L 468.283607 113.54646 
L 468.431975 113.397008 
L 469.703131 112.534528 
L 469.847489 112.388287 
L 470.910126 111.695777 
L 471.074534 111.556216 
L 471.327162 111.383384 
L 471.515629 111.274823 
L 471.692067 111.126616 
L 471.956724 110.912636 
L 472.602327 110.405803 
L 472.734655 110.297248 
L 472.875003 110.186891 
L 473.19179 109.954513 
L 474.065959 109.290129 
L 474.567204 108.91892 
L 474.807801 108.752774 
L 475.016318 108.594676 
L 475.252906 108.440149 
L 475.393254 108.301317 
L 475.549642 108.195301 
L 477.382191 106.913994 
L 477.510509 106.77131 
L 478.881913 105.732964 
L 479.030281 105.626842 
L 479.186669 105.52096 
L 480.036779 104.933104 
L 480.177128 104.840944 
L 480.385645 104.703317 
L 480.606193 104.506557 
L 480.80268 104.384331 
L 480.951049 104.290312 
L 481.119467 104.164226 
L 481.532492 103.877695 
L 481.72898 103.74663 
L 481.905418 103.618333 
L 482.186114 103.401259 
L 484.114902 102.009752 
L 484.327429 101.899702 
L 484.852733 101.57029 
L 485.053231 101.42262 
L 485.289818 101.263007 
L 486.312356 100.471249 
L 486.540923 100.325217 
L 486.82563 100.123322 
L 487.022118 99.99512 
L 487.459203 99.719038 
L 487.65168 99.603713 
L 487.908317 99.402822 
L 488.273223 99.139615 
L 488.449661 99.007813 
L 489.171452 98.487202 
L 489.327841 98.36094 
L 489.540368 98.244002 
L 491.216528 97.105478 
L 491.741832 96.740464 
L 491.890201 96.638945 
L 492.644072 96.077303 
L 493.081157 95.735769 
L 493.293684 95.578813 
L 493.790918 95.212273 
L 494.48063 94.734516 
L 494.713208 94.552156 
L 494.901675 94.399748 
L 498.951728 91.478341 
L 499.188315 91.312507 
L 499.396833 91.136419 
L 499.549211 91.026745 
L 499.689559 90.884351 
L 500.098574 90.573387 
L 500.246943 90.458679 
L 500.427391 90.347148 
L 505.816767 86.160998 
L 506.121524 85.913531 
L 506.249842 85.798949 
L 507.380649 84.688437 
L 507.541047 84.559469 
L 507.689415 84.453463 
L 508.026252 84.125427 
L 508.222739 83.938545 
L 508.487396 83.696325 
L 508.635764 83.596909 
L 509.00067 83.300075 
L 509.169088 83.096777 
L 509.337506 82.982874 
L 509.690382 82.671874 
L 509.87885 82.494132 
L 510.059298 82.298808 
L 510.488363 81.950283 
L 510.69287 81.786456 
L 510.905398 81.539587 
L 511.057776 81.404441 
L 511.238224 81.240882 
L 512.244722 80.184174 
L 512.489329 79.916167 
L 512.569528 79.801677 
L 512.886315 79.372356 
L 513.102852 79.107701 
L 513.27929 78.872444 
L 513.543947 78.64409 
L 513.836673 78.334585 
L 513.956972 78.219238 
L 514.329898 77.851968 
L 514.871241 77.279968 
L 515.035649 77.150396 
L 515.276247 76.951036 
L 516.639631 75.981418 
L 516.796019 75.87241 
L 517.092755 75.670868 
L 517.465681 75.424945 
L 517.678208 75.225873 
L 517.874696 75.079095 
L 518.075194 74.901886 
L 518.38396 74.678142 
L 518.39198 74.643508 
L 518.39198 74.643508 
" style="fill:none;stroke:#0000ff;stroke-linecap:square;"/>
   </g>
   <g id="patch_3">
    <path d="M 72 43.2 
L 518.4 43.2 
" style="fill:none;stroke:#000000;stroke-linecap:square;stroke-linejoin:miter;"/>
   </g>
   <g id="patch_4">
    <path d="M 518.4 388.8 
L 518.4 43.2 
" style="fill:none;stroke:#000000;stroke-linecap:square;stroke-linejoin:miter;"/>
   </g>
   <g id="patch_5">
    <path d="M 72 388.8 
L 518.4 388.8 
" style="fill:none;stroke:#000000;stroke-linecap:square;stroke-linejoin:miter;"/>
   </g>
   <g id="patch_6">
    <path d="M 72 388.8 
L 72 43.2 
" style="fill:none;stroke:#000000;stroke-linecap:square;stroke-linejoin:miter;"/>
   </g>
   <g id="matplotlib.axis_1">
    <g id="xtick_1">
     <g id="line2d_2">
      <defs>
       <path d="M 0 0 
L 0 -4 
" id="m3b045616d6" style="stroke:#000000;stroke-width:0.5;"/>
      </defs>
      <g>
       <use style="stroke:#000000;stroke-width:0.5;" x="72.004009953" xlink:href="#m3b045616d6" y="388.8"/>
      </g>
     </g>
     <g id="line2d_3">
      <defs>
       <path d="M 0 0 
L 0 4 
" id="mb251a6c1a9" style="stroke:#000000;stroke-width:0.5;"/>
      </defs>
      <g>
       <use style="stroke:#000000;stroke-width:0.5;" x="72.004009953" xlink:href="#mb251a6c1a9" y="43.2"/>
      </g>
     </g>
     <g id="text_1">
      <!-- 0 -->
      <defs>
       <path d="M 31.78125 66.40625 
Q 24.171875 66.40625 20.328125 58.90625 
Q 16.5 51.421875 16.5 36.375 
Q 16.5 21.390625 20.328125 13.890625 
Q 24.171875 6.390625 31.78125 6.390625 
Q 39.453125 6.390625 43.28125 13.890625 
Q 47.125 21.390625 47.125 36.375 
Q 47.125 51.421875 43.28125 58.90625 
Q 39.453125 66.40625 31.78125 66.40625 
M 31.78125 74.21875 
Q 44.046875 74.21875 50.515625 64.515625 
Q 56.984375 54.828125 56.984375 36.375 
Q 56.984375 17.96875 50.515625 8.265625 
Q 44.046875 -1.421875 31.78125 -1.421875 
Q 19.53125 -1.421875 13.0625 8.265625 
Q 6.59375 17.96875 6.59375 36.375 
Q 6.59375 54.828125 13.0625 64.515625 
Q 19.53125 74.21875 31.78125 74.21875 
" id="BitstreamVeraSans-Roman-30"/>
      </defs>
      <g transform="translate(68.186509953 401.918125)scale(0.12 -0.12)">
       <use xlink:href="#BitstreamVeraSans-Roman-30"/>
      </g>
     </g>
    </g>
    <g id="xtick_2">
     <g id="line2d_4">
      <g>
       <use style="stroke:#000000;stroke-width:0.5;" x="152.203070345" xlink:href="#m3b045616d6" y="388.8"/>
      </g>
     </g>
     <g id="line2d_5">
      <g>
       <use style="stroke:#000000;stroke-width:0.5;" x="152.203070345" xlink:href="#mb251a6c1a9" y="43.2"/>
      </g>
     </g>
     <g id="text_2">
      <!-- 20000 -->
      <defs>
       <path d="M 19.1875 8.296875 
L 53.609375 8.296875 
L 53.609375 0 
L 7.328125 0 
L 7.328125 8.296875 
Q 12.9375 14.109375 22.625 23.890625 
Q 32.328125 33.6875 34.8125 36.53125 
Q 39.546875 41.84375 41.421875 45.53125 
Q 43.3125 49.21875 43.3125 52.78125 
Q 43.3125 58.59375 39.234375 62.25 
Q 35.15625 65.921875 28.609375 65.921875 
Q 23.96875 65.921875 18.8125 64.3125 
Q 13.671875 62.703125 7.8125 59.421875 
L 7.8125 69.390625 
Q 13.765625 71.78125 18.9375 73 
Q 24.125 74.21875 28.421875 74.21875 
Q 39.75 74.21875 46.484375 68.546875 
Q 53.21875 62.890625 53.21875 53.421875 
Q 53.21875 48.921875 51.53125 44.890625 
Q 49.859375 40.875 45.40625 35.40625 
Q 44.1875 33.984375 37.640625 27.21875 
Q 31.109375 20.453125 19.1875 8.296875 
" id="BitstreamVeraSans-Roman-32"/>
      </defs>
      <g transform="translate(133.115570345 401.918125)scale(0.12 -0.12)">
       <use xlink:href="#BitstreamVeraSans-Roman-32"/>
       <use x="63.623046875" xlink:href="#BitstreamVeraSans-Roman-30"/>
       <use x="127.24609375" xlink:href="#BitstreamVeraSans-Roman-30"/>
       <use x="190.869140625" xlink:href="#BitstreamVeraSans-Roman-30"/>
       <use x="254.4921875" xlink:href="#BitstreamVeraSans-Roman-30"/>
      </g>
     </g>
    </g>
    <g id="xtick_3">
     <g id="line2d_6">
      <g>
       <use style="stroke:#000000;stroke-width:0.5;" x="232.402130737" xlink:href="#m3b045616d6" y="388.8"/>
      </g>
     </g>
     <g id="line2d_7">
      <g>
       <use style="stroke:#000000;stroke-width:0.5;" x="232.402130737" xlink:href="#mb251a6c1a9" y="43.2"/>
      </g>
     </g>
     <g id="text_3">
      <!-- 40000 -->
      <defs>
       <path d="M 37.796875 64.3125 
L 12.890625 25.390625 
L 37.796875 25.390625 
z
M 35.203125 72.90625 
L 47.609375 72.90625 
L 47.609375 25.390625 
L 58.015625 25.390625 
L 58.015625 17.1875 
L 47.609375 17.1875 
L 47.609375 0 
L 37.796875 0 
L 37.796875 17.1875 
L 4.890625 17.1875 
L 4.890625 26.703125 
z
" id="BitstreamVeraSans-Roman-34"/>
      </defs>
      <g transform="translate(213.314630737 401.918125)scale(0.12 -0.12)">
       <use xlink:href="#BitstreamVeraSans-Roman-34"/>
       <use x="63.623046875" xlink:href="#BitstreamVeraSans-Roman-30"/>
       <use x="127.24609375" xlink:href="#BitstreamVeraSans-Roman-30"/>
       <use x="190.869140625" xlink:href="#BitstreamVeraSans-Roman-30"/>
       <use x="254.4921875" xlink:href="#BitstreamVeraSans-Roman-30"/>
      </g>
     </g>
    </g>
    <g id="xtick_4">
     <g id="line2d_8">
      <g>
       <use style="stroke:#000000;stroke-width:0.5;" x="312.601191129" xlink:href="#m3b045616d6" y="388.8"/>
      </g>
     </g>
     <g id="line2d_9">
      <g>
       <use style="stroke:#000000;stroke-width:0.5;" x="312.601191129" xlink:href="#mb251a6c1a9" y="43.2"/>
      </g>
     </g>
     <g id="text_4">
      <!-- 60000 -->
      <defs>
       <path d="M 33.015625 40.375 
Q 26.375 40.375 22.484375 35.828125 
Q 18.609375 31.296875 18.609375 23.390625 
Q 18.609375 15.53125 22.484375 10.953125 
Q 26.375 6.390625 33.015625 6.390625 
Q 39.65625 6.390625 43.53125 10.953125 
Q 47.40625 15.53125 47.40625 23.390625 
Q 47.40625 31.296875 43.53125 35.828125 
Q 39.65625 40.375 33.015625 40.375 
M 52.59375 71.296875 
L 52.59375 62.3125 
Q 48.875 64.0625 45.09375 64.984375 
Q 41.3125 65.921875 37.59375 65.921875 
Q 27.828125 65.921875 22.671875 59.328125 
Q 17.53125 52.734375 16.796875 39.40625 
Q 19.671875 43.65625 24.015625 45.921875 
Q 28.375 48.1875 33.59375 48.1875 
Q 44.578125 48.1875 50.953125 41.515625 
Q 57.328125 34.859375 57.328125 23.390625 
Q 57.328125 12.15625 50.6875 5.359375 
Q 44.046875 -1.421875 33.015625 -1.421875 
Q 20.359375 -1.421875 13.671875 8.265625 
Q 6.984375 17.96875 6.984375 36.375 
Q 6.984375 53.65625 15.1875 63.9375 
Q 23.390625 74.21875 37.203125 74.21875 
Q 40.921875 74.21875 44.703125 73.484375 
Q 48.484375 72.75 52.59375 71.296875 
" id="BitstreamVeraSans-Roman-36"/>
      </defs>
      <g transform="translate(293.513691129 401.918125)scale(0.12 -0.12)">
       <use xlink:href="#BitstreamVeraSans-Roman-36"/>
       <use x="63.623046875" xlink:href="#BitstreamVeraSans-Roman-30"/>
       <use x="127.24609375" xlink:href="#BitstreamVeraSans-Roman-30"/>
       <use x="190.869140625" xlink:href="#BitstreamVeraSans-Roman-30"/>
       <use x="254.4921875" xlink:href="#BitstreamVeraSans-Roman-30"/>
      </g>
     </g>
    </g>
    <g id="xtick_5">
     <g id="line2d_10">
      <g>
       <use style="stroke:#000000;stroke-width:0.5;" x="392.80025152" xlink:href="#m3b045616d6" y="388.8"/>
      </g>
     </g>
     <g id="line2d_11">
      <g>
       <use style="stroke:#000000;stroke-width:0.5;" x="392.80025152" xlink:href="#mb251a6c1a9" y="43.2"/>
      </g>
     </g>
     <g id="text_5">
      <!-- 80000 -->
      <defs>
       <path d="M 31.78125 34.625 
Q 24.75 34.625 20.71875 30.859375 
Q 16.703125 27.09375 16.703125 20.515625 
Q 16.703125 13.921875 20.71875 10.15625 
Q 24.75 6.390625 31.78125 6.390625 
Q 38.8125 6.390625 42.859375 10.171875 
Q 46.921875 13.96875 46.921875 20.515625 
Q 46.921875 27.09375 42.890625 30.859375 
Q 38.875 34.625 31.78125 34.625 
M 21.921875 38.8125 
Q 15.578125 40.375 12.03125 44.71875 
Q 8.5 49.078125 8.5 55.328125 
Q 8.5 64.0625 14.71875 69.140625 
Q 20.953125 74.21875 31.78125 74.21875 
Q 42.671875 74.21875 48.875 69.140625 
Q 55.078125 64.0625 55.078125 55.328125 
Q 55.078125 49.078125 51.53125 44.71875 
Q 48 40.375 41.703125 38.8125 
Q 48.828125 37.15625 52.796875 32.3125 
Q 56.78125 27.484375 56.78125 20.515625 
Q 56.78125 9.90625 50.3125 4.234375 
Q 43.84375 -1.421875 31.78125 -1.421875 
Q 19.734375 -1.421875 13.25 4.234375 
Q 6.78125 9.90625 6.78125 20.515625 
Q 6.78125 27.484375 10.78125 32.3125 
Q 14.796875 37.15625 21.921875 38.8125 
M 18.3125 54.390625 
Q 18.3125 48.734375 21.84375 45.5625 
Q 25.390625 42.390625 31.78125 42.390625 
Q 38.140625 42.390625 41.71875 45.5625 
Q 45.3125 48.734375 45.3125 54.390625 
Q 45.3125 60.0625 41.71875 63.234375 
Q 38.140625 66.40625 31.78125 66.40625 
Q 25.390625 66.40625 21.84375 63.234375 
Q 18.3125 60.0625 18.3125 54.390625 
" id="BitstreamVeraSans-Roman-38"/>
      </defs>
      <g transform="translate(373.71275152 401.918125)scale(0.12 -0.12)">
       <use xlink:href="#BitstreamVeraSans-Roman-38"/>
       <use x="63.623046875" xlink:href="#BitstreamVeraSans-Roman-30"/>
       <use x="127.24609375" xlink:href="#BitstreamVeraSans-Roman-30"/>
       <use x="190.869140625" xlink:href="#BitstreamVeraSans-Roman-30"/>
       <use x="254.4921875" xlink:href="#BitstreamVeraSans-Roman-30"/>
      </g>
     </g>
    </g>
    <g id="xtick_6">
     <g id="line2d_12">
      <g>
       <use style="stroke:#000000;stroke-width:0.5;" x="472.999311912" xlink:href="#m3b045616d6" y="388.8"/>
      </g>
     </g>
     <g id="line2d_13">
      <g>
       <use style="stroke:#000000;stroke-width:0.5;" x="472.999311912" xlink:href="#mb251a6c1a9" y="43.2"/>
      </g>
     </g>
     <g id="text_6">
      <!-- 100000 -->
      <defs>
       <path d="M 12.40625 8.296875 
L 28.515625 8.296875 
L 28.515625 63.921875 
L 10.984375 60.40625 
L 10.984375 69.390625 
L 28.421875 72.90625 
L 38.28125 72.90625 
L 38.28125 8.296875 
L 54.390625 8.296875 
L 54.390625 0 
L 12.40625 0 
z
" id="BitstreamVeraSans-Roman-31"/>
      </defs>
      <g transform="translate(450.094311912 401.918125)scale(0.12 -0.12)">
       <use xlink:href="#BitstreamVeraSans-Roman-31"/>
       <use x="63.623046875" xlink:href="#BitstreamVeraSans-Roman-30"/>
       <use x="127.24609375" xlink:href="#BitstreamVeraSans-Roman-30"/>
       <use x="190.869140625" xlink:href="#BitstreamVeraSans-Roman-30"/>
       <use x="254.4921875" xlink:href="#BitstreamVeraSans-Roman-30"/>
       <use x="318.115234375" xlink:href="#BitstreamVeraSans-Roman-30"/>
      </g>
     </g>
    </g>
    <g id="text_7">
     <!-- Channel vs Channel -->
     <defs>
      <path id="BitstreamVeraSans-Roman-20"/>
      <path d="M 54.890625 33.015625 
L 54.890625 0 
L 45.90625 0 
L 45.90625 32.71875 
Q 45.90625 40.484375 42.875 44.328125 
Q 39.84375 48.1875 33.796875 48.1875 
Q 26.515625 48.1875 22.3125 43.546875 
Q 18.109375 38.921875 18.109375 30.90625 
L 18.109375 0 
L 9.078125 0 
L 9.078125 54.6875 
L 18.109375 54.6875 
L 18.109375 46.1875 
Q 21.34375 51.125 25.703125 53.5625 
Q 30.078125 56 35.796875 56 
Q 45.21875 56 50.046875 50.171875 
Q 54.890625 44.34375 54.890625 33.015625 
" id="BitstreamVeraSans-Roman-6e"/>
      <path d="M 9.421875 75.984375 
L 18.40625 75.984375 
L 18.40625 0 
L 9.421875 0 
z
" id="BitstreamVeraSans-Roman-6c"/>
      <path d="M 2.984375 54.6875 
L 12.5 54.6875 
L 29.59375 8.796875 
L 46.6875 54.6875 
L 56.203125 54.6875 
L 35.6875 0 
L 23.484375 0 
z
" id="BitstreamVeraSans-Roman-76"/>
      <path d="M 64.40625 67.28125 
L 64.40625 56.890625 
Q 59.421875 61.53125 53.78125 63.8125 
Q 48.140625 66.109375 41.796875 66.109375 
Q 29.296875 66.109375 22.65625 58.46875 
Q 16.015625 50.828125 16.015625 36.375 
Q 16.015625 21.96875 22.65625 14.328125 
Q 29.296875 6.6875 41.796875 6.6875 
Q 48.140625 6.6875 53.78125 8.984375 
Q 59.421875 11.28125 64.40625 15.921875 
L 64.40625 5.609375 
Q 59.234375 2.09375 53.4375 0.328125 
Q 47.65625 -1.421875 41.21875 -1.421875 
Q 24.65625 -1.421875 15.125 8.703125 
Q 5.609375 18.84375 5.609375 36.375 
Q 5.609375 53.953125 15.125 64.078125 
Q 24.65625 74.21875 41.21875 74.21875 
Q 47.75 74.21875 53.53125 72.484375 
Q 59.328125 70.75 64.40625 67.28125 
" id="BitstreamVeraSans-Roman-43"/>
      <path d="M 54.890625 33.015625 
L 54.890625 0 
L 45.90625 0 
L 45.90625 32.71875 
Q 45.90625 40.484375 42.875 44.328125 
Q 39.84375 48.1875 33.796875 48.1875 
Q 26.515625 48.1875 22.3125 43.546875 
Q 18.109375 38.921875 18.109375 30.90625 
L 18.109375 0 
L 9.078125 0 
L 9.078125 75.984375 
L 18.109375 75.984375 
L 18.109375 46.1875 
Q 21.34375 51.125 25.703125 53.5625 
Q 30.078125 56 35.796875 56 
Q 45.21875 56 50.046875 50.171875 
Q 54.890625 44.34375 54.890625 33.015625 
" id="BitstreamVeraSans-Roman-68"/>
      <path d="M 56.203125 29.59375 
L 56.203125 25.203125 
L 14.890625 25.203125 
Q 15.484375 15.921875 20.484375 11.0625 
Q 25.484375 6.203125 34.421875 6.203125 
Q 39.59375 6.203125 44.453125 7.46875 
Q 49.3125 8.734375 54.109375 11.28125 
L 54.109375 2.78125 
Q 49.265625 0.734375 44.1875 -0.34375 
Q 39.109375 -1.421875 33.890625 -1.421875 
Q 20.796875 -1.421875 13.15625 6.1875 
Q 5.515625 13.8125 5.515625 26.8125 
Q 5.515625 40.234375 12.765625 48.109375 
Q 20.015625 56 32.328125 56 
Q 43.359375 56 49.78125 48.890625 
Q 56.203125 41.796875 56.203125 29.59375 
M 47.21875 32.234375 
Q 47.125 39.59375 43.09375 43.984375 
Q 39.0625 48.390625 32.421875 48.390625 
Q 24.90625 48.390625 20.390625 44.140625 
Q 15.875 39.890625 15.1875 32.171875 
z
" id="BitstreamVeraSans-Roman-65"/>
      <path d="M 34.28125 27.484375 
Q 23.390625 27.484375 19.1875 25 
Q 14.984375 22.515625 14.984375 16.5 
Q 14.984375 11.71875 18.140625 8.90625 
Q 21.296875 6.109375 26.703125 6.109375 
Q 34.1875 6.109375 38.703125 11.40625 
Q 43.21875 16.703125 43.21875 25.484375 
L 43.21875 27.484375 
z
M 52.203125 31.203125 
L 52.203125 0 
L 43.21875 0 
L 43.21875 8.296875 
Q 40.140625 3.328125 35.546875 0.953125 
Q 30.953125 -1.421875 24.3125 -1.421875 
Q 15.921875 -1.421875 10.953125 3.296875 
Q 6 8.015625 6 15.921875 
Q 6 25.140625 12.171875 29.828125 
Q 18.359375 34.515625 30.609375 34.515625 
L 43.21875 34.515625 
L 43.21875 35.40625 
Q 43.21875 41.609375 39.140625 45 
Q 35.0625 48.390625 27.6875 48.390625 
Q 23 48.390625 18.546875 47.265625 
Q 14.109375 46.140625 10.015625 43.890625 
L 10.015625 52.203125 
Q 14.9375 54.109375 19.578125 55.046875 
Q 24.21875 56 28.609375 56 
Q 40.484375 56 46.34375 49.84375 
Q 52.203125 43.703125 52.203125 31.203125 
" id="BitstreamVeraSans-Roman-61"/>
      <path d="M 44.28125 53.078125 
L 44.28125 44.578125 
Q 40.484375 46.53125 36.375 47.5 
Q 32.28125 48.484375 27.875 48.484375 
Q 21.1875 48.484375 17.84375 46.4375 
Q 14.5 44.390625 14.5 40.28125 
Q 14.5 37.15625 16.890625 35.375 
Q 19.28125 33.59375 26.515625 31.984375 
L 29.59375 31.296875 
Q 39.15625 29.25 43.1875 25.515625 
Q 47.21875 21.78125 47.21875 15.09375 
Q 47.21875 7.46875 41.1875 3.015625 
Q 35.15625 -1.421875 24.609375 -1.421875 
Q 20.21875 -1.421875 15.453125 -0.5625 
Q 10.6875 0.296875 5.421875 2 
L 5.421875 11.28125 
Q 10.40625 8.6875 15.234375 7.390625 
Q 20.0625 6.109375 24.8125 6.109375 
Q 31.15625 6.109375 34.5625 8.28125 
Q 37.984375 10.453125 37.984375 14.40625 
Q 37.984375 18.0625 35.515625 20.015625 
Q 33.0625 21.96875 24.703125 23.78125 
L 21.578125 24.515625 
Q 13.234375 26.265625 9.515625 29.90625 
Q 5.8125 33.546875 5.8125 39.890625 
Q 5.8125 47.609375 11.28125 51.796875 
Q 16.75 56 26.8125 56 
Q 31.78125 56 36.171875 55.265625 
Q 40.578125 54.546875 44.28125 53.078125 
" id="BitstreamVeraSans-Roman-73"/>
     </defs>
     <g transform="translate(235.44375 418.531875)scale(0.12 -0.12)">
      <use xlink:href="#BitstreamVeraSans-Roman-43"/>
      <use x="69.82421875" xlink:href="#BitstreamVeraSans-Roman-68"/>
      <use x="133.203125" xlink:href="#BitstreamVeraSans-Roman-61"/>
      <use x="194.482421875" xlink:href="#BitstreamVeraSans-Roman-6e"/>
      <use x="257.861328125" xlink:href="#BitstreamVeraSans-Roman-6e"/>
      <use x="321.240234375" xlink:href="#BitstreamVeraSans-Roman-65"/>
      <use x="382.763671875" xlink:href="#BitstreamVeraSans-Roman-6c"/>
      <use x="410.546875" xlink:href="#BitstreamVeraSans-Roman-20"/>
      <use x="442.333984375" xlink:href="#BitstreamVeraSans-Roman-76"/>
      <use x="501.513671875" xlink:href="#BitstreamVeraSans-Roman-73"/>
      <use x="553.61328125" xlink:href="#BitstreamVeraSans-Roman-20"/>
      <use x="585.400390625" xlink:href="#BitstreamVeraSans-Roman-43"/>
      <use x="655.224609375" xlink:href="#BitstreamVeraSans-Roman-68"/>
      <use x="718.603515625" xlink:href="#BitstreamVeraSans-Roman-61"/>
      <use x="779.8828125" xlink:href="#BitstreamVeraSans-Roman-6e"/>
      <use x="843.26171875" xlink:href="#BitstreamVeraSans-Roman-6e"/>
      <use x="906.640625" xlink:href="#BitstreamVeraSans-Roman-65"/>
      <use x="968.1640625" xlink:href="#BitstreamVeraSans-Roman-6c"/>
     </g>
    </g>
   </g>
   <g id="matplotlib.axis_2">
    <g id="ytick_1">
     <g id="line2d_14">
      <defs>
       <path d="M 0 0 
L 4 0 
" id="md60e8fe622" style="stroke:#000000;stroke-width:0.5;"/>
      </defs>
      <g>
       <use style="stroke:#000000;stroke-width:0.5;" x="72.0" xlink:href="#md60e8fe622" y="388.8"/>
      </g>
     </g>
     <g id="line2d_15">
      <defs>
       <path d="M 0 0 
L -4 0 
" id="m26efac57b2" style="stroke:#000000;stroke-width:0.5;"/>
      </defs>
      <g>
       <use style="stroke:#000000;stroke-width:0.5;" x="518.4" xlink:href="#m26efac57b2" y="388.8"/>
      </g>
     </g>
     <g id="text_8">
      <!-- 0.0 -->
      <defs>
       <path d="M 10.6875 12.40625 
L 21 12.40625 
L 21 0 
L 10.6875 0 
z
" id="BitstreamVeraSans-Roman-2e"/>
      </defs>
      <g transform="translate(48.91625 392.11125)scale(0.12 -0.12)">
       <use xlink:href="#BitstreamVeraSans-Roman-30"/>
       <use x="63.623046875" xlink:href="#BitstreamVeraSans-Roman-2e"/>
       <use x="95.41015625" xlink:href="#BitstreamVeraSans-Roman-30"/>
      </g>
     </g>
    </g>
    <g id="ytick_2">
     <g id="line2d_16">
      <g>
       <use style="stroke:#000000;stroke-width:0.5;" x="72.0" xlink:href="#md60e8fe622" y="325.963636364"/>
      </g>
     </g>
     <g id="line2d_17">
      <g>
       <use style="stroke:#000000;stroke-width:0.5;" x="518.4" xlink:href="#m26efac57b2" y="325.963636364"/>
      </g>
     </g>
     <g id="text_9">
      <!-- 0.2 -->
      <g transform="translate(48.91625 329.274886364)scale(0.12 -0.12)">
       <use xlink:href="#BitstreamVeraSans-Roman-30"/>
       <use x="63.623046875" xlink:href="#BitstreamVeraSans-Roman-2e"/>
       <use x="95.41015625" xlink:href="#BitstreamVeraSans-Roman-32"/>
      </g>
     </g>
    </g>
    <g id="ytick_3">
     <g id="line2d_18">
      <g>
       <use style="stroke:#000000;stroke-width:0.5;" x="72.0" xlink:href="#md60e8fe622" y="263.127272727"/>
      </g>
     </g>
     <g id="line2d_19">
      <g>
       <use style="stroke:#000000;stroke-width:0.5;" x="518.4" xlink:href="#m26efac57b2" y="263.127272727"/>
      </g>
     </g>
     <g id="text_10">
      <!-- 0.4 -->
      <g transform="translate(48.91625 266.438522727)scale(0.12 -0.12)">
       <use xlink:href="#BitstreamVeraSans-Roman-30"/>
       <use x="63.623046875" xlink:href="#BitstreamVeraSans-Roman-2e"/>
       <use x="95.41015625" xlink:href="#BitstreamVeraSans-Roman-34"/>
      </g>
     </g>
    </g>
    <g id="ytick_4">
     <g id="line2d_20">
      <g>
       <use style="stroke:#000000;stroke-width:0.5;" x="72.0" xlink:href="#md60e8fe622" y="200.290909091"/>
      </g>
     </g>
     <g id="line2d_21">
      <g>
       <use style="stroke:#000000;stroke-width:0.5;" x="518.4" xlink:href="#m26efac57b2" y="200.290909091"/>
      </g>
     </g>
     <g id="text_11">
      <!-- 0.6 -->
      <g transform="translate(48.91625 203.602159091)scale(0.12 -0.12)">
       <use xlink:href="#BitstreamVeraSans-Roman-30"/>
       <use x="63.623046875" xlink:href="#BitstreamVeraSans-Roman-2e"/>
       <use x="95.41015625" xlink:href="#BitstreamVeraSans-Roman-36"/>
      </g>
     </g>
    </g>
    <g id="ytick_5">
     <g id="line2d_22">
      <g>
       <use style="stroke:#000000;stroke-width:0.5;" x="72.0" xlink:href="#md60e8fe622" y="137.454545455"/>
      </g>
     </g>
     <g id="line2d_23">
      <g>
       <use style="stroke:#000000;stroke-width:0.5;" x="518.4" xlink:href="#m26efac57b2" y="137.454545455"/>
      </g>
     </g>
     <g id="text_12">
      <!-- 0.8 -->
      <g transform="translate(48.91625 140.765795455)scale(0.12 -0.12)">
       <use xlink:href="#BitstreamVeraSans-Roman-30"/>
       <use x="63.623046875" xlink:href="#BitstreamVeraSans-Roman-2e"/>
       <use x="95.41015625" xlink:href="#BitstreamVeraSans-Roman-38"/>
      </g>
     </g>
    </g>
    <g id="ytick_6">
     <g id="line2d_24">
      <g>
       <use style="stroke:#000000;stroke-width:0.5;" x="72.0" xlink:href="#md60e8fe622" y="74.6181818182"/>
      </g>
     </g>
     <g id="line2d_25">
      <g>
       <use style="stroke:#000000;stroke-width:0.5;" x="518.4" xlink:href="#m26efac57b2" y="74.6181818182"/>
      </g>
     </g>
     <g id="text_13">
      <!-- 1.0 -->
      <g transform="translate(48.91625 77.9294318182)scale(0.12 -0.12)">
       <use xlink:href="#BitstreamVeraSans-Roman-31"/>
       <use x="63.623046875" xlink:href="#BitstreamVeraSans-Roman-2e"/>
       <use x="95.41015625" xlink:href="#BitstreamVeraSans-Roman-30"/>
      </g>
     </g>
    </g>
    <g id="text_14">
     <!-- Correlation value -->
     <defs>
      <path d="M 8.5 21.578125 
L 8.5 54.6875 
L 17.484375 54.6875 
L 17.484375 21.921875 
Q 17.484375 14.15625 20.5 10.265625 
Q 23.53125 6.390625 29.59375 6.390625 
Q 36.859375 6.390625 41.078125 11.03125 
Q 45.3125 15.671875 45.3125 23.6875 
L 45.3125 54.6875 
L 54.296875 54.6875 
L 54.296875 0 
L 45.3125 0 
L 45.3125 8.40625 
Q 42.046875 3.421875 37.71875 1 
Q 33.40625 -1.421875 27.6875 -1.421875 
Q 18.265625 -1.421875 13.375 4.4375 
Q 8.5 10.296875 8.5 21.578125 
" id="BitstreamVeraSans-Roman-75"/>
      <path d="M 9.421875 54.6875 
L 18.40625 54.6875 
L 18.40625 0 
L 9.421875 0 
z
M 9.421875 75.984375 
L 18.40625 75.984375 
L 18.40625 64.59375 
L 9.421875 64.59375 
z
" id="BitstreamVeraSans-Roman-69"/>
      <path d="M 18.3125 70.21875 
L 18.3125 54.6875 
L 36.8125 54.6875 
L 36.8125 47.703125 
L 18.3125 47.703125 
L 18.3125 18.015625 
Q 18.3125 11.328125 20.140625 9.421875 
Q 21.96875 7.515625 27.59375 7.515625 
L 36.8125 7.515625 
L 36.8125 0 
L 27.59375 0 
Q 17.1875 0 13.234375 3.875 
Q 9.28125 7.765625 9.28125 18.015625 
L 9.28125 47.703125 
L 2.6875 47.703125 
L 2.6875 54.6875 
L 9.28125 54.6875 
L 9.28125 70.21875 
z
" id="BitstreamVeraSans-Roman-74"/>
      <path d="M 30.609375 48.390625 
Q 23.390625 48.390625 19.1875 42.75 
Q 14.984375 37.109375 14.984375 27.296875 
Q 14.984375 17.484375 19.15625 11.84375 
Q 23.34375 6.203125 30.609375 6.203125 
Q 37.796875 6.203125 41.984375 11.859375 
Q 46.1875 17.53125 46.1875 27.296875 
Q 46.1875 37.015625 41.984375 42.703125 
Q 37.796875 48.390625 30.609375 48.390625 
M 30.609375 56 
Q 42.328125 56 49.015625 48.375 
Q 55.71875 40.765625 55.71875 27.296875 
Q 55.71875 13.875 49.015625 6.21875 
Q 42.328125 -1.421875 30.609375 -1.421875 
Q 18.84375 -1.421875 12.171875 6.21875 
Q 5.515625 13.875 5.515625 27.296875 
Q 5.515625 40.765625 12.171875 48.375 
Q 18.84375 56 30.609375 56 
" id="BitstreamVeraSans-Roman-6f"/>
      <path d="M 41.109375 46.296875 
Q 39.59375 47.171875 37.8125 47.578125 
Q 36.03125 48 33.890625 48 
Q 26.265625 48 22.1875 43.046875 
Q 18.109375 38.09375 18.109375 28.8125 
L 18.109375 0 
L 9.078125 0 
L 9.078125 54.6875 
L 18.109375 54.6875 
L 18.109375 46.1875 
Q 20.953125 51.171875 25.484375 53.578125 
Q 30.03125 56 36.53125 56 
Q 37.453125 56 38.578125 55.875 
Q 39.703125 55.765625 41.0625 55.515625 
z
" id="BitstreamVeraSans-Roman-72"/>
     </defs>
     <g transform="translate(41.420625 267.6159375)rotate(-90.0)scale(0.12 -0.12)">
      <use xlink:href="#BitstreamVeraSans-Roman-43"/>
      <use x="69.82421875" xlink:href="#BitstreamVeraSans-Roman-6f"/>
      <use x="131.005859375" xlink:href="#BitstreamVeraSans-Roman-72"/>
      <use x="172.103515625" xlink:href="#BitstreamVeraSans-Roman-72"/>
      <use x="213.185546875" xlink:href="#BitstreamVeraSans-Roman-65"/>
      <use x="274.708984375" xlink:href="#BitstreamVeraSans-Roman-6c"/>
      <use x="302.4921875" xlink:href="#BitstreamVeraSans-Roman-61"/>
      <use x="363.771484375" xlink:href="#BitstreamVeraSans-Roman-74"/>
      <use x="402.98046875" xlink:href="#BitstreamVeraSans-Roman-69"/>
      <use x="430.763671875" xlink:href="#BitstreamVeraSans-Roman-6f"/>
      <use x="491.9453125" xlink:href="#BitstreamVeraSans-Roman-6e"/>
      <use x="555.32421875" xlink:href="#BitstreamVeraSans-Roman-20"/>
      <use x="587.111328125" xlink:href="#BitstreamVeraSans-Roman-76"/>
      <use x="646.291015625" xlink:href="#BitstreamVeraSans-Roman-61"/>
      <use x="707.5703125" xlink:href="#BitstreamVeraSans-Roman-6c"/>
      <use x="735.353515625" xlink:href="#BitstreamVeraSans-Roman-75"/>
      <use x="798.732421875" xlink:href="#BitstreamVeraSans-Roman-65"/>
     </g>
    </g>
   </g>
   <g id="text_15">
    <!-- Sorted Absolute Value Correlations between 2 Channels (1 minute intervals) -->
    <defs>
     <path d="M 52 44.1875 
Q 55.375 50.25 60.0625 53.125 
Q 64.75 56 71.09375 56 
Q 79.640625 56 84.28125 50.015625 
Q 88.921875 44.046875 88.921875 33.015625 
L 88.921875 0 
L 79.890625 0 
L 79.890625 32.71875 
Q 79.890625 40.578125 77.09375 44.375 
Q 74.3125 48.1875 68.609375 48.1875 
Q 61.625 48.1875 57.5625 43.546875 
Q 53.515625 38.921875 53.515625 30.90625 
L 53.515625 0 
L 44.484375 0 
L 44.484375 32.71875 
Q 44.484375 40.625 41.703125 44.40625 
Q 38.921875 48.1875 33.109375 48.1875 
Q 26.21875 48.1875 22.15625 43.53125 
Q 18.109375 38.875 18.109375 30.90625 
L 18.109375 0 
L 9.078125 0 
L 9.078125 54.6875 
L 18.109375 54.6875 
L 18.109375 46.1875 
Q 21.1875 51.21875 25.484375 53.609375 
Q 29.78125 56 35.6875 56 
Q 41.65625 56 45.828125 52.96875 
Q 50 49.953125 52 44.1875 
" id="BitstreamVeraSans-Roman-6d"/>
     <path d="M 34.1875 63.1875 
L 20.796875 26.90625 
L 47.609375 26.90625 
z
M 28.609375 72.90625 
L 39.796875 72.90625 
L 67.578125 0 
L 57.328125 0 
L 50.6875 18.703125 
L 17.828125 18.703125 
L 11.1875 0 
L 0.78125 0 
z
" id="BitstreamVeraSans-Roman-41"/>
     <path d="M 8.015625 75.875 
L 15.828125 75.875 
Q 23.140625 64.359375 26.78125 53.3125 
Q 30.421875 42.28125 30.421875 31.390625 
Q 30.421875 20.453125 26.78125 9.375 
Q 23.140625 -1.703125 15.828125 -13.1875 
L 8.015625 -13.1875 
Q 14.5 -2 17.703125 9.0625 
Q 20.90625 20.125 20.90625 31.390625 
Q 20.90625 42.671875 17.703125 53.65625 
Q 14.5 64.65625 8.015625 75.875 
" id="BitstreamVeraSans-Roman-29"/>
     <path d="M 31 75.875 
Q 24.46875 64.65625 21.28125 53.65625 
Q 18.109375 42.671875 18.109375 31.390625 
Q 18.109375 20.125 21.3125 9.0625 
Q 24.515625 -2 31 -13.1875 
L 23.1875 -13.1875 
Q 15.875 -1.703125 12.234375 9.375 
Q 8.59375 20.453125 8.59375 31.390625 
Q 8.59375 42.28125 12.203125 53.3125 
Q 15.828125 64.359375 23.1875 75.875 
z
" id="BitstreamVeraSans-Roman-28"/>
     <path d="M 53.515625 70.515625 
L 53.515625 60.890625 
Q 47.90625 63.578125 42.921875 64.890625 
Q 37.9375 66.21875 33.296875 66.21875 
Q 25.25 66.21875 20.875 63.09375 
Q 16.5 59.96875 16.5 54.203125 
Q 16.5 49.359375 19.40625 46.890625 
Q 22.3125 44.4375 30.421875 42.921875 
L 36.375 41.703125 
Q 47.40625 39.59375 52.65625 34.296875 
Q 57.90625 29 57.90625 20.125 
Q 57.90625 9.515625 50.796875 4.046875 
Q 43.703125 -1.421875 29.984375 -1.421875 
Q 24.8125 -1.421875 18.96875 -0.25 
Q 13.140625 0.921875 6.890625 3.21875 
L 6.890625 13.375 
Q 12.890625 10.015625 18.65625 8.296875 
Q 24.421875 6.59375 29.984375 6.59375 
Q 38.421875 6.59375 43.015625 9.90625 
Q 47.609375 13.234375 47.609375 19.390625 
Q 47.609375 24.75 44.3125 27.78125 
Q 41.015625 30.8125 33.5 32.328125 
L 27.484375 33.5 
Q 16.453125 35.6875 11.515625 40.375 
Q 6.59375 45.0625 6.59375 53.421875 
Q 6.59375 63.09375 13.40625 68.65625 
Q 20.21875 74.21875 32.171875 74.21875 
Q 37.3125 74.21875 42.625 73.28125 
Q 47.953125 72.359375 53.515625 70.515625 
" id="BitstreamVeraSans-Roman-53"/>
     <path d="M 28.609375 0 
L 0.78125 72.90625 
L 11.078125 72.90625 
L 34.1875 11.53125 
L 57.328125 72.90625 
L 67.578125 72.90625 
L 39.796875 0 
z
" id="BitstreamVeraSans-Roman-56"/>
     <path d="M 4.203125 54.6875 
L 13.1875 54.6875 
L 24.421875 12.015625 
L 35.59375 54.6875 
L 46.1875 54.6875 
L 57.421875 12.015625 
L 68.609375 54.6875 
L 77.59375 54.6875 
L 63.28125 0 
L 52.6875 0 
L 40.921875 44.828125 
L 29.109375 0 
L 18.5 0 
z
" id="BitstreamVeraSans-Roman-77"/>
     <path d="M 45.40625 46.390625 
L 45.40625 75.984375 
L 54.390625 75.984375 
L 54.390625 0 
L 45.40625 0 
L 45.40625 8.203125 
Q 42.578125 3.328125 38.25 0.953125 
Q 33.9375 -1.421875 27.875 -1.421875 
Q 17.96875 -1.421875 11.734375 6.484375 
Q 5.515625 14.40625 5.515625 27.296875 
Q 5.515625 40.1875 11.734375 48.09375 
Q 17.96875 56 27.875 56 
Q 33.9375 56 38.25 53.625 
Q 42.578125 51.265625 45.40625 46.390625 
M 14.796875 27.296875 
Q 14.796875 17.390625 18.875 11.75 
Q 22.953125 6.109375 30.078125 6.109375 
Q 37.203125 6.109375 41.296875 11.75 
Q 45.40625 17.390625 45.40625 27.296875 
Q 45.40625 37.203125 41.296875 42.84375 
Q 37.203125 48.484375 30.078125 48.484375 
Q 22.953125 48.484375 18.875 42.84375 
Q 14.796875 37.203125 14.796875 27.296875 
" id="BitstreamVeraSans-Roman-64"/>
     <path d="M 48.6875 27.296875 
Q 48.6875 37.203125 44.609375 42.84375 
Q 40.53125 48.484375 33.40625 48.484375 
Q 26.265625 48.484375 22.1875 42.84375 
Q 18.109375 37.203125 18.109375 27.296875 
Q 18.109375 17.390625 22.1875 11.75 
Q 26.265625 6.109375 33.40625 6.109375 
Q 40.53125 6.109375 44.609375 11.75 
Q 48.6875 17.390625 48.6875 27.296875 
M 18.109375 46.390625 
Q 20.953125 51.265625 25.265625 53.625 
Q 29.59375 56 35.59375 56 
Q 45.5625 56 51.78125 48.09375 
Q 58.015625 40.1875 58.015625 27.296875 
Q 58.015625 14.40625 51.78125 6.484375 
Q 45.5625 -1.421875 35.59375 -1.421875 
Q 29.59375 -1.421875 25.265625 0.953125 
Q 20.953125 3.328125 18.109375 8.203125 
L 18.109375 0 
L 9.078125 0 
L 9.078125 75.984375 
L 18.109375 75.984375 
z
" id="BitstreamVeraSans-Roman-62"/>
    </defs>
    <g transform="translate(19.50075 38.2)scale(0.144 -0.144)">
     <use xlink:href="#BitstreamVeraSans-Roman-53"/>
     <use x="63.4765625" xlink:href="#BitstreamVeraSans-Roman-6f"/>
     <use x="124.658203125" xlink:href="#BitstreamVeraSans-Roman-72"/>
     <use x="165.771484375" xlink:href="#BitstreamVeraSans-Roman-74"/>
     <use x="204.98046875" xlink:href="#BitstreamVeraSans-Roman-65"/>
     <use x="266.50390625" xlink:href="#BitstreamVeraSans-Roman-64"/>
     <use x="329.98046875" xlink:href="#BitstreamVeraSans-Roman-20"/>
     <use x="361.767578125" xlink:href="#BitstreamVeraSans-Roman-41"/>
     <use x="430.17578125" xlink:href="#BitstreamVeraSans-Roman-62"/>
     <use x="493.65234375" xlink:href="#BitstreamVeraSans-Roman-73"/>
     <use x="545.751953125" xlink:href="#BitstreamVeraSans-Roman-6f"/>
     <use x="606.93359375" xlink:href="#BitstreamVeraSans-Roman-6c"/>
     <use x="634.716796875" xlink:href="#BitstreamVeraSans-Roman-75"/>
     <use x="698.095703125" xlink:href="#BitstreamVeraSans-Roman-74"/>
     <use x="737.3046875" xlink:href="#BitstreamVeraSans-Roman-65"/>
     <use x="798.828125" xlink:href="#BitstreamVeraSans-Roman-20"/>
     <use x="830.615234375" xlink:href="#BitstreamVeraSans-Roman-56"/>
     <use x="898.9140625" xlink:href="#BitstreamVeraSans-Roman-61"/>
     <use x="960.193359375" xlink:href="#BitstreamVeraSans-Roman-6c"/>
     <use x="987.9765625" xlink:href="#BitstreamVeraSans-Roman-75"/>
     <use x="1051.35546875" xlink:href="#BitstreamVeraSans-Roman-65"/>
     <use x="1112.87890625" xlink:href="#BitstreamVeraSans-Roman-20"/>
     <use x="1144.66601562" xlink:href="#BitstreamVeraSans-Roman-43"/>
     <use x="1214.49023438" xlink:href="#BitstreamVeraSans-Roman-6f"/>
     <use x="1275.671875" xlink:href="#BitstreamVeraSans-Roman-72"/>
     <use x="1316.76953125" xlink:href="#BitstreamVeraSans-Roman-72"/>
     <use x="1357.8515625" xlink:href="#BitstreamVeraSans-Roman-65"/>
     <use x="1419.375" xlink:href="#BitstreamVeraSans-Roman-6c"/>
     <use x="1447.15820312" xlink:href="#BitstreamVeraSans-Roman-61"/>
     <use x="1508.4375" xlink:href="#BitstreamVeraSans-Roman-74"/>
     <use x="1547.64648438" xlink:href="#BitstreamVeraSans-Roman-69"/>
     <use x="1575.4296875" xlink:href="#BitstreamVeraSans-Roman-6f"/>
     <use x="1636.61132812" xlink:href="#BitstreamVeraSans-Roman-6e"/>
     <use x="1699.99023438" xlink:href="#BitstreamVeraSans-Roman-73"/>
     <use x="1752.08984375" xlink:href="#BitstreamVeraSans-Roman-20"/>
     <use x="1783.87695312" xlink:href="#BitstreamVeraSans-Roman-62"/>
     <use x="1847.35351562" xlink:href="#BitstreamVeraSans-Roman-65"/>
     <use x="1908.87695312" xlink:href="#BitstreamVeraSans-Roman-74"/>
     <use x="1948.0859375" xlink:href="#BitstreamVeraSans-Roman-77"/>
     <use x="2029.87304688" xlink:href="#BitstreamVeraSans-Roman-65"/>
     <use x="2091.39648438" xlink:href="#BitstreamVeraSans-Roman-65"/>
     <use x="2152.91992188" xlink:href="#BitstreamVeraSans-Roman-6e"/>
     <use x="2216.29882812" xlink:href="#BitstreamVeraSans-Roman-20"/>
     <use x="2248.0859375" xlink:href="#BitstreamVeraSans-Roman-32"/>
     <use x="2311.70898438" xlink:href="#BitstreamVeraSans-Roman-20"/>
     <use x="2343.49609375" xlink:href="#BitstreamVeraSans-Roman-43"/>
     <use x="2413.3203125" xlink:href="#BitstreamVeraSans-Roman-68"/>
     <use x="2476.69921875" xlink:href="#BitstreamVeraSans-Roman-61"/>
     <use x="2537.97851562" xlink:href="#BitstreamVeraSans-Roman-6e"/>
     <use x="2601.35742188" xlink:href="#BitstreamVeraSans-Roman-6e"/>
     <use x="2664.73632812" xlink:href="#BitstreamVeraSans-Roman-65"/>
     <use x="2726.25976562" xlink:href="#BitstreamVeraSans-Roman-6c"/>
     <use x="2754.04296875" xlink:href="#BitstreamVeraSans-Roman-73"/>
     <use x="2806.14257812" xlink:href="#BitstreamVeraSans-Roman-20"/>
     <use x="2837.9296875" xlink:href="#BitstreamVeraSans-Roman-28"/>
     <use x="2876.94335938" xlink:href="#BitstreamVeraSans-Roman-31"/>
     <use x="2940.56640625" xlink:href="#BitstreamVeraSans-Roman-20"/>
     <use x="2972.35351562" xlink:href="#BitstreamVeraSans-Roman-6d"/>
     <use x="3069.765625" xlink:href="#BitstreamVeraSans-Roman-69"/>
     <use x="3097.54882812" xlink:href="#BitstreamVeraSans-Roman-6e"/>
     <use x="3160.92773438" xlink:href="#BitstreamVeraSans-Roman-75"/>
     <use x="3224.30664062" xlink:href="#BitstreamVeraSans-Roman-74"/>
     <use x="3263.515625" xlink:href="#BitstreamVeraSans-Roman-65"/>
     <use x="3325.0390625" xlink:href="#BitstreamVeraSans-Roman-20"/>
     <use x="3356.82617188" xlink:href="#BitstreamVeraSans-Roman-69"/>
     <use x="3384.609375" xlink:href="#BitstreamVeraSans-Roman-6e"/>
     <use x="3447.98828125" xlink:href="#BitstreamVeraSans-Roman-74"/>
     <use x="3487.19726562" xlink:href="#BitstreamVeraSans-Roman-65"/>
     <use x="3548.72070312" xlink:href="#BitstreamVeraSans-Roman-72"/>
     <use x="3589.83398438" xlink:href="#BitstreamVeraSans-Roman-76"/>
     <use x="3649.01367188" xlink:href="#BitstreamVeraSans-Roman-61"/>
     <use x="3710.29296875" xlink:href="#BitstreamVeraSans-Roman-6c"/>
     <use x="3738.07617188" xlink:href="#BitstreamVeraSans-Roman-73"/>
     <use x="3790.17578125" xlink:href="#BitstreamVeraSans-Roman-29"/>
    </g>
   </g>
  </g>
 </g>
 <defs>
  <clipPath id="p941e565cc9">
   <rect height="345.6" width="446.4" x="72.0" y="43.2"/>
  </clipPath>
 </defs>
</svg>
