<?xml version="1.0" encoding="utf-8" standalone="no"?>
<!DOCTYPE svg PUBLIC "-//W3C//DTD SVG 1.1//EN"
  "http://www.w3.org/Graphics/SVG/1.1/DTD/svg11.dtd">
<!-- Created with matplotlib (http://matplotlib.org/) -->
<svg height="432pt" version="1.1" viewBox="0 0 576 432" width="576pt" xmlns="http://www.w3.org/2000/svg" xmlns:xlink="http://www.w3.org/1999/xlink">
 <defs>
  <style type="text/css">
*{stroke-linecap:butt;stroke-linejoin:round;stroke-miterlimit:100000;}
  </style>
 </defs>
 <g id="figure_1">
  <g id="patch_1">
   <path d="M 0 432 
L 576 432 
L 576 0 
L 0 0 
z
" style="fill:#ffffff;"/>
  </g>
  <g id="axes_1">
   <g id="patch_2">
    <path d="M 72 388.8 
L 518.4 388.8 
L 518.4 43.2 
L 72 43.2 
z
" style="fill:#ffffff;"/>
   </g>
   <g id="line2d_1">
    <path clip-path="url(#pb18b3647ad)" d="M 72.228338 258.291973 
L 72.456675 254.964831 
L 72.685013 253.755381 
L 72.91335 253.274174 
L 73.141688 250.952682 
L 73.370026 250.713579 
L 73.598363 249.931566 
L 74.055038 247.377949 
L 74.511714 246.689225 
L 74.968389 246.650089 
L 75.653402 244.430783 
L 76.110077 244.246673 
L 77.023427 243.563513 
L 77.70844 242.678411 
L 78.165115 242.264965 
L 78.62179 241.033559 
L 78.850128 240.73404 
L 79.535141 240.578427 
L 80.220153 240.425209 
L 80.448491 240.104021 
L 80.676829 240.016476 
L 81.133504 239.514178 
L 81.818517 239.057095 
L 82.046854 238.947916 
L 82.503529 238.282106 
L 82.960205 237.807952 
L 84.33023 237.507794 
L 84.786905 236.940337 
L 85.471918 236.691104 
L 85.700256 236.464266 
L 86.385269 236.301201 
L 87.755294 235.631025 
L 88.211969 235.54796 
L 88.440307 235.311307 
L 89.810332 235.15656 
L 90.03867 234.921988 
L 91.180358 234.626724 
L 91.408696 234.372832 
L 93.692072 233.846699 
L 94.377084 233.752758 
L 94.83376 233.572072 
L 95.975448 233.465141 
L 97.117136 232.622439 
L 98.030486 232.176648 
L 98.943836 231.7875 
L 100.542199 231.426175 
L 100.770537 231.271751 
L 101.45555 231.163303 
L 102.3689 230.993849 
L 102.825575 230.5826 
L 103.738926 230.477109 
L 103.967263 230.251036 
L 104.652276 230.134597 
L 108.07734 229.533505 
L 108.534015 229.394196 
L 110.132379 229.274926 
L 111.730742 228.935757 
L 112.644092 228.749162 
L 113.557442 228.634556 
L 117.210844 227.958193 
L 119.49422 227.740836 
L 119.950895 227.584744 
L 120.635908 227.36458 
L 121.549258 227.183749 
L 124.517647 226.857884 
L 125.887673 226.714913 
L 126.572685 226.54108 
L 127.029361 226.447204 
L 131.82445 225.904992 
L 136.61954 225.373442 
L 139.359591 225.176581 
L 140.957954 225.034227 
L 143.698005 224.900089 
L 144.839693 224.783015 
L 153.516522 223.87755 
L 153.973197 223.779892 
L 155.114885 223.658191 
L 155.799898 223.556744 
L 158.083274 223.367172 
L 159.681637 223.148329 
L 161.508338 223.041209 
L 163.791714 222.896289 
L 165.390077 222.77876 
L 180.23202 221.417322 
L 189.593862 220.900651 
L 190.278875 220.814183 
L 192.790588 220.681128 
L 193.703939 220.601568 
L 198.270691 220.428298 
L 199.412379 220.356973 
L 203.294118 220.189276 
L 203.750793 220.118366 
L 207.404194 219.92678 
L 208.089207 219.865684 
L 210.144246 219.749051 
L 212.884297 219.623106 
L 216.537698 219.438979 
L 217.222711 219.369415 
L 221.10445 219.230464 
L 222.474476 219.164597 
L 227.954578 218.966359 
L 237.088082 218.586157 
L 239.828133 218.479986 
L 245.079898 218.341856 
L 249.418312 218.232651 
L 288.235703 217.336496 
L 293.25913 217.212366 
L 305.817698 216.946751 
L 308.786087 216.876351 
L 323.856368 216.461067 
L 328.42312 216.341182 
L 332.761535 216.200821 
L 337.099949 215.970716 
L 342.351714 215.78489 
L 343.265064 215.734165 
L 348.516829 215.482156 
L 349.886854 215.363815 
L 354.681944 215.157082 
L 355.823632 215.10044 
L 360.162046 214.890694 
L 367.240512 214.525317 
L 369.067212 214.392722 
L 372.035601 214.275052 
L 372.720614 214.209619 
L 375.689003 214.095475 
L 383.224143 213.718724 
L 387.33422 213.512691 
L 387.790895 213.430346 
L 391.444297 213.256197 
L 391.900972 213.167324 
L 393.270997 213.06872 
L 394.184348 212.969763 
L 395.782711 212.850866 
L 409.939642 211.801488 
L 410.852992 211.571503 
L 411.538005 211.485291 
L 411.99468 211.364723 
L 412.451355 211.221933 
L 413.136368 211.128476 
L 414.963069 210.931949 
L 415.648082 210.818406 
L 417.018107 210.554453 
L 417.70312 210.520579 
L 418.159795 210.35748 
L 419.986496 210.095178 
L 420.899847 209.897066 
L 423.183223 209.693196 
L 423.41156 209.548042 
L 424.553248 209.412981 
L 424.781586 209.280239 
L 425.694936 209.191862 
L 427.293299 208.840133 
L 427.749974 208.782108 
L 428.663325 208.579963 
L 429.12 208.524219 
L 432.088389 207.705208 
L 432.773402 207.676618 
L 433.001739 207.475454 
L 433.458414 207.464782 
L 433.91509 207.181495 
L 434.82844 207.129348 
L 435.285115 206.824003 
L 436.655141 206.507391 
L 436.883478 206.323253 
L 437.796829 206.149484 
L 438.253504 205.976841 
L 439.166854 205.889823 
L 440.080205 205.542069 
L 440.53688 205.369946 
L 441.678568 205.090128 
L 442.135243 204.787363 
L 444.418619 204.485765 
L 444.875294 204.164973 
L 446.016982 203.950659 
L 447.615345 203.801479 
L 448.757033 203.374565 
L 448.985371 203.36692 
L 449.670384 203.113924 
L 450.583734 202.945771 
L 451.95376 202.813456 
L 452.638772 202.562536 
L 456.063836 202.127721 
L 456.748849 202.032962 
L 457.662199 201.786057 
L 458.803887 201.445341 
L 459.260563 201.413376 
L 459.4889 201.16415 
L 460.858926 200.977701 
L 461.543939 200.907046 
L 462.000614 200.569023 
L 462.228951 200.427484 
L 462.457289 200.422555 
L 462.685627 200.101159 
L 463.598977 199.730679 
L 464.28399 199.025818 
L 465.654015 198.908182 
L 465.882353 198.586442 
L 466.339028 198.435142 
L 466.795703 198.295515 
L 467.480716 198.272246 
L 467.937391 197.926707 
L 468.622404 197.742313 
L 469.079079 197.114671 
L 469.307417 197.089196 
L 469.535754 196.949159 
L 469.764092 196.520683 
L 470.220767 196.345628 
L 470.677442 196.107767 
L 471.134118 195.860963 
L 471.590793 195.810696 
L 472.047468 195.501093 
L 472.504143 195.47494 
L 472.732481 195.328041 
L 472.960818 195.012187 
L 473.645831 194.744935 
L 473.874169 194.312532 
L 474.102506 193.600305 
L 474.559182 193.453973 
L 475.015857 192.461393 
L 475.244194 192.347308 
L 475.929207 191.734451 
L 476.842558 191.276713 
L 477.755908 190.699024 
L 477.984246 190.646037 
L 478.212583 189.646173 
L 478.440921 189.301265 
L 478.669258 189.206263 
L 479.125934 188.85384 
L 479.810946 188.547924 
L 480.039284 188.541615 
L 480.267621 188.130134 
L 480.952634 188.03943 
L 481.409309 187.265063 
L 481.865985 187.116168 
L 482.094322 187.054717 
L 482.32266 186.816416 
L 482.550997 186.781172 
L 482.779335 186.453534 
L 483.23601 186.345599 
L 483.692685 185.488602 
L 484.149361 184.732524 
L 484.606036 183.468462 
L 484.834373 183.312771 
L 485.062711 183.31182 
L 485.291049 183.195744 
L 485.519386 182.220172 
L 485.747724 182.195657 
L 485.976061 181.572245 
L 486.204399 181.274502 
L 486.889412 180.944018 
L 487.574425 180.674983 
L 488.0311 180.466386 
L 488.487775 179.568948 
L 488.94445 177.735184 
L 489.172788 177.464372 
L 489.401125 176.905482 
L 489.629463 176.867874 
L 489.857801 176.559686 
L 490.086138 175.424934 
L 490.314476 175.262774 
L 490.542813 174.950488 
L 490.771151 174.94633 
L 491.227826 174.044799 
L 491.684501 173.793151 
L 492.369514 170.663869 
L 492.826189 170.261888 
L 493.054527 169.714158 
L 493.282864 169.619726 
L 493.511202 169.291213 
L 493.73954 167.631595 
L 493.967877 164.808928 
L 494.196215 164.676899 
L 494.424552 163.85684 
L 494.65289 163.571911 
L 494.881228 163.551831 
L 495.337903 162.143559 
L 495.56624 161.2253 
L 495.794578 159.808638 
L 496.022916 159.595209 
L 496.936266 158.094431 
L 497.164604 158.058575 
L 497.392941 157.167964 
L 497.849616 153.741741 
L 498.077954 153.185174 
L 498.762967 147.453647 
L 498.991304 147.098934 
L 499.44798 145.501429 
L 499.676317 144.820559 
L 500.132992 141.741156 
L 500.36133 139.551007 
L 501.046343 138.505123 
L 501.27468 137.739095 
L 501.503018 137.392681 
L 503.558056 123.98569 
L 503.786394 123.618572 
L 504.014731 122.968471 
L 504.699744 119.371252 
L 504.928082 117.0492 
L 505.156419 116.87248 
L 505.384757 116.187882 
L 505.613095 112.063538 
L 505.841432 111.955732 
L 506.298107 111.033435 
L 506.526445 110.901184 
L 506.754783 107.521155 
L 506.98312 106.265745 
L 507.211458 104.070562 
L 507.439795 104.012487 
L 507.668133 103.481328 
L 507.896471 103.367814 
L 508.124808 101.093198 
L 508.353146 100.921729 
L 508.581483 100.540326 
L 508.809821 98.93813 
L 509.494834 97.152769 
L 509.723171 96.977392 
L 509.951509 95.442556 
L 510.179847 95.418158 
L 510.408184 95.194983 
L 510.636522 94.422117 
L 510.864859 94.085678 
L 511.77821 89.655228 
L 512.006547 89.595122 
L 512.234885 89.220352 
L 512.463223 89.208945 
L 512.69156 87.662758 
L 512.919898 87.267873 
L 513.148235 87.222795 
L 513.376573 85.272352 
L 513.833248 83.978565 
L 514.061586 81.423393 
L 514.289923 81.142194 
L 514.518261 80.137333 
L 514.746598 80.046297 
L 514.974936 78.702514 
L 515.203274 78.547333 
L 515.659949 78.054167 
L 515.888286 77.867334 
L 516.116624 75.370661 
L 516.344962 75.060357 
L 516.801637 72.638985 
L 517.48665 70.315494 
L 517.943325 63.98904 
L 517.943325 63.98904 
" style="fill:none;stroke:#0000ff;stroke-linecap:square;"/>
   </g>
   <g id="line2d_2">
    <path clip-path="url(#pb18b3647ad)" d="M 72.228338 216 
L 517.943325 216 
L 517.943325 216 
" style="fill:none;stroke:#000000;stroke-linecap:square;"/>
   </g>
   <g id="patch_3">
    <path d="M 72 43.2 
L 518.4 43.2 
" style="fill:none;stroke:#000000;stroke-linecap:square;stroke-linejoin:miter;"/>
   </g>
   <g id="patch_4">
    <path d="M 518.4 388.8 
L 518.4 43.2 
" style="fill:none;stroke:#000000;stroke-linecap:square;stroke-linejoin:miter;"/>
   </g>
   <g id="patch_5">
    <path d="M 72 388.8 
L 518.4 388.8 
" style="fill:none;stroke:#000000;stroke-linecap:square;stroke-linejoin:miter;"/>
   </g>
   <g id="patch_6">
    <path d="M 72 388.8 
L 72 43.2 
" style="fill:none;stroke:#000000;stroke-linecap:square;stroke-linejoin:miter;"/>
   </g>
   <g id="matplotlib.axis_1">
    <g id="xtick_1">
     <g id="line2d_3">
      <defs>
       <path d="M 0 0 
L 0 -4 
" id="mb3f9315e13" style="stroke:#000000;stroke-width:0.5;"/>
      </defs>
      <g>
       <use style="stroke:#000000;stroke-width:0.5;" x="72.2283375959" xlink:href="#mb3f9315e13" y="388.8"/>
      </g>
     </g>
     <g id="line2d_4">
      <defs>
       <path d="M 0 0 
L 0 4 
" id="m8e608e38d4" style="stroke:#000000;stroke-width:0.5;"/>
      </defs>
      <g>
       <use style="stroke:#000000;stroke-width:0.5;" x="72.2283375959" xlink:href="#m8e608e38d4" y="43.2"/>
      </g>
     </g>
     <g id="text_1">
      <!-- 0 -->
      <defs>
       <path d="M 31.78125 66.40625 
Q 24.171875 66.40625 20.328125 58.90625 
Q 16.5 51.421875 16.5 36.375 
Q 16.5 21.390625 20.328125 13.890625 
Q 24.171875 6.390625 31.78125 6.390625 
Q 39.453125 6.390625 43.28125 13.890625 
Q 47.125 21.390625 47.125 36.375 
Q 47.125 51.421875 43.28125 58.90625 
Q 39.453125 66.40625 31.78125 66.40625 
M 31.78125 74.21875 
Q 44.046875 74.21875 50.515625 64.515625 
Q 56.984375 54.828125 56.984375 36.375 
Q 56.984375 17.96875 50.515625 8.265625 
Q 44.046875 -1.421875 31.78125 -1.421875 
Q 19.53125 -1.421875 13.0625 8.265625 
Q 6.59375 17.96875 6.59375 36.375 
Q 6.59375 54.828125 13.0625 64.515625 
Q 19.53125 74.21875 31.78125 74.21875 
" id="BitstreamVeraSans-Roman-30"/>
      </defs>
      <g transform="translate(68.4108375959 401.918125)scale(0.12 -0.12)">
       <use xlink:href="#BitstreamVeraSans-Roman-30"/>
      </g>
     </g>
    </g>
    <g id="xtick_2">
     <g id="line2d_5">
      <g>
       <use style="stroke:#000000;stroke-width:0.5;" x="186.39713555" xlink:href="#mb3f9315e13" y="388.8"/>
      </g>
     </g>
     <g id="line2d_6">
      <g>
       <use style="stroke:#000000;stroke-width:0.5;" x="186.39713555" xlink:href="#m8e608e38d4" y="43.2"/>
      </g>
     </g>
     <g id="text_2">
      <!-- 500 -->
      <defs>
       <path d="M 10.796875 72.90625 
L 49.515625 72.90625 
L 49.515625 64.59375 
L 19.828125 64.59375 
L 19.828125 46.734375 
Q 21.96875 47.46875 24.109375 47.828125 
Q 26.265625 48.1875 28.421875 48.1875 
Q 40.625 48.1875 47.75 41.5 
Q 54.890625 34.8125 54.890625 23.390625 
Q 54.890625 11.625 47.5625 5.09375 
Q 40.234375 -1.421875 26.90625 -1.421875 
Q 22.3125 -1.421875 17.546875 -0.640625 
Q 12.796875 0.140625 7.71875 1.703125 
L 7.71875 11.625 
Q 12.109375 9.234375 16.796875 8.0625 
Q 21.484375 6.890625 26.703125 6.890625 
Q 35.15625 6.890625 40.078125 11.328125 
Q 45.015625 15.765625 45.015625 23.390625 
Q 45.015625 31 40.078125 35.4375 
Q 35.15625 39.890625 26.703125 39.890625 
Q 22.75 39.890625 18.8125 39.015625 
Q 14.890625 38.140625 10.796875 36.28125 
z
" id="BitstreamVeraSans-Roman-35"/>
      </defs>
      <g transform="translate(174.94463555 401.918125)scale(0.12 -0.12)">
       <use xlink:href="#BitstreamVeraSans-Roman-35"/>
       <use x="63.623046875" xlink:href="#BitstreamVeraSans-Roman-30"/>
       <use x="127.24609375" xlink:href="#BitstreamVeraSans-Roman-30"/>
      </g>
     </g>
    </g>
    <g id="xtick_3">
     <g id="line2d_7">
      <g>
       <use style="stroke:#000000;stroke-width:0.5;" x="300.565933504" xlink:href="#mb3f9315e13" y="388.8"/>
      </g>
     </g>
     <g id="line2d_8">
      <g>
       <use style="stroke:#000000;stroke-width:0.5;" x="300.565933504" xlink:href="#m8e608e38d4" y="43.2"/>
      </g>
     </g>
     <g id="text_3">
      <!-- 1000 -->
      <defs>
       <path d="M 12.40625 8.296875 
L 28.515625 8.296875 
L 28.515625 63.921875 
L 10.984375 60.40625 
L 10.984375 69.390625 
L 28.421875 72.90625 
L 38.28125 72.90625 
L 38.28125 8.296875 
L 54.390625 8.296875 
L 54.390625 0 
L 12.40625 0 
z
" id="BitstreamVeraSans-Roman-31"/>
      </defs>
      <g transform="translate(285.295933504 401.918125)scale(0.12 -0.12)">
       <use xlink:href="#BitstreamVeraSans-Roman-31"/>
       <use x="63.623046875" xlink:href="#BitstreamVeraSans-Roman-30"/>
       <use x="127.24609375" xlink:href="#BitstreamVeraSans-Roman-30"/>
       <use x="190.869140625" xlink:href="#BitstreamVeraSans-Roman-30"/>
      </g>
     </g>
    </g>
    <g id="xtick_4">
     <g id="line2d_9">
      <g>
       <use style="stroke:#000000;stroke-width:0.5;" x="414.734731458" xlink:href="#mb3f9315e13" y="388.8"/>
      </g>
     </g>
     <g id="line2d_10">
      <g>
       <use style="stroke:#000000;stroke-width:0.5;" x="414.734731458" xlink:href="#m8e608e38d4" y="43.2"/>
      </g>
     </g>
     <g id="text_4">
      <!-- 1500 -->
      <g transform="translate(399.464731458 401.918125)scale(0.12 -0.12)">
       <use xlink:href="#BitstreamVeraSans-Roman-31"/>
       <use x="63.623046875" xlink:href="#BitstreamVeraSans-Roman-35"/>
       <use x="127.24609375" xlink:href="#BitstreamVeraSans-Roman-30"/>
       <use x="190.869140625" xlink:href="#BitstreamVeraSans-Roman-30"/>
      </g>
     </g>
    </g>
    <g id="text_5">
     <!-- Channel vs Channel -->
     <defs>
      <path id="BitstreamVeraSans-Roman-20"/>
      <path d="M 54.890625 33.015625 
L 54.890625 0 
L 45.90625 0 
L 45.90625 32.71875 
Q 45.90625 40.484375 42.875 44.328125 
Q 39.84375 48.1875 33.796875 48.1875 
Q 26.515625 48.1875 22.3125 43.546875 
Q 18.109375 38.921875 18.109375 30.90625 
L 18.109375 0 
L 9.078125 0 
L 9.078125 54.6875 
L 18.109375 54.6875 
L 18.109375 46.1875 
Q 21.34375 51.125 25.703125 53.5625 
Q 30.078125 56 35.796875 56 
Q 45.21875 56 50.046875 50.171875 
Q 54.890625 44.34375 54.890625 33.015625 
" id="BitstreamVeraSans-Roman-6e"/>
      <path d="M 9.421875 75.984375 
L 18.40625 75.984375 
L 18.40625 0 
L 9.421875 0 
z
" id="BitstreamVeraSans-Roman-6c"/>
      <path d="M 2.984375 54.6875 
L 12.5 54.6875 
L 29.59375 8.796875 
L 46.6875 54.6875 
L 56.203125 54.6875 
L 35.6875 0 
L 23.484375 0 
z
" id="BitstreamVeraSans-Roman-76"/>
      <path d="M 64.40625 67.28125 
L 64.40625 56.890625 
Q 59.421875 61.53125 53.78125 63.8125 
Q 48.140625 66.109375 41.796875 66.109375 
Q 29.296875 66.109375 22.65625 58.46875 
Q 16.015625 50.828125 16.015625 36.375 
Q 16.015625 21.96875 22.65625 14.328125 
Q 29.296875 6.6875 41.796875 6.6875 
Q 48.140625 6.6875 53.78125 8.984375 
Q 59.421875 11.28125 64.40625 15.921875 
L 64.40625 5.609375 
Q 59.234375 2.09375 53.4375 0.328125 
Q 47.65625 -1.421875 41.21875 -1.421875 
Q 24.65625 -1.421875 15.125 8.703125 
Q 5.609375 18.84375 5.609375 36.375 
Q 5.609375 53.953125 15.125 64.078125 
Q 24.65625 74.21875 41.21875 74.21875 
Q 47.75 74.21875 53.53125 72.484375 
Q 59.328125 70.75 64.40625 67.28125 
" id="BitstreamVeraSans-Roman-43"/>
      <path d="M 54.890625 33.015625 
L 54.890625 0 
L 45.90625 0 
L 45.90625 32.71875 
Q 45.90625 40.484375 42.875 44.328125 
Q 39.84375 48.1875 33.796875 48.1875 
Q 26.515625 48.1875 22.3125 43.546875 
Q 18.109375 38.921875 18.109375 30.90625 
L 18.109375 0 
L 9.078125 0 
L 9.078125 75.984375 
L 18.109375 75.984375 
L 18.109375 46.1875 
Q 21.34375 51.125 25.703125 53.5625 
Q 30.078125 56 35.796875 56 
Q 45.21875 56 50.046875 50.171875 
Q 54.890625 44.34375 54.890625 33.015625 
" id="BitstreamVeraSans-Roman-68"/>
      <path d="M 56.203125 29.59375 
L 56.203125 25.203125 
L 14.890625 25.203125 
Q 15.484375 15.921875 20.484375 11.0625 
Q 25.484375 6.203125 34.421875 6.203125 
Q 39.59375 6.203125 44.453125 7.46875 
Q 49.3125 8.734375 54.109375 11.28125 
L 54.109375 2.78125 
Q 49.265625 0.734375 44.1875 -0.34375 
Q 39.109375 -1.421875 33.890625 -1.421875 
Q 20.796875 -1.421875 13.15625 6.1875 
Q 5.515625 13.8125 5.515625 26.8125 
Q 5.515625 40.234375 12.765625 48.109375 
Q 20.015625 56 32.328125 56 
Q 43.359375 56 49.78125 48.890625 
Q 56.203125 41.796875 56.203125 29.59375 
M 47.21875 32.234375 
Q 47.125 39.59375 43.09375 43.984375 
Q 39.0625 48.390625 32.421875 48.390625 
Q 24.90625 48.390625 20.390625 44.140625 
Q 15.875 39.890625 15.1875 32.171875 
z
" id="BitstreamVeraSans-Roman-65"/>
      <path d="M 34.28125 27.484375 
Q 23.390625 27.484375 19.1875 25 
Q 14.984375 22.515625 14.984375 16.5 
Q 14.984375 11.71875 18.140625 8.90625 
Q 21.296875 6.109375 26.703125 6.109375 
Q 34.1875 6.109375 38.703125 11.40625 
Q 43.21875 16.703125 43.21875 25.484375 
L 43.21875 27.484375 
z
M 52.203125 31.203125 
L 52.203125 0 
L 43.21875 0 
L 43.21875 8.296875 
Q 40.140625 3.328125 35.546875 0.953125 
Q 30.953125 -1.421875 24.3125 -1.421875 
Q 15.921875 -1.421875 10.953125 3.296875 
Q 6 8.015625 6 15.921875 
Q 6 25.140625 12.171875 29.828125 
Q 18.359375 34.515625 30.609375 34.515625 
L 43.21875 34.515625 
L 43.21875 35.40625 
Q 43.21875 41.609375 39.140625 45 
Q 35.0625 48.390625 27.6875 48.390625 
Q 23 48.390625 18.546875 47.265625 
Q 14.109375 46.140625 10.015625 43.890625 
L 10.015625 52.203125 
Q 14.9375 54.109375 19.578125 55.046875 
Q 24.21875 56 28.609375 56 
Q 40.484375 56 46.34375 49.84375 
Q 52.203125 43.703125 52.203125 31.203125 
" id="BitstreamVeraSans-Roman-61"/>
      <path d="M 44.28125 53.078125 
L 44.28125 44.578125 
Q 40.484375 46.53125 36.375 47.5 
Q 32.28125 48.484375 27.875 48.484375 
Q 21.1875 48.484375 17.84375 46.4375 
Q 14.5 44.390625 14.5 40.28125 
Q 14.5 37.15625 16.890625 35.375 
Q 19.28125 33.59375 26.515625 31.984375 
L 29.59375 31.296875 
Q 39.15625 29.25 43.1875 25.515625 
Q 47.21875 21.78125 47.21875 15.09375 
Q 47.21875 7.46875 41.1875 3.015625 
Q 35.15625 -1.421875 24.609375 -1.421875 
Q 20.21875 -1.421875 15.453125 -0.5625 
Q 10.6875 0.296875 5.421875 2 
L 5.421875 11.28125 
Q 10.40625 8.6875 15.234375 7.390625 
Q 20.0625 6.109375 24.8125 6.109375 
Q 31.15625 6.109375 34.5625 8.28125 
Q 37.984375 10.453125 37.984375 14.40625 
Q 37.984375 18.0625 35.515625 20.015625 
Q 33.0625 21.96875 24.703125 23.78125 
L 21.578125 24.515625 
Q 13.234375 26.265625 9.515625 29.90625 
Q 5.8125 33.546875 5.8125 39.890625 
Q 5.8125 47.609375 11.28125 51.796875 
Q 16.75 56 26.8125 56 
Q 31.78125 56 36.171875 55.265625 
Q 40.578125 54.546875 44.28125 53.078125 
" id="BitstreamVeraSans-Roman-73"/>
     </defs>
     <g transform="translate(235.44375 418.531875)scale(0.12 -0.12)">
      <use xlink:href="#BitstreamVeraSans-Roman-43"/>
      <use x="69.82421875" xlink:href="#BitstreamVeraSans-Roman-68"/>
      <use x="133.203125" xlink:href="#BitstreamVeraSans-Roman-61"/>
      <use x="194.482421875" xlink:href="#BitstreamVeraSans-Roman-6e"/>
      <use x="257.861328125" xlink:href="#BitstreamVeraSans-Roman-6e"/>
      <use x="321.240234375" xlink:href="#BitstreamVeraSans-Roman-65"/>
      <use x="382.763671875" xlink:href="#BitstreamVeraSans-Roman-6c"/>
      <use x="410.546875" xlink:href="#BitstreamVeraSans-Roman-20"/>
      <use x="442.333984375" xlink:href="#BitstreamVeraSans-Roman-76"/>
      <use x="501.513671875" xlink:href="#BitstreamVeraSans-Roman-73"/>
      <use x="553.61328125" xlink:href="#BitstreamVeraSans-Roman-20"/>
      <use x="585.400390625" xlink:href="#BitstreamVeraSans-Roman-43"/>
      <use x="655.224609375" xlink:href="#BitstreamVeraSans-Roman-68"/>
      <use x="718.603515625" xlink:href="#BitstreamVeraSans-Roman-61"/>
      <use x="779.8828125" xlink:href="#BitstreamVeraSans-Roman-6e"/>
      <use x="843.26171875" xlink:href="#BitstreamVeraSans-Roman-6e"/>
      <use x="906.640625" xlink:href="#BitstreamVeraSans-Roman-65"/>
      <use x="968.1640625" xlink:href="#BitstreamVeraSans-Roman-6c"/>
     </g>
    </g>
   </g>
   <g id="matplotlib.axis_2">
    <g id="ytick_1">
     <g id="line2d_11">
      <defs>
       <path d="M 0 0 
L 4 0 
" id="mfec78b99f6" style="stroke:#000000;stroke-width:0.5;"/>
      </defs>
      <g>
       <use style="stroke:#000000;stroke-width:0.5;" x="72.0" xlink:href="#mfec78b99f6" y="373.090909091"/>
      </g>
     </g>
     <g id="line2d_12">
      <defs>
       <path d="M 0 0 
L -4 0 
" id="mbe9cfe2b10" style="stroke:#000000;stroke-width:0.5;"/>
      </defs>
      <g>
       <use style="stroke:#000000;stroke-width:0.5;" x="518.4" xlink:href="#mbe9cfe2b10" y="373.090909091"/>
      </g>
     </g>
     <g id="text_6">
      <!-- −1.0 -->
      <defs>
       <path d="M 10.59375 35.5 
L 73.1875 35.5 
L 73.1875 27.203125 
L 10.59375 27.203125 
z
" id="BitstreamVeraSans-Roman-2212"/>
       <path d="M 10.6875 12.40625 
L 21 12.40625 
L 21 0 
L 10.6875 0 
z
" id="BitstreamVeraSans-Roman-2e"/>
      </defs>
      <g transform="translate(38.860625 376.402159091)scale(0.12 -0.12)">
       <use xlink:href="#BitstreamVeraSans-Roman-2212"/>
       <use x="83.7890625" xlink:href="#BitstreamVeraSans-Roman-31"/>
       <use x="147.412109375" xlink:href="#BitstreamVeraSans-Roman-2e"/>
       <use x="179.19921875" xlink:href="#BitstreamVeraSans-Roman-30"/>
      </g>
     </g>
    </g>
    <g id="ytick_2">
     <g id="line2d_13">
      <g>
       <use style="stroke:#000000;stroke-width:0.5;" x="72.0" xlink:href="#mfec78b99f6" y="294.545454545"/>
      </g>
     </g>
     <g id="line2d_14">
      <g>
       <use style="stroke:#000000;stroke-width:0.5;" x="518.4" xlink:href="#mbe9cfe2b10" y="294.545454545"/>
      </g>
     </g>
     <g id="text_7">
      <!-- −0.5 -->
      <g transform="translate(38.860625 297.856704545)scale(0.12 -0.12)">
       <use xlink:href="#BitstreamVeraSans-Roman-2212"/>
       <use x="83.7890625" xlink:href="#BitstreamVeraSans-Roman-30"/>
       <use x="147.412109375" xlink:href="#BitstreamVeraSans-Roman-2e"/>
       <use x="179.19921875" xlink:href="#BitstreamVeraSans-Roman-35"/>
      </g>
     </g>
    </g>
    <g id="ytick_3">
     <g id="line2d_15">
      <g>
       <use style="stroke:#000000;stroke-width:0.5;" x="72.0" xlink:href="#mfec78b99f6" y="216.0"/>
      </g>
     </g>
     <g id="line2d_16">
      <g>
       <use style="stroke:#000000;stroke-width:0.5;" x="518.4" xlink:href="#mbe9cfe2b10" y="216.0"/>
      </g>
     </g>
     <g id="text_8">
      <!-- 0.0 -->
      <g transform="translate(48.91625 219.31125)scale(0.12 -0.12)">
       <use xlink:href="#BitstreamVeraSans-Roman-30"/>
       <use x="63.623046875" xlink:href="#BitstreamVeraSans-Roman-2e"/>
       <use x="95.41015625" xlink:href="#BitstreamVeraSans-Roman-30"/>
      </g>
     </g>
    </g>
    <g id="ytick_4">
     <g id="line2d_17">
      <g>
       <use style="stroke:#000000;stroke-width:0.5;" x="72.0" xlink:href="#mfec78b99f6" y="137.454545455"/>
      </g>
     </g>
     <g id="line2d_18">
      <g>
       <use style="stroke:#000000;stroke-width:0.5;" x="518.4" xlink:href="#mbe9cfe2b10" y="137.454545455"/>
      </g>
     </g>
     <g id="text_9">
      <!-- 0.5 -->
      <g transform="translate(48.91625 140.765795455)scale(0.12 -0.12)">
       <use xlink:href="#BitstreamVeraSans-Roman-30"/>
       <use x="63.623046875" xlink:href="#BitstreamVeraSans-Roman-2e"/>
       <use x="95.41015625" xlink:href="#BitstreamVeraSans-Roman-35"/>
      </g>
     </g>
    </g>
    <g id="ytick_5">
     <g id="line2d_19">
      <g>
       <use style="stroke:#000000;stroke-width:0.5;" x="72.0" xlink:href="#mfec78b99f6" y="58.9090909091"/>
      </g>
     </g>
     <g id="line2d_20">
      <g>
       <use style="stroke:#000000;stroke-width:0.5;" x="518.4" xlink:href="#mbe9cfe2b10" y="58.9090909091"/>
      </g>
     </g>
     <g id="text_10">
      <!-- 1.0 -->
      <g transform="translate(48.91625 62.2203409091)scale(0.12 -0.12)">
       <use xlink:href="#BitstreamVeraSans-Roman-31"/>
       <use x="63.623046875" xlink:href="#BitstreamVeraSans-Roman-2e"/>
       <use x="95.41015625" xlink:href="#BitstreamVeraSans-Roman-30"/>
      </g>
     </g>
    </g>
    <g id="text_11">
     <!-- Correlation value -->
     <defs>
      <path d="M 8.5 21.578125 
L 8.5 54.6875 
L 17.484375 54.6875 
L 17.484375 21.921875 
Q 17.484375 14.15625 20.5 10.265625 
Q 23.53125 6.390625 29.59375 6.390625 
Q 36.859375 6.390625 41.078125 11.03125 
Q 45.3125 15.671875 45.3125 23.6875 
L 45.3125 54.6875 
L 54.296875 54.6875 
L 54.296875 0 
L 45.3125 0 
L 45.3125 8.40625 
Q 42.046875 3.421875 37.71875 1 
Q 33.40625 -1.421875 27.6875 -1.421875 
Q 18.265625 -1.421875 13.375 4.4375 
Q 8.5 10.296875 8.5 21.578125 
" id="BitstreamVeraSans-Roman-75"/>
      <path d="M 9.421875 54.6875 
L 18.40625 54.6875 
L 18.40625 0 
L 9.421875 0 
z
M 9.421875 75.984375 
L 18.40625 75.984375 
L 18.40625 64.59375 
L 9.421875 64.59375 
z
" id="BitstreamVeraSans-Roman-69"/>
      <path d="M 18.3125 70.21875 
L 18.3125 54.6875 
L 36.8125 54.6875 
L 36.8125 47.703125 
L 18.3125 47.703125 
L 18.3125 18.015625 
Q 18.3125 11.328125 20.140625 9.421875 
Q 21.96875 7.515625 27.59375 7.515625 
L 36.8125 7.515625 
L 36.8125 0 
L 27.59375 0 
Q 17.1875 0 13.234375 3.875 
Q 9.28125 7.765625 9.28125 18.015625 
L 9.28125 47.703125 
L 2.6875 47.703125 
L 2.6875 54.6875 
L 9.28125 54.6875 
L 9.28125 70.21875 
z
" id="BitstreamVeraSans-Roman-74"/>
      <path d="M 30.609375 48.390625 
Q 23.390625 48.390625 19.1875 42.75 
Q 14.984375 37.109375 14.984375 27.296875 
Q 14.984375 17.484375 19.15625 11.84375 
Q 23.34375 6.203125 30.609375 6.203125 
Q 37.796875 6.203125 41.984375 11.859375 
Q 46.1875 17.53125 46.1875 27.296875 
Q 46.1875 37.015625 41.984375 42.703125 
Q 37.796875 48.390625 30.609375 48.390625 
M 30.609375 56 
Q 42.328125 56 49.015625 48.375 
Q 55.71875 40.765625 55.71875 27.296875 
Q 55.71875 13.875 49.015625 6.21875 
Q 42.328125 -1.421875 30.609375 -1.421875 
Q 18.84375 -1.421875 12.171875 6.21875 
Q 5.515625 13.875 5.515625 27.296875 
Q 5.515625 40.765625 12.171875 48.375 
Q 18.84375 56 30.609375 56 
" id="BitstreamVeraSans-Roman-6f"/>
      <path d="M 41.109375 46.296875 
Q 39.59375 47.171875 37.8125 47.578125 
Q 36.03125 48 33.890625 48 
Q 26.265625 48 22.1875 43.046875 
Q 18.109375 38.09375 18.109375 28.8125 
L 18.109375 0 
L 9.078125 0 
L 9.078125 54.6875 
L 18.109375 54.6875 
L 18.109375 46.1875 
Q 20.953125 51.171875 25.484375 53.578125 
Q 30.03125 56 36.53125 56 
Q 37.453125 56 38.578125 55.875 
Q 39.703125 55.765625 41.0625 55.515625 
z
" id="BitstreamVeraSans-Roman-72"/>
     </defs>
     <g transform="translate(31.365 267.6159375)rotate(-90.0)scale(0.12 -0.12)">
      <use xlink:href="#BitstreamVeraSans-Roman-43"/>
      <use x="69.82421875" xlink:href="#BitstreamVeraSans-Roman-6f"/>
      <use x="131.005859375" xlink:href="#BitstreamVeraSans-Roman-72"/>
      <use x="172.103515625" xlink:href="#BitstreamVeraSans-Roman-72"/>
      <use x="213.185546875" xlink:href="#BitstreamVeraSans-Roman-65"/>
      <use x="274.708984375" xlink:href="#BitstreamVeraSans-Roman-6c"/>
      <use x="302.4921875" xlink:href="#BitstreamVeraSans-Roman-61"/>
      <use x="363.771484375" xlink:href="#BitstreamVeraSans-Roman-74"/>
      <use x="402.98046875" xlink:href="#BitstreamVeraSans-Roman-69"/>
      <use x="430.763671875" xlink:href="#BitstreamVeraSans-Roman-6f"/>
      <use x="491.9453125" xlink:href="#BitstreamVeraSans-Roman-6e"/>
      <use x="555.32421875" xlink:href="#BitstreamVeraSans-Roman-20"/>
      <use x="587.111328125" xlink:href="#BitstreamVeraSans-Roman-76"/>
      <use x="646.291015625" xlink:href="#BitstreamVeraSans-Roman-61"/>
      <use x="707.5703125" xlink:href="#BitstreamVeraSans-Roman-6c"/>
      <use x="735.353515625" xlink:href="#BitstreamVeraSans-Roman-75"/>
      <use x="798.732421875" xlink:href="#BitstreamVeraSans-Roman-65"/>
     </g>
    </g>
   </g>
   <g id="text_12">
    <!-- Sorted Correlations between 2 Channels -->
    <defs>
     <path d="M 19.1875 8.296875 
L 53.609375 8.296875 
L 53.609375 0 
L 7.328125 0 
L 7.328125 8.296875 
Q 12.9375 14.109375 22.625 23.890625 
Q 32.328125 33.6875 34.8125 36.53125 
Q 39.546875 41.84375 41.421875 45.53125 
Q 43.3125 49.21875 43.3125 52.78125 
Q 43.3125 58.59375 39.234375 62.25 
Q 35.15625 65.921875 28.609375 65.921875 
Q 23.96875 65.921875 18.8125 64.3125 
Q 13.671875 62.703125 7.8125 59.421875 
L 7.8125 69.390625 
Q 13.765625 71.78125 18.9375 73 
Q 24.125 74.21875 28.421875 74.21875 
Q 39.75 74.21875 46.484375 68.546875 
Q 53.21875 62.890625 53.21875 53.421875 
Q 53.21875 48.921875 51.53125 44.890625 
Q 49.859375 40.875 45.40625 35.40625 
Q 44.1875 33.984375 37.640625 27.21875 
Q 31.109375 20.453125 19.1875 8.296875 
" id="BitstreamVeraSans-Roman-32"/>
     <path d="M 45.40625 46.390625 
L 45.40625 75.984375 
L 54.390625 75.984375 
L 54.390625 0 
L 45.40625 0 
L 45.40625 8.203125 
Q 42.578125 3.328125 38.25 0.953125 
Q 33.9375 -1.421875 27.875 -1.421875 
Q 17.96875 -1.421875 11.734375 6.484375 
Q 5.515625 14.40625 5.515625 27.296875 
Q 5.515625 40.1875 11.734375 48.09375 
Q 17.96875 56 27.875 56 
Q 33.9375 56 38.25 53.625 
Q 42.578125 51.265625 45.40625 46.390625 
M 14.796875 27.296875 
Q 14.796875 17.390625 18.875 11.75 
Q 22.953125 6.109375 30.078125 6.109375 
Q 37.203125 6.109375 41.296875 11.75 
Q 45.40625 17.390625 45.40625 27.296875 
Q 45.40625 37.203125 41.296875 42.84375 
Q 37.203125 48.484375 30.078125 48.484375 
Q 22.953125 48.484375 18.875 42.84375 
Q 14.796875 37.203125 14.796875 27.296875 
" id="BitstreamVeraSans-Roman-64"/>
     <path d="M 53.515625 70.515625 
L 53.515625 60.890625 
Q 47.90625 63.578125 42.921875 64.890625 
Q 37.9375 66.21875 33.296875 66.21875 
Q 25.25 66.21875 20.875 63.09375 
Q 16.5 59.96875 16.5 54.203125 
Q 16.5 49.359375 19.40625 46.890625 
Q 22.3125 44.4375 30.421875 42.921875 
L 36.375 41.703125 
Q 47.40625 39.59375 52.65625 34.296875 
Q 57.90625 29 57.90625 20.125 
Q 57.90625 9.515625 50.796875 4.046875 
Q 43.703125 -1.421875 29.984375 -1.421875 
Q 24.8125 -1.421875 18.96875 -0.25 
Q 13.140625 0.921875 6.890625 3.21875 
L 6.890625 13.375 
Q 12.890625 10.015625 18.65625 8.296875 
Q 24.421875 6.59375 29.984375 6.59375 
Q 38.421875 6.59375 43.015625 9.90625 
Q 47.609375 13.234375 47.609375 19.390625 
Q 47.609375 24.75 44.3125 27.78125 
Q 41.015625 30.8125 33.5 32.328125 
L 27.484375 33.5 
Q 16.453125 35.6875 11.515625 40.375 
Q 6.59375 45.0625 6.59375 53.421875 
Q 6.59375 63.09375 13.40625 68.65625 
Q 20.21875 74.21875 32.171875 74.21875 
Q 37.3125 74.21875 42.625 73.28125 
Q 47.953125 72.359375 53.515625 70.515625 
" id="BitstreamVeraSans-Roman-53"/>
     <path d="M 4.203125 54.6875 
L 13.1875 54.6875 
L 24.421875 12.015625 
L 35.59375 54.6875 
L 46.1875 54.6875 
L 57.421875 12.015625 
L 68.609375 54.6875 
L 77.59375 54.6875 
L 63.28125 0 
L 52.6875 0 
L 40.921875 44.828125 
L 29.109375 0 
L 18.5 0 
z
" id="BitstreamVeraSans-Roman-77"/>
     <path d="M 48.6875 27.296875 
Q 48.6875 37.203125 44.609375 42.84375 
Q 40.53125 48.484375 33.40625 48.484375 
Q 26.265625 48.484375 22.1875 42.84375 
Q 18.109375 37.203125 18.109375 27.296875 
Q 18.109375 17.390625 22.1875 11.75 
Q 26.265625 6.109375 33.40625 6.109375 
Q 40.53125 6.109375 44.609375 11.75 
Q 48.6875 17.390625 48.6875 27.296875 
M 18.109375 46.390625 
Q 20.953125 51.265625 25.265625 53.625 
Q 29.59375 56 35.59375 56 
Q 45.5625 56 51.78125 48.09375 
Q 58.015625 40.1875 58.015625 27.296875 
Q 58.015625 14.40625 51.78125 6.484375 
Q 45.5625 -1.421875 35.59375 -1.421875 
Q 29.59375 -1.421875 25.265625 0.953125 
Q 20.953125 3.328125 18.109375 8.203125 
L 18.109375 0 
L 9.078125 0 
L 9.078125 75.984375 
L 18.109375 75.984375 
z
" id="BitstreamVeraSans-Roman-62"/>
    </defs>
    <g transform="translate(149.526 38.2)scale(0.144 -0.144)">
     <use xlink:href="#BitstreamVeraSans-Roman-53"/>
     <use x="63.4765625" xlink:href="#BitstreamVeraSans-Roman-6f"/>
     <use x="124.658203125" xlink:href="#BitstreamVeraSans-Roman-72"/>
     <use x="165.771484375" xlink:href="#BitstreamVeraSans-Roman-74"/>
     <use x="204.98046875" xlink:href="#BitstreamVeraSans-Roman-65"/>
     <use x="266.50390625" xlink:href="#BitstreamVeraSans-Roman-64"/>
     <use x="329.98046875" xlink:href="#BitstreamVeraSans-Roman-20"/>
     <use x="361.767578125" xlink:href="#BitstreamVeraSans-Roman-43"/>
     <use x="431.591796875" xlink:href="#BitstreamVeraSans-Roman-6f"/>
     <use x="492.7734375" xlink:href="#BitstreamVeraSans-Roman-72"/>
     <use x="533.87109375" xlink:href="#BitstreamVeraSans-Roman-72"/>
     <use x="574.953125" xlink:href="#BitstreamVeraSans-Roman-65"/>
     <use x="636.4765625" xlink:href="#BitstreamVeraSans-Roman-6c"/>
     <use x="664.259765625" xlink:href="#BitstreamVeraSans-Roman-61"/>
     <use x="725.5390625" xlink:href="#BitstreamVeraSans-Roman-74"/>
     <use x="764.748046875" xlink:href="#BitstreamVeraSans-Roman-69"/>
     <use x="792.53125" xlink:href="#BitstreamVeraSans-Roman-6f"/>
     <use x="853.712890625" xlink:href="#BitstreamVeraSans-Roman-6e"/>
     <use x="917.091796875" xlink:href="#BitstreamVeraSans-Roman-73"/>
     <use x="969.19140625" xlink:href="#BitstreamVeraSans-Roman-20"/>
     <use x="1000.97851562" xlink:href="#BitstreamVeraSans-Roman-62"/>
     <use x="1064.45507812" xlink:href="#BitstreamVeraSans-Roman-65"/>
     <use x="1125.97851562" xlink:href="#BitstreamVeraSans-Roman-74"/>
     <use x="1165.1875" xlink:href="#BitstreamVeraSans-Roman-77"/>
     <use x="1246.97460938" xlink:href="#BitstreamVeraSans-Roman-65"/>
     <use x="1308.49804688" xlink:href="#BitstreamVeraSans-Roman-65"/>
     <use x="1370.02148438" xlink:href="#BitstreamVeraSans-Roman-6e"/>
     <use x="1433.40039062" xlink:href="#BitstreamVeraSans-Roman-20"/>
     <use x="1465.1875" xlink:href="#BitstreamVeraSans-Roman-32"/>
     <use x="1528.81054688" xlink:href="#BitstreamVeraSans-Roman-20"/>
     <use x="1560.59765625" xlink:href="#BitstreamVeraSans-Roman-43"/>
     <use x="1630.421875" xlink:href="#BitstreamVeraSans-Roman-68"/>
     <use x="1693.80078125" xlink:href="#BitstreamVeraSans-Roman-61"/>
     <use x="1755.08007812" xlink:href="#BitstreamVeraSans-Roman-6e"/>
     <use x="1818.45898438" xlink:href="#BitstreamVeraSans-Roman-6e"/>
     <use x="1881.83789062" xlink:href="#BitstreamVeraSans-Roman-65"/>
     <use x="1943.36132812" xlink:href="#BitstreamVeraSans-Roman-6c"/>
     <use x="1971.14453125" xlink:href="#BitstreamVeraSans-Roman-73"/>
    </g>
   </g>
  </g>
 </g>
 <defs>
  <clipPath id="pb18b3647ad">
   <rect height="345.6" width="446.4" x="72.0" y="43.2"/>
  </clipPath>
 </defs>
</svg>
