<?xml version="1.0" encoding="utf-8" standalone="no"?>
<!DOCTYPE svg PUBLIC "-//W3C//DTD SVG 1.1//EN"
  "http://www.w3.org/Graphics/SVG/1.1/DTD/svg11.dtd">
<!-- Created with matplotlib (http://matplotlib.org/) -->
<svg height="432pt" version="1.1" viewBox="0 0 576 432" width="576pt" xmlns="http://www.w3.org/2000/svg" xmlns:xlink="http://www.w3.org/1999/xlink">
 <defs>
  <style type="text/css">
*{stroke-linecap:butt;stroke-linejoin:round;stroke-miterlimit:100000;}
  </style>
 </defs>
 <g id="figure_1">
  <g id="patch_1">
   <path d="M 0 432 
L 576 432 
L 576 0 
L 0 0 
z
" style="fill:#ffffff;"/>
  </g>
  <g id="axes_1">
   <g id="patch_2">
    <path d="M 72 388.8 
L 518.4 388.8 
L 518.4 43.2 
L 72 43.2 
z
" style="fill:#ffffff;"/>
   </g>
   <g id="line2d_1">
    <path clip-path="url(#p705ef9cc94)" d="M 72.00401 373.006255 
L 72.168418 372.620133 
L 72.280697 372.503043 
L 72.970409 371.835491 
L 73.211006 371.572223 
L 73.315265 371.415836 
L 73.852598 370.582945 
L 73.980917 370.276363 
L 74.718748 368.255954 
L 74.899196 367.210357 
L 74.939296 367.105723 
L 75.083654 366.559474 
L 75.107714 366.422974 
L 75.248062 365.834657 
L 75.592918 364.191291 
L 75.697177 363.679542 
L 75.909704 362.712208 
L 75.929754 362.604339 
L 76.110202 361.563521 
L 76.146291 361.300481 
L 76.334759 360.498289 
L 76.358819 360.371066 
L 77.778342 351.304733 
L 77.826462 351.03492 
L 79.406383 337.664246 
L 79.72317 334.641305 
L 79.867528 333.383248 
L 80.007876 331.546379 
L 80.432931 327.255967 
L 80.57328 325.623513 
L 82.161221 308.691889 
L 82.20132 308.393389 
L 82.638405 304.228703 
L 82.858953 302.988763 
L 82.915092 302.746608 
L 85.726069 288.131907 
L 85.750129 288.033725 
L 86.139094 286.509782 
L 86.53207 285.358457 
L 86.676428 284.950247 
L 86.704498 284.817892 
L 87.891444 280.938245 
L 87.963623 280.757468 
L 88.164121 280.234332 
L 88.172141 280.160179 
L 88.328529 279.543691 
L 88.537046 279.017589 
L 88.777643 278.403369 
L 89.174629 277.344593 
L 89.327007 276.890697 
L 89.519485 276.291404 
L 89.587654 276.073546 
L 89.872361 275.260473 
L 90.939008 272.529994 
L 91.143516 271.809218 
L 91.247774 271.449265 
L 91.388123 271.115246 
L 91.460302 270.99169 
L 91.496392 270.837358 
L 91.736989 270.355295 
L 92.406651 268.633559 
L 92.651258 268.123826 
L 92.915915 267.44024 
L 93.052253 267.173073 
L 93.112403 267.062314 
L 93.34097 266.495853 
L 93.421169 266.317506 
L 93.573547 265.917768 
L 94.868762 263.28472 
L 95.093319 262.864068 
L 95.554464 261.875711 
L 95.618623 261.706648 
L 96.019619 260.941419 
L 96.123877 260.752322 
L 98.124844 257.10325 
L 98.193013 256.988532 
L 101.096219 251.750563 
L 101.196468 251.624477 
L 102.098707 250.193991 
L 102.383414 249.811547 
L 102.547822 249.550432 
L 102.640051 249.409773 
L 102.896688 248.952855 
L 103.125255 248.633763 
L 103.522241 248.042311 
L 103.630509 247.908789 
L 103.790908 247.597611 
L 103.826997 247.517402 
L 103.959326 247.289401 
L 104.276112 246.866599 
L 104.388391 246.736265 
L 105.001913 245.915269 
L 105.182361 245.652411 
L 105.26657 245.543599 
L 105.426968 245.339712 
L 106.297128 244.445304 
L 106.457526 244.293846 
L 106.585845 244.175346 
L 107.163278 243.507158 
L 107.263527 243.363761 
L 107.468034 243.15658 
L 107.588333 243.046376 
L 107.764771 242.858105 
L 108.205866 242.34367 
L 108.398344 242.099905 
L 108.522652 241.982981 
L 108.67503 241.819376 
L 108.887558 241.585775 
L 109.055976 241.389203 
L 109.212364 241.225381 
L 109.428901 241.032083 
L 109.649449 240.803817 
L 109.789797 240.626366 
L 109.934156 240.454725 
L 110.066484 240.293296 
L 110.270992 240.025075 
L 111.072982 239.155927 
L 112.007301 238.147884 
L 112.211809 237.881603 
L 112.328098 237.763532 
L 112.540625 237.548596 
L 112.777212 237.295094 
L 112.92959 237.153034 
L 113.623312 236.54205 
L 113.80777 236.322641 
L 114.016288 236.089461 
L 114.188716 235.937588 
L 114.449363 235.687035 
L 114.605751 235.548537 
L 114.782189 235.4047 
L 116.434289 233.974363 
L 116.582658 233.832951 
L 116.799195 233.634581 
L 116.987663 233.467676 
L 117.176131 233.30904 
L 117.440788 233.093878 
L 117.913962 232.695154 
L 118.08238 232.552557 
L 118.776102 232.025945 
L 119.004669 231.846803 
L 119.149028 231.734469 
L 119.289376 231.638855 
L 119.666312 231.399711 
L 120.167556 231.050785 
L 120.516422 230.808898 
L 120.68484 230.676252 
L 121.879806 229.812948 
L 122.044214 229.68777 
L 122.284811 229.502088 
L 122.826155 229.107693 
L 123.062742 228.982802 
L 123.543936 228.593025 
L 123.652205 228.488565 
L 123.780523 228.403489 
L 123.956961 228.294424 
L 124.193549 228.071888 
L 124.390036 227.907167 
L 124.546424 227.783601 
L 125.027619 227.482563 
L 125.240146 227.350111 
L 125.488763 227.213991 
L 125.681241 227.058159 
L 126.054167 226.780182 
L 126.178475 226.662224 
L 127.277202 225.887549 
L 127.413541 225.777978 
L 128.420039 225.125524 
L 128.588457 224.997846 
L 129.129801 224.657926 
L 129.418517 224.486539 
L 129.691194 224.294017 
L 129.99996 224.124467 
L 132.357813 222.490931 
L 132.534251 222.370454 
L 133.195893 221.938465 
L 133.340251 221.838166 
L 133.560799 221.722175 
L 133.889615 221.48578 
L 134.154272 221.312963 
L 134.451008 221.150436 
L 134.667546 221.038746 
L 135.028442 220.814888 
L 135.16478 220.714117 
L 135.413397 220.51893 
L 135.698104 220.348111 
L 136.439945 219.914916 
L 136.612373 219.817763 
L 137.065498 219.573594 
L 137.245946 219.448093 
L 137.526642 219.296325 
L 137.807339 219.141384 
L 138.112095 218.981954 
L 140.766684 217.555855 
L 141.616794 217.110838 
L 141.881451 216.971339 
L 142.751611 216.594763 
L 142.972158 216.489126 
L 143.232805 216.368547 
L 143.433303 216.253328 
L 144.836787 215.528861 
L 145.42224 215.212543 
L 145.670857 215.092879 
L 145.851305 215.003155 
L 146.144031 214.841701 
L 146.733494 214.52357 
L 146.917952 214.410835 
L 147.166569 214.295932 
L 147.379097 214.214761 
L 147.651774 214.062149 
L 148.237227 213.70175 
L 148.397625 213.605216 
L 149.155506 213.217414 
L 149.432193 213.093317 
L 149.68883 212.932805 
L 150.109875 212.752315 
L 150.4828 212.577597 
L 150.727408 212.461505 
L 150.923895 212.34367 
L 151.272761 212.139835 
L 151.609597 211.966101 
L 151.753956 211.888907 
L 152.122871 211.65962 
L 154.913799 210.030077 
L 155.054147 209.936082 
L 155.507272 209.686131 
L 155.852128 209.507528 
L 156.028566 209.400572 
L 156.245103 209.267559 
L 156.569909 209.073849 
L 156.794467 208.977333 
L 157.175412 208.71106 
L 157.34784 208.622495 
L 157.560368 208.511718 
L 158.133791 208.200991 
L 158.294189 208.1019 
L 158.715234 207.846628 
L 158.903702 207.733464 
L 159.220488 207.543693 
L 160.343275 206.948644 
L 160.539763 206.842752 
L 160.848529 206.673891 
L 161.377843 206.416935 
L 161.66255 206.221267 
L 161.818938 206.107972 
L 162.099634 205.979734 
L 162.4886 205.800191 
L 162.681078 205.695269 
L 163.418909 205.29277 
L 163.643466 205.152867 
L 163.936193 204.979578 
L 164.14872 204.86906 
L 164.301099 204.787293 
L 174.815195 199.009179 
L 175.28035 198.784604 
L 175.476838 198.652475 
L 175.745505 198.519227 
L 175.986102 198.367198 
L 176.222689 198.242523 
L 176.359027 198.180059 
L 176.611654 198.045689 
L 177.237207 197.644905 
L 179.045696 196.700316 
L 179.274263 196.570674 
L 179.410602 196.491138 
L 180.088284 196.171828 
L 180.43715 195.983031 
L 181.046662 195.701993 
L 181.359439 195.540361 
L 181.932862 195.218503 
L 182.197519 195.099723 
L 182.94337 194.695909 
L 183.332336 194.477554 
L 184.102247 194.084694 
L 185.016516 193.643765 
L 185.152854 193.563191 
L 185.50172 193.357362 
L 187.755314 192.239647 
L 188.838001 191.674047 
L 189.271076 191.465229 
L 189.684101 191.289312 
L 189.888609 191.168535 
L 190.257525 190.960375 
L 191.432441 190.298163 
L 191.805366 190.107879 
L 191.969774 190.03997 
L 192.851964 189.600159 
L 193.22489 189.412848 
L 193.437417 189.290088 
L 193.629895 189.214321 
L 193.910592 189.05999 
L 194.06698 188.988121 
L 194.355696 188.853202 
L 195.029369 188.515577 
L 195.354175 188.35352 
L 195.498533 188.257866 
L 195.79126 188.127162 
L 196.023837 188.004326 
L 197.042365 187.496218 
L 197.234843 187.396894 
L 202.824717 184.59463 
L 203.201653 184.408858 
L 203.510419 184.252553 
L 203.851265 184.079288 
L 204.31241 183.850297 
L 204.585087 183.707441 
L 204.741475 183.641385 
L 205.18257 183.463751 
L 205.467276 183.291248 
L 205.739953 183.172987 
L 205.928421 183.088553 
L 206.205108 182.939581 
L 206.453725 182.824591 
L 206.802591 182.659329 
L 207.051208 182.522606 
L 207.632651 182.245369 
L 208.041666 182.061545 
L 208.759448 181.724732 
L 209.036134 181.565682 
L 210.070702 181.063312 
L 210.371449 180.91944 
L 210.507787 180.840297 
L 210.784474 180.726212 
L 211.209529 180.52365 
L 211.758893 180.224985 
L 211.931321 180.139713 
L 212.228057 180.027914 
L 212.653112 179.842516 
L 212.901729 179.708113 
L 214.088675 179.169874 
L 214.365362 179.042223 
L 215.39592 178.576362 
L 215.684637 178.46447 
L 216.510687 178.060988 
L 216.663065 177.984399 
L 217.569315 177.542379 
L 217.93823 177.354009 
L 218.202887 177.237008 
L 218.535713 177.108624 
L 218.83646 176.982905 
L 219.273545 176.776481 
L 219.482062 176.672592 
L 219.802858 176.53337 
L 219.983306 176.462994 
L 220.243953 176.345653 
L 221.126143 175.954828 
L 221.715606 175.669514 
L 222.156701 175.444313 
L 226.387201 173.574215 
L 226.667898 173.441273 
L 227.293451 173.151354 
L 227.638307 172.987102 
L 227.786675 172.925427 
L 228.656835 172.522568 
L 228.997681 172.383988 
L 229.374616 172.18407 
L 229.655313 172.072496 
L 237.679229 168.535017 
L 237.807547 168.45788 
L 238.220573 168.275993 
L 238.729837 168.034295 
L 238.906275 167.952151 
L 239.170931 167.826615 
L 240.99546 167.056599 
L 241.163878 166.977484 
L 242.394934 166.454552 
L 242.547312 166.377916 
L 242.940287 166.215087 
L 243.405442 166.023027 
L 244.239512 165.699199 
L 244.993383 165.388356 
L 245.133732 165.31961 
L 245.975822 164.982356 
L 246.380827 164.836312 
L 246.669544 164.701371 
L 248.145206 164.11106 
L 248.478032 163.930491 
L 248.927147 163.739261 
L 249.308093 163.59436 
L 250.442909 163.090965 
L 250.827865 162.898419 
L 251.156681 162.76575 
L 251.521587 162.642306 
L 252.580214 162.188552 
L 252.868931 162.07191 
L 253.057399 161.977013 
L 253.310026 161.873622 
L 253.682951 161.716669 
L 253.855379 161.631908 
L 254.312514 161.443907 
L 254.64935 161.294652 
L 255.026286 161.131216 
L 256.020754 160.674085 
L 256.437789 160.507509 
L 256.562098 160.433725 
L 257.119481 160.162151 
L 257.500427 159.977756 
L 257.901422 159.80899 
L 258.226228 159.681737 
L 258.835741 159.452797 
L 259.461294 159.236358 
L 259.79412 159.099908 
L 259.950508 159.015402 
L 260.211155 158.896936 
L 262.111873 158.091276 
L 262.396579 157.966823 
L 262.773515 157.802161 
L 262.970003 157.724898 
L 263.399068 157.551238 
L 263.836152 157.377823 
L 264.433635 157.131922 
L 264.8627 156.951513 
L 265.452164 156.725297 
L 265.692761 156.634234 
L 266.017567 156.519407 
L 266.430592 156.361458 
L 266.679209 156.248363 
L 267.777936 155.792851 
L 268.086703 155.650911 
L 268.423539 155.514378 
L 268.724285 155.405186 
L 268.888693 155.327052 
L 269.770883 154.98062 
L 269.911231 154.905083 
L 270.179898 154.78868 
L 270.328266 154.735561 
L 271.884128 154.151687 
L 272.028486 154.08161 
L 273.247512 153.561345 
L 274.217921 153.185623 
L 274.354259 153.12666 
L 280.072452 150.816942 
L 280.726075 150.574387 
L 280.882463 150.49233 
L 281.175189 150.36073 
L 281.532075 150.198612 
L 281.95312 150.045421 
L 282.201737 149.950508 
L 282.434315 149.837085 
L 282.686942 149.741027 
L 283.132046 149.562528 
L 283.276405 149.503757 
L 283.65735 149.339185 
L 283.845818 149.258012 
L 284.166614 149.127899 
L 284.359092 149.054045 
L 285.100933 148.763563 
L 285.261331 148.702047 
L 285.758566 148.501234 
L 286.825213 148.076568 
L 287.254278 147.93734 
L 288.649742 147.394267 
L 288.958508 147.267629 
L 289.483812 147.059534 
L 289.796588 146.941605 
L 304.035931 141.516787 
L 304.216379 141.453233 
L 304.553215 141.318806 
L 304.785793 141.207721 
L 308.647377 139.786818 
L 309.060403 139.615364 
L 309.24085 139.541782 
L 309.545607 139.424966 
L 310.624284 138.999108 
L 312.268365 138.395678 
L 312.541042 138.279695 
L 312.909958 138.15126 
L 313.467341 137.95887 
L 314.578098 137.562307 
L 318.584041 135.988583 
L 319.101325 135.7818 
L 328.05956 132.462967 
L 328.713182 132.221529 
L 328.87358 132.159657 
L 329.178337 132.034189 
L 329.455024 131.9275 
L 329.73171 131.817311 
L 330.004387 131.715123 
L 330.545731 131.488613 
L 331.267522 131.233247 
L 331.792826 131.043895 
L 332.025404 130.94688 
L 334.784251 129.930035 
L 334.952669 129.868151 
L 335.481983 129.674546 
L 335.846889 129.521904 
L 346.01613 125.966717 
L 346.192568 125.896536 
L 346.545443 125.765756 
L 346.79807 125.664283 
L 347.098817 125.556117 
L 347.299315 125.482199 
L 349.941874 124.495764 
L 350.411038 124.309766 
L 351.060651 124.106363 
L 351.461646 123.981978 
L 351.786452 123.881794 
L 352.091208 123.752597 
L 352.367895 123.633243 
L 352.865129 123.454343 
L 353.085677 123.36481 
L 354.312722 122.940909 
L 354.717728 122.782315 
L 355.106693 122.636176 
L 356.049032 122.272605 
L 356.389878 122.15363 
L 410.544294 102.699101 
L 410.692662 102.653148 
L 411.221976 102.473395 
L 411.414453 102.405802 
L 411.67911 102.305646 
L 412.184364 102.094066 
L 412.380852 102.022917 
L 413.467549 101.603403 
L 413.776316 101.500129 
L 414.29761 101.293093 
L 414.702615 101.129528 
L 415.268018 100.945578 
L 415.436436 100.867771 
L 415.749213 100.737097 
L 416.106098 100.577837 
L 416.430905 100.462345 
L 416.83591 100.311094 
L 417.200816 100.187304 
L 417.365224 100.13055 
L 417.774239 99.992205 
L 419.245892 99.438866 
L 419.731096 99.256751 
L 419.947633 99.177642 
L 420.27645 99.049238 
L 420.501007 98.963294 
L 421.663893 98.560224 
L 422.108998 98.404082 
L 423.247825 97.993538 
L 423.66085 97.855277 
L 423.957586 97.747881 
L 449.25237 88.244797 
L 449.613266 88.104362 
L 449.873913 87.991258 
L 450.298968 87.841688 
L 450.728033 87.67631 
L 451.068879 87.546863 
L 451.590173 87.330904 
L 451.78265 87.258651 
L 452.095427 87.131356 
L 455.756514 85.598965 
L 456.037211 85.496009 
L 456.566524 85.285784 
L 457.464754 84.892207 
L 457.721391 84.779996 
L 457.889809 84.708461 
L 459.52988 84.031361 
L 459.682258 83.974351 
L 460.075233 83.815494 
L 460.436129 83.671269 
L 460.704796 83.580583 
L 461.442627 83.277994 
L 462.244618 82.980145 
L 462.469175 82.856691 
L 462.609524 82.790557 
L 463.443594 82.447518 
L 463.75236 82.318495 
L 464.017017 82.214827 
L 464.65059 81.947218 
L 464.819008 81.865384 
L 465.043565 81.746338 
L 468.107169 80.455866 
L 468.383856 80.343375 
L 469.618922 79.876244 
L 469.7713 79.809208 
L 470.072046 79.681564 
L 471.567759 79.084374 
L 474.715572 77.962561 
L 474.888 77.910386 
L 475.204786 77.777563 
L 475.529592 77.658501 
L 476.062916 77.479135 
L 476.459901 77.317447 
L 477.117534 77.063578 
L 477.41427 76.940861 
L 477.634818 76.850259 
L 477.919524 76.727746 
L 480.381635 75.763135 
L 480.666342 75.661396 
L 481.171596 75.467646 
L 481.66883 75.276009 
L 484.054752 74.339362 
L 484.383569 74.222229 
L 485.061251 73.971774 
L 485.245708 73.89464 
L 486.244187 73.52319 
L 490.25815 72.023391 
L 491.136329 71.686774 
L 491.485195 71.557836 
L 491.653613 71.498802 
L 492.251096 71.282966 
L 492.664122 71.108395 
L 493.121256 70.934757 
L 493.381903 70.810563 
L 493.847058 70.659205 
L 494.055575 70.579323 
L 494.725237 70.31741 
L 495.126233 70.19471 
L 499.857977 68.337985 
L 500.086545 68.25926 
L 500.359221 68.137782 
L 501.173242 67.818293 
L 501.618347 67.661046 
L 501.870974 67.563807 
L 502.19979 67.417675 
L 502.408307 67.341781 
L 503.583224 66.848058 
L 503.727582 66.799031 
L 504.120557 66.635048 
L 504.541602 66.476032 
L 504.818289 66.352007 
L 505.415772 66.109328 
L 506.947574 65.473562 
L 507.508968 65.227693 
L 507.649316 65.146058 
L 508.046301 64.983237 
L 509.269337 64.412026 
L 509.485874 64.288932 
L 509.714442 64.171523 
L 510.372074 63.837682 
L 513.672265 62.110798 
L 513.936922 61.889343 
L 514.14143 61.743819 
L 514.626634 61.34188 
L 514.927381 61.088816 
L 515.192038 60.849486 
L 515.649172 60.484175 
L 515.79754 60.381074 
L 515.981998 60.198608 
L 516.282745 59.99089 
L 516.447153 59.880724 
L 516.735869 59.729037 
L 516.972457 59.608198 
L 517.249143 59.470538 
L 517.54588 59.331589 
L 518.39198 58.921754 
L 518.39198 58.921754 
" style="fill:none;stroke:#0000ff;stroke-linecap:square;"/>
   </g>
   <g id="line2d_2">
    <path clip-path="url(#p705ef9cc94)" d="M 72.00401 216 
L 518.39198 216 
L 518.39198 216 
" style="fill:none;stroke:#000000;stroke-linecap:square;"/>
   </g>
   <g id="patch_3">
    <path d="M 72 43.2 
L 518.4 43.2 
" style="fill:none;stroke:#000000;stroke-linecap:square;stroke-linejoin:miter;"/>
   </g>
   <g id="patch_4">
    <path d="M 518.4 388.8 
L 518.4 43.2 
" style="fill:none;stroke:#000000;stroke-linecap:square;stroke-linejoin:miter;"/>
   </g>
   <g id="patch_5">
    <path d="M 72 388.8 
L 518.4 388.8 
" style="fill:none;stroke:#000000;stroke-linecap:square;stroke-linejoin:miter;"/>
   </g>
   <g id="patch_6">
    <path d="M 72 388.8 
L 72 43.2 
" style="fill:none;stroke:#000000;stroke-linecap:square;stroke-linejoin:miter;"/>
   </g>
   <g id="matplotlib.axis_1">
    <g id="xtick_1">
     <g id="line2d_3">
      <defs>
       <path d="M 0 0 
L 0 -4 
" id="m17ffe9a67e" style="stroke:#000000;stroke-width:0.5;"/>
      </defs>
      <g>
       <use style="stroke:#000000;stroke-width:0.5;" x="72.004009953" xlink:href="#m17ffe9a67e" y="388.8"/>
      </g>
     </g>
     <g id="line2d_4">
      <defs>
       <path d="M 0 0 
L 0 4 
" id="m7dff499782" style="stroke:#000000;stroke-width:0.5;"/>
      </defs>
      <g>
       <use style="stroke:#000000;stroke-width:0.5;" x="72.004009953" xlink:href="#m7dff499782" y="43.2"/>
      </g>
     </g>
     <g id="text_1">
      <!-- 0 -->
      <defs>
       <path d="M 31.78125 66.40625 
Q 24.171875 66.40625 20.328125 58.90625 
Q 16.5 51.421875 16.5 36.375 
Q 16.5 21.390625 20.328125 13.890625 
Q 24.171875 6.390625 31.78125 6.390625 
Q 39.453125 6.390625 43.28125 13.890625 
Q 47.125 21.390625 47.125 36.375 
Q 47.125 51.421875 43.28125 58.90625 
Q 39.453125 66.40625 31.78125 66.40625 
M 31.78125 74.21875 
Q 44.046875 74.21875 50.515625 64.515625 
Q 56.984375 54.828125 56.984375 36.375 
Q 56.984375 17.96875 50.515625 8.265625 
Q 44.046875 -1.421875 31.78125 -1.421875 
Q 19.53125 -1.421875 13.0625 8.265625 
Q 6.59375 17.96875 6.59375 36.375 
Q 6.59375 54.828125 13.0625 64.515625 
Q 19.53125 74.21875 31.78125 74.21875 
" id="BitstreamVeraSans-Roman-30"/>
      </defs>
      <g transform="translate(68.186509953 401.918125)scale(0.12 -0.12)">
       <use xlink:href="#BitstreamVeraSans-Roman-30"/>
      </g>
     </g>
    </g>
    <g id="xtick_2">
     <g id="line2d_5">
      <g>
       <use style="stroke:#000000;stroke-width:0.5;" x="152.203070345" xlink:href="#m17ffe9a67e" y="388.8"/>
      </g>
     </g>
     <g id="line2d_6">
      <g>
       <use style="stroke:#000000;stroke-width:0.5;" x="152.203070345" xlink:href="#m7dff499782" y="43.2"/>
      </g>
     </g>
     <g id="text_2">
      <!-- 20000 -->
      <defs>
       <path d="M 19.1875 8.296875 
L 53.609375 8.296875 
L 53.609375 0 
L 7.328125 0 
L 7.328125 8.296875 
Q 12.9375 14.109375 22.625 23.890625 
Q 32.328125 33.6875 34.8125 36.53125 
Q 39.546875 41.84375 41.421875 45.53125 
Q 43.3125 49.21875 43.3125 52.78125 
Q 43.3125 58.59375 39.234375 62.25 
Q 35.15625 65.921875 28.609375 65.921875 
Q 23.96875 65.921875 18.8125 64.3125 
Q 13.671875 62.703125 7.8125 59.421875 
L 7.8125 69.390625 
Q 13.765625 71.78125 18.9375 73 
Q 24.125 74.21875 28.421875 74.21875 
Q 39.75 74.21875 46.484375 68.546875 
Q 53.21875 62.890625 53.21875 53.421875 
Q 53.21875 48.921875 51.53125 44.890625 
Q 49.859375 40.875 45.40625 35.40625 
Q 44.1875 33.984375 37.640625 27.21875 
Q 31.109375 20.453125 19.1875 8.296875 
" id="BitstreamVeraSans-Roman-32"/>
      </defs>
      <g transform="translate(133.115570345 401.918125)scale(0.12 -0.12)">
       <use xlink:href="#BitstreamVeraSans-Roman-32"/>
       <use x="63.623046875" xlink:href="#BitstreamVeraSans-Roman-30"/>
       <use x="127.24609375" xlink:href="#BitstreamVeraSans-Roman-30"/>
       <use x="190.869140625" xlink:href="#BitstreamVeraSans-Roman-30"/>
       <use x="254.4921875" xlink:href="#BitstreamVeraSans-Roman-30"/>
      </g>
     </g>
    </g>
    <g id="xtick_3">
     <g id="line2d_7">
      <g>
       <use style="stroke:#000000;stroke-width:0.5;" x="232.402130737" xlink:href="#m17ffe9a67e" y="388.8"/>
      </g>
     </g>
     <g id="line2d_8">
      <g>
       <use style="stroke:#000000;stroke-width:0.5;" x="232.402130737" xlink:href="#m7dff499782" y="43.2"/>
      </g>
     </g>
     <g id="text_3">
      <!-- 40000 -->
      <defs>
       <path d="M 37.796875 64.3125 
L 12.890625 25.390625 
L 37.796875 25.390625 
z
M 35.203125 72.90625 
L 47.609375 72.90625 
L 47.609375 25.390625 
L 58.015625 25.390625 
L 58.015625 17.1875 
L 47.609375 17.1875 
L 47.609375 0 
L 37.796875 0 
L 37.796875 17.1875 
L 4.890625 17.1875 
L 4.890625 26.703125 
z
" id="BitstreamVeraSans-Roman-34"/>
      </defs>
      <g transform="translate(213.314630737 401.918125)scale(0.12 -0.12)">
       <use xlink:href="#BitstreamVeraSans-Roman-34"/>
       <use x="63.623046875" xlink:href="#BitstreamVeraSans-Roman-30"/>
       <use x="127.24609375" xlink:href="#BitstreamVeraSans-Roman-30"/>
       <use x="190.869140625" xlink:href="#BitstreamVeraSans-Roman-30"/>
       <use x="254.4921875" xlink:href="#BitstreamVeraSans-Roman-30"/>
      </g>
     </g>
    </g>
    <g id="xtick_4">
     <g id="line2d_9">
      <g>
       <use style="stroke:#000000;stroke-width:0.5;" x="312.601191129" xlink:href="#m17ffe9a67e" y="388.8"/>
      </g>
     </g>
     <g id="line2d_10">
      <g>
       <use style="stroke:#000000;stroke-width:0.5;" x="312.601191129" xlink:href="#m7dff499782" y="43.2"/>
      </g>
     </g>
     <g id="text_4">
      <!-- 60000 -->
      <defs>
       <path d="M 33.015625 40.375 
Q 26.375 40.375 22.484375 35.828125 
Q 18.609375 31.296875 18.609375 23.390625 
Q 18.609375 15.53125 22.484375 10.953125 
Q 26.375 6.390625 33.015625 6.390625 
Q 39.65625 6.390625 43.53125 10.953125 
Q 47.40625 15.53125 47.40625 23.390625 
Q 47.40625 31.296875 43.53125 35.828125 
Q 39.65625 40.375 33.015625 40.375 
M 52.59375 71.296875 
L 52.59375 62.3125 
Q 48.875 64.0625 45.09375 64.984375 
Q 41.3125 65.921875 37.59375 65.921875 
Q 27.828125 65.921875 22.671875 59.328125 
Q 17.53125 52.734375 16.796875 39.40625 
Q 19.671875 43.65625 24.015625 45.921875 
Q 28.375 48.1875 33.59375 48.1875 
Q 44.578125 48.1875 50.953125 41.515625 
Q 57.328125 34.859375 57.328125 23.390625 
Q 57.328125 12.15625 50.6875 5.359375 
Q 44.046875 -1.421875 33.015625 -1.421875 
Q 20.359375 -1.421875 13.671875 8.265625 
Q 6.984375 17.96875 6.984375 36.375 
Q 6.984375 53.65625 15.1875 63.9375 
Q 23.390625 74.21875 37.203125 74.21875 
Q 40.921875 74.21875 44.703125 73.484375 
Q 48.484375 72.75 52.59375 71.296875 
" id="BitstreamVeraSans-Roman-36"/>
      </defs>
      <g transform="translate(293.513691129 401.918125)scale(0.12 -0.12)">
       <use xlink:href="#BitstreamVeraSans-Roman-36"/>
       <use x="63.623046875" xlink:href="#BitstreamVeraSans-Roman-30"/>
       <use x="127.24609375" xlink:href="#BitstreamVeraSans-Roman-30"/>
       <use x="190.869140625" xlink:href="#BitstreamVeraSans-Roman-30"/>
       <use x="254.4921875" xlink:href="#BitstreamVeraSans-Roman-30"/>
      </g>
     </g>
    </g>
    <g id="xtick_5">
     <g id="line2d_11">
      <g>
       <use style="stroke:#000000;stroke-width:0.5;" x="392.80025152" xlink:href="#m17ffe9a67e" y="388.8"/>
      </g>
     </g>
     <g id="line2d_12">
      <g>
       <use style="stroke:#000000;stroke-width:0.5;" x="392.80025152" xlink:href="#m7dff499782" y="43.2"/>
      </g>
     </g>
     <g id="text_5">
      <!-- 80000 -->
      <defs>
       <path d="M 31.78125 34.625 
Q 24.75 34.625 20.71875 30.859375 
Q 16.703125 27.09375 16.703125 20.515625 
Q 16.703125 13.921875 20.71875 10.15625 
Q 24.75 6.390625 31.78125 6.390625 
Q 38.8125 6.390625 42.859375 10.171875 
Q 46.921875 13.96875 46.921875 20.515625 
Q 46.921875 27.09375 42.890625 30.859375 
Q 38.875 34.625 31.78125 34.625 
M 21.921875 38.8125 
Q 15.578125 40.375 12.03125 44.71875 
Q 8.5 49.078125 8.5 55.328125 
Q 8.5 64.0625 14.71875 69.140625 
Q 20.953125 74.21875 31.78125 74.21875 
Q 42.671875 74.21875 48.875 69.140625 
Q 55.078125 64.0625 55.078125 55.328125 
Q 55.078125 49.078125 51.53125 44.71875 
Q 48 40.375 41.703125 38.8125 
Q 48.828125 37.15625 52.796875 32.3125 
Q 56.78125 27.484375 56.78125 20.515625 
Q 56.78125 9.90625 50.3125 4.234375 
Q 43.84375 -1.421875 31.78125 -1.421875 
Q 19.734375 -1.421875 13.25 4.234375 
Q 6.78125 9.90625 6.78125 20.515625 
Q 6.78125 27.484375 10.78125 32.3125 
Q 14.796875 37.15625 21.921875 38.8125 
M 18.3125 54.390625 
Q 18.3125 48.734375 21.84375 45.5625 
Q 25.390625 42.390625 31.78125 42.390625 
Q 38.140625 42.390625 41.71875 45.5625 
Q 45.3125 48.734375 45.3125 54.390625 
Q 45.3125 60.0625 41.71875 63.234375 
Q 38.140625 66.40625 31.78125 66.40625 
Q 25.390625 66.40625 21.84375 63.234375 
Q 18.3125 60.0625 18.3125 54.390625 
" id="BitstreamVeraSans-Roman-38"/>
      </defs>
      <g transform="translate(373.71275152 401.918125)scale(0.12 -0.12)">
       <use xlink:href="#BitstreamVeraSans-Roman-38"/>
       <use x="63.623046875" xlink:href="#BitstreamVeraSans-Roman-30"/>
       <use x="127.24609375" xlink:href="#BitstreamVeraSans-Roman-30"/>
       <use x="190.869140625" xlink:href="#BitstreamVeraSans-Roman-30"/>
       <use x="254.4921875" xlink:href="#BitstreamVeraSans-Roman-30"/>
      </g>
     </g>
    </g>
    <g id="xtick_6">
     <g id="line2d_13">
      <g>
       <use style="stroke:#000000;stroke-width:0.5;" x="472.999311912" xlink:href="#m17ffe9a67e" y="388.8"/>
      </g>
     </g>
     <g id="line2d_14">
      <g>
       <use style="stroke:#000000;stroke-width:0.5;" x="472.999311912" xlink:href="#m7dff499782" y="43.2"/>
      </g>
     </g>
     <g id="text_6">
      <!-- 100000 -->
      <defs>
       <path d="M 12.40625 8.296875 
L 28.515625 8.296875 
L 28.515625 63.921875 
L 10.984375 60.40625 
L 10.984375 69.390625 
L 28.421875 72.90625 
L 38.28125 72.90625 
L 38.28125 8.296875 
L 54.390625 8.296875 
L 54.390625 0 
L 12.40625 0 
z
" id="BitstreamVeraSans-Roman-31"/>
      </defs>
      <g transform="translate(450.094311912 401.918125)scale(0.12 -0.12)">
       <use xlink:href="#BitstreamVeraSans-Roman-31"/>
       <use x="63.623046875" xlink:href="#BitstreamVeraSans-Roman-30"/>
       <use x="127.24609375" xlink:href="#BitstreamVeraSans-Roman-30"/>
       <use x="190.869140625" xlink:href="#BitstreamVeraSans-Roman-30"/>
       <use x="254.4921875" xlink:href="#BitstreamVeraSans-Roman-30"/>
       <use x="318.115234375" xlink:href="#BitstreamVeraSans-Roman-30"/>
      </g>
     </g>
    </g>
    <g id="text_7">
     <!-- Channel vs Channel -->
     <defs>
      <path id="BitstreamVeraSans-Roman-20"/>
      <path d="M 54.890625 33.015625 
L 54.890625 0 
L 45.90625 0 
L 45.90625 32.71875 
Q 45.90625 40.484375 42.875 44.328125 
Q 39.84375 48.1875 33.796875 48.1875 
Q 26.515625 48.1875 22.3125 43.546875 
Q 18.109375 38.921875 18.109375 30.90625 
L 18.109375 0 
L 9.078125 0 
L 9.078125 54.6875 
L 18.109375 54.6875 
L 18.109375 46.1875 
Q 21.34375 51.125 25.703125 53.5625 
Q 30.078125 56 35.796875 56 
Q 45.21875 56 50.046875 50.171875 
Q 54.890625 44.34375 54.890625 33.015625 
" id="BitstreamVeraSans-Roman-6e"/>
      <path d="M 9.421875 75.984375 
L 18.40625 75.984375 
L 18.40625 0 
L 9.421875 0 
z
" id="BitstreamVeraSans-Roman-6c"/>
      <path d="M 2.984375 54.6875 
L 12.5 54.6875 
L 29.59375 8.796875 
L 46.6875 54.6875 
L 56.203125 54.6875 
L 35.6875 0 
L 23.484375 0 
z
" id="BitstreamVeraSans-Roman-76"/>
      <path d="M 64.40625 67.28125 
L 64.40625 56.890625 
Q 59.421875 61.53125 53.78125 63.8125 
Q 48.140625 66.109375 41.796875 66.109375 
Q 29.296875 66.109375 22.65625 58.46875 
Q 16.015625 50.828125 16.015625 36.375 
Q 16.015625 21.96875 22.65625 14.328125 
Q 29.296875 6.6875 41.796875 6.6875 
Q 48.140625 6.6875 53.78125 8.984375 
Q 59.421875 11.28125 64.40625 15.921875 
L 64.40625 5.609375 
Q 59.234375 2.09375 53.4375 0.328125 
Q 47.65625 -1.421875 41.21875 -1.421875 
Q 24.65625 -1.421875 15.125 8.703125 
Q 5.609375 18.84375 5.609375 36.375 
Q 5.609375 53.953125 15.125 64.078125 
Q 24.65625 74.21875 41.21875 74.21875 
Q 47.75 74.21875 53.53125 72.484375 
Q 59.328125 70.75 64.40625 67.28125 
" id="BitstreamVeraSans-Roman-43"/>
      <path d="M 54.890625 33.015625 
L 54.890625 0 
L 45.90625 0 
L 45.90625 32.71875 
Q 45.90625 40.484375 42.875 44.328125 
Q 39.84375 48.1875 33.796875 48.1875 
Q 26.515625 48.1875 22.3125 43.546875 
Q 18.109375 38.921875 18.109375 30.90625 
L 18.109375 0 
L 9.078125 0 
L 9.078125 75.984375 
L 18.109375 75.984375 
L 18.109375 46.1875 
Q 21.34375 51.125 25.703125 53.5625 
Q 30.078125 56 35.796875 56 
Q 45.21875 56 50.046875 50.171875 
Q 54.890625 44.34375 54.890625 33.015625 
" id="BitstreamVeraSans-Roman-68"/>
      <path d="M 56.203125 29.59375 
L 56.203125 25.203125 
L 14.890625 25.203125 
Q 15.484375 15.921875 20.484375 11.0625 
Q 25.484375 6.203125 34.421875 6.203125 
Q 39.59375 6.203125 44.453125 7.46875 
Q 49.3125 8.734375 54.109375 11.28125 
L 54.109375 2.78125 
Q 49.265625 0.734375 44.1875 -0.34375 
Q 39.109375 -1.421875 33.890625 -1.421875 
Q 20.796875 -1.421875 13.15625 6.1875 
Q 5.515625 13.8125 5.515625 26.8125 
Q 5.515625 40.234375 12.765625 48.109375 
Q 20.015625 56 32.328125 56 
Q 43.359375 56 49.78125 48.890625 
Q 56.203125 41.796875 56.203125 29.59375 
M 47.21875 32.234375 
Q 47.125 39.59375 43.09375 43.984375 
Q 39.0625 48.390625 32.421875 48.390625 
Q 24.90625 48.390625 20.390625 44.140625 
Q 15.875 39.890625 15.1875 32.171875 
z
" id="BitstreamVeraSans-Roman-65"/>
      <path d="M 34.28125 27.484375 
Q 23.390625 27.484375 19.1875 25 
Q 14.984375 22.515625 14.984375 16.5 
Q 14.984375 11.71875 18.140625 8.90625 
Q 21.296875 6.109375 26.703125 6.109375 
Q 34.1875 6.109375 38.703125 11.40625 
Q 43.21875 16.703125 43.21875 25.484375 
L 43.21875 27.484375 
z
M 52.203125 31.203125 
L 52.203125 0 
L 43.21875 0 
L 43.21875 8.296875 
Q 40.140625 3.328125 35.546875 0.953125 
Q 30.953125 -1.421875 24.3125 -1.421875 
Q 15.921875 -1.421875 10.953125 3.296875 
Q 6 8.015625 6 15.921875 
Q 6 25.140625 12.171875 29.828125 
Q 18.359375 34.515625 30.609375 34.515625 
L 43.21875 34.515625 
L 43.21875 35.40625 
Q 43.21875 41.609375 39.140625 45 
Q 35.0625 48.390625 27.6875 48.390625 
Q 23 48.390625 18.546875 47.265625 
Q 14.109375 46.140625 10.015625 43.890625 
L 10.015625 52.203125 
Q 14.9375 54.109375 19.578125 55.046875 
Q 24.21875 56 28.609375 56 
Q 40.484375 56 46.34375 49.84375 
Q 52.203125 43.703125 52.203125 31.203125 
" id="BitstreamVeraSans-Roman-61"/>
      <path d="M 44.28125 53.078125 
L 44.28125 44.578125 
Q 40.484375 46.53125 36.375 47.5 
Q 32.28125 48.484375 27.875 48.484375 
Q 21.1875 48.484375 17.84375 46.4375 
Q 14.5 44.390625 14.5 40.28125 
Q 14.5 37.15625 16.890625 35.375 
Q 19.28125 33.59375 26.515625 31.984375 
L 29.59375 31.296875 
Q 39.15625 29.25 43.1875 25.515625 
Q 47.21875 21.78125 47.21875 15.09375 
Q 47.21875 7.46875 41.1875 3.015625 
Q 35.15625 -1.421875 24.609375 -1.421875 
Q 20.21875 -1.421875 15.453125 -0.5625 
Q 10.6875 0.296875 5.421875 2 
L 5.421875 11.28125 
Q 10.40625 8.6875 15.234375 7.390625 
Q 20.0625 6.109375 24.8125 6.109375 
Q 31.15625 6.109375 34.5625 8.28125 
Q 37.984375 10.453125 37.984375 14.40625 
Q 37.984375 18.0625 35.515625 20.015625 
Q 33.0625 21.96875 24.703125 23.78125 
L 21.578125 24.515625 
Q 13.234375 26.265625 9.515625 29.90625 
Q 5.8125 33.546875 5.8125 39.890625 
Q 5.8125 47.609375 11.28125 51.796875 
Q 16.75 56 26.8125 56 
Q 31.78125 56 36.171875 55.265625 
Q 40.578125 54.546875 44.28125 53.078125 
" id="BitstreamVeraSans-Roman-73"/>
     </defs>
     <g transform="translate(235.44375 418.531875)scale(0.12 -0.12)">
      <use xlink:href="#BitstreamVeraSans-Roman-43"/>
      <use x="69.82421875" xlink:href="#BitstreamVeraSans-Roman-68"/>
      <use x="133.203125" xlink:href="#BitstreamVeraSans-Roman-61"/>
      <use x="194.482421875" xlink:href="#BitstreamVeraSans-Roman-6e"/>
      <use x="257.861328125" xlink:href="#BitstreamVeraSans-Roman-6e"/>
      <use x="321.240234375" xlink:href="#BitstreamVeraSans-Roman-65"/>
      <use x="382.763671875" xlink:href="#BitstreamVeraSans-Roman-6c"/>
      <use x="410.546875" xlink:href="#BitstreamVeraSans-Roman-20"/>
      <use x="442.333984375" xlink:href="#BitstreamVeraSans-Roman-76"/>
      <use x="501.513671875" xlink:href="#BitstreamVeraSans-Roman-73"/>
      <use x="553.61328125" xlink:href="#BitstreamVeraSans-Roman-20"/>
      <use x="585.400390625" xlink:href="#BitstreamVeraSans-Roman-43"/>
      <use x="655.224609375" xlink:href="#BitstreamVeraSans-Roman-68"/>
      <use x="718.603515625" xlink:href="#BitstreamVeraSans-Roman-61"/>
      <use x="779.8828125" xlink:href="#BitstreamVeraSans-Roman-6e"/>
      <use x="843.26171875" xlink:href="#BitstreamVeraSans-Roman-6e"/>
      <use x="906.640625" xlink:href="#BitstreamVeraSans-Roman-65"/>
      <use x="968.1640625" xlink:href="#BitstreamVeraSans-Roman-6c"/>
     </g>
    </g>
   </g>
   <g id="matplotlib.axis_2">
    <g id="ytick_1">
     <g id="line2d_15">
      <defs>
       <path d="M 0 0 
L 4 0 
" id="mb771c012c0" style="stroke:#000000;stroke-width:0.5;"/>
      </defs>
      <g>
       <use style="stroke:#000000;stroke-width:0.5;" x="72.0" xlink:href="#mb771c012c0" y="373.090909091"/>
      </g>
     </g>
     <g id="line2d_16">
      <defs>
       <path d="M 0 0 
L -4 0 
" id="m67f7fa8a6f" style="stroke:#000000;stroke-width:0.5;"/>
      </defs>
      <g>
       <use style="stroke:#000000;stroke-width:0.5;" x="518.4" xlink:href="#m67f7fa8a6f" y="373.090909091"/>
      </g>
     </g>
     <g id="text_8">
      <!-- −1.0 -->
      <defs>
       <path d="M 10.59375 35.5 
L 73.1875 35.5 
L 73.1875 27.203125 
L 10.59375 27.203125 
z
" id="BitstreamVeraSans-Roman-2212"/>
       <path d="M 10.6875 12.40625 
L 21 12.40625 
L 21 0 
L 10.6875 0 
z
" id="BitstreamVeraSans-Roman-2e"/>
      </defs>
      <g transform="translate(38.860625 376.402159091)scale(0.12 -0.12)">
       <use xlink:href="#BitstreamVeraSans-Roman-2212"/>
       <use x="83.7890625" xlink:href="#BitstreamVeraSans-Roman-31"/>
       <use x="147.412109375" xlink:href="#BitstreamVeraSans-Roman-2e"/>
       <use x="179.19921875" xlink:href="#BitstreamVeraSans-Roman-30"/>
      </g>
     </g>
    </g>
    <g id="ytick_2">
     <g id="line2d_17">
      <g>
       <use style="stroke:#000000;stroke-width:0.5;" x="72.0" xlink:href="#mb771c012c0" y="294.545454545"/>
      </g>
     </g>
     <g id="line2d_18">
      <g>
       <use style="stroke:#000000;stroke-width:0.5;" x="518.4" xlink:href="#m67f7fa8a6f" y="294.545454545"/>
      </g>
     </g>
     <g id="text_9">
      <!-- −0.5 -->
      <defs>
       <path d="M 10.796875 72.90625 
L 49.515625 72.90625 
L 49.515625 64.59375 
L 19.828125 64.59375 
L 19.828125 46.734375 
Q 21.96875 47.46875 24.109375 47.828125 
Q 26.265625 48.1875 28.421875 48.1875 
Q 40.625 48.1875 47.75 41.5 
Q 54.890625 34.8125 54.890625 23.390625 
Q 54.890625 11.625 47.5625 5.09375 
Q 40.234375 -1.421875 26.90625 -1.421875 
Q 22.3125 -1.421875 17.546875 -0.640625 
Q 12.796875 0.140625 7.71875 1.703125 
L 7.71875 11.625 
Q 12.109375 9.234375 16.796875 8.0625 
Q 21.484375 6.890625 26.703125 6.890625 
Q 35.15625 6.890625 40.078125 11.328125 
Q 45.015625 15.765625 45.015625 23.390625 
Q 45.015625 31 40.078125 35.4375 
Q 35.15625 39.890625 26.703125 39.890625 
Q 22.75 39.890625 18.8125 39.015625 
Q 14.890625 38.140625 10.796875 36.28125 
z
" id="BitstreamVeraSans-Roman-35"/>
      </defs>
      <g transform="translate(38.860625 297.856704545)scale(0.12 -0.12)">
       <use xlink:href="#BitstreamVeraSans-Roman-2212"/>
       <use x="83.7890625" xlink:href="#BitstreamVeraSans-Roman-30"/>
       <use x="147.412109375" xlink:href="#BitstreamVeraSans-Roman-2e"/>
       <use x="179.19921875" xlink:href="#BitstreamVeraSans-Roman-35"/>
      </g>
     </g>
    </g>
    <g id="ytick_3">
     <g id="line2d_19">
      <g>
       <use style="stroke:#000000;stroke-width:0.5;" x="72.0" xlink:href="#mb771c012c0" y="216.0"/>
      </g>
     </g>
     <g id="line2d_20">
      <g>
       <use style="stroke:#000000;stroke-width:0.5;" x="518.4" xlink:href="#m67f7fa8a6f" y="216.0"/>
      </g>
     </g>
     <g id="text_10">
      <!-- 0.0 -->
      <g transform="translate(48.91625 219.31125)scale(0.12 -0.12)">
       <use xlink:href="#BitstreamVeraSans-Roman-30"/>
       <use x="63.623046875" xlink:href="#BitstreamVeraSans-Roman-2e"/>
       <use x="95.41015625" xlink:href="#BitstreamVeraSans-Roman-30"/>
      </g>
     </g>
    </g>
    <g id="ytick_4">
     <g id="line2d_21">
      <g>
       <use style="stroke:#000000;stroke-width:0.5;" x="72.0" xlink:href="#mb771c012c0" y="137.454545455"/>
      </g>
     </g>
     <g id="line2d_22">
      <g>
       <use style="stroke:#000000;stroke-width:0.5;" x="518.4" xlink:href="#m67f7fa8a6f" y="137.454545455"/>
      </g>
     </g>
     <g id="text_11">
      <!-- 0.5 -->
      <g transform="translate(48.91625 140.765795455)scale(0.12 -0.12)">
       <use xlink:href="#BitstreamVeraSans-Roman-30"/>
       <use x="63.623046875" xlink:href="#BitstreamVeraSans-Roman-2e"/>
       <use x="95.41015625" xlink:href="#BitstreamVeraSans-Roman-35"/>
      </g>
     </g>
    </g>
    <g id="ytick_5">
     <g id="line2d_23">
      <g>
       <use style="stroke:#000000;stroke-width:0.5;" x="72.0" xlink:href="#mb771c012c0" y="58.9090909091"/>
      </g>
     </g>
     <g id="line2d_24">
      <g>
       <use style="stroke:#000000;stroke-width:0.5;" x="518.4" xlink:href="#m67f7fa8a6f" y="58.9090909091"/>
      </g>
     </g>
     <g id="text_12">
      <!-- 1.0 -->
      <g transform="translate(48.91625 62.2203409091)scale(0.12 -0.12)">
       <use xlink:href="#BitstreamVeraSans-Roman-31"/>
       <use x="63.623046875" xlink:href="#BitstreamVeraSans-Roman-2e"/>
       <use x="95.41015625" xlink:href="#BitstreamVeraSans-Roman-30"/>
      </g>
     </g>
    </g>
    <g id="text_13">
     <!-- Correlation value -->
     <defs>
      <path d="M 8.5 21.578125 
L 8.5 54.6875 
L 17.484375 54.6875 
L 17.484375 21.921875 
Q 17.484375 14.15625 20.5 10.265625 
Q 23.53125 6.390625 29.59375 6.390625 
Q 36.859375 6.390625 41.078125 11.03125 
Q 45.3125 15.671875 45.3125 23.6875 
L 45.3125 54.6875 
L 54.296875 54.6875 
L 54.296875 0 
L 45.3125 0 
L 45.3125 8.40625 
Q 42.046875 3.421875 37.71875 1 
Q 33.40625 -1.421875 27.6875 -1.421875 
Q 18.265625 -1.421875 13.375 4.4375 
Q 8.5 10.296875 8.5 21.578125 
" id="BitstreamVeraSans-Roman-75"/>
      <path d="M 9.421875 54.6875 
L 18.40625 54.6875 
L 18.40625 0 
L 9.421875 0 
z
M 9.421875 75.984375 
L 18.40625 75.984375 
L 18.40625 64.59375 
L 9.421875 64.59375 
z
" id="BitstreamVeraSans-Roman-69"/>
      <path d="M 18.3125 70.21875 
L 18.3125 54.6875 
L 36.8125 54.6875 
L 36.8125 47.703125 
L 18.3125 47.703125 
L 18.3125 18.015625 
Q 18.3125 11.328125 20.140625 9.421875 
Q 21.96875 7.515625 27.59375 7.515625 
L 36.8125 7.515625 
L 36.8125 0 
L 27.59375 0 
Q 17.1875 0 13.234375 3.875 
Q 9.28125 7.765625 9.28125 18.015625 
L 9.28125 47.703125 
L 2.6875 47.703125 
L 2.6875 54.6875 
L 9.28125 54.6875 
L 9.28125 70.21875 
z
" id="BitstreamVeraSans-Roman-74"/>
      <path d="M 30.609375 48.390625 
Q 23.390625 48.390625 19.1875 42.75 
Q 14.984375 37.109375 14.984375 27.296875 
Q 14.984375 17.484375 19.15625 11.84375 
Q 23.34375 6.203125 30.609375 6.203125 
Q 37.796875 6.203125 41.984375 11.859375 
Q 46.1875 17.53125 46.1875 27.296875 
Q 46.1875 37.015625 41.984375 42.703125 
Q 37.796875 48.390625 30.609375 48.390625 
M 30.609375 56 
Q 42.328125 56 49.015625 48.375 
Q 55.71875 40.765625 55.71875 27.296875 
Q 55.71875 13.875 49.015625 6.21875 
Q 42.328125 -1.421875 30.609375 -1.421875 
Q 18.84375 -1.421875 12.171875 6.21875 
Q 5.515625 13.875 5.515625 27.296875 
Q 5.515625 40.765625 12.171875 48.375 
Q 18.84375 56 30.609375 56 
" id="BitstreamVeraSans-Roman-6f"/>
      <path d="M 41.109375 46.296875 
Q 39.59375 47.171875 37.8125 47.578125 
Q 36.03125 48 33.890625 48 
Q 26.265625 48 22.1875 43.046875 
Q 18.109375 38.09375 18.109375 28.8125 
L 18.109375 0 
L 9.078125 0 
L 9.078125 54.6875 
L 18.109375 54.6875 
L 18.109375 46.1875 
Q 20.953125 51.171875 25.484375 53.578125 
Q 30.03125 56 36.53125 56 
Q 37.453125 56 38.578125 55.875 
Q 39.703125 55.765625 41.0625 55.515625 
z
" id="BitstreamVeraSans-Roman-72"/>
     </defs>
     <g transform="translate(31.365 267.6159375)rotate(-90.0)scale(0.12 -0.12)">
      <use xlink:href="#BitstreamVeraSans-Roman-43"/>
      <use x="69.82421875" xlink:href="#BitstreamVeraSans-Roman-6f"/>
      <use x="131.005859375" xlink:href="#BitstreamVeraSans-Roman-72"/>
      <use x="172.103515625" xlink:href="#BitstreamVeraSans-Roman-72"/>
      <use x="213.185546875" xlink:href="#BitstreamVeraSans-Roman-65"/>
      <use x="274.708984375" xlink:href="#BitstreamVeraSans-Roman-6c"/>
      <use x="302.4921875" xlink:href="#BitstreamVeraSans-Roman-61"/>
      <use x="363.771484375" xlink:href="#BitstreamVeraSans-Roman-74"/>
      <use x="402.98046875" xlink:href="#BitstreamVeraSans-Roman-69"/>
      <use x="430.763671875" xlink:href="#BitstreamVeraSans-Roman-6f"/>
      <use x="491.9453125" xlink:href="#BitstreamVeraSans-Roman-6e"/>
      <use x="555.32421875" xlink:href="#BitstreamVeraSans-Roman-20"/>
      <use x="587.111328125" xlink:href="#BitstreamVeraSans-Roman-76"/>
      <use x="646.291015625" xlink:href="#BitstreamVeraSans-Roman-61"/>
      <use x="707.5703125" xlink:href="#BitstreamVeraSans-Roman-6c"/>
      <use x="735.353515625" xlink:href="#BitstreamVeraSans-Roman-75"/>
      <use x="798.732421875" xlink:href="#BitstreamVeraSans-Roman-65"/>
     </g>
    </g>
   </g>
   <g id="text_14">
    <!-- Sorted Correlations between 2 Channels (1 minute intervals) -->
    <defs>
     <path d="M 8.015625 75.875 
L 15.828125 75.875 
Q 23.140625 64.359375 26.78125 53.3125 
Q 30.421875 42.28125 30.421875 31.390625 
Q 30.421875 20.453125 26.78125 9.375 
Q 23.140625 -1.703125 15.828125 -13.1875 
L 8.015625 -13.1875 
Q 14.5 -2 17.703125 9.0625 
Q 20.90625 20.125 20.90625 31.390625 
Q 20.90625 42.671875 17.703125 53.65625 
Q 14.5 64.65625 8.015625 75.875 
" id="BitstreamVeraSans-Roman-29"/>
     <path d="M 31 75.875 
Q 24.46875 64.65625 21.28125 53.65625 
Q 18.109375 42.671875 18.109375 31.390625 
Q 18.109375 20.125 21.3125 9.0625 
Q 24.515625 -2 31 -13.1875 
L 23.1875 -13.1875 
Q 15.875 -1.703125 12.234375 9.375 
Q 8.59375 20.453125 8.59375 31.390625 
Q 8.59375 42.28125 12.203125 53.3125 
Q 15.828125 64.359375 23.1875 75.875 
z
" id="BitstreamVeraSans-Roman-28"/>
     <path d="M 4.203125 54.6875 
L 13.1875 54.6875 
L 24.421875 12.015625 
L 35.59375 54.6875 
L 46.1875 54.6875 
L 57.421875 12.015625 
L 68.609375 54.6875 
L 77.59375 54.6875 
L 63.28125 0 
L 52.6875 0 
L 40.921875 44.828125 
L 29.109375 0 
L 18.5 0 
z
" id="BitstreamVeraSans-Roman-77"/>
     <path d="M 53.515625 70.515625 
L 53.515625 60.890625 
Q 47.90625 63.578125 42.921875 64.890625 
Q 37.9375 66.21875 33.296875 66.21875 
Q 25.25 66.21875 20.875 63.09375 
Q 16.5 59.96875 16.5 54.203125 
Q 16.5 49.359375 19.40625 46.890625 
Q 22.3125 44.4375 30.421875 42.921875 
L 36.375 41.703125 
Q 47.40625 39.59375 52.65625 34.296875 
Q 57.90625 29 57.90625 20.125 
Q 57.90625 9.515625 50.796875 4.046875 
Q 43.703125 -1.421875 29.984375 -1.421875 
Q 24.8125 -1.421875 18.96875 -0.25 
Q 13.140625 0.921875 6.890625 3.21875 
L 6.890625 13.375 
Q 12.890625 10.015625 18.65625 8.296875 
Q 24.421875 6.59375 29.984375 6.59375 
Q 38.421875 6.59375 43.015625 9.90625 
Q 47.609375 13.234375 47.609375 19.390625 
Q 47.609375 24.75 44.3125 27.78125 
Q 41.015625 30.8125 33.5 32.328125 
L 27.484375 33.5 
Q 16.453125 35.6875 11.515625 40.375 
Q 6.59375 45.0625 6.59375 53.421875 
Q 6.59375 63.09375 13.40625 68.65625 
Q 20.21875 74.21875 32.171875 74.21875 
Q 37.3125 74.21875 42.625 73.28125 
Q 47.953125 72.359375 53.515625 70.515625 
" id="BitstreamVeraSans-Roman-53"/>
     <path d="M 52 44.1875 
Q 55.375 50.25 60.0625 53.125 
Q 64.75 56 71.09375 56 
Q 79.640625 56 84.28125 50.015625 
Q 88.921875 44.046875 88.921875 33.015625 
L 88.921875 0 
L 79.890625 0 
L 79.890625 32.71875 
Q 79.890625 40.578125 77.09375 44.375 
Q 74.3125 48.1875 68.609375 48.1875 
Q 61.625 48.1875 57.5625 43.546875 
Q 53.515625 38.921875 53.515625 30.90625 
L 53.515625 0 
L 44.484375 0 
L 44.484375 32.71875 
Q 44.484375 40.625 41.703125 44.40625 
Q 38.921875 48.1875 33.109375 48.1875 
Q 26.21875 48.1875 22.15625 43.53125 
Q 18.109375 38.875 18.109375 30.90625 
L 18.109375 0 
L 9.078125 0 
L 9.078125 54.6875 
L 18.109375 54.6875 
L 18.109375 46.1875 
Q 21.1875 51.21875 25.484375 53.609375 
Q 29.78125 56 35.6875 56 
Q 41.65625 56 45.828125 52.96875 
Q 50 49.953125 52 44.1875 
" id="BitstreamVeraSans-Roman-6d"/>
     <path d="M 45.40625 46.390625 
L 45.40625 75.984375 
L 54.390625 75.984375 
L 54.390625 0 
L 45.40625 0 
L 45.40625 8.203125 
Q 42.578125 3.328125 38.25 0.953125 
Q 33.9375 -1.421875 27.875 -1.421875 
Q 17.96875 -1.421875 11.734375 6.484375 
Q 5.515625 14.40625 5.515625 27.296875 
Q 5.515625 40.1875 11.734375 48.09375 
Q 17.96875 56 27.875 56 
Q 33.9375 56 38.25 53.625 
Q 42.578125 51.265625 45.40625 46.390625 
M 14.796875 27.296875 
Q 14.796875 17.390625 18.875 11.75 
Q 22.953125 6.109375 30.078125 6.109375 
Q 37.203125 6.109375 41.296875 11.75 
Q 45.40625 17.390625 45.40625 27.296875 
Q 45.40625 37.203125 41.296875 42.84375 
Q 37.203125 48.484375 30.078125 48.484375 
Q 22.953125 48.484375 18.875 42.84375 
Q 14.796875 37.203125 14.796875 27.296875 
" id="BitstreamVeraSans-Roman-64"/>
     <path d="M 48.6875 27.296875 
Q 48.6875 37.203125 44.609375 42.84375 
Q 40.53125 48.484375 33.40625 48.484375 
Q 26.265625 48.484375 22.1875 42.84375 
Q 18.109375 37.203125 18.109375 27.296875 
Q 18.109375 17.390625 22.1875 11.75 
Q 26.265625 6.109375 33.40625 6.109375 
Q 40.53125 6.109375 44.609375 11.75 
Q 48.6875 17.390625 48.6875 27.296875 
M 18.109375 46.390625 
Q 20.953125 51.265625 25.265625 53.625 
Q 29.59375 56 35.59375 56 
Q 45.5625 56 51.78125 48.09375 
Q 58.015625 40.1875 58.015625 27.296875 
Q 58.015625 14.40625 51.78125 6.484375 
Q 45.5625 -1.421875 35.59375 -1.421875 
Q 29.59375 -1.421875 25.265625 0.953125 
Q 20.953125 3.328125 18.109375 8.203125 
L 18.109375 0 
L 9.078125 0 
L 9.078125 75.984375 
L 18.109375 75.984375 
z
" id="BitstreamVeraSans-Roman-62"/>
    </defs>
    <g transform="translate(75.868875 38.2)scale(0.144 -0.144)">
     <use xlink:href="#BitstreamVeraSans-Roman-53"/>
     <use x="63.4765625" xlink:href="#BitstreamVeraSans-Roman-6f"/>
     <use x="124.658203125" xlink:href="#BitstreamVeraSans-Roman-72"/>
     <use x="165.771484375" xlink:href="#BitstreamVeraSans-Roman-74"/>
     <use x="204.98046875" xlink:href="#BitstreamVeraSans-Roman-65"/>
     <use x="266.50390625" xlink:href="#BitstreamVeraSans-Roman-64"/>
     <use x="329.98046875" xlink:href="#BitstreamVeraSans-Roman-20"/>
     <use x="361.767578125" xlink:href="#BitstreamVeraSans-Roman-43"/>
     <use x="431.591796875" xlink:href="#BitstreamVeraSans-Roman-6f"/>
     <use x="492.7734375" xlink:href="#BitstreamVeraSans-Roman-72"/>
     <use x="533.87109375" xlink:href="#BitstreamVeraSans-Roman-72"/>
     <use x="574.953125" xlink:href="#BitstreamVeraSans-Roman-65"/>
     <use x="636.4765625" xlink:href="#BitstreamVeraSans-Roman-6c"/>
     <use x="664.259765625" xlink:href="#BitstreamVeraSans-Roman-61"/>
     <use x="725.5390625" xlink:href="#BitstreamVeraSans-Roman-74"/>
     <use x="764.748046875" xlink:href="#BitstreamVeraSans-Roman-69"/>
     <use x="792.53125" xlink:href="#BitstreamVeraSans-Roman-6f"/>
     <use x="853.712890625" xlink:href="#BitstreamVeraSans-Roman-6e"/>
     <use x="917.091796875" xlink:href="#BitstreamVeraSans-Roman-73"/>
     <use x="969.19140625" xlink:href="#BitstreamVeraSans-Roman-20"/>
     <use x="1000.97851562" xlink:href="#BitstreamVeraSans-Roman-62"/>
     <use x="1064.45507812" xlink:href="#BitstreamVeraSans-Roman-65"/>
     <use x="1125.97851562" xlink:href="#BitstreamVeraSans-Roman-74"/>
     <use x="1165.1875" xlink:href="#BitstreamVeraSans-Roman-77"/>
     <use x="1246.97460938" xlink:href="#BitstreamVeraSans-Roman-65"/>
     <use x="1308.49804688" xlink:href="#BitstreamVeraSans-Roman-65"/>
     <use x="1370.02148438" xlink:href="#BitstreamVeraSans-Roman-6e"/>
     <use x="1433.40039062" xlink:href="#BitstreamVeraSans-Roman-20"/>
     <use x="1465.1875" xlink:href="#BitstreamVeraSans-Roman-32"/>
     <use x="1528.81054688" xlink:href="#BitstreamVeraSans-Roman-20"/>
     <use x="1560.59765625" xlink:href="#BitstreamVeraSans-Roman-43"/>
     <use x="1630.421875" xlink:href="#BitstreamVeraSans-Roman-68"/>
     <use x="1693.80078125" xlink:href="#BitstreamVeraSans-Roman-61"/>
     <use x="1755.08007812" xlink:href="#BitstreamVeraSans-Roman-6e"/>
     <use x="1818.45898438" xlink:href="#BitstreamVeraSans-Roman-6e"/>
     <use x="1881.83789062" xlink:href="#BitstreamVeraSans-Roman-65"/>
     <use x="1943.36132812" xlink:href="#BitstreamVeraSans-Roman-6c"/>
     <use x="1971.14453125" xlink:href="#BitstreamVeraSans-Roman-73"/>
     <use x="2023.24414062" xlink:href="#BitstreamVeraSans-Roman-20"/>
     <use x="2055.03125" xlink:href="#BitstreamVeraSans-Roman-28"/>
     <use x="2094.04492188" xlink:href="#BitstreamVeraSans-Roman-31"/>
     <use x="2157.66796875" xlink:href="#BitstreamVeraSans-Roman-20"/>
     <use x="2189.45507812" xlink:href="#BitstreamVeraSans-Roman-6d"/>
     <use x="2286.8671875" xlink:href="#BitstreamVeraSans-Roman-69"/>
     <use x="2314.65039062" xlink:href="#BitstreamVeraSans-Roman-6e"/>
     <use x="2378.02929688" xlink:href="#BitstreamVeraSans-Roman-75"/>
     <use x="2441.40820312" xlink:href="#BitstreamVeraSans-Roman-74"/>
     <use x="2480.6171875" xlink:href="#BitstreamVeraSans-Roman-65"/>
     <use x="2542.140625" xlink:href="#BitstreamVeraSans-Roman-20"/>
     <use x="2573.92773438" xlink:href="#BitstreamVeraSans-Roman-69"/>
     <use x="2601.7109375" xlink:href="#BitstreamVeraSans-Roman-6e"/>
     <use x="2665.08984375" xlink:href="#BitstreamVeraSans-Roman-74"/>
     <use x="2704.29882812" xlink:href="#BitstreamVeraSans-Roman-65"/>
     <use x="2765.82226562" xlink:href="#BitstreamVeraSans-Roman-72"/>
     <use x="2806.93554688" xlink:href="#BitstreamVeraSans-Roman-76"/>
     <use x="2866.11523438" xlink:href="#BitstreamVeraSans-Roman-61"/>
     <use x="2927.39453125" xlink:href="#BitstreamVeraSans-Roman-6c"/>
     <use x="2955.17773438" xlink:href="#BitstreamVeraSans-Roman-73"/>
     <use x="3007.27734375" xlink:href="#BitstreamVeraSans-Roman-29"/>
    </g>
   </g>
  </g>
 </g>
 <defs>
  <clipPath id="p705ef9cc94">
   <rect height="345.6" width="446.4" x="72.0" y="43.2"/>
  </clipPath>
 </defs>
</svg>
