<?xml version="1.0" encoding="utf-8" standalone="no"?>
<!DOCTYPE svg PUBLIC "-//W3C//DTD SVG 1.1//EN"
  "http://www.w3.org/Graphics/SVG/1.1/DTD/svg11.dtd">
<!-- Created with matplotlib (http://matplotlib.org/) -->
<svg height="432pt" version="1.1" viewBox="0 0 576 432" width="576pt" xmlns="http://www.w3.org/2000/svg" xmlns:xlink="http://www.w3.org/1999/xlink">
 <defs>
  <style type="text/css">
*{stroke-linecap:butt;stroke-linejoin:round;stroke-miterlimit:100000;}
  </style>
 </defs>
 <g id="figure_1">
  <g id="patch_1">
   <path d="M 0 432 
L 576 432 
L 576 0 
L 0 0 
z
" style="fill:#ffffff;"/>
  </g>
  <g id="axes_1">
   <g id="patch_2">
    <path d="M 72 388.8 
L 518.4 388.8 
L 518.4 43.2 
L 72 43.2 
z
" style="fill:#ffffff;"/>
   </g>
   <g id="line2d_1">
    <path clip-path="url(#p87f67e6768)" d="M 72.000674 373.079046 
L 72.137547 372.925616 
L 72.432868 372.525898 
L 72.59334 372.207098 
L 72.720099 371.786377 
L 72.996541 370.527479 
L 73.02014 370.398892 
L 73.241968 368.960202 
L 73.875763 359.006555 
L 74.024773 354.315109 
L 74.030167 354.13701 
L 75.131891 326.137894 
L 75.179089 325.296716 
L 75.433281 320.402303 
L 75.460925 319.880186 
L 76.793243 303.135739 
L 76.810099 302.995146 
L 76.870107 302.366376 
L 78.878698 287.067209 
L 79.209755 285.133442 
L 79.38506 284.130658 
L 79.63251 282.881927 
L 80.497572 278.520676 
L 80.903471 276.806352 
L 81.077427 276.046241 
L 81.492091 274.469289 
L 81.674813 273.761124 
L 81.8663 273.020213 
L 81.895292 272.91137 
L 82.025423 272.475402 
L 82.098242 272.21888 
L 82.374684 271.28426 
L 82.790696 269.88218 
L 83.059722 269.037092 
L 83.159511 268.725855 
L 83.320657 268.226827 
L 83.451461 267.863573 
L 83.673964 267.175939 
L 83.732624 267.018282 
L 83.912648 266.520518 
L 83.948384 266.410983 
L 84.139196 265.898299 
L 85.022464 263.605914 
L 85.076404 263.469902 
L 85.368354 262.732441 
L 85.45331 262.560106 
L 86.323766 260.50199 
L 86.386472 260.374137 
L 86.631224 259.863956 
L 86.68449 259.74648 
L 86.87328 259.318796 
L 86.933288 259.199694 
L 87.163207 258.755974 
L 87.234004 258.61866 
L 87.41268 258.226321 
L 87.486847 258.089593 
L 87.666198 257.724565 
L 87.726206 257.61366 
L 87.891397 257.263304 
L 88.215712 256.607744 
L 88.343819 256.346818 
L 88.553511 255.924355 
L 88.711285 255.594101 
L 89.054479 254.984435 
L 89.125275 254.864327 
L 89.325527 254.48473 
L 89.474536 254.194864 
L 89.66872 253.874514 
L 89.750305 253.720617 
L 89.91617 253.403864 
L 89.984944 253.289337 
L 90.540526 252.322362 
L 90.646383 252.15667 
L 90.807529 251.875312 
L 90.883719 251.745721 
L 91.067115 251.454596 
L 91.157464 251.274444 
L 91.37255 250.922923 
L 91.572128 250.587919 
L 91.741365 250.302161 
L 91.91195 250.01486 
L 92.245704 249.47441 
L 92.329985 249.353569 
L 92.617215 248.850087 
L 92.713633 248.722044 
L 92.889612 248.454582 
L 92.996818 248.309455 
L 93.139759 248.090463 
L 93.213927 247.964557 
L 93.575999 247.413276 
L 93.921889 246.879857 
L 94.079664 246.668541 
L 94.481517 246.056799 
L 95.722811 244.375774 
L 95.888676 244.151593 
L 96.012064 243.96334 
L 96.181975 243.71972 
L 96.322219 243.525736 
L 96.821838 242.854813 
L 97.041644 242.573736 
L 97.262798 242.273247 
L 97.436754 242.045993 
L 97.538566 241.905468 
L 97.746909 241.646346 
L 97.860857 241.497109 
L 98.37059 240.913836 
L 98.790648 240.387983 
L 99.069788 240.048699 
L 99.342859 239.737542 
L 99.545808 239.514201 
L 99.783144 239.234874 
L 100.070375 238.897363 
L 100.211293 238.72757 
L 100.336703 238.602097 
L 101.228062 237.579134 
L 101.939395 236.846927 
L 102.080988 236.683201 
L 102.184822 236.571502 
L 102.513856 236.237297 
L 102.704669 236.04561 
L 107.270016 231.562375 
L 107.448692 231.41521 
L 107.920667 230.985228 
L 108.109457 230.823862 
L 108.315103 230.647994 
L 108.558507 230.431618 
L 108.773593 230.243551 
L 109.014975 230.032374 
L 110.84354 228.405924 
L 110.993898 228.282003 
L 111.325629 228.013426 
L 111.94931 227.485553 
L 112.151585 227.331617 
L 112.815047 226.799147 
L 112.95192 226.687909 
L 113.135316 226.523043 
L 113.268818 226.40907 
L 113.5547 226.178613 
L 114.230972 225.633373 
L 114.359754 225.521162 
L 114.603158 225.32964 
L 114.81285 225.177389 
L 114.971973 225.037226 
L 116.505892 223.787564 
L 116.653552 223.673385 
L 116.882123 223.486685 
L 117.040572 223.371725 
L 117.251612 223.215922 
L 117.45119 223.067573 
L 117.688526 222.891898 
L 117.856414 222.76407 
L 118.010143 222.63959 
L 118.393792 222.341687 
L 118.544824 222.23065 
L 118.706644 222.116736 
L 118.903525 221.979471 
L 119.173225 221.791826 
L 119.353924 221.657081 
L 120.277646 220.994566 
L 120.447557 220.867383 
L 120.603983 220.752512 
L 120.972798 220.489124 
L 121.182489 220.334363 
L 122.559308 219.330092 
L 122.696855 219.228263 
L 122.927448 219.077124 
L 123.083874 218.970187 
L 123.236929 218.858716 
L 123.412234 218.750946 
L 124.096598 218.245873 
L 124.233471 218.148435 
L 124.654877 217.864705 
L 126.13081 216.878067 
L 126.301395 216.765142 
L 126.446359 216.666509 
L 127.411885 216.013958 
L 127.724063 215.804789 
L 129.197973 214.803201 
L 129.352376 214.705277 
L 129.49734 214.593934 
L 129.657137 214.492692 
L 129.863458 214.344476 
L 130.081915 214.201814 
L 130.363751 214.026213 
L 130.661095 213.829767 
L 131.581447 213.234769 
L 131.710228 213.148529 
L 132.685868 212.49119 
L 132.99872 212.288028 
L 133.243473 212.139419 
L 134.198885 211.547655 
L 134.409925 211.415745 
L 142.49216 206.436647 
L 142.790178 206.258028 
L 142.948627 206.169884 
L 143.577028 205.797763 
L 143.819084 205.659175 
L 143.951911 205.575882 
L 144.456924 205.273682 
L 144.600539 205.185921 
L 144.943732 204.975926 
L 145.442677 204.692652 
L 145.945668 204.380875 
L 146.083889 204.300916 
L 146.332687 204.149849 
L 147.120886 203.683881 
L 147.317767 203.58268 
L 148.234072 203.052905 
L 148.695934 202.780744 
L 148.865844 202.68463 
L 149.168583 202.522288 
L 149.307478 202.455543 
L 150.730146 201.681274 
L 150.945231 201.573821 
L 151.206166 201.434971 
L 151.380797 201.34029 
L 151.882439 201.054236 
L 152.104267 200.918616 
L 152.363179 200.785507 
L 155.95828 198.782031 
L 156.173366 198.669256 
L 156.387777 198.555804 
L 156.648038 198.418988 
L 157.138217 198.156358 
L 157.280484 198.071898 
L 157.484782 197.955818 
L 158.51099 197.427611 
L 158.693038 197.328949 
L 158.926328 197.202263 
L 159.162316 197.068697 
L 159.744868 196.768587 
L 159.955234 196.646528 
L 160.637575 196.275123 
L 160.893115 196.145803 
L 163.47347 194.836452 
L 164.254251 194.432887 
L 165.890656 193.578509 
L 166.341729 193.341796 
L 167.458962 192.791587 
L 168.299077 192.341948 
L 168.609232 192.191005 
L 168.835106 192.074632 
L 169.158071 191.912858 
L 169.394059 191.796067 
L 169.540371 191.71913 
L 169.929413 191.514828 
L 170.139105 191.401888 
L 171.045971 190.948904 
L 171.291398 190.827649 
L 171.479514 190.732037 
L 171.732358 190.609181 
L 171.938004 190.492431 
L 172.371547 190.281063 
L 172.506397 190.220541 
L 173.672175 189.654432 
L 173.903443 189.538913 
L 174.331591 189.32269 
L 174.628936 189.17134 
L 175.611318 188.691787 
L 175.746168 188.624697 
L 176.232302 188.385705 
L 176.837104 188.092823 
L 177.104782 187.968089 
L 177.32661 187.867483 
L 177.56934 187.752521 
L 177.940851 187.572404 
L 178.154589 187.457723 
L 178.475532 187.302945 
L 178.669716 187.215921 
L 179.627825 186.753492 
L 180.011473 186.573742 
L 180.231279 186.462258 
L 180.663473 186.257156 
L 181.181971 186.011919 
L 181.752387 185.730134 
L 182.412477 185.422489 
L 182.728026 185.26959 
L 184.367802 184.530296 
L 184.539062 184.451896 
L 184.839777 184.30983 
L 185.069696 184.211438 
L 185.595611 183.969941 
L 185.741249 183.9011 
L 186.24424 183.668062 
L 187.086378 183.290697 
L 187.358775 183.168302 
L 187.719499 183.003424 
L 190.11376 181.907076 
L 190.416499 181.778789 
L 190.647766 181.671785 
L 190.934323 181.533684 
L 191.109628 181.456376 
L 191.508784 181.276661 
L 191.793991 181.150419 
L 192.526901 180.81703 
L 192.893019 180.665615 
L 193.435116 180.410455 
L 194.961618 179.718784 
L 195.32841 179.560755 
L 195.765324 179.359016 
L 196.589257 179.005198 
L 196.772653 178.916936 
L 204.92029 175.350424 
L 205.365969 175.158626 
L 205.883119 174.949615 
L 206.148099 174.836086 
L 206.319358 174.767777 
L 206.846622 174.534628 
L 206.988888 174.479151 
L 207.45075 174.275122 
L 207.702919 174.165027 
L 208.674513 173.734822 
L 208.894319 173.645738 
L 209.155254 173.53127 
L 209.553061 173.359145 
L 209.898277 173.216852 
L 210.490269 172.95491 
L 210.765363 172.842825 
L 211.053942 172.724742 
L 211.779434 172.432929 
L 212.007331 172.336854 
L 212.763839 171.998991 
L 213.398309 171.732278 
L 214.984819 171.07233 
L 215.154056 171.002248 
L 217.041955 170.233627 
L 217.36155 170.101421 
L 217.799138 169.923062 
L 218.36416 169.693748 
L 233.857075 163.432323 
L 234.217125 163.301638 
L 234.367483 163.23802 
L 236.078055 162.597319 
L 236.577 162.411739 
L 240.991988 160.676484 
L 241.15246 160.614588 
L 241.819293 160.347747 
L 242.022917 160.272338 
L 242.468596 160.113271 
L 242.68031 160.020133 
L 242.9817 159.906247 
L 244.701038 159.210793 
L 245.262013 159.008292 
L 245.635548 158.863615 
L 246.058977 158.704057 
L 246.253161 158.633503 
L 246.657037 158.483537 
L 248.176122 157.904916 
L 248.32648 157.845312 
L 248.705408 157.70659 
L 249.60688 157.373312 
L 250.01615 157.221734 
L 250.608141 156.991945 
L 251.589849 156.615382 
L 251.874383 156.505139 
L 253.277497 155.985156 
L 253.626084 155.8404 
L 254.106825 155.66463 
L 254.994137 155.358046 
L 255.301595 155.241115 
L 256.145756 154.923317 
L 258.217727 154.140478 
L 258.436184 154.059093 
L 258.800279 153.917495 
L 259.734789 153.57792 
L 260.140687 153.419523 
L 276.905913 147.289627 
L 277.301698 147.152884 
L 277.980667 146.911034 
L 278.360944 146.781761 
L 278.518719 146.719728 
L 278.89967 146.576729 
L 279.224658 146.459862 
L 279.791703 146.253777 
L 280.443028 146.027885 
L 280.878594 145.87438 
L 281.302697 145.725681 
L 281.515086 145.652767 
L 282.366663 145.340874 
L 282.58984 145.263112 
L 283.913393 144.795507 
L 284.269397 144.670301 
L 284.457512 144.604234 
L 285.52957 144.218748 
L 285.690716 144.159942 
L 286.021772 144.044017 
L 298.392911 139.635667 
L 298.717225 139.523595 
L 298.86084 139.466823 
L 299.257299 139.329307 
L 299.587007 139.217607 
L 300.091346 139.039412 
L 300.322614 138.95422 
L 300.700868 138.817189 
L 306.814293 136.718034 
L 307.331442 136.55103 
L 307.641597 136.442506 
L 307.967934 136.322794 
L 308.287529 136.20875 
L 308.931438 135.980754 
L 309.367003 135.836319 
L 310.207793 135.53833 
L 310.535478 135.427054 
L 310.766746 135.343953 
L 312.064003 134.882341 
L 312.256838 134.814683 
L 313.521731 134.369975 
L 314.052366 134.190343 
L 315.027332 133.858022 
L 315.966562 133.52263 
L 316.141193 133.463024 
L 316.904443 133.200333 
L 317.866598 132.861748 
L 319.068112 132.444075 
L 319.200265 132.392964 
L 320.003971 132.106615 
L 320.296595 131.996029 
L 324.934086 130.38421 
L 325.089838 130.329982 
L 326.053341 130.004397 
L 326.311579 129.922081 
L 326.842214 129.750209 
L 327.516464 129.518313 
L 328.291177 129.260376 
L 328.633696 129.144221 
L 329.233778 128.930272 
L 334.850955 127.002911 
L 335.263596 126.864632 
L 335.870421 126.663491 
L 336.213614 126.547965 
L 336.471177 126.454074 
L 336.813696 126.333572 
L 336.978888 126.27544 
L 337.845973 125.991516 
L 342.552238 124.401421 
L 342.897454 124.28566 
L 343.864328 123.948276 
L 344.949197 123.573992 
L 345.409709 123.425134 
L 345.690197 123.333369 
L 347.576074 122.70408 
L 348.202453 122.491925 
L 348.817369 122.288228 
L 349.312268 122.112939 
L 349.807842 121.942835 
L 350.999241 121.52299 
L 351.544035 121.343226 
L 351.794856 121.250294 
L 352.140747 121.134061 
L 353.981449 120.51189 
L 354.207323 120.436832 
L 354.926748 120.190687 
L 355.476261 119.999833 
L 356.116124 119.785404 
L 356.296823 119.72901 
L 356.9023 119.534083 
L 357.45923 119.340396 
L 357.933228 119.177632 
L 358.86167 118.869168 
L 360.12454 118.457193 
L 360.314679 118.389821 
L 361.240424 118.069322 
L 361.562041 117.95466 
L 362.040085 117.792143 
L 362.231572 117.731024 
L 362.666463 117.588743 
L 363.774256 117.223163 
L 364.153858 117.095045 
L 367.022118 116.118504 
L 367.190006 116.062632 
L 374.287161 113.676061 
L 374.622263 113.556617 
L 377.421749 112.58489 
L 378.060264 112.36563 
L 378.341426 112.271469 
L 379.193004 111.986535 
L 380.062786 111.694128 
L 448.747956 87.966287 
L 448.896291 87.907269 
L 449.238136 87.788986 
L 449.550988 87.678536 
L 449.922499 87.551689 
L 451.551487 86.959591 
L 451.844786 86.848015 
L 452.197419 86.719107 
L 457.163944 84.885468 
L 457.335203 84.81934 
L 457.627154 84.710884 
L 458.136887 84.524563 
L 458.437602 84.405805 
L 458.666847 84.323817 
L 460.447541 83.680074 
L 460.904008 83.512262 
L 461.320021 83.357363 
L 461.647706 83.229744 
L 462.17497 83.041602 
L 502.888205 67.93182 
L 503.088458 67.853674 
L 503.6346 67.627687 
L 503.783609 67.56597 
L 504.633838 67.233346 
L 505.134806 67.032574 
L 505.447658 66.910558 
L 505.739608 66.797661 
L 506.059203 66.666848 
L 506.908084 66.32904 
L 507.343649 66.159922 
L 507.489961 66.104645 
L 507.816973 65.965705 
L 508.001717 65.88595 
L 510.903689 64.599514 
L 511.048653 64.535744 
L 511.533438 64.307328 
L 511.834828 64.159637 
L 512.340516 63.916335 
L 512.79496 63.653567 
L 513.205578 63.419493 
L 513.394368 63.319839 
L 514.040974 62.912611 
L 514.346409 62.714657 
L 514.564192 62.566762 
L 514.984924 62.247508 
L 515.663219 61.614896 
L 515.846615 61.41887 
L 516.585593 60.453292 
L 516.750785 60.235923 
L 516.936878 59.979489 
L 517.486391 59.361715 
L 517.625961 59.251145 
L 517.818797 59.104238 
L 518.370333 58.932934 
L 518.398652 58.910726 
L 518.398652 58.910726 
" style="fill:none;stroke:#0000ff;stroke-linecap:square;"/>
   </g>
   <g id="line2d_2">
    <path clip-path="url(#p87f67e6768)" d="M 72.000674 216 
L 518.398652 216 
L 518.398652 216 
" style="fill:none;stroke:#000000;stroke-linecap:square;"/>
   </g>
   <g id="patch_3">
    <path d="M 72 43.2 
L 518.4 43.2 
" style="fill:none;stroke:#000000;stroke-linecap:square;stroke-linejoin:miter;"/>
   </g>
   <g id="patch_4">
    <path d="M 518.4 388.8 
L 518.4 43.2 
" style="fill:none;stroke:#000000;stroke-linecap:square;stroke-linejoin:miter;"/>
   </g>
   <g id="patch_5">
    <path d="M 72 388.8 
L 518.4 388.8 
" style="fill:none;stroke:#000000;stroke-linecap:square;stroke-linejoin:miter;"/>
   </g>
   <g id="patch_6">
    <path d="M 72 388.8 
L 72 43.2 
" style="fill:none;stroke:#000000;stroke-linecap:square;stroke-linejoin:miter;"/>
   </g>
   <g id="matplotlib.axis_1">
    <g id="xtick_1">
     <g id="line2d_3">
      <defs>
       <path d="M 0 0 
L 0 -4 
" id="m3f5600eb26" style="stroke:#000000;stroke-width:0.5;"/>
      </defs>
      <g>
       <use style="stroke:#000000;stroke-width:0.5;" x="72.00067425" xlink:href="#m3f5600eb26" y="388.8"/>
      </g>
     </g>
     <g id="line2d_4">
      <defs>
       <path d="M 0 0 
L 0 4 
" id="mf323155bdc" style="stroke:#000000;stroke-width:0.5;"/>
      </defs>
      <g>
       <use style="stroke:#000000;stroke-width:0.5;" x="72.00067425" xlink:href="#mf323155bdc" y="43.2"/>
      </g>
     </g>
     <g id="text_1">
      <!-- 0 -->
      <defs>
       <path d="M 31.78125 66.40625 
Q 24.171875 66.40625 20.328125 58.90625 
Q 16.5 51.421875 16.5 36.375 
Q 16.5 21.390625 20.328125 13.890625 
Q 24.171875 6.390625 31.78125 6.390625 
Q 39.453125 6.390625 43.28125 13.890625 
Q 47.125 21.390625 47.125 36.375 
Q 47.125 51.421875 43.28125 58.90625 
Q 39.453125 66.40625 31.78125 66.40625 
M 31.78125 74.21875 
Q 44.046875 74.21875 50.515625 64.515625 
Q 56.984375 54.828125 56.984375 36.375 
Q 56.984375 17.96875 50.515625 8.265625 
Q 44.046875 -1.421875 31.78125 -1.421875 
Q 19.53125 -1.421875 13.0625 8.265625 
Q 6.59375 17.96875 6.59375 36.375 
Q 6.59375 54.828125 13.0625 64.515625 
Q 19.53125 74.21875 31.78125 74.21875 
" id="BitstreamVeraSans-Roman-30"/>
      </defs>
      <g transform="translate(68.18317425 401.918125)scale(0.12 -0.12)">
       <use xlink:href="#BitstreamVeraSans-Roman-30"/>
      </g>
     </g>
    </g>
    <g id="xtick_2">
     <g id="line2d_5">
      <g>
       <use style="stroke:#000000;stroke-width:0.5;" x="139.425670738" xlink:href="#m3f5600eb26" y="388.8"/>
      </g>
     </g>
     <g id="line2d_6">
      <g>
       <use style="stroke:#000000;stroke-width:0.5;" x="139.425670738" xlink:href="#mf323155bdc" y="43.2"/>
      </g>
     </g>
     <g id="text_2">
      <!-- 100000 -->
      <defs>
       <path d="M 12.40625 8.296875 
L 28.515625 8.296875 
L 28.515625 63.921875 
L 10.984375 60.40625 
L 10.984375 69.390625 
L 28.421875 72.90625 
L 38.28125 72.90625 
L 38.28125 8.296875 
L 54.390625 8.296875 
L 54.390625 0 
L 12.40625 0 
z
" id="BitstreamVeraSans-Roman-31"/>
      </defs>
      <g transform="translate(116.520670738 401.918125)scale(0.12 -0.12)">
       <use xlink:href="#BitstreamVeraSans-Roman-31"/>
       <use x="63.623046875" xlink:href="#BitstreamVeraSans-Roman-30"/>
       <use x="127.24609375" xlink:href="#BitstreamVeraSans-Roman-30"/>
       <use x="190.869140625" xlink:href="#BitstreamVeraSans-Roman-30"/>
       <use x="254.4921875" xlink:href="#BitstreamVeraSans-Roman-30"/>
       <use x="318.115234375" xlink:href="#BitstreamVeraSans-Roman-30"/>
      </g>
     </g>
    </g>
    <g id="xtick_3">
     <g id="line2d_7">
      <g>
       <use style="stroke:#000000;stroke-width:0.5;" x="206.850667227" xlink:href="#m3f5600eb26" y="388.8"/>
      </g>
     </g>
     <g id="line2d_8">
      <g>
       <use style="stroke:#000000;stroke-width:0.5;" x="206.850667227" xlink:href="#mf323155bdc" y="43.2"/>
      </g>
     </g>
     <g id="text_3">
      <!-- 200000 -->
      <defs>
       <path d="M 19.1875 8.296875 
L 53.609375 8.296875 
L 53.609375 0 
L 7.328125 0 
L 7.328125 8.296875 
Q 12.9375 14.109375 22.625 23.890625 
Q 32.328125 33.6875 34.8125 36.53125 
Q 39.546875 41.84375 41.421875 45.53125 
Q 43.3125 49.21875 43.3125 52.78125 
Q 43.3125 58.59375 39.234375 62.25 
Q 35.15625 65.921875 28.609375 65.921875 
Q 23.96875 65.921875 18.8125 64.3125 
Q 13.671875 62.703125 7.8125 59.421875 
L 7.8125 69.390625 
Q 13.765625 71.78125 18.9375 73 
Q 24.125 74.21875 28.421875 74.21875 
Q 39.75 74.21875 46.484375 68.546875 
Q 53.21875 62.890625 53.21875 53.421875 
Q 53.21875 48.921875 51.53125 44.890625 
Q 49.859375 40.875 45.40625 35.40625 
Q 44.1875 33.984375 37.640625 27.21875 
Q 31.109375 20.453125 19.1875 8.296875 
" id="BitstreamVeraSans-Roman-32"/>
      </defs>
      <g transform="translate(183.945667227 401.918125)scale(0.12 -0.12)">
       <use xlink:href="#BitstreamVeraSans-Roman-32"/>
       <use x="63.623046875" xlink:href="#BitstreamVeraSans-Roman-30"/>
       <use x="127.24609375" xlink:href="#BitstreamVeraSans-Roman-30"/>
       <use x="190.869140625" xlink:href="#BitstreamVeraSans-Roman-30"/>
       <use x="254.4921875" xlink:href="#BitstreamVeraSans-Roman-30"/>
       <use x="318.115234375" xlink:href="#BitstreamVeraSans-Roman-30"/>
      </g>
     </g>
    </g>
    <g id="xtick_4">
     <g id="line2d_9">
      <g>
       <use style="stroke:#000000;stroke-width:0.5;" x="274.275663715" xlink:href="#m3f5600eb26" y="388.8"/>
      </g>
     </g>
     <g id="line2d_10">
      <g>
       <use style="stroke:#000000;stroke-width:0.5;" x="274.275663715" xlink:href="#mf323155bdc" y="43.2"/>
      </g>
     </g>
     <g id="text_4">
      <!-- 300000 -->
      <defs>
       <path d="M 40.578125 39.3125 
Q 47.65625 37.796875 51.625 33 
Q 55.609375 28.21875 55.609375 21.1875 
Q 55.609375 10.40625 48.1875 4.484375 
Q 40.765625 -1.421875 27.09375 -1.421875 
Q 22.515625 -1.421875 17.65625 -0.515625 
Q 12.796875 0.390625 7.625 2.203125 
L 7.625 11.71875 
Q 11.71875 9.328125 16.59375 8.109375 
Q 21.484375 6.890625 26.8125 6.890625 
Q 36.078125 6.890625 40.9375 10.546875 
Q 45.796875 14.203125 45.796875 21.1875 
Q 45.796875 27.640625 41.28125 31.265625 
Q 36.765625 34.90625 28.71875 34.90625 
L 20.21875 34.90625 
L 20.21875 43.015625 
L 29.109375 43.015625 
Q 36.375 43.015625 40.234375 45.921875 
Q 44.09375 48.828125 44.09375 54.296875 
Q 44.09375 59.90625 40.109375 62.90625 
Q 36.140625 65.921875 28.71875 65.921875 
Q 24.65625 65.921875 20.015625 65.03125 
Q 15.375 64.15625 9.8125 62.3125 
L 9.8125 71.09375 
Q 15.4375 72.65625 20.34375 73.4375 
Q 25.25 74.21875 29.59375 74.21875 
Q 40.828125 74.21875 47.359375 69.109375 
Q 53.90625 64.015625 53.90625 55.328125 
Q 53.90625 49.265625 50.4375 45.09375 
Q 46.96875 40.921875 40.578125 39.3125 
" id="BitstreamVeraSans-Roman-33"/>
      </defs>
      <g transform="translate(251.370663715 401.918125)scale(0.12 -0.12)">
       <use xlink:href="#BitstreamVeraSans-Roman-33"/>
       <use x="63.623046875" xlink:href="#BitstreamVeraSans-Roman-30"/>
       <use x="127.24609375" xlink:href="#BitstreamVeraSans-Roman-30"/>
       <use x="190.869140625" xlink:href="#BitstreamVeraSans-Roman-30"/>
       <use x="254.4921875" xlink:href="#BitstreamVeraSans-Roman-30"/>
       <use x="318.115234375" xlink:href="#BitstreamVeraSans-Roman-30"/>
      </g>
     </g>
    </g>
    <g id="xtick_5">
     <g id="line2d_11">
      <g>
       <use style="stroke:#000000;stroke-width:0.5;" x="341.700660203" xlink:href="#m3f5600eb26" y="388.8"/>
      </g>
     </g>
     <g id="line2d_12">
      <g>
       <use style="stroke:#000000;stroke-width:0.5;" x="341.700660203" xlink:href="#mf323155bdc" y="43.2"/>
      </g>
     </g>
     <g id="text_5">
      <!-- 400000 -->
      <defs>
       <path d="M 37.796875 64.3125 
L 12.890625 25.390625 
L 37.796875 25.390625 
z
M 35.203125 72.90625 
L 47.609375 72.90625 
L 47.609375 25.390625 
L 58.015625 25.390625 
L 58.015625 17.1875 
L 47.609375 17.1875 
L 47.609375 0 
L 37.796875 0 
L 37.796875 17.1875 
L 4.890625 17.1875 
L 4.890625 26.703125 
z
" id="BitstreamVeraSans-Roman-34"/>
      </defs>
      <g transform="translate(318.795660203 401.918125)scale(0.12 -0.12)">
       <use xlink:href="#BitstreamVeraSans-Roman-34"/>
       <use x="63.623046875" xlink:href="#BitstreamVeraSans-Roman-30"/>
       <use x="127.24609375" xlink:href="#BitstreamVeraSans-Roman-30"/>
       <use x="190.869140625" xlink:href="#BitstreamVeraSans-Roman-30"/>
       <use x="254.4921875" xlink:href="#BitstreamVeraSans-Roman-30"/>
       <use x="318.115234375" xlink:href="#BitstreamVeraSans-Roman-30"/>
      </g>
     </g>
    </g>
    <g id="xtick_6">
     <g id="line2d_13">
      <g>
       <use style="stroke:#000000;stroke-width:0.5;" x="409.125656691" xlink:href="#m3f5600eb26" y="388.8"/>
      </g>
     </g>
     <g id="line2d_14">
      <g>
       <use style="stroke:#000000;stroke-width:0.5;" x="409.125656691" xlink:href="#mf323155bdc" y="43.2"/>
      </g>
     </g>
     <g id="text_6">
      <!-- 500000 -->
      <defs>
       <path d="M 10.796875 72.90625 
L 49.515625 72.90625 
L 49.515625 64.59375 
L 19.828125 64.59375 
L 19.828125 46.734375 
Q 21.96875 47.46875 24.109375 47.828125 
Q 26.265625 48.1875 28.421875 48.1875 
Q 40.625 48.1875 47.75 41.5 
Q 54.890625 34.8125 54.890625 23.390625 
Q 54.890625 11.625 47.5625 5.09375 
Q 40.234375 -1.421875 26.90625 -1.421875 
Q 22.3125 -1.421875 17.546875 -0.640625 
Q 12.796875 0.140625 7.71875 1.703125 
L 7.71875 11.625 
Q 12.109375 9.234375 16.796875 8.0625 
Q 21.484375 6.890625 26.703125 6.890625 
Q 35.15625 6.890625 40.078125 11.328125 
Q 45.015625 15.765625 45.015625 23.390625 
Q 45.015625 31 40.078125 35.4375 
Q 35.15625 39.890625 26.703125 39.890625 
Q 22.75 39.890625 18.8125 39.015625 
Q 14.890625 38.140625 10.796875 36.28125 
z
" id="BitstreamVeraSans-Roman-35"/>
      </defs>
      <g transform="translate(386.220656691 401.918125)scale(0.12 -0.12)">
       <use xlink:href="#BitstreamVeraSans-Roman-35"/>
       <use x="63.623046875" xlink:href="#BitstreamVeraSans-Roman-30"/>
       <use x="127.24609375" xlink:href="#BitstreamVeraSans-Roman-30"/>
       <use x="190.869140625" xlink:href="#BitstreamVeraSans-Roman-30"/>
       <use x="254.4921875" xlink:href="#BitstreamVeraSans-Roman-30"/>
       <use x="318.115234375" xlink:href="#BitstreamVeraSans-Roman-30"/>
      </g>
     </g>
    </g>
    <g id="xtick_7">
     <g id="line2d_15">
      <g>
       <use style="stroke:#000000;stroke-width:0.5;" x="476.55065318" xlink:href="#m3f5600eb26" y="388.8"/>
      </g>
     </g>
     <g id="line2d_16">
      <g>
       <use style="stroke:#000000;stroke-width:0.5;" x="476.55065318" xlink:href="#mf323155bdc" y="43.2"/>
      </g>
     </g>
     <g id="text_7">
      <!-- 600000 -->
      <defs>
       <path d="M 33.015625 40.375 
Q 26.375 40.375 22.484375 35.828125 
Q 18.609375 31.296875 18.609375 23.390625 
Q 18.609375 15.53125 22.484375 10.953125 
Q 26.375 6.390625 33.015625 6.390625 
Q 39.65625 6.390625 43.53125 10.953125 
Q 47.40625 15.53125 47.40625 23.390625 
Q 47.40625 31.296875 43.53125 35.828125 
Q 39.65625 40.375 33.015625 40.375 
M 52.59375 71.296875 
L 52.59375 62.3125 
Q 48.875 64.0625 45.09375 64.984375 
Q 41.3125 65.921875 37.59375 65.921875 
Q 27.828125 65.921875 22.671875 59.328125 
Q 17.53125 52.734375 16.796875 39.40625 
Q 19.671875 43.65625 24.015625 45.921875 
Q 28.375 48.1875 33.59375 48.1875 
Q 44.578125 48.1875 50.953125 41.515625 
Q 57.328125 34.859375 57.328125 23.390625 
Q 57.328125 12.15625 50.6875 5.359375 
Q 44.046875 -1.421875 33.015625 -1.421875 
Q 20.359375 -1.421875 13.671875 8.265625 
Q 6.984375 17.96875 6.984375 36.375 
Q 6.984375 53.65625 15.1875 63.9375 
Q 23.390625 74.21875 37.203125 74.21875 
Q 40.921875 74.21875 44.703125 73.484375 
Q 48.484375 72.75 52.59375 71.296875 
" id="BitstreamVeraSans-Roman-36"/>
      </defs>
      <g transform="translate(453.64565318 401.918125)scale(0.12 -0.12)">
       <use xlink:href="#BitstreamVeraSans-Roman-36"/>
       <use x="63.623046875" xlink:href="#BitstreamVeraSans-Roman-30"/>
       <use x="127.24609375" xlink:href="#BitstreamVeraSans-Roman-30"/>
       <use x="190.869140625" xlink:href="#BitstreamVeraSans-Roman-30"/>
       <use x="254.4921875" xlink:href="#BitstreamVeraSans-Roman-30"/>
       <use x="318.115234375" xlink:href="#BitstreamVeraSans-Roman-30"/>
      </g>
     </g>
    </g>
    <g id="text_8">
     <!-- Channel vs Channel -->
     <defs>
      <path id="BitstreamVeraSans-Roman-20"/>
      <path d="M 54.890625 33.015625 
L 54.890625 0 
L 45.90625 0 
L 45.90625 32.71875 
Q 45.90625 40.484375 42.875 44.328125 
Q 39.84375 48.1875 33.796875 48.1875 
Q 26.515625 48.1875 22.3125 43.546875 
Q 18.109375 38.921875 18.109375 30.90625 
L 18.109375 0 
L 9.078125 0 
L 9.078125 54.6875 
L 18.109375 54.6875 
L 18.109375 46.1875 
Q 21.34375 51.125 25.703125 53.5625 
Q 30.078125 56 35.796875 56 
Q 45.21875 56 50.046875 50.171875 
Q 54.890625 44.34375 54.890625 33.015625 
" id="BitstreamVeraSans-Roman-6e"/>
      <path d="M 9.421875 75.984375 
L 18.40625 75.984375 
L 18.40625 0 
L 9.421875 0 
z
" id="BitstreamVeraSans-Roman-6c"/>
      <path d="M 2.984375 54.6875 
L 12.5 54.6875 
L 29.59375 8.796875 
L 46.6875 54.6875 
L 56.203125 54.6875 
L 35.6875 0 
L 23.484375 0 
z
" id="BitstreamVeraSans-Roman-76"/>
      <path d="M 64.40625 67.28125 
L 64.40625 56.890625 
Q 59.421875 61.53125 53.78125 63.8125 
Q 48.140625 66.109375 41.796875 66.109375 
Q 29.296875 66.109375 22.65625 58.46875 
Q 16.015625 50.828125 16.015625 36.375 
Q 16.015625 21.96875 22.65625 14.328125 
Q 29.296875 6.6875 41.796875 6.6875 
Q 48.140625 6.6875 53.78125 8.984375 
Q 59.421875 11.28125 64.40625 15.921875 
L 64.40625 5.609375 
Q 59.234375 2.09375 53.4375 0.328125 
Q 47.65625 -1.421875 41.21875 -1.421875 
Q 24.65625 -1.421875 15.125 8.703125 
Q 5.609375 18.84375 5.609375 36.375 
Q 5.609375 53.953125 15.125 64.078125 
Q 24.65625 74.21875 41.21875 74.21875 
Q 47.75 74.21875 53.53125 72.484375 
Q 59.328125 70.75 64.40625 67.28125 
" id="BitstreamVeraSans-Roman-43"/>
      <path d="M 54.890625 33.015625 
L 54.890625 0 
L 45.90625 0 
L 45.90625 32.71875 
Q 45.90625 40.484375 42.875 44.328125 
Q 39.84375 48.1875 33.796875 48.1875 
Q 26.515625 48.1875 22.3125 43.546875 
Q 18.109375 38.921875 18.109375 30.90625 
L 18.109375 0 
L 9.078125 0 
L 9.078125 75.984375 
L 18.109375 75.984375 
L 18.109375 46.1875 
Q 21.34375 51.125 25.703125 53.5625 
Q 30.078125 56 35.796875 56 
Q 45.21875 56 50.046875 50.171875 
Q 54.890625 44.34375 54.890625 33.015625 
" id="BitstreamVeraSans-Roman-68"/>
      <path d="M 56.203125 29.59375 
L 56.203125 25.203125 
L 14.890625 25.203125 
Q 15.484375 15.921875 20.484375 11.0625 
Q 25.484375 6.203125 34.421875 6.203125 
Q 39.59375 6.203125 44.453125 7.46875 
Q 49.3125 8.734375 54.109375 11.28125 
L 54.109375 2.78125 
Q 49.265625 0.734375 44.1875 -0.34375 
Q 39.109375 -1.421875 33.890625 -1.421875 
Q 20.796875 -1.421875 13.15625 6.1875 
Q 5.515625 13.8125 5.515625 26.8125 
Q 5.515625 40.234375 12.765625 48.109375 
Q 20.015625 56 32.328125 56 
Q 43.359375 56 49.78125 48.890625 
Q 56.203125 41.796875 56.203125 29.59375 
M 47.21875 32.234375 
Q 47.125 39.59375 43.09375 43.984375 
Q 39.0625 48.390625 32.421875 48.390625 
Q 24.90625 48.390625 20.390625 44.140625 
Q 15.875 39.890625 15.1875 32.171875 
z
" id="BitstreamVeraSans-Roman-65"/>
      <path d="M 34.28125 27.484375 
Q 23.390625 27.484375 19.1875 25 
Q 14.984375 22.515625 14.984375 16.5 
Q 14.984375 11.71875 18.140625 8.90625 
Q 21.296875 6.109375 26.703125 6.109375 
Q 34.1875 6.109375 38.703125 11.40625 
Q 43.21875 16.703125 43.21875 25.484375 
L 43.21875 27.484375 
z
M 52.203125 31.203125 
L 52.203125 0 
L 43.21875 0 
L 43.21875 8.296875 
Q 40.140625 3.328125 35.546875 0.953125 
Q 30.953125 -1.421875 24.3125 -1.421875 
Q 15.921875 -1.421875 10.953125 3.296875 
Q 6 8.015625 6 15.921875 
Q 6 25.140625 12.171875 29.828125 
Q 18.359375 34.515625 30.609375 34.515625 
L 43.21875 34.515625 
L 43.21875 35.40625 
Q 43.21875 41.609375 39.140625 45 
Q 35.0625 48.390625 27.6875 48.390625 
Q 23 48.390625 18.546875 47.265625 
Q 14.109375 46.140625 10.015625 43.890625 
L 10.015625 52.203125 
Q 14.9375 54.109375 19.578125 55.046875 
Q 24.21875 56 28.609375 56 
Q 40.484375 56 46.34375 49.84375 
Q 52.203125 43.703125 52.203125 31.203125 
" id="BitstreamVeraSans-Roman-61"/>
      <path d="M 44.28125 53.078125 
L 44.28125 44.578125 
Q 40.484375 46.53125 36.375 47.5 
Q 32.28125 48.484375 27.875 48.484375 
Q 21.1875 48.484375 17.84375 46.4375 
Q 14.5 44.390625 14.5 40.28125 
Q 14.5 37.15625 16.890625 35.375 
Q 19.28125 33.59375 26.515625 31.984375 
L 29.59375 31.296875 
Q 39.15625 29.25 43.1875 25.515625 
Q 47.21875 21.78125 47.21875 15.09375 
Q 47.21875 7.46875 41.1875 3.015625 
Q 35.15625 -1.421875 24.609375 -1.421875 
Q 20.21875 -1.421875 15.453125 -0.5625 
Q 10.6875 0.296875 5.421875 2 
L 5.421875 11.28125 
Q 10.40625 8.6875 15.234375 7.390625 
Q 20.0625 6.109375 24.8125 6.109375 
Q 31.15625 6.109375 34.5625 8.28125 
Q 37.984375 10.453125 37.984375 14.40625 
Q 37.984375 18.0625 35.515625 20.015625 
Q 33.0625 21.96875 24.703125 23.78125 
L 21.578125 24.515625 
Q 13.234375 26.265625 9.515625 29.90625 
Q 5.8125 33.546875 5.8125 39.890625 
Q 5.8125 47.609375 11.28125 51.796875 
Q 16.75 56 26.8125 56 
Q 31.78125 56 36.171875 55.265625 
Q 40.578125 54.546875 44.28125 53.078125 
" id="BitstreamVeraSans-Roman-73"/>
     </defs>
     <g transform="translate(235.44375 418.531875)scale(0.12 -0.12)">
      <use xlink:href="#BitstreamVeraSans-Roman-43"/>
      <use x="69.82421875" xlink:href="#BitstreamVeraSans-Roman-68"/>
      <use x="133.203125" xlink:href="#BitstreamVeraSans-Roman-61"/>
      <use x="194.482421875" xlink:href="#BitstreamVeraSans-Roman-6e"/>
      <use x="257.861328125" xlink:href="#BitstreamVeraSans-Roman-6e"/>
      <use x="321.240234375" xlink:href="#BitstreamVeraSans-Roman-65"/>
      <use x="382.763671875" xlink:href="#BitstreamVeraSans-Roman-6c"/>
      <use x="410.546875" xlink:href="#BitstreamVeraSans-Roman-20"/>
      <use x="442.333984375" xlink:href="#BitstreamVeraSans-Roman-76"/>
      <use x="501.513671875" xlink:href="#BitstreamVeraSans-Roman-73"/>
      <use x="553.61328125" xlink:href="#BitstreamVeraSans-Roman-20"/>
      <use x="585.400390625" xlink:href="#BitstreamVeraSans-Roman-43"/>
      <use x="655.224609375" xlink:href="#BitstreamVeraSans-Roman-68"/>
      <use x="718.603515625" xlink:href="#BitstreamVeraSans-Roman-61"/>
      <use x="779.8828125" xlink:href="#BitstreamVeraSans-Roman-6e"/>
      <use x="843.26171875" xlink:href="#BitstreamVeraSans-Roman-6e"/>
      <use x="906.640625" xlink:href="#BitstreamVeraSans-Roman-65"/>
      <use x="968.1640625" xlink:href="#BitstreamVeraSans-Roman-6c"/>
     </g>
    </g>
   </g>
   <g id="matplotlib.axis_2">
    <g id="ytick_1">
     <g id="line2d_17">
      <defs>
       <path d="M 0 0 
L 4 0 
" id="m9dc2a5c7c6" style="stroke:#000000;stroke-width:0.5;"/>
      </defs>
      <g>
       <use style="stroke:#000000;stroke-width:0.5;" x="72.0" xlink:href="#m9dc2a5c7c6" y="373.090909091"/>
      </g>
     </g>
     <g id="line2d_18">
      <defs>
       <path d="M 0 0 
L -4 0 
" id="m5f9d21511e" style="stroke:#000000;stroke-width:0.5;"/>
      </defs>
      <g>
       <use style="stroke:#000000;stroke-width:0.5;" x="518.4" xlink:href="#m5f9d21511e" y="373.090909091"/>
      </g>
     </g>
     <g id="text_9">
      <!-- −1.0 -->
      <defs>
       <path d="M 10.59375 35.5 
L 73.1875 35.5 
L 73.1875 27.203125 
L 10.59375 27.203125 
z
" id="BitstreamVeraSans-Roman-2212"/>
       <path d="M 10.6875 12.40625 
L 21 12.40625 
L 21 0 
L 10.6875 0 
z
" id="BitstreamVeraSans-Roman-2e"/>
      </defs>
      <g transform="translate(38.860625 376.402159091)scale(0.12 -0.12)">
       <use xlink:href="#BitstreamVeraSans-Roman-2212"/>
       <use x="83.7890625" xlink:href="#BitstreamVeraSans-Roman-31"/>
       <use x="147.412109375" xlink:href="#BitstreamVeraSans-Roman-2e"/>
       <use x="179.19921875" xlink:href="#BitstreamVeraSans-Roman-30"/>
      </g>
     </g>
    </g>
    <g id="ytick_2">
     <g id="line2d_19">
      <g>
       <use style="stroke:#000000;stroke-width:0.5;" x="72.0" xlink:href="#m9dc2a5c7c6" y="294.545454545"/>
      </g>
     </g>
     <g id="line2d_20">
      <g>
       <use style="stroke:#000000;stroke-width:0.5;" x="518.4" xlink:href="#m5f9d21511e" y="294.545454545"/>
      </g>
     </g>
     <g id="text_10">
      <!-- −0.5 -->
      <g transform="translate(38.860625 297.856704545)scale(0.12 -0.12)">
       <use xlink:href="#BitstreamVeraSans-Roman-2212"/>
       <use x="83.7890625" xlink:href="#BitstreamVeraSans-Roman-30"/>
       <use x="147.412109375" xlink:href="#BitstreamVeraSans-Roman-2e"/>
       <use x="179.19921875" xlink:href="#BitstreamVeraSans-Roman-35"/>
      </g>
     </g>
    </g>
    <g id="ytick_3">
     <g id="line2d_21">
      <g>
       <use style="stroke:#000000;stroke-width:0.5;" x="72.0" xlink:href="#m9dc2a5c7c6" y="216.0"/>
      </g>
     </g>
     <g id="line2d_22">
      <g>
       <use style="stroke:#000000;stroke-width:0.5;" x="518.4" xlink:href="#m5f9d21511e" y="216.0"/>
      </g>
     </g>
     <g id="text_11">
      <!-- 0.0 -->
      <g transform="translate(48.91625 219.31125)scale(0.12 -0.12)">
       <use xlink:href="#BitstreamVeraSans-Roman-30"/>
       <use x="63.623046875" xlink:href="#BitstreamVeraSans-Roman-2e"/>
       <use x="95.41015625" xlink:href="#BitstreamVeraSans-Roman-30"/>
      </g>
     </g>
    </g>
    <g id="ytick_4">
     <g id="line2d_23">
      <g>
       <use style="stroke:#000000;stroke-width:0.5;" x="72.0" xlink:href="#m9dc2a5c7c6" y="137.454545455"/>
      </g>
     </g>
     <g id="line2d_24">
      <g>
       <use style="stroke:#000000;stroke-width:0.5;" x="518.4" xlink:href="#m5f9d21511e" y="137.454545455"/>
      </g>
     </g>
     <g id="text_12">
      <!-- 0.5 -->
      <g transform="translate(48.91625 140.765795455)scale(0.12 -0.12)">
       <use xlink:href="#BitstreamVeraSans-Roman-30"/>
       <use x="63.623046875" xlink:href="#BitstreamVeraSans-Roman-2e"/>
       <use x="95.41015625" xlink:href="#BitstreamVeraSans-Roman-35"/>
      </g>
     </g>
    </g>
    <g id="ytick_5">
     <g id="line2d_25">
      <g>
       <use style="stroke:#000000;stroke-width:0.5;" x="72.0" xlink:href="#m9dc2a5c7c6" y="58.9090909091"/>
      </g>
     </g>
     <g id="line2d_26">
      <g>
       <use style="stroke:#000000;stroke-width:0.5;" x="518.4" xlink:href="#m5f9d21511e" y="58.9090909091"/>
      </g>
     </g>
     <g id="text_13">
      <!-- 1.0 -->
      <g transform="translate(48.91625 62.2203409091)scale(0.12 -0.12)">
       <use xlink:href="#BitstreamVeraSans-Roman-31"/>
       <use x="63.623046875" xlink:href="#BitstreamVeraSans-Roman-2e"/>
       <use x="95.41015625" xlink:href="#BitstreamVeraSans-Roman-30"/>
      </g>
     </g>
    </g>
    <g id="text_14">
     <!-- Correlation value -->
     <defs>
      <path d="M 8.5 21.578125 
L 8.5 54.6875 
L 17.484375 54.6875 
L 17.484375 21.921875 
Q 17.484375 14.15625 20.5 10.265625 
Q 23.53125 6.390625 29.59375 6.390625 
Q 36.859375 6.390625 41.078125 11.03125 
Q 45.3125 15.671875 45.3125 23.6875 
L 45.3125 54.6875 
L 54.296875 54.6875 
L 54.296875 0 
L 45.3125 0 
L 45.3125 8.40625 
Q 42.046875 3.421875 37.71875 1 
Q 33.40625 -1.421875 27.6875 -1.421875 
Q 18.265625 -1.421875 13.375 4.4375 
Q 8.5 10.296875 8.5 21.578125 
" id="BitstreamVeraSans-Roman-75"/>
      <path d="M 9.421875 54.6875 
L 18.40625 54.6875 
L 18.40625 0 
L 9.421875 0 
z
M 9.421875 75.984375 
L 18.40625 75.984375 
L 18.40625 64.59375 
L 9.421875 64.59375 
z
" id="BitstreamVeraSans-Roman-69"/>
      <path d="M 18.3125 70.21875 
L 18.3125 54.6875 
L 36.8125 54.6875 
L 36.8125 47.703125 
L 18.3125 47.703125 
L 18.3125 18.015625 
Q 18.3125 11.328125 20.140625 9.421875 
Q 21.96875 7.515625 27.59375 7.515625 
L 36.8125 7.515625 
L 36.8125 0 
L 27.59375 0 
Q 17.1875 0 13.234375 3.875 
Q 9.28125 7.765625 9.28125 18.015625 
L 9.28125 47.703125 
L 2.6875 47.703125 
L 2.6875 54.6875 
L 9.28125 54.6875 
L 9.28125 70.21875 
z
" id="BitstreamVeraSans-Roman-74"/>
      <path d="M 30.609375 48.390625 
Q 23.390625 48.390625 19.1875 42.75 
Q 14.984375 37.109375 14.984375 27.296875 
Q 14.984375 17.484375 19.15625 11.84375 
Q 23.34375 6.203125 30.609375 6.203125 
Q 37.796875 6.203125 41.984375 11.859375 
Q 46.1875 17.53125 46.1875 27.296875 
Q 46.1875 37.015625 41.984375 42.703125 
Q 37.796875 48.390625 30.609375 48.390625 
M 30.609375 56 
Q 42.328125 56 49.015625 48.375 
Q 55.71875 40.765625 55.71875 27.296875 
Q 55.71875 13.875 49.015625 6.21875 
Q 42.328125 -1.421875 30.609375 -1.421875 
Q 18.84375 -1.421875 12.171875 6.21875 
Q 5.515625 13.875 5.515625 27.296875 
Q 5.515625 40.765625 12.171875 48.375 
Q 18.84375 56 30.609375 56 
" id="BitstreamVeraSans-Roman-6f"/>
      <path d="M 41.109375 46.296875 
Q 39.59375 47.171875 37.8125 47.578125 
Q 36.03125 48 33.890625 48 
Q 26.265625 48 22.1875 43.046875 
Q 18.109375 38.09375 18.109375 28.8125 
L 18.109375 0 
L 9.078125 0 
L 9.078125 54.6875 
L 18.109375 54.6875 
L 18.109375 46.1875 
Q 20.953125 51.171875 25.484375 53.578125 
Q 30.03125 56 36.53125 56 
Q 37.453125 56 38.578125 55.875 
Q 39.703125 55.765625 41.0625 55.515625 
z
" id="BitstreamVeraSans-Roman-72"/>
     </defs>
     <g transform="translate(31.365 267.6159375)rotate(-90.0)scale(0.12 -0.12)">
      <use xlink:href="#BitstreamVeraSans-Roman-43"/>
      <use x="69.82421875" xlink:href="#BitstreamVeraSans-Roman-6f"/>
      <use x="131.005859375" xlink:href="#BitstreamVeraSans-Roman-72"/>
      <use x="172.103515625" xlink:href="#BitstreamVeraSans-Roman-72"/>
      <use x="213.185546875" xlink:href="#BitstreamVeraSans-Roman-65"/>
      <use x="274.708984375" xlink:href="#BitstreamVeraSans-Roman-6c"/>
      <use x="302.4921875" xlink:href="#BitstreamVeraSans-Roman-61"/>
      <use x="363.771484375" xlink:href="#BitstreamVeraSans-Roman-74"/>
      <use x="402.98046875" xlink:href="#BitstreamVeraSans-Roman-69"/>
      <use x="430.763671875" xlink:href="#BitstreamVeraSans-Roman-6f"/>
      <use x="491.9453125" xlink:href="#BitstreamVeraSans-Roman-6e"/>
      <use x="555.32421875" xlink:href="#BitstreamVeraSans-Roman-20"/>
      <use x="587.111328125" xlink:href="#BitstreamVeraSans-Roman-76"/>
      <use x="646.291015625" xlink:href="#BitstreamVeraSans-Roman-61"/>
      <use x="707.5703125" xlink:href="#BitstreamVeraSans-Roman-6c"/>
      <use x="735.353515625" xlink:href="#BitstreamVeraSans-Roman-75"/>
      <use x="798.732421875" xlink:href="#BitstreamVeraSans-Roman-65"/>
     </g>
    </g>
   </g>
   <g id="text_15">
    <!-- Sorted Correlations between 2 Channels (10 second intervals) -->
    <defs>
     <path d="M 8.015625 75.875 
L 15.828125 75.875 
Q 23.140625 64.359375 26.78125 53.3125 
Q 30.421875 42.28125 30.421875 31.390625 
Q 30.421875 20.453125 26.78125 9.375 
Q 23.140625 -1.703125 15.828125 -13.1875 
L 8.015625 -13.1875 
Q 14.5 -2 17.703125 9.0625 
Q 20.90625 20.125 20.90625 31.390625 
Q 20.90625 42.671875 17.703125 53.65625 
Q 14.5 64.65625 8.015625 75.875 
" id="BitstreamVeraSans-Roman-29"/>
     <path d="M 31 75.875 
Q 24.46875 64.65625 21.28125 53.65625 
Q 18.109375 42.671875 18.109375 31.390625 
Q 18.109375 20.125 21.3125 9.0625 
Q 24.515625 -2 31 -13.1875 
L 23.1875 -13.1875 
Q 15.875 -1.703125 12.234375 9.375 
Q 8.59375 20.453125 8.59375 31.390625 
Q 8.59375 42.28125 12.203125 53.3125 
Q 15.828125 64.359375 23.1875 75.875 
z
" id="BitstreamVeraSans-Roman-28"/>
     <path d="M 53.515625 70.515625 
L 53.515625 60.890625 
Q 47.90625 63.578125 42.921875 64.890625 
Q 37.9375 66.21875 33.296875 66.21875 
Q 25.25 66.21875 20.875 63.09375 
Q 16.5 59.96875 16.5 54.203125 
Q 16.5 49.359375 19.40625 46.890625 
Q 22.3125 44.4375 30.421875 42.921875 
L 36.375 41.703125 
Q 47.40625 39.59375 52.65625 34.296875 
Q 57.90625 29 57.90625 20.125 
Q 57.90625 9.515625 50.796875 4.046875 
Q 43.703125 -1.421875 29.984375 -1.421875 
Q 24.8125 -1.421875 18.96875 -0.25 
Q 13.140625 0.921875 6.890625 3.21875 
L 6.890625 13.375 
Q 12.890625 10.015625 18.65625 8.296875 
Q 24.421875 6.59375 29.984375 6.59375 
Q 38.421875 6.59375 43.015625 9.90625 
Q 47.609375 13.234375 47.609375 19.390625 
Q 47.609375 24.75 44.3125 27.78125 
Q 41.015625 30.8125 33.5 32.328125 
L 27.484375 33.5 
Q 16.453125 35.6875 11.515625 40.375 
Q 6.59375 45.0625 6.59375 53.421875 
Q 6.59375 63.09375 13.40625 68.65625 
Q 20.21875 74.21875 32.171875 74.21875 
Q 37.3125 74.21875 42.625 73.28125 
Q 47.953125 72.359375 53.515625 70.515625 
" id="BitstreamVeraSans-Roman-53"/>
     <path d="M 4.203125 54.6875 
L 13.1875 54.6875 
L 24.421875 12.015625 
L 35.59375 54.6875 
L 46.1875 54.6875 
L 57.421875 12.015625 
L 68.609375 54.6875 
L 77.59375 54.6875 
L 63.28125 0 
L 52.6875 0 
L 40.921875 44.828125 
L 29.109375 0 
L 18.5 0 
z
" id="BitstreamVeraSans-Roman-77"/>
     <path d="M 45.40625 46.390625 
L 45.40625 75.984375 
L 54.390625 75.984375 
L 54.390625 0 
L 45.40625 0 
L 45.40625 8.203125 
Q 42.578125 3.328125 38.25 0.953125 
Q 33.9375 -1.421875 27.875 -1.421875 
Q 17.96875 -1.421875 11.734375 6.484375 
Q 5.515625 14.40625 5.515625 27.296875 
Q 5.515625 40.1875 11.734375 48.09375 
Q 17.96875 56 27.875 56 
Q 33.9375 56 38.25 53.625 
Q 42.578125 51.265625 45.40625 46.390625 
M 14.796875 27.296875 
Q 14.796875 17.390625 18.875 11.75 
Q 22.953125 6.109375 30.078125 6.109375 
Q 37.203125 6.109375 41.296875 11.75 
Q 45.40625 17.390625 45.40625 27.296875 
Q 45.40625 37.203125 41.296875 42.84375 
Q 37.203125 48.484375 30.078125 48.484375 
Q 22.953125 48.484375 18.875 42.84375 
Q 14.796875 37.203125 14.796875 27.296875 
" id="BitstreamVeraSans-Roman-64"/>
     <path d="M 48.78125 52.59375 
L 48.78125 44.1875 
Q 44.96875 46.296875 41.140625 47.34375 
Q 37.3125 48.390625 33.40625 48.390625 
Q 24.65625 48.390625 19.8125 42.84375 
Q 14.984375 37.3125 14.984375 27.296875 
Q 14.984375 17.28125 19.8125 11.734375 
Q 24.65625 6.203125 33.40625 6.203125 
Q 37.3125 6.203125 41.140625 7.25 
Q 44.96875 8.296875 48.78125 10.40625 
L 48.78125 2.09375 
Q 45.015625 0.34375 40.984375 -0.53125 
Q 36.96875 -1.421875 32.421875 -1.421875 
Q 20.0625 -1.421875 12.78125 6.34375 
Q 5.515625 14.109375 5.515625 27.296875 
Q 5.515625 40.671875 12.859375 48.328125 
Q 20.21875 56 33.015625 56 
Q 37.15625 56 41.109375 55.140625 
Q 45.0625 54.296875 48.78125 52.59375 
" id="BitstreamVeraSans-Roman-63"/>
     <path d="M 48.6875 27.296875 
Q 48.6875 37.203125 44.609375 42.84375 
Q 40.53125 48.484375 33.40625 48.484375 
Q 26.265625 48.484375 22.1875 42.84375 
Q 18.109375 37.203125 18.109375 27.296875 
Q 18.109375 17.390625 22.1875 11.75 
Q 26.265625 6.109375 33.40625 6.109375 
Q 40.53125 6.109375 44.609375 11.75 
Q 48.6875 17.390625 48.6875 27.296875 
M 18.109375 46.390625 
Q 20.953125 51.265625 25.265625 53.625 
Q 29.59375 56 35.59375 56 
Q 45.5625 56 51.78125 48.09375 
Q 58.015625 40.1875 58.015625 27.296875 
Q 58.015625 14.40625 51.78125 6.484375 
Q 45.5625 -1.421875 35.59375 -1.421875 
Q 29.59375 -1.421875 25.265625 0.953125 
Q 20.953125 3.328125 18.109375 8.203125 
L 18.109375 0 
L 9.078125 0 
L 9.078125 75.984375 
L 18.109375 75.984375 
z
" id="BitstreamVeraSans-Roman-62"/>
    </defs>
    <g transform="translate(71.001 38.2)scale(0.144 -0.144)">
     <use xlink:href="#BitstreamVeraSans-Roman-53"/>
     <use x="63.4765625" xlink:href="#BitstreamVeraSans-Roman-6f"/>
     <use x="124.658203125" xlink:href="#BitstreamVeraSans-Roman-72"/>
     <use x="165.771484375" xlink:href="#BitstreamVeraSans-Roman-74"/>
     <use x="204.98046875" xlink:href="#BitstreamVeraSans-Roman-65"/>
     <use x="266.50390625" xlink:href="#BitstreamVeraSans-Roman-64"/>
     <use x="329.98046875" xlink:href="#BitstreamVeraSans-Roman-20"/>
     <use x="361.767578125" xlink:href="#BitstreamVeraSans-Roman-43"/>
     <use x="431.591796875" xlink:href="#BitstreamVeraSans-Roman-6f"/>
     <use x="492.7734375" xlink:href="#BitstreamVeraSans-Roman-72"/>
     <use x="533.87109375" xlink:href="#BitstreamVeraSans-Roman-72"/>
     <use x="574.953125" xlink:href="#BitstreamVeraSans-Roman-65"/>
     <use x="636.4765625" xlink:href="#BitstreamVeraSans-Roman-6c"/>
     <use x="664.259765625" xlink:href="#BitstreamVeraSans-Roman-61"/>
     <use x="725.5390625" xlink:href="#BitstreamVeraSans-Roman-74"/>
     <use x="764.748046875" xlink:href="#BitstreamVeraSans-Roman-69"/>
     <use x="792.53125" xlink:href="#BitstreamVeraSans-Roman-6f"/>
     <use x="853.712890625" xlink:href="#BitstreamVeraSans-Roman-6e"/>
     <use x="917.091796875" xlink:href="#BitstreamVeraSans-Roman-73"/>
     <use x="969.19140625" xlink:href="#BitstreamVeraSans-Roman-20"/>
     <use x="1000.97851562" xlink:href="#BitstreamVeraSans-Roman-62"/>
     <use x="1064.45507812" xlink:href="#BitstreamVeraSans-Roman-65"/>
     <use x="1125.97851562" xlink:href="#BitstreamVeraSans-Roman-74"/>
     <use x="1165.1875" xlink:href="#BitstreamVeraSans-Roman-77"/>
     <use x="1246.97460938" xlink:href="#BitstreamVeraSans-Roman-65"/>
     <use x="1308.49804688" xlink:href="#BitstreamVeraSans-Roman-65"/>
     <use x="1370.02148438" xlink:href="#BitstreamVeraSans-Roman-6e"/>
     <use x="1433.40039062" xlink:href="#BitstreamVeraSans-Roman-20"/>
     <use x="1465.1875" xlink:href="#BitstreamVeraSans-Roman-32"/>
     <use x="1528.81054688" xlink:href="#BitstreamVeraSans-Roman-20"/>
     <use x="1560.59765625" xlink:href="#BitstreamVeraSans-Roman-43"/>
     <use x="1630.421875" xlink:href="#BitstreamVeraSans-Roman-68"/>
     <use x="1693.80078125" xlink:href="#BitstreamVeraSans-Roman-61"/>
     <use x="1755.08007812" xlink:href="#BitstreamVeraSans-Roman-6e"/>
     <use x="1818.45898438" xlink:href="#BitstreamVeraSans-Roman-6e"/>
     <use x="1881.83789062" xlink:href="#BitstreamVeraSans-Roman-65"/>
     <use x="1943.36132812" xlink:href="#BitstreamVeraSans-Roman-6c"/>
     <use x="1971.14453125" xlink:href="#BitstreamVeraSans-Roman-73"/>
     <use x="2023.24414062" xlink:href="#BitstreamVeraSans-Roman-20"/>
     <use x="2055.03125" xlink:href="#BitstreamVeraSans-Roman-28"/>
     <use x="2094.04492188" xlink:href="#BitstreamVeraSans-Roman-31"/>
     <use x="2157.66796875" xlink:href="#BitstreamVeraSans-Roman-30"/>
     <use x="2221.29101562" xlink:href="#BitstreamVeraSans-Roman-20"/>
     <use x="2253.078125" xlink:href="#BitstreamVeraSans-Roman-73"/>
     <use x="2305.17773438" xlink:href="#BitstreamVeraSans-Roman-65"/>
     <use x="2366.70117188" xlink:href="#BitstreamVeraSans-Roman-63"/>
     <use x="2421.68164062" xlink:href="#BitstreamVeraSans-Roman-6f"/>
     <use x="2482.86328125" xlink:href="#BitstreamVeraSans-Roman-6e"/>
     <use x="2546.2421875" xlink:href="#BitstreamVeraSans-Roman-64"/>
     <use x="2609.71875" xlink:href="#BitstreamVeraSans-Roman-20"/>
     <use x="2641.50585938" xlink:href="#BitstreamVeraSans-Roman-69"/>
     <use x="2669.2890625" xlink:href="#BitstreamVeraSans-Roman-6e"/>
     <use x="2732.66796875" xlink:href="#BitstreamVeraSans-Roman-74"/>
     <use x="2771.87695312" xlink:href="#BitstreamVeraSans-Roman-65"/>
     <use x="2833.40039062" xlink:href="#BitstreamVeraSans-Roman-72"/>
     <use x="2874.51367188" xlink:href="#BitstreamVeraSans-Roman-76"/>
     <use x="2933.69335938" xlink:href="#BitstreamVeraSans-Roman-61"/>
     <use x="2994.97265625" xlink:href="#BitstreamVeraSans-Roman-6c"/>
     <use x="3022.75585938" xlink:href="#BitstreamVeraSans-Roman-73"/>
     <use x="3074.85546875" xlink:href="#BitstreamVeraSans-Roman-29"/>
    </g>
   </g>
  </g>
 </g>
 <defs>
  <clipPath id="p87f67e6768">
   <rect height="345.6" width="446.4" x="72.0" y="43.2"/>
  </clipPath>
 </defs>
</svg>
